<?xml version="1.0" encoding="utf-8"?>
<!-- Generator: Adobe Illustrator 16.0.0, SVG Export Plug-In . SVG Version: 6.00 Build 0)  -->
<!DOCTYPE svg PUBLIC "-//W3C//DTD SVG 1.1//EN" "http://www.w3.org/Graphics/SVG/1.1/DTD/svg11.dtd">
<svg version="1.1" id="Layer_1" xmlns="http://www.w3.org/2000/svg" xmlns:xlink="http://www.w3.org/1999/xlink" x="0px" y="0px"
	 width="90px" height="101.25px" viewBox="1066 1208.054 90 101.25" enable-background="new 1066 1208.054 90 101.25"
	 xml:space="preserve">
<path fill="#A9B9CB" d="M1155.995,1237.822c0-1.703-0.364-3.207-1.1-4.498c-0.723-1.27-1.805-2.333-3.257-3.175
	c-11.981-6.915-23.975-13.81-35.951-20.731c-3.229-1.866-6.36-1.798-9.566,0.095c-4.769,2.815-28.646,16.508-35.76,20.633
	c-2.93,1.698-4.356,4.296-4.357,7.674c-0.004,13.907,0,27.813-0.004,41.721c0.001,1.665,0.349,3.141,1.052,4.412
	c0.723,1.309,1.82,2.401,3.305,3.262c7.115,4.125,30.995,17.816,35.763,20.633c3.207,1.895,6.338,1.962,9.568,0.095
	c11.978-6.923,23.972-13.816,35.954-20.731c1.485-0.86,2.583-1.954,3.306-3.261c0.702-1.272,1.051-2.747,1.052-4.413
	C1156,1279.535,1156,1251.729,1155.995,1237.822"/>
<path fill="#7F8B99" d="M1115.605,1209.507c-3.224-1.861-6.349-1.793-9.549,0.095c-4.761,2.808-28.599,16.465-35.702,20.58
	c-2.925,1.693-4.349,4.285-4.35,7.654c-0.004,13.871,0,27.742-0.004,41.613c0.001,1.66,0.349,3.132,1.05,4.4
	c0.722,1.305,1.817,2.396,3.3,3.253c2.361,1.365,4.723,2.727,7.087,4.086l65.774-65.775
	C1134.009,1220.113,1124.803,1214.818,1115.605,1209.507"/>
<path fill="#FFFFFF" d="M1120.301,1252.34l14.006,0.099c0-5.835-5.906-20.126-22.842-20.126c-10.79,0-25.295,6.86-25.295,26.582
	s14.22,26.152,25.295,26.152c17.936,0,22.223-12.41,22.223-19.424l-13.362-0.765c0,0,0.357,8.112-8.932,8.112
	c-8.575,0-10.006-10.504-10.006-14.076c0-5.431,1.932-14.148,10.006-14.148S1120.301,1252.34,1120.301,1252.34"/>
</svg>
