<?xml version="1.0" encoding="utf-8"?>
<!-- Generator: Adobe Illustrator 16.0.0, SVG Export Plug-In . SVG Version: 6.00 Build 0)  -->
<!DOCTYPE svg PUBLIC "-//W3C//DTD SVG 1.1//EN" "http://www.w3.org/Graphics/SVG/1.1/DTD/svg11.dtd">
<svg version="1.1" id="Layer_1" xmlns="http://www.w3.org/2000/svg" xmlns:xlink="http://www.w3.org/1999/xlink" x="0px" y="0px"
	 width="90px" height="101.152px" viewBox="1064.186 1198.378 90 101.152" enable-background="new 1064.186 1198.378 90 101.152"
	 xml:space="preserve">
<path fill="#5C8DBC" d="M1154.182,1228.117c-0.001-1.701-0.364-3.204-1.101-4.494c-0.723-1.269-1.805-2.332-3.256-3.172
	c-11.981-6.908-23.975-13.796-35.952-20.711c-3.229-1.864-6.36-1.796-9.565,0.095c-4.769,2.813-28.646,16.492-35.76,20.613
	c-2.93,1.696-4.356,4.292-4.357,7.667c-0.004,13.894,0,27.787-0.004,41.681c0,1.663,0.349,3.137,1.052,4.407
	c0.723,1.307,1.82,2.399,3.305,3.259c7.115,4.121,30.995,17.8,35.763,20.613c3.207,1.892,6.337,1.959,9.567,0.094
	c11.978-6.916,23.972-13.803,35.955-20.711c1.485-0.859,2.582-1.952,3.305-3.258c0.702-1.271,1.052-2.744,1.052-4.408
	C1154.186,1269.791,1154.186,1242.011,1154.182,1228.117"/>
<path fill="#1A4674" d="M1109.324,1248.819l-44.085,25.383c0.723,1.307,1.82,2.399,3.305,3.259
	c7.115,4.121,30.995,17.8,35.763,20.613c3.207,1.892,6.337,1.959,9.567,0.094c11.978-6.916,23.972-13.803,35.955-20.711
	c1.485-0.859,2.582-1.952,3.305-3.258L1109.324,1248.819"/>
<path fill="#1A4674" d="M1096.266,1256.338c2.565,4.479,7.388,7.499,12.92,7.499c5.566,0,10.417-3.06,12.968-7.586l-12.831-7.432
	L1096.266,1256.338"/>
<path fill="#1B598E" d="M1154.182,1228.117c-0.001-1.701-0.364-3.204-1.101-4.494l-43.757,25.195l43.81,25.38
	c0.702-1.271,1.052-2.744,1.052-4.408C1154.186,1269.791,1154.186,1242.011,1154.182,1228.117"/>
<path fill="#FFFFFF" d="M1151.772,1250.633h-3.424v3.425h-3.424v-3.425h-3.423v-3.423h3.423v-3.423h3.424v3.423h3.424V1250.633
	 M1139.28,1250.633h-3.423v3.425h-3.424v-3.425h-3.424v-3.423h3.424v-3.423h3.424v3.423h3.423V1250.633"/>
<path fill="#FFFFFF" d="M1122.154,1256.251c-2.552,4.526-7.402,7.586-12.968,7.586c-5.532,0-10.354-3.021-12.92-7.499
	c-1.289-2.247-1.965-4.793-1.963-7.384c0-8.219,6.664-14.882,14.883-14.882c5.497,0,10.293,2.983,12.872,7.416l13.009-7.491
	c-5.171-8.925-14.824-14.93-25.88-14.93c-16.507,0-29.888,13.381-29.888,29.887c0,5.415,1.441,10.493,3.958,14.874
	c5.157,8.972,14.838,15.014,25.929,15.014c11.112,0,20.807-6.066,25.958-15.064L1122.154,1256.251"/>
</svg>
