<?xml version="1.0" encoding="utf-8"?>
<!-- Generator: Adobe Illustrator 16.0.0, SVG Export Plug-In . SVG Version: 6.00 Build 0)  -->
<!DOCTYPE svg PUBLIC "-//W3C//DTD SVG 1.1//EN" "http://www.w3.org/Graphics/SVG/1.1/DTD/svg11.dtd">
<svg version="1.1"
	 id="svg3070" sodipodi:docname="New document 4" inkscape:version="0.48.0 r9654" xmlns:dc="http://purl.org/dc/elements/1.1/" xmlns:cc="http://creativecommons.org/ns#" xmlns:svg="http://www.w3.org/2000/svg" xmlns:rdf="http://www.w3.org/1999/02/22-rdf-syntax-ns#" xmlns:inkscape="http://www.inkscape.org/namespaces/inkscape" xmlns:sodipodi="http://sodipodi.sourceforge.net/DTD/sodipodi-0.dtd"
	 xmlns="http://www.w3.org/2000/svg" xmlns:xlink="http://www.w3.org/1999/xlink" x="0px" y="0px" width="291px" height="79.46px"
	 viewBox="0 0 291 79.46" enable-background="new 0 0 291 79.46" xml:space="preserve">
<sodipodi:namedview  id="base" inkscape:document-units="px" fit-margin-right="0" inkscape:pageshadow="2" inkscape:window-x="-8" inkscape:window-height="750" inkscape:window-maximized="1" inkscape:window-y="-8" inkscape:pageopacity="0.0" inkscape:window-width="1280" inkscape:current-layer="layer1" fit-margin-bottom="0" pagecolor="#ffffff" showgrid="false" borderopacity="1.0" inkscape:cx="142.93233" inkscape:cy="33.703355" inkscape:zoom="2.8" fit-margin-top="0" fit-margin-left="0" bordercolor="#666666">
	</sodipodi:namedview>
<path fill-rule="evenodd" clip-rule="evenodd" fill="#FFFFFF" d="M44.609,57.497c1.773-0.364,3.372-0.615,4.929-1.026
	c6.709-1.771,10.633-6.104,11.733-12.963c0.822-5.124,0.42-9.983-3.045-14.209c-0.27-0.329-0.277-1.038-0.151-1.502
	c0.713-2.63,0.443-5.188-0.273-7.772c-0.3-1.082-0.924-1.507-1.851-1.165c-2.537,0.935-5.075,1.9-7.512,3.065
	c-0.967,0.461-1.754,0.732-2.821,0.476c-5.195-1.247-10.426-1.243-15.625-0.067c-1.298,0.294-2.241-0.011-3.378-0.574
	c-2.244-1.113-4.598-2.016-6.954-2.877c-1.197-0.438-1.924,0.123-2.245,1.435c-0.598,2.449-0.884,4.896-0.162,7.333
	c0.27,0.91,0.097,1.493-0.481,2.165c-5.293,6.146-3.393,19.415,2.87,23.796c2.771,1.937,5.832,2.949,9.093,3.531
	c0.595,0.105,1.19,0.205,1.61,0.275c-0.614,1.543-1.198,3.075-1.846,4.58c-0.138,0.319-0.462,0.646-0.781,0.787
	c-3.83,1.701-7.783,0.51-10.044-3.075c-1.114-1.766-2.454-3.226-4.482-3.883c-1.04-0.338-2.129-0.605-3.71,0.766
	c0.686,0.382,1.382,0.584,1.804,1.039c1.353,1.46,3.099,2.814,3.803,4.566c2.192,5.45,7.035,6.358,11.574,5.782
	c0.487-0.063,0.972-0.149,1.627-0.252c0,2.552,0.096,4.967-0.037,7.369c-0.074,1.33-1.329,1.796-2.969,1.249
	c-4.02-1.342-7.672-3.38-10.98-6.013C-2.411,57.026-4.915,32.531,9.113,16.438C19.124,4.951,32.029,0.773,46.767,4.447
	C61.45,8.105,70.792,17.844,74.308,32.6c4.357,18.287-5.923,36.994-23.503,43.487c-0.472,0.175-0.949,0.372-1.44,0.446
	c-1.578,0.241-2.333-0.44-2.343-2.117c-0.018-3.138-0.025-6.274,0-9.412C47.044,62.305,46.573,59.772,44.609,57.497z"/>
<path fill-rule="evenodd" clip-rule="evenodd" fill="#FFFFFF" d="M121.538,53.54c0-3.088,0-5.856,0-8.827
	c-1.668,0-3.272-0.033-4.874,0.014c-0.917,0.027-1.264-0.32-1.243-1.241c0.043-1.973,0.047-3.947-0.001-5.918
	c-0.023-0.96,0.428-1.231,1.282-1.229c4.353,0.01,8.705,0.019,13.057-0.008c0.97-0.005,1.351,0.369,1.348,1.344
	c-0.021,6.831-0.027,13.663,0.008,20.495c0.006,1.063-0.578,1.523-1.385,1.93c-4.223,2.114-8.706,2.833-13.389,2.594
	c-3.523-0.18-6.936-0.776-10.038-2.553c-4.539-2.599-6.854-6.741-7.88-11.694c-1.356-6.548-1.229-13.081,0.667-19.508
	c2.223-7.528,7.738-11.816,15.563-12.184c4.357-0.206,8.704-0.122,12.883,1.389c1.883,0.682,1.943,0.813,1.483,2.744
	c-0.375,1.574-0.795,3.139-1.099,4.726c-0.217,1.129-0.685,1.209-1.787,1.048c-3.129-0.457-6.317-1.061-9.44-0.879
	c-5.07,0.294-7.746,2.879-8.841,7.868c-1.035,4.716-1.042,9.452,0.49,14.081c1.35,4.079,4.164,6.058,8.437,6.052
	C118.331,53.782,119.883,53.629,121.538,53.54z"/>
<path fill-rule="evenodd" clip-rule="evenodd" fill="#FFFFFF" d="M209.705,43.221c-4.245,0-8.274,0-12.476,0
	c0,0.608,0,1.149,0,1.688c0,5.162-0.023,10.323,0.019,15.484c0.009,1.116-0.388,1.562-1.493,1.542
	c-2.124-0.036-4.252-0.064-6.374,0.011c-1.284,0.045-1.68-0.483-1.658-1.702c0.054-2.884,0.017-5.769,0.017-8.652
	c0-10.475,0.026-20.948-0.027-31.422c-0.008-1.471,0.45-1.964,1.912-1.883c1.968,0.111,3.95,0.099,5.918,0.003
	c1.373-0.067,1.729,0.482,1.71,1.773c-0.063,4.25-0.022,8.5-0.022,12.751c0,0.543,0,1.086,0,1.713c4.197,0,8.22,0,12.401,0
	c0.026-0.57,0.071-1.106,0.071-1.643c0.006-4.3,0.039-8.602-0.021-12.903c-0.016-1.216,0.305-1.741,1.61-1.69
	c2.172,0.086,4.35,0.049,6.526,0.013c0.961-0.016,1.348,0.329,1.346,1.329c-0.021,13.662-0.021,27.324-0.001,40.986
	c0.001,1.025-0.483,1.318-1.396,1.311c-2.175-0.018-4.352-0.045-6.525,0.012c-1.183,0.031-1.571-0.408-1.56-1.598
	c0.055-5.11,0.023-10.222,0.023-15.332C209.705,44.462,209.705,43.915,209.705,43.221z"/>
<path fill-rule="evenodd" clip-rule="evenodd" fill="#FFFFFF" d="M271.943,33.189c3.034-1.554,5.925-2.122,8.973-1.886
	c4.128,0.319,7.147,2.326,8.533,6.224c2.25,6.33,1.932,12.76-0.184,19.044c-1.359,4.04-4.536,5.873-8.74,6.066
	c-3.841,0.179-7.438-0.518-10.863-3.031c0.174,2.314-1.155,2.45-2.711,2.329c-0.804-0.063-1.619-0.008-2.428-0.012
	c-2.001-0.006-2.067-0.065-2.068-2.025c-0.003-8.653-0.001-17.306-0.001-25.958c0-4.655,0.03-9.31-0.021-13.965
	c-0.015-1.234,0.365-1.733,1.65-1.684c2.122,0.08,4.251,0.072,6.373,0.002c1.129-0.038,1.516,0.363,1.503,1.482
	c-0.045,3.846-0.018,7.691-0.017,11.536C271.943,31.855,271.943,32.397,271.943,33.189z M281.707,46.79
	c-0.261-1.502-0.401-3.282-0.903-4.955c-0.62-2.068-2.296-3.086-4.456-2.854c-1.19,0.128-2.351,0.548-3.518,0.862
	c-0.791,0.212-1.067,0.72-1.053,1.571c0.055,3.037,0.021,6.074,0.021,9.111c0,3.588,0.497,4.123,4.147,4.439
	c0.451,0.04,0.911,0.048,1.362,0.021c2.106-0.124,3.19-0.905,3.665-2.969C281.343,50.402,281.445,48.725,281.707,46.79z"/>
<path fill-rule="evenodd" clip-rule="evenodd" fill="#FFFFFF" d="M247.672,60.448c-2.846,0.745-5.673,1.635-8.563,2.177
	c-1.446,0.271-3.038,0.064-4.516-0.197c-4.754-0.84-7.303-3.54-7.433-8.342c-0.188-6.928-0.065-13.862-0.1-20.794
	c-0.005-0.891,0.411-1.123,1.21-1.115c2.275,0.024,4.555,0.057,6.83-0.012c1.177-0.036,1.439,0.46,1.432,1.536
	c-0.039,5.565-0.022,11.131-0.017,16.696c0.005,4.077,1.649,5.336,5.666,4.35c2.726-0.669,2.854-0.831,2.854-3.629
	c0-5.769,0.033-11.537-0.025-17.304c-0.013-1.26,0.37-1.698,1.634-1.652c2.174,0.083,4.352,0.045,6.527,0.015
	c0.886-0.013,1.276,0.295,1.274,1.23c-0.02,9.057-0.021,18.115,0.001,27.17c0.002,0.988-0.392,1.38-1.349,1.354
	c-1.01-0.028-2.029-0.078-3.033,0.013C248.64,62.072,247.659,61.733,247.672,60.448z"/>
<path fill-rule="evenodd" clip-rule="evenodd" fill="#FFFFFF" d="M162.839,40.056c-1.338,0-2.449-0.024-3.56,0.006
	c-0.977,0.026-1.354-0.397-1.314-1.375c0.056-1.363-0.063-2.738,0.061-4.094c0.038-0.437,0.521-1.044,0.94-1.196
	c1.18-0.43,2.432-0.663,3.806-1.012c0-2.781,0-5.594,0-8.706c1.837,0,3.531-0.034,5.223,0.01c1.343,0.035,3.11-0.313,3.893,0.391
	c0.68,0.611,0.264,2.462,0.291,3.766c0.028,1.363,0.006,2.726,0.006,4.336c1.584,0,3.079-0.001,4.576,0
	c2.105,0.001,2.105,0.001,2.106,2.169c0,0.81,0.005,1.62-0.001,2.429c-0.032,3.697,0.454,3.248-3.357,3.274
	c-1.051,0.007-2.1,0.002-3.284,0.002c0,4.235-0.094,8.322,0.083,12.396c0.033,0.762,1.035,1.641,1.799,2.157
	c0.559,0.379,1.458,0.328,2.207,0.337c2.653,0.031,2.653,0.01,2.653,2.623c0,0.354,0.008,0.709,0,1.063
	c-0.077,3.492,0.735,3.241-3.406,3.836c-1.957,0.282-4.064,0.107-6.018-0.286c-3.713-0.75-5.916-3.203-6.406-6.961
	c-0.274-2.096-0.254-4.234-0.286-6.354C162.806,45.995,162.839,43.121,162.839,40.056z"/>
<g>
	<path fill-rule="evenodd" clip-rule="evenodd" fill="#FFFFFF" d="M150.068,47.109c0,4.299-0.035,8.599,0.021,12.896
		c0.019,1.36-0.412,1.91-1.834,1.841c-2.068-0.102-4.146-0.053-6.219-0.018c-1.028,0.018-1.464-0.408-1.463-1.436
		c0.013-9.002,0.013-18.005,0.001-27.007c-0.001-0.918,0.395-1.231,1.292-1.215c2.225,0.042,4.454,0.082,6.674-0.013
		c1.264-0.054,1.551,0.476,1.543,1.599C150.047,38.207,150.068,42.658,150.068,47.109z"/>
	<path fill-rule="evenodd" clip-rule="evenodd" fill="#FFFFFF" d="M150.579,24.624c-0.023,2.937-2.269,5.194-5.17,5.198
		c-2.924,0.004-5.253-2.376-5.221-5.335c0.033-2.875,2.36-5.212,5.209-5.232C148.285,19.236,150.603,21.636,150.579,24.624z"/>
</g>
</svg>
