<?xml version="1.0" encoding="utf-8"?>
<!-- Generator: Adobe Illustrator 16.0.0, SVG Export Plug-In . SVG Version: 6.00 Build 0)  -->
<!DOCTYPE svg PUBLIC "-//W3C//DTD SVG 1.1//EN" "http://www.w3.org/Graphics/SVG/1.1/DTD/svg11.dtd">
<svg version="1.1" id="Layer_1" xmlns="http://www.w3.org/2000/svg" xmlns:xlink="http://www.w3.org/1999/xlink" x="0px" y="0px"
	 width="28px" height="28px" viewBox="242 242 28 28" enable-background="new 242 242 28 28" xml:space="preserve">
<path fill="#FFFFFF" d="M256,242c-7.731,0-14,6.431-14,14.356c0,6.344,4.013,11.719,9.575,13.618
	c0.087,0.02,0.162,0.025,0.237,0.025c0.519,0,0.719-0.381,0.719-0.713c0-0.344-0.013-1.243-0.019-2.443
	c-0.525,0.119-0.994,0.169-1.413,0.169c-2.694,0-3.306-2.094-3.306-2.094c-0.638-1.656-1.557-2.101-1.557-2.101
	c-1.219-0.855-0.006-0.881,0.088-0.881c0.006,0,0.006,0,0.006,0c1.406,0.125,2.144,1.487,2.144,1.487
	c0.7,1.226,1.637,1.569,2.475,1.569c0.656,0,1.25-0.213,1.6-0.375c0.125-0.926,0.488-1.557,0.888-1.919
	c-3.106-0.362-6.375-1.594-6.375-7.094c0-1.569,0.544-2.85,1.438-3.85c-0.144-0.363-0.625-1.825,0.138-3.8
	c0,0,0.1-0.031,0.313-0.031c0.506,0,1.65,0.194,3.537,1.506c1.119-0.319,2.313-0.475,3.506-0.481
	c1.188,0.006,2.387,0.162,3.506,0.481c1.888-1.313,3.031-1.506,3.537-1.506c0.213,0,0.313,0.031,0.313,0.031
	c0.763,1.975,0.281,3.438,0.138,3.8c0.894,1.006,1.438,2.288,1.438,3.85c0,5.513-3.274,6.725-6.394,7.081
	c0.5,0.443,0.95,1.318,0.95,2.656c0,1.919-0.019,3.469-0.019,3.938c0,0.338,0.193,0.719,0.712,0.719c0.075,0,0.163-0.006,0.25-0.025
	c5.569-1.899,9.575-7.281,9.575-13.618C270,248.431,263.731,242,256,242z M251.1,268.006c0.137,0,0.275-0.006,0.418-0.012
	c0,0.175,0,0.344,0.006,0.493c0,0.15,0,0.288,0.006,0.406c-0.975-0.362-1.894-0.844-2.756-1.438
	C249.388,267.787,250.156,268.006,251.1,268.006z M251.813,263.45c-0.05,0.138-0.094,0.281-0.131,0.431
	c-0.212,0.063-0.469,0.113-0.731,0.113c-0.682,0-1.188-0.338-1.6-1.057c-0.15-0.287-0.425-0.669-0.806-1.019
	C249.594,262.8,250.813,263.225,251.813,263.45z M263.688,267.131c-0.987,0.744-2.063,1.332-3.188,1.763c0-0.118,0-0.256,0-0.406
	c0-0.743,0-1.862,0-3.149c0-0.775-0.131-1.406-0.313-1.906c2.325-0.52,5.75-2.106,5.75-7.838c0-1.538-0.443-2.906-1.325-4.069
	c0.194-0.806,0.344-2.225-0.318-3.938l-0.169-0.444l-0.45-0.15c-0.094-0.031-0.3-0.081-0.625-0.081
	c-0.719,0-1.931,0.256-3.719,1.425c-1.063-0.262-2.175-0.4-3.318-0.4H256h-0.006c-1.144,0-2.262,0.138-3.319,0.4
	c-1.787-1.168-3-1.425-3.719-1.425c-0.325,0-0.531,0.056-0.625,0.087l-0.45,0.15l-0.169,0.444c-0.663,1.719-0.512,3.138-0.319,3.938
	c-0.881,1.169-1.325,2.538-1.325,4.069c0,3.1,1,4.994,2.288,6.156c-0.506-0.412-1.163-0.756-1.95-0.813h-0.031h-0.031h-0.019
	c-0.819,0-1.394,0.338-1.575,0.919c-0.294,0.925,0.612,1.563,0.913,1.775l0.031,0.037l0.094,0.038
	c0.1,0.063,0.631,0.438,1.056,1.531c0.125,0.387,0.394,0.906,0.85,1.387c-0.819-0.699-1.55-1.5-2.181-2.381
	c-1.644-2.3-2.513-5.031-2.513-7.894c0-1.807,0.344-3.557,1.025-5.207c0.656-1.594,1.594-3.019,2.794-4.244
	c1.194-1.225,2.587-2.188,4.131-2.856c1.6-0.693,3.3-1.05,5.05-1.05s3.45,0.35,5.05,1.044c1.55,0.668,2.938,1.631,4.132,2.856
	c1.193,1.225,2.137,2.656,2.793,4.244c0.682,1.65,1.025,3.4,1.025,5.207c0,2.863-0.862,5.593-2.506,7.894
	C265.706,265.35,264.763,266.318,263.688,267.131z"/>
</svg>
