<?xml version="1.0" encoding="utf-8"?>
<!-- Generator: Adobe Illustrator 16.0.0, SVG Export Plug-In . SVG Version: 6.00 Build 0)  -->
<!DOCTYPE svg PUBLIC "-//W3C//DTD SVG 1.1//EN" "http://www.w3.org/Graphics/SVG/1.1/DTD/svg11.dtd">
<svg version="1.1" id="Layer_1" xmlns="http://www.w3.org/2000/svg" xmlns:xlink="http://www.w3.org/1999/xlink" x="0px" y="0px"
	 width="90px" height="127.012px" viewBox="423 548.494 90 127.012" enable-background="new 423 548.494 90 127.012"
	 xml:space="preserve">
<title>HTML5 Logo</title>
<path d="M431.385,548.494h5.706v5.656h5.259v-5.656h5.706v17.117h-5.706v-5.706h-5.209v5.706h-5.755 M455.597,554.2h-5.036v-5.706
	h15.802v5.706h-5.061v11.411h-5.706 M468.868,548.494h5.979l3.672,6.028l3.671-6.028h5.979v17.117h-5.705v-8.484l-3.994,6.152
	l-3.994-6.152v8.484h-5.606 M490.996,548.494h5.706v11.461h8.087v5.656h-13.793"/>
<path fill="#E44D26" d="M431.187,665.335L423,573.45h90l-8.187,91.835l-36.888,10.221"/>
<path fill="#F16529" d="M468,667.691v-86.7h36.789l-7.021,78.391"/>
<path fill="#EBEBEB" d="M439.72,592.229H468v11.262h-15.926l1.042,11.535H468v11.237h-25.204 M443.292,631.92h11.312l0.794,9.005
	L468,644.299v11.759l-23.12-6.45"/>
<path fill="#FFFFFF" d="M496.181,592.229h-28.23v11.262h27.188 M494.122,615.026H467.95v11.263h13.893l-1.315,14.636l-12.577,3.374
	v11.709l23.071-6.4"/>
</svg>
