<?xml version="1.0" encoding="utf-8"?>
<!-- Generator: Adobe Illustrator 16.0.0, SVG Export Plug-In . SVG Version: 6.00 Build 0)  -->
<!DOCTYPE svg PUBLIC "-//W3C//DTD SVG 1.1//EN" "http://www.w3.org/Graphics/SVG/1.1/DTD/svg11.dtd">
<svg version="1.1"
	 id="svg3059" xmlns:dc="http://purl.org/dc/elements/1.1/" xmlns:cc="http://creativecommons.org/ns#" xmlns:rdf="http://www.w3.org/1999/02/22-rdf-syntax-ns#" xmlns:svg="http://www.w3.org/2000/svg"
	 xmlns="http://www.w3.org/2000/svg" xmlns:xlink="http://www.w3.org/1999/xlink" x="0px" y="0px" width="90px" height="40.174px"
	 viewBox="435.531 194.418 90 40.174" enable-background="new 435.531 194.418 90 40.174" xml:space="preserve">
<g id="layer1" transform="translate(130.53125,-317.84375)">
	
		<linearGradient id="path19_1_" gradientUnits="userSpaceOnUse" x1="168.6147" y1="985.6172" x2="168.6147" y2="1025.3047" gradientTransform="matrix(1 0 0 1 181.7119 -473.1094)">
		<stop  offset="0.1497" style="stop-color:#2A4F84"/>
		<stop  offset="0.3884" style="stop-color:#294E82"/>
		<stop  offset="1" style="stop-color:#172E4E"/>
	</linearGradient>
	<path id="path19" fill="url(#path19_1_)" d="M390.151,544.54c0,4.211-3.444,7.655-7.654,7.655h-64.339
		c-4.21,0-7.655-3.444-7.655-7.655v-24.377c0-4.21,3.445-7.655,7.655-7.655h64.339c4.21,0,7.654,3.444,7.654,7.655V544.54z"/>
	<path id="path21" d="M376.692,531.831c3.363,1.176,5.044,3.192,5.044,6.044c0,1.877-0.697,3.367-2.088,4.469
		c-1.39,1.104-3.372,1.787-5.952,1.787s-4.967-0.747-7.165-1.975c0.023-0.65,0.196-1.364,0.512-2.14s0.689-1.392,1.118-1.841
		c2.02,1.05,3.778,1.575,5.271,1.575c0.705,0,1.25-0.118,1.63-0.356c0.381-0.237,0.57-0.556,0.57-0.957
		c0-0.752-0.583-1.315-1.745-1.69l-2.089-0.789c-3.158-1.151-4.737-3.026-4.737-5.632c0-1.902,0.663-3.41,1.99-4.526
		c1.327-1.114,3.115-2.073,5.364-2.073c1.112,0,2.337,0.156,3.678,0.469c1.339,0.313,2.438,1.085,3.298,1.51
		c0.051,0.702-0.09,1.472-0.417,2.31c-0.329,0.839-0.732,1.433-1.215,1.784c-2.124-0.952-3.892-1.428-5.308-1.428
		c-0.508,0-0.89,0.113-1.157,0.339c-0.266,0.226-0.396,0.513-0.396,0.864c0,0.601,0.479,1.076,1.44,1.427L376.692,531.831
		L376.692,531.831z"/>
	<path id="path23" d="M359.896,531.831c3.363,1.176,5.043,3.192,5.043,6.044c0,1.877-0.697,3.367-2.086,4.469
		c-1.391,1.104-3.374,1.787-5.953,1.787c-2.578,0-4.968-0.747-7.165-1.975c0.023-0.65,0.196-1.364,0.512-2.14
		c0.315-0.775,0.688-1.392,1.117-1.841c2.022,1.05,3.78,1.575,5.271,1.575c0.706,0,1.252-0.118,1.63-0.356
		c0.379-0.237,0.57-0.556,0.57-0.957c0-0.752-0.583-1.315-1.746-1.69l-2.086-0.789c-3.159-1.151-4.74-3.026-4.74-5.632
		c0-1.902,0.664-3.41,1.992-4.526c1.326-1.114,3.114-2.073,5.363-2.073c1.111,0,2.339,0.156,3.677,0.469
		c1.34,0.313,2.438,1.085,3.299,1.51c0.051,0.702-0.09,1.472-0.417,2.31c-0.328,0.839-0.732,1.433-1.214,1.784
		c-2.125-0.952-3.893-1.428-5.31-1.428c-0.507,0-0.891,0.113-1.157,0.339c-0.264,0.226-0.396,0.513-0.396,0.864
		c0,0.601,0.48,1.076,1.441,1.427L359.896,531.831L359.896,531.831z"/>
	<path id="path25" d="M347.648,532.096c0-1.151-0.183-2.215-0.549-3.192c-0.366-0.977-0.891-1.814-1.573-2.516
		c-0.683-0.701-1.51-1.251-2.483-1.652c-0.974-0.4-2.067-1.003-3.28-1.003c-1.441,0-2.699,0.652-3.772,1.153
		c-1.074,0.5-1.958,1.188-2.653,2.065c-0.696,0.877-1.214,1.909-1.555,3.099c-0.341,1.189-0.512,2.484-0.512,3.886
		c0,1.451,0.138,2.793,0.417,4.019c0.278,1.226,0.752,2.289,1.421,3.191c0.67,0.9,1.542,1.602,2.617,2.102s2.408,0.884,4,0.884
		c2.932,0,5.408-0.849,7.431-2.274c-0.2-1.45-0.717-2.604-1.547-3.455c-1.033,0.388-1.946,0.665-2.739,0.836
		c-0.793,0.169-1.492,0.254-2.096,0.254c-1.208,0-2.078-0.308-2.606-0.929c-0.527-0.619-0.816-1.351-0.868-2.463h9.857
		C347.484,535.046,347.648,533.623,347.648,532.096z M337.263,532.355c0.075-1.277,0.308-2.645,0.696-3.208
		c0.389-0.564,0.983-0.845,1.787-0.845c0.827,0,1.448,0.299,1.861,0.9c0.414,0.601,0.621,1.812,0.621,2.738l0,0.415H337.263
		L337.263,532.355L337.263,532.355z"/>
	<g>
		<path id="path27_1_" d="M392.137,534.854c-1.072,0.937-1.693,2.283-1.693,4.045v6.559c0,2.18-0.671,3.838-2.185,4.979
			c-1.513,1.138-3.275,1.702-5.288,1.756l-1.193-0.009v-3.268c1.052-0.308,1.483-0.664,1.902-1.069
			c0.758-0.685,1.339-1.8,1.339-3.348v-5.295c0.028-1.8,0.167-3.21,0.822-4.229c0.657-1.019,1.938-1.909,3.84-2.679
			c-2.102-0.962-3.513-2.218-4.231-3.768c-0.424-0.92-0.432-2.163-0.432-3.725v-4.856c0-1.604-0.525-2.728-1.171-3.369
			c-0.42-0.418-0.908-0.753-2.07-1.005v-3.068c1.421,0.015,2.14-0.001,2.967,0c1.275-0.01,2.343,0.687,3.272,1.413
			c1.012,0.796,1.73,1.872,2.152,3.227c0.24,0.783,0.274,1.53,0.274,2.242v5.616c0,1.984,0.586,3.458,1.587,4.421
			c0.564,0.559,1.361,1.069,2.729,1.53v2.537C393.547,533.826,392.785,534.28,392.137,534.854L392.137,534.854z"/>
		<path fill="#404040" d="M382.973,552.433h-0.004l-1.432-0.011v-3.688l0.173-0.051c1.004-0.292,1.41-0.63,1.802-1.01
			c0.818-0.739,1.266-1.865,1.266-3.175v-5.295c0.03-1.914,0.185-3.309,0.86-4.359c0.63-0.976,1.764-1.816,3.457-2.563
			c-1.883-0.952-3.182-2.179-3.864-3.651c-0.454-0.987-0.454-2.303-0.454-3.826v-4.856c0-1.832-0.688-2.79-1.1-3.198
			c-0.409-0.408-0.879-0.708-1.952-0.94l-0.189-0.041v-3.506l0.243,0.002c0.936,0.01,1.565,0.006,2.122,0.003
			c0.255-0.001,0.495-0.003,0.741-0.003h0.103h0.027c1.338,0,2.466,0.74,3.393,1.464c1.049,0.825,1.801,1.95,2.234,3.345
			c0.25,0.817,0.285,1.595,0.285,2.314v5.616c0,1.827,0.523,3.295,1.514,4.247c0.613,0.607,1.451,1.076,2.639,1.476l0.164,0.055
			v2.894l-0.177,0.049c-1.064,0.294-1.819,0.687-2.527,1.311c-1.069,0.935-1.611,2.234-1.611,3.864v6.559
			c0,2.324-0.746,4.016-2.28,5.171c-1.517,1.142-3.343,1.749-5.428,1.805H382.973z M382.019,551.943l0.949,0.007
			c2.009-0.055,3.692-0.613,5.146-1.708c1.404-1.058,2.088-2.623,2.088-4.785v-6.559c0-1.775,0.597-3.197,1.775-4.227
			c0.715-0.631,1.504-1.056,2.54-1.362v-2.183c-1.174-0.413-2.021-0.901-2.657-1.531c-1.085-1.042-1.659-2.631-1.659-4.592v-5.616
			c0-0.682-0.032-1.416-0.264-2.171c-0.404-1.299-1.102-2.345-2.071-3.108c-0.904-0.707-1.906-1.361-3.095-1.361h-0.026h-0.104
			c-0.245,0-0.484,0.001-0.738,0.003c-0.51,0.003-1.079,0.006-1.886,0v2.632c1.057,0.253,1.555,0.583,2,1.027
			c0.463,0.46,1.241,1.533,1.241,3.54v4.856c0,1.467,0,2.733,0.409,3.624c0.69,1.488,2.074,2.716,4.113,3.649l0.509,0.233
			l-0.52,0.21c-1.849,0.747-3.103,1.617-3.728,2.586c-0.613,0.954-0.755,2.276-0.783,4.102v5.291c0,1.448-0.504,2.7-1.419,3.527
			c-0.394,0.382-0.837,0.755-1.822,1.068V551.943z"/>
	</g>
	<g>
		<path id="path29_1_" d="M316.733,512.508v0.004c-0.407-0.002-0.776-0.004-1.071-0.003c-1.275-0.011-2.343,0.686-3.271,1.413
			c-1.014,0.796-1.881,1.834-2.153,3.226c-0.155,0.816-0.122,1.53-0.122,2.242v5.616c0,1.983-0.738,3.457-1.739,4.421
			c-0.564,0.558-1.767,1.068-3.136,1.529v2.537c1.213,0.335,2.381,0.787,3.028,1.362c1.072,0.937,1.845,2.284,1.845,4.045v6.559
			c0,2.18,0.52,3.839,2.032,4.978c1.512,1.138,3.275,1.704,5.288,1.759l1.347-0.009v-3.271c-1.051-0.308-1.634-0.664-2.055-1.068
			c-0.757-0.686-1.186-1.8-1.186-3.347v-5.296c-0.029-1.801-0.319-3.21-0.976-4.229c-0.656-1.017-1.936-1.909-3.841-2.678
			c2.103-0.963,3.513-2.218,4.232-3.767c0.424-0.921,0.584-2.163,0.584-3.725v-4.856c0-1.604,0.373-2.728,1.017-3.369
			c0.35-0.349,0.973-0.635,1.837-0.868l1.367,0.01c0-1.177,0-1.914,0-3.215L316.733,512.508L316.733,512.508L316.733,512.508
			L316.733,512.508z"/>
		<path fill="#404040" d="M317.432,552.437h-0.004c-2.082-0.058-3.908-0.665-5.426-1.808c-1.472-1.107-2.128-2.702-2.128-5.17V538.9
			c0-1.921-0.958-3.161-1.763-3.863c-0.538-0.478-1.551-0.931-2.934-1.312L305,533.677v-2.894l0.164-0.055
			c1.587-0.535,2.583-1.016,3.043-1.472c0.762-0.734,1.667-2.065,1.667-4.25v-5.616c0-0.105-0.001-0.21-0.001-0.315
			c-0.004-0.616-0.009-1.253,0.128-1.972c0.25-1.281,0.983-2.383,2.24-3.371c0.925-0.724,2.052-1.464,3.391-1.464l0.032,0l0.165,0
			c0.228,0,0.489,0.001,0.771,0.002l0.002-0.003l0.13,0h3.27v3.699l-1.577-0.011c-0.82,0.223-1.391,0.491-1.698,0.797
			c-0.619,0.616-0.946,1.722-0.946,3.198v4.856c0,1.711-0.193,2.927-0.606,3.826c-0.684,1.472-1.982,2.699-3.865,3.651
			c1.675,0.739,2.836,1.6,3.458,2.562c0.651,1.013,0.983,2.438,1.014,4.356v5.3c0,1.438,0.373,2.503,1.107,3.168
			c0.459,0.44,1.063,0.753,1.961,1.016l0.173,0.051v3.69L317.432,552.437z M305.482,533.311c1.381,0.396,2.372,0.854,2.947,1.364
			c0.878,0.767,1.926,2.124,1.926,4.226v6.559c0,2.302,0.597,3.777,1.936,4.785c1.456,1.095,3.139,1.654,5.145,1.71l1.103-0.008
			v-2.852c-0.883-0.275-1.499-0.61-1.98-1.072c-0.835-0.756-1.261-1.942-1.261-3.521v-5.296c-0.029-1.822-0.336-3.165-0.937-4.099
			c-0.625-0.97-1.879-1.839-3.728-2.585l-0.52-0.209l0.509-0.233c2.039-0.934,3.422-2.161,4.113-3.649
			c0.383-0.833,0.562-1.985,0.562-3.624v-4.856c0-1.607,0.376-2.832,1.088-3.54c0.376-0.375,1.013-0.679,1.945-0.93l0.031-0.008
			l1.157,0.008v-2.731l-2.789,0.005c-0.333-0.002-0.64-0.003-0.902-0.003h-0.167h-0.031c-1.189,0-2.189,0.654-3.093,1.362
			c-1.163,0.913-1.838,1.921-2.064,3.083c-0.127,0.671-0.123,1.284-0.119,1.877c0,0.106,0.001,0.213,0.001,0.319v5.616
			c0,2.354-0.986,3.798-1.813,4.594c-0.501,0.497-1.478,0.985-3.062,1.528V533.311z"/>
	</g>
	<path id="path31" d="M329.337,539.116h-1.024c-1.113,0-1.532-0.586-1.532-1.761v-21.609c0-1.299-0.375-2.211-0.856-2.737
		c-0.48-0.524-1.314-0.519-2.502-0.519h-2.312l-0.272-0.005v0.022l-0.002,3.216V538.4c0,1.804,0.405,3.123,1.125,3.963
		c0.722,0.839,1.94,1.257,3.659,1.257c1.188,0,2.541-0.125,4.057-0.376c0.076-0.253,0.114-0.795,0.114-1.627
		C329.792,540.783,329.641,539.951,329.337,539.116L329.337,539.116z"/>
</g>
</svg>
