<?xml version="1.0" encoding="utf-8"?>
<!-- Generator: Adobe Illustrator 16.0.0, SVG Export Plug-In . SVG Version: 6.00 Build 0)  -->
<!DOCTYPE svg PUBLIC "-//W3C//DTD SVG 1.1//EN" "http://www.w3.org/Graphics/SVG/1.1/DTD/svg11.dtd">
<svg version="1.1" id="Layer_1" xmlns="http://www.w3.org/2000/svg" xmlns:xlink="http://www.w3.org/1999/xlink" x="0px" y="0px"
	 width="28px" height="28px" viewBox="241.95 241.95 28 28" enable-background="new 241.95 241.95 28 28" xml:space="preserve">
<g>
	<g>
		<path fill="#FFFFFF" d="M250.615,265.29v-12.479h-4.004v12.479H250.615L250.615,265.29z M248.763,250.921
			c1.334,0,2.166-0.956,2.166-2.152c-0.022-1.218-0.832-2.151-2.145-2.151c-1.313,0-2.166,0.934-2.166,2.151
			c0,1.196,0.832,2.152,2.115,2.152H248.763L248.763,250.921z"/>
		<path fill="#FFFFFF" d="M260.666,252.526c-2.123,0-3.034,1.196-3.618,2.028v-1.736h-4.011v12.472h4.011v-7.104
			c0-0.364,0.029-0.729,0.139-0.984c0.292-0.729,0.948-1.481,2.057-1.481c1.451,0,2.035,1.116,2.035,2.75v6.82h4.012v-7.287
			C265.29,254.262,263.306,252.526,260.666,252.526z"/>
	</g>
	<path fill="#FFFFFF" d="M267.711,241.95h-23.368c-1.276,0-2.393,0.919-2.393,2.181v23.42c0,1.269,1.116,2.399,2.393,2.399h23.361
		c1.283,0,2.246-1.138,2.246-2.399v-23.42C269.958,242.869,268.987,241.95,267.711,241.95z M267.478,267.623
		c-0.08,0-22.836,0-22.967,0s-0.226-0.102-0.226-0.226s0-22.887,0-22.967c0-0.081,0.073-0.146,0.146-0.146s22.975,0,23.047,0
		c0.073,0,0.146,0.073,0.146,0.146c0,1.699,0,22.967,0,23.047C267.624,267.543,267.558,267.623,267.478,267.623z"/>
</g>
</svg>
