<?xml version="1.0" encoding="utf-8"?>
<!-- Generator: Adobe Illustrator 16.0.0, SVG Export Plug-In . SVG Version: 6.00 Build 0)  -->
<!DOCTYPE svg PUBLIC "-//W3C//DTD SVG 1.1//EN" "http://www.w3.org/Graphics/SVG/1.1/DTD/svg11.dtd">
<svg version="1.1" id="Layer_1" xmlns="http://www.w3.org/2000/svg" xmlns:xlink="http://www.w3.org/1999/xlink" x="0px" y="0px"
	 width="90px" height="102.857px" viewBox="423 560.571 90 102.857" enable-background="new 423 560.571 90 102.857"
	 xml:space="preserve">
<path fill="#E2E5E7" d="M442.286,560.571c-3.536,0-6.429,2.893-6.429,6.429v90c0,3.536,2.893,6.429,6.429,6.429h64.286
	c3.536,0,6.429-2.893,6.429-6.429v-70.714l-25.714-25.714H442.286z"/>
<path fill="#B0B7BD" d="M493.714,586.286H513l-25.714-25.714v19.286C487.286,583.393,490.179,586.286,493.714,586.286z"/>
<polygon fill="#CAD1D8" points="513,605.571 493.714,586.286 513,586.286 "/>
<path fill="#F15642" d="M500.143,644.143c0,1.769-1.446,3.215-3.214,3.215h-70.714c-1.768,0-3.214-1.446-3.214-3.215V612
	c0-1.768,1.446-3.214,3.214-3.214h70.714c1.768,0,3.214,1.446,3.214,3.214V644.143z"/>
<g>
	<path fill="#FFFFFF" d="M437.011,621.473c0-0.849,0.668-1.774,1.745-1.774h5.937c3.343,0,6.351,2.237,6.351,6.525
		c0,4.063-3.008,6.325-6.351,6.325h-4.291v3.395c0,1.131-0.72,1.771-1.646,1.771c-0.849,0-1.745-0.64-1.745-1.771V621.473z
		 M440.402,622.936v6.402h4.291c1.723,0,3.085-1.521,3.085-3.114c0-1.797-1.363-3.288-3.085-3.288H440.402z"/>
	<path fill="#FFFFFF" d="M456.078,637.714c-0.849,0-1.774-0.462-1.774-1.591v-14.6c0-0.922,0.926-1.594,1.774-1.594h5.885
		c11.746,0,11.488,17.784,0.231,17.784H456.078z M457.698,623.066v11.514h4.265c6.94,0,7.249-11.514,0-11.514H457.698
		L457.698,623.066z"/>
	<path fill="#FFFFFF" d="M477.617,623.272v4.085h6.554c0.926,0,1.852,0.926,1.852,1.823c0,0.849-0.926,1.542-1.852,1.542h-6.554
		v5.397c0,0.899-0.64,1.591-1.54,1.591c-1.131,0-1.822-0.691-1.822-1.591v-14.6c0-0.922,0.694-1.594,1.822-1.594h9.022
		c1.132,0,1.801,0.672,1.801,1.594c0,0.823-0.669,1.749-1.801,1.749h-7.482V623.272z"/>
</g>
<path fill="#CAD1D8" d="M496.929,647.357h-61.072v3.214h61.072c1.768,0,3.214-1.446,3.214-3.214v-3.215
	C500.143,645.911,498.696,647.357,496.929,647.357z"/>
</svg>
