<?xml version="1.0" encoding="utf-8"?>
<!-- Generator: Adobe Illustrator 16.0.0, SVG Export Plug-In . SVG Version: 6.00 Build 0)  -->
<!DOCTYPE svg PUBLIC "-//W3C//DTD SVG 1.1//EN" "http://www.w3.org/Graphics/SVG/1.1/DTD/svg11.dtd">
<svg version="1.1" id="svg" xmlns="http://www.w3.org/2000/svg" xmlns:xlink="http://www.w3.org/1999/xlink" x="0px" y="0px"
	 width="90px" height="86.941px" viewBox="2.657 13.271 90 86.941" enable-background="new 2.657 13.271 90 86.941"
	 xml:space="preserve">
<path id="path0" fill="#F7F9F9" d="M81.086,92.729c0,3.792,0.011,5.33,0.025,3.417s0.014-5.015,0-6.894
	C81.098,87.372,81.086,88.937,81.086,92.729 M85.216,92.729c0,4.505,0.031,6.849,0.091,6.849s0.09-2.344,0.09-6.849
	c0-4.505-0.031-6.848-0.09-6.848S85.216,88.223,85.216,92.729 M15.461,86.49c0,0.039,0.123,0.187,0.272,0.328
	c0.15,0.141,0.272,0.234,0.272,0.207c0-0.028-0.123-0.175-0.272-0.329C15.584,86.543,15.461,86.45,15.461,86.49 M16.822,90.099
	c0,0.332,0.04,0.588,0.091,0.588c0.051,0,0.091-0.257,0.091-0.588c0-0.333-0.04-0.59-0.091-0.59
	C16.861,89.508,16.822,89.765,16.822,90.099 M69.342,89.813c0,0.08,0.564,0.612,0.606,0.571c0.026-0.025-0.081-0.172-0.238-0.325
	C69.449,89.803,69.342,89.73,69.342,89.813 M19.967,89.932c-0.11,0.109-0.063,0.206,0.076,0.153
	c0.074-0.029,0.136-0.088,0.136-0.133C20.178,89.857,20.053,89.845,19.967,89.932 M73.666,89.932
	c-0.11,0.109-0.063,0.206,0.076,0.153c0.075-0.029,0.136-0.088,0.136-0.133C73.877,89.857,73.752,89.845,73.666,89.932
	 M77.708,89.979c0.045,0.136,0.252,0.211,0.252,0.091c0-0.048-0.065-0.113-0.144-0.144C77.727,89.893,77.686,89.913,77.708,89.979
	 M59.999,90.003c0,0.09,0.458,0.528,0.505,0.482c0.028-0.027-0.057-0.157-0.187-0.287C60.091,89.971,59.999,89.915,59.999,90.003
	 M53.649,90.324c0,0.101,0.041,0.182,0.091,0.182c0.049,0,0.09-0.081,0.09-0.182c0-0.1-0.041-0.181-0.09-0.181
	C53.69,90.143,53.649,90.225,53.649,90.324 M19.45,90.42c-0.091,0.171-0.085,0.176,0.088,0.068c0.196-0.122,0.248-0.254,0.099-0.254
	C19.589,90.234,19.505,90.317,19.45,90.42 M45.758,90.575c0,0.05,0.062,0.141,0.136,0.203c0.076,0.063,0.136,0.073,0.136,0.022
	c0-0.05-0.061-0.142-0.136-0.203C45.818,90.534,45.758,90.524,45.758,90.575 M27.072,90.824c0,0.075,0.041,0.136,0.091,0.136
	s0.091-0.062,0.091-0.136c0-0.075-0.041-0.137-0.091-0.137S27.072,90.749,27.072,90.824 M34.238,91.004
	c0,0.075,0.041,0.137,0.091,0.137c0.05,0,0.09-0.062,0.09-0.137c0-0.074-0.041-0.135-0.09-0.135
	C34.278,90.869,34.238,90.93,34.238,91.004 M39.885,91.464c-0.134,0.146-0.145,0.221-0.032,0.221c0.077,0,0.222-0.272,0.17-0.321
	C40.009,91.351,39.947,91.396,39.885,91.464 M78.894,91.443c0.035,0.091,0.063,0.204,0.063,0.25s0.041,0.083,0.09,0.083
	c0.14,0,0.108-0.178-0.063-0.347C78.841,91.287,78.835,91.287,78.894,91.443 M29.521,91.641c0,0.074,0.041,0.136,0.091,0.136
	s0.09-0.062,0.09-0.136c0-0.075-0.041-0.137-0.09-0.137S29.521,91.565,29.521,91.641 M36.143,91.641
	c0,0.074,0.042,0.136,0.091,0.136s0.09-0.062,0.09-0.136c0-0.075-0.041-0.137-0.09-0.137S36.143,91.565,36.143,91.641
	 M57.096,91.594c0,0.05,0.062,0.091,0.136,0.091s0.136-0.041,0.136-0.091c0-0.049-0.062-0.09-0.136-0.09
	S57.096,91.545,57.096,91.594 M58.185,91.68c0,0.052,0.041,0.097,0.09,0.097c0.05,0,0.172,0.081,0.272,0.181
	c0.101,0.1,0.182,0.144,0.182,0.097c0-0.046-0.123-0.172-0.272-0.278C58.307,91.669,58.185,91.625,58.185,91.68 M54.013,91.821
	c0,0.075,0.041,0.136,0.09,0.136s0.091-0.062,0.091-0.136s-0.041-0.136-0.091-0.136S54.013,91.747,54.013,91.821 M22.99,91.909
	c0,0.023,0.123,0.167,0.272,0.321c0.33,0.337,0.367,0.236,0.042-0.114C23.084,91.878,22.99,91.816,22.99,91.909 M38.229,92.365
	c0,0.075,0.041,0.136,0.091,0.136c0.05,0,0.09-0.061,0.09-0.136c0-0.074-0.041-0.136-0.09-0.136
	C38.27,92.229,38.229,92.291,38.229,92.365 M70.547,92.638c0.001,0.25,0.019,0.341,0.039,0.203c0.021-0.138,0.021-0.342-0.001-0.454
	C70.563,92.275,70.546,92.388,70.547,92.638 M51.165,92.463c-0.085,0.222-0.067,0.244,0.081,0.097
	c0.154-0.154,0.174-0.24,0.055-0.24C51.256,92.32,51.195,92.385,51.165,92.463 M34.601,92.638c0,0.075,0.041,0.136,0.091,0.136
	s0.09-0.061,0.09-0.136s-0.041-0.136-0.09-0.136S34.601,92.563,34.601,92.638 M31.063,92.729c0,0.075,0.042,0.136,0.091,0.136
	c0.05,0,0.091-0.061,0.091-0.136c0-0.075-0.041-0.136-0.091-0.136C31.104,92.592,31.063,92.654,31.063,92.729 M79.32,92.773
	c0,0.1,0.041,0.182,0.091,0.182c0.05,0,0.09-0.082,0.09-0.182c0-0.1-0.041-0.181-0.09-0.181C79.36,92.592,79.32,92.674,79.32,92.773
	 M41.767,92.819c0,0.075,0.041,0.136,0.091,0.136s0.09-0.061,0.09-0.136c0-0.075-0.041-0.136-0.09-0.136
	S41.767,92.744,41.767,92.819 M29.884,93.091c0,0.075,0.041,0.136,0.09,0.136c0.05,0,0.091-0.061,0.091-0.136
	s-0.041-0.136-0.091-0.136C29.925,92.955,29.884,93.016,29.884,93.091 M54.013,93.137c0,0.1,0.041,0.181,0.09,0.181
	s0.091-0.082,0.091-0.181c0-0.1-0.041-0.182-0.091-0.182S54.013,93.037,54.013,93.137 M18.001,93.228c0,0.1,0.041,0.181,0.09,0.181
	s0.091-0.082,0.091-0.181c0-0.1-0.041-0.182-0.091-0.182S18.001,93.127,18.001,93.228 M39.317,93.272
	c0,0.125,0.042,0.227,0.091,0.227s0.09-0.102,0.09-0.227c0-0.125-0.041-0.227-0.09-0.227S39.317,93.148,39.317,93.272
	 M68.163,96.356c0,2.087,0.032,3.221,0.091,3.221c0.059,0,0.091-1.134,0.091-3.221c0-2.085-0.032-3.22-0.091-3.22
	C68.195,93.137,68.163,94.271,68.163,96.356 M79.412,93.295c0.003,0.199,0.177,0.331,0.178,0.136c0-0.112-0.039-0.204-0.089-0.204
	C79.451,93.228,79.411,93.258,79.412,93.295 M50.837,93.499c0,0.1,0.041,0.182,0.091,0.182s0.09-0.082,0.09-0.182
	c0-0.099-0.041-0.181-0.09-0.181S50.837,93.4,50.837,93.499 M65.441,93.544c0,0.125,0.041,0.227,0.091,0.227
	s0.091-0.102,0.091-0.227c0-0.125-0.041-0.227-0.091-0.227S65.441,93.42,65.441,93.544 M74.289,93.436
	c-0.039,0.089-0.045,0.188-0.015,0.219c0.093,0.092,0.167-0.037,0.125-0.216C74.361,93.28,74.355,93.28,74.289,93.436
	 M23.897,93.544c0,0.075,0.041,0.137,0.09,0.137s0.091-0.062,0.091-0.137c0-0.075-0.041-0.136-0.091-0.136
	S23.897,93.47,23.897,93.544 M26.346,93.636c0,0.125,0.041,0.226,0.091,0.226s0.091-0.102,0.091-0.226
	c0-0.125-0.042-0.227-0.091-0.227S26.346,93.511,26.346,93.636 M20.359,93.999c0,0.125,0.041,0.227,0.091,0.227
	s0.09-0.102,0.09-0.227s-0.041-0.227-0.09-0.227S20.359,93.874,20.359,93.999 M27.888,93.999c0,0.075,0.041,0.136,0.091,0.136
	c0.05,0,0.091-0.061,0.091-0.136s-0.041-0.137-0.091-0.137C27.929,93.862,27.888,93.923,27.888,93.999 M17.911,94.497
	c0,0.226,0.036,0.351,0.091,0.317c0.05-0.03,0.09-0.174,0.09-0.317s-0.041-0.287-0.09-0.317
	C17.946,94.146,17.911,94.271,17.911,94.497 M32.696,94.361c0,0.074,0.041,0.136,0.091,0.136s0.091-0.062,0.091-0.136
	c0-0.075-0.041-0.136-0.091-0.136S32.696,94.286,32.696,94.361 M46.937,94.86c0,0.302,0.041,0.544,0.091,0.544
	s0.09-0.242,0.09-0.544s-0.04-0.544-0.09-0.544S46.937,94.558,46.937,94.86 M54.647,94.403c0,0.048,0.092,0.136,0.205,0.195
	c0.203,0.106,0.203,0.106,0.031-0.088C54.69,94.294,54.647,94.274,54.647,94.403 M79.621,94.86c0,0.324,0.017,0.458,0.037,0.295
	c0.02-0.162,0.02-0.427,0-0.59C79.637,94.403,79.621,94.536,79.621,94.86 M30.247,94.633c0,0.075,0.041,0.136,0.091,0.136
	c0.05,0,0.09-0.061,0.09-0.136c0-0.075-0.041-0.136-0.09-0.136C30.288,94.497,30.247,94.559,30.247,94.633 M35.417,94.633
	c0,0.075,0.041,0.136,0.091,0.136s0.09-0.061,0.09-0.136c0-0.075-0.041-0.136-0.09-0.136S35.417,94.559,35.417,94.633
	 M33.059,94.769c0,0.1,0.041,0.182,0.091,0.182s0.091-0.082,0.091-0.182c0-0.1-0.041-0.181-0.091-0.181S33.059,94.669,33.059,94.769
	 M50.787,97.083c0,1.396,0.013,1.956,0.028,1.242c0.016-0.714,0.016-1.857,0-2.54C50.799,95.101,50.787,95.686,50.787,97.083
	 M30.609,94.86c0,0.1,0.042,0.182,0.091,0.182c0.049,0,0.09-0.083,0.09-0.182s-0.041-0.182-0.09-0.182
	C30.651,94.678,30.609,94.76,30.609,94.86 M35.054,94.86c0,0.1,0.041,0.182,0.091,0.182c0.049,0,0.09-0.083,0.09-0.182
	s-0.041-0.182-0.09-0.182C35.095,94.678,35.054,94.76,35.054,94.86 M20.359,95.178c0,0.125,0.041,0.227,0.091,0.227
	s0.09-0.102,0.09-0.227c0-0.125-0.041-0.227-0.09-0.227S20.359,95.053,20.359,95.178 M30.407,95.094
	c-0.029,0.047,0.004,0.165,0.075,0.261c0.138,0.188,0.158,0.113,0.047-0.171C30.49,95.087,30.436,95.046,30.407,95.094
	 M26.346,95.449c0,0.125,0.041,0.227,0.091,0.227s0.091-0.102,0.091-0.227c0-0.124-0.042-0.227-0.091-0.227
	S26.346,95.325,26.346,95.449 M23.897,95.631c0,0.075,0.041,0.136,0.09,0.136s0.091-0.061,0.091-0.136s-0.041-0.136-0.091-0.136
	S23.897,95.557,23.897,95.631 M74.301,95.556c-0.094,0.093-0.071,0.393,0.03,0.393c0.05,0,0.09-0.103,0.09-0.227
	C74.421,95.484,74.4,95.456,74.301,95.556 M18.001,95.858c0,0.099,0.041,0.181,0.09,0.181s0.091-0.082,0.091-0.181
	c0-0.101-0.041-0.182-0.091-0.182S18.001,95.758,18.001,95.858 M39.317,95.994c0,0.125,0.042,0.227,0.091,0.227
	s0.09-0.102,0.09-0.227c0-0.124-0.041-0.227-0.09-0.227S39.317,95.87,39.317,95.994 M33.422,96.356c0,0.075,0.041,0.136,0.09,0.136
	c0.05,0,0.091-0.061,0.091-0.136c0-0.074-0.041-0.136-0.091-0.136C33.462,96.221,33.422,96.282,33.422,96.356 M41.767,96.356
	c0,0.075,0.041,0.136,0.091,0.136s0.09-0.061,0.09-0.136c0-0.074-0.041-0.136-0.09-0.136S41.767,96.282,41.767,96.356 M37.05,96.81
	c0,0.075,0.042,0.136,0.091,0.136c0.05,0,0.091-0.061,0.091-0.136c0-0.074-0.041-0.136-0.091-0.136
	C37.091,96.674,37.05,96.736,37.05,96.81 M28.705,97.083c0,0.075,0.041,0.136,0.091,0.136c0.05,0,0.091-0.062,0.091-0.136
	c0-0.075-0.041-0.136-0.091-0.136C28.746,96.946,28.705,97.007,28.705,97.083 M42.129,97.026c0,0.044,0.105,0.149,0.233,0.233
	l0.233,0.152l-0.153-0.232C42.292,96.949,42.129,96.87,42.129,97.026 M72.154,97.083c0,0.075,0.041,0.136,0.09,0.136
	s0.091-0.062,0.091-0.136c0-0.075-0.041-0.136-0.091-0.136S72.154,97.007,72.154,97.083 M74.806,97.029
	c0.019,0.071,0.133,0.19,0.255,0.266c0.174,0.108,0.194,0.11,0.09,0.008c-0.073-0.071-0.188-0.191-0.255-0.266
	C74.796,96.927,74.779,96.926,74.806,97.029 M56.461,97.106c0,0.038,0.083,0.121,0.183,0.184c0.17,0.105,0.176,0.101,0.069-0.069
	C56.6,97.038,56.461,96.975,56.461,97.106 M21.901,97.491c0,0.05,0.062,0.09,0.136,0.09c0.075,0,0.136-0.041,0.136-0.09
	S22.113,97.4,22.038,97.4C21.963,97.4,21.901,97.441,21.901,97.491 M33.784,97.899c0,0.075,0.041,0.136,0.091,0.136
	c0.05,0,0.09-0.061,0.09-0.136c0-0.075-0.041-0.136-0.09-0.136C33.825,97.763,33.784,97.824,33.784,97.899 M31.879,98.08
	c0,0.074,0.041,0.136,0.091,0.136c0.05,0,0.091-0.062,0.091-0.136c0-0.075-0.041-0.136-0.091-0.136
	C31.92,97.944,31.879,98.005,31.879,98.08 M29.067,98.443c0,0.074,0.041,0.135,0.091,0.135s0.091-0.061,0.091-0.135
	c0-0.075-0.041-0.136-0.091-0.136S29.067,98.368,29.067,98.443 M36.596,98.534c0,0.074,0.042,0.136,0.091,0.136
	s0.09-0.062,0.09-0.136c0-0.075-0.041-0.136-0.09-0.136S36.596,98.458,36.596,98.534 M19.399,98.715
	c0.115,0.125,0.243,0.227,0.283,0.227c0.041,0-0.022-0.102-0.14-0.227c-0.117-0.125-0.245-0.227-0.284-0.227
	C19.221,98.488,19.284,98.59,19.399,98.715 M24.913,98.673c-0.214,0.199-0.245,0.269-0.119,0.269c0.044,0,0.147-0.102,0.229-0.227
	C25.203,98.439,25.174,98.429,24.913,98.673 M60.574,98.692c-0.1,0.112-0.3,0.296-0.444,0.408c-0.144,0.112-0.216,0.204-0.159,0.204
	c0.056,0,0.291-0.183,0.522-0.408c0.231-0.225,0.385-0.408,0.342-0.408S60.675,98.581,60.574,98.692 M54.705,98.713
	c0.025,0.068,0.104,0.146,0.171,0.172c0.079,0.03,0.107,0.002,0.077-0.077c-0.026-0.068-0.104-0.146-0.172-0.172
	C54.702,98.606,54.674,98.634,54.705,98.713 M19.927,99.14c0.046,0.136,0.251,0.211,0.251,0.091c0-0.049-0.064-0.113-0.144-0.144
	C19.946,99.054,19.905,99.074,19.927,99.14"/>
<path fill="#0474BC" d="M10.472,90.189c0,1.239,0.033,1.95,0.091,1.95c0.057,0,0.091-0.71,0.091-1.95
	c0-1.24-0.034-1.951-0.091-1.951C10.505,88.238,10.472,88.949,10.472,90.189"/>
<path fill="#0474BC" d="M16.763,90.099c0,0.448,0.016,0.644,0.034,0.433c0.02-0.21,0.02-0.578,0.001-0.816
	C16.78,89.476,16.764,89.649,16.763,90.099"/>
<path fill="#0474BC" d="M70.471,96.312c0,1.821,0.013,2.565,0.027,1.655c0.015-0.91,0.015-2.4,0-3.31
	C70.483,93.746,70.471,94.49,70.471,96.312"/>
<path fill="#0474BC" d="M79.412,94.157c-0.001,0.137,0.039,0.249,0.089,0.249c0.115,0,0.115-0.185,0-0.362
	C79.433,93.938,79.413,93.962,79.412,94.157"/>
<path fill="#0474BC" d="M50.677,94.315c0,0.175,0.018,0.246,0.041,0.159c0.023-0.087,0.023-0.23,0-0.317
	C50.695,94.07,50.677,94.141,50.677,94.315"/>
<path fill="#0474BC" d="M20.296,94.588c0,0.274,0.017,0.386,0.038,0.249c0.021-0.137,0.021-0.361,0-0.499
	C20.313,94.202,20.296,94.314,20.296,94.588"/>
<path fill="#0474BC" d="M46.877,94.769c0,0.374,0.016,0.528,0.036,0.341c0.02-0.188,0.02-0.493,0-0.68
	C46.893,94.242,46.877,94.395,46.877,94.769"/>
<path fill="#0474BC" d="M60.582,94.308c0.177,0.195,0.325,0.246,0.325,0.113c0-0.042-0.112-0.127-0.248-0.189
	C60.411,94.119,60.411,94.12,60.582,94.308"/>
<path fill="#0474BC" d="M10.472,97.042c0,1.674,0.032,2.526,0.091,2.489c0.057-0.035,0.091-0.983,0.091-2.545
	c0-1.599-0.033-2.489-0.091-2.489C10.505,94.497,10.472,95.406,10.472,97.042"/>
<path fill="#0474BC" d="M61.324,95.994c0.074,0.333,0.127,0.406,0.125,0.174c-0.001-0.095-0.043-0.235-0.094-0.309
	C61.288,95.758,61.28,95.795,61.324,95.994"/>
<path fill="#0474BC" d="M24.844,98.602l-0.267,0.295l0.295-0.266c0.274-0.249,0.336-0.323,0.266-0.323
	C25.123,98.307,24.991,98.439,24.844,98.602"/>
<path fill="#0474BC" d="M78.271,98.783l-0.266,0.295l0.295-0.267c0.162-0.146,0.295-0.279,0.295-0.295
	C78.594,98.447,78.52,98.508,78.271,98.783"/>
<path id="path2" fill="#040404" d="M8.386,92.729v6.849h0.998h0.998l0-2.563v-2.563l1.146,0.03c0.73,0.02,1.168-0.003,1.206-0.064
	c0.032-0.052,0.302-0.111,0.6-0.131c0.298-0.02,0.613-0.067,0.7-0.104c0.087-0.038,0.217-0.046,0.29-0.018
	c0.071,0.028,0.143,0.021,0.158-0.013s0.188-0.144,0.382-0.243c2.485-1.268,2.367-6.656-0.167-7.624
	c-0.227-0.087-0.413-0.183-0.413-0.214c0-0.031-0.327-0.041-0.726-0.023c-0.489,0.022-0.725,0-0.725-0.068
	c0-0.07-0.66-0.1-2.223-0.1H8.386V92.729 M63.265,92.729v6.849h0.99h0.992l0.032-3.333c0.042-4.294,0.207-4.742,1.75-4.781
	c1.271-0.032,1.335,0.18,1.383,4.599l0.038,3.516h0.991h0.99l-0.003-3.107c-0.007-5.129-0.197-5.997-1.452-6.647
	c-0.147-0.076-0.267-0.171-0.267-0.211s-0.118-0.055-0.262-0.034s-0.289-0.007-0.323-0.061c-0.074-0.12-0.535-0.131-0.754-0.019
	c-0.087,0.044-0.374,0.174-0.638,0.289c-0.281,0.123-0.649,0.39-0.888,0.645c-0.599,0.64-0.582,0.697-0.582-2.058V85.88h-0.998
	h-0.998V92.729 M81.294,92.729l-0.024,6.849h0.998h0.998l-0.024-6.849l-0.023-6.848h-0.95h-0.95L81.294,92.729 M85.487,92.729v6.849
	h0.999h0.998v-6.849V85.88h-0.998h-0.999V92.729 M13.163,88.261c0.058,0.038,0.165,0.045,0.237,0.018
	c0.266-0.102,0.949,0.723,1.066,1.287c0.239,1.151-0.369,2.482-1.134,2.482c-0.12,0-0.24,0.036-0.268,0.081
	s-0.632,0.063-1.343,0.043l-1.293-0.038l-0.025-1.877c-0.013-1.033-0.008-1.919,0.012-1.97
	C10.457,88.178,12.999,88.155,13.163,88.261 M21.773,89.495c-0.026,0.043-0.224,0.103-0.439,0.132
	c-3.605,0.494-4.295,7.846-0.899,9.578c0.208,0.107,0.378,0.224,0.379,0.259c0,0.037,0.193,0.078,0.429,0.092
	c0.235,0.014,0.468,0.064,0.517,0.113c0.12,0.121,0.842,0.112,0.918-0.011c0.035-0.055,0.178-0.082,0.321-0.061
	c0.142,0.021,0.27,0.014,0.283-0.015c0.014-0.028,0.257-0.167,0.54-0.308c0.625-0.312,1.799-1.509,1.799-1.834
	c0-0.023,0.078-0.216,0.175-0.427c0.866-1.897,0.474-4.776-0.857-6.298c-0.445-0.51-1.505-1.116-1.95-1.116
	c-0.143,0-0.285-0.041-0.315-0.091C22.604,89.397,21.84,89.386,21.773,89.495 M42.538,89.524c-2.057,0.717-3.039,2.384-3.039,5.154
	c0,2.378,1.311,4.808,2.594,4.808c0.07,0,0.127,0.037,0.127,0.083c0,0.045,0.084,0.061,0.188,0.033
	c0.103-0.027,0.282,0.002,0.399,0.065c0.135,0.072,0.355,0.091,0.606,0.053c0.217-0.033,0.507-0.068,0.644-0.078
	s0.249-0.049,0.249-0.087c0-0.037,0.059-0.068,0.131-0.068c0.471,0,1.521-0.972,1.889-1.749c0.401-0.847,0.411-0.972,0.076-0.972
	c-0.155,0-0.282-0.034-0.282-0.075c0-0.042-0.123-0.057-0.272-0.035c-0.173,0.025-0.272,0-0.272-0.068
	c0-0.073-0.089-0.088-0.276-0.047c-0.162,0.035-0.327,0.018-0.399-0.042c-0.099-0.082-0.155-0.02-0.283,0.316
	c-0.646,1.689-2.855,0.994-3.086-0.971l-0.057-0.483l2.641,0.027l2.64,0.026v-0.78c0-0.842-0.138-1.974-0.275-2.267
	c-0.047-0.1-0.144-0.35-0.215-0.556c-0.294-0.853-1.055-1.72-1.741-1.982c-0.219-0.084-0.399-0.18-0.399-0.213
	c0-0.034-0.133-0.069-0.294-0.079c-0.162-0.009-0.458-0.038-0.658-0.062C42.973,89.449,42.688,89.472,42.538,89.524 M51.88,89.576
	c-0.4,0.203-0.571,0.373-0.974,0.963c-0.426,0.626-0.52,0.576-0.521-0.282l-0.001-0.567h-0.907H48.57v4.944v4.944h0.998h0.998
	l0.003-2.336c0.006-3.758,0.173-4.811,0.838-5.252c0.353-0.234,0.991-0.237,1.342-0.005l0.233,0.153l0.166-0.566
	c0.091-0.312,0.238-0.802,0.326-1.091l0.159-0.524l-0.351-0.179c-0.193-0.098-0.414-0.179-0.49-0.179
	c-0.077,0-0.14-0.041-0.14-0.091C52.652,89.375,52.195,89.415,51.88,89.576 M56.975,89.516c-0.092,0.056-0.286,0.084-0.431,0.063
	c-0.146-0.021-0.264-0.011-0.264,0.022c0,0.034-0.173,0.137-0.386,0.23c-2.178,0.958-2.196,4.174-0.03,5.165
	c0.272,0.125,0.539,0.227,0.592,0.227s0.097,0.037,0.097,0.083c0,0.045,0.082,0.061,0.181,0.034
	c0.102-0.026,0.182-0.002,0.182,0.054c0,0.055,0.082,0.101,0.181,0.101c0.1,0,0.182,0.035,0.182,0.078
	c0,0.042,0.102,0.059,0.227,0.035c0.129-0.024,0.227-0.001,0.227,0.055c0,0.054,0.062,0.075,0.137,0.045
	c0.075-0.029,0.196-0.003,0.268,0.057c0.072,0.059,0.168,0.085,0.213,0.058c0.122-0.075,0.802,0.276,0.867,0.447
	c0.193,0.501-0.17,1.311-0.586,1.311c-0.095,0-0.174,0.036-0.174,0.08c0,0.045-0.317,0.074-0.705,0.066
	c-0.938-0.02-1.246-0.195-1.608-0.918c-0.267-0.534-0.666-0.749-0.872-0.47c-0.053,0.073-0.492,0.151-1.02,0.183
	c-0.754,0.045,0.559,2.353,1.54,2.708c0.168,0.061,0.306,0.158,0.306,0.216c0,0.063,0.09,0.088,0.227,0.063
	c0.125-0.024,0.227-0.008,0.227,0.035c0,0.043,0.132,0.087,0.294,0.098c0.162,0.011,0.493,0.045,0.736,0.078
	c0.284,0.038,0.515,0.019,0.651-0.053c0.115-0.063,0.315-0.093,0.443-0.068c0.128,0.024,0.233,0.01,0.233-0.034
	c0-0.042,0.05-0.078,0.113-0.077c1.526,0.003,2.791-2.911,1.954-4.501c-0.35-0.666-1.513-1.486-2.105-1.486
	c-0.08,0-0.144-0.043-0.144-0.096c0-0.053-0.045-0.068-0.099-0.035c-0.055,0.034-0.188,0.019-0.295-0.033
	c-0.108-0.052-0.481-0.164-0.83-0.248c-0.953-0.229-1.354-0.473-1.39-0.842c-0.114-1.192,2.639-1.043,3.021,0.162
	c0.045,0.143,0.101,0.152,0.433,0.078c0.21-0.047,0.451-0.067,0.536-0.045c0.085,0.022,0.178-0.021,0.207-0.095
	c0.029-0.077,0.112-0.112,0.191-0.082c0.292,0.112,0.479-0.125,0.382-0.48c-0.253-0.921-0.889-1.682-1.633-1.958
	c-0.237-0.088-0.431-0.185-0.431-0.216s-0.153-0.065-0.34-0.076c-0.188-0.011-0.565-0.042-0.84-0.069
	C57.344,89.435,57.074,89.456,56.975,89.516 M75.278,89.517c-0.034,0.054-0.179,0.082-0.323,0.061
	c-0.144-0.021-0.261-0.011-0.261,0.023c0,0.034-0.163,0.135-0.361,0.224c-2.426,1.094-3.034,6.582-0.976,8.815
	c0.355,0.386,1.065,0.846,1.303,0.846c0.068,0,0.125,0.031,0.125,0.068c0,0.149,2.036,0.168,2.177,0.021
	c0.025-0.025,0.243-0.148,0.485-0.272c1.061-0.541,2.293-2.537,1.567-2.537c-0.131,0-0.238-0.042-0.238-0.093
	c0-0.053-0.096-0.068-0.229-0.035c-0.125,0.032-0.283,0.01-0.353-0.047c-0.073-0.06-0.229-0.079-0.363-0.045
	c-0.132,0.033-0.291,0.015-0.357-0.041c-0.095-0.079-0.144-0.024-0.229,0.257c-0.464,1.552-2.489,1.231-3.009-0.477
	c-0.295-0.968-0.515-0.892,2.521-0.882l2.653,0.008v-0.771c0-2.178-0.946-4.211-2.221-4.776c-0.226-0.1-0.41-0.217-0.41-0.262
	c0-0.044-0.138-0.058-0.306-0.031c-0.18,0.029-0.333,0.008-0.368-0.051C76.025,89.389,75.358,89.387,75.278,89.517 M27.072,89.771
	c0,0.045,0.08,0.341,0.177,0.658c0.096,0.317,0.234,0.821,0.307,1.122c0.137,0.566,0.673,2.621,1.374,5.26
	c0.225,0.848,0.474,1.817,0.553,2.155l0.144,0.612h0.945h0.945l0.004-0.25c0.001-0.137,0.063-0.515,0.137-0.839
	s0.238-1.059,0.364-1.633c0.126-0.573,0.313-1.41,0.413-1.859c0.102-0.449,0.229-1.031,0.283-1.292
	c0.129-0.62,0.276-0.604,0.417,0.045c0.276,1.274,0.477,2.172,0.823,3.689c0.204,0.894,0.379,1.741,0.39,1.883l0.02,0.256h0.926
	h0.926l0.136-0.567c0.075-0.312,0.245-0.975,0.377-1.474c0.133-0.499,0.316-1.193,0.407-1.542c0.091-0.349,0.276-1.042,0.411-1.542
	c0.135-0.499,0.321-1.192,0.411-1.542c0.091-0.35,0.311-1.176,0.488-1.836c0.178-0.661,0.323-1.243,0.323-1.293
	c0-0.055-0.368-0.091-0.935-0.091h-0.935l-0.104,0.431c-0.057,0.237-0.229,0.961-0.384,1.61c-0.153,0.648-0.382,1.608-0.506,2.131
	c-0.125,0.524-0.286,1.151-0.36,1.395c-0.073,0.242-0.132,0.518-0.132,0.612c0,0.093-0.052,0.17-0.117,0.17
	c-0.119,0-0.191-0.261-0.53-1.905c-0.098-0.474-0.255-1.229-0.349-1.678c-0.095-0.449-0.264-1.257-0.375-1.794l-0.204-0.979
	l-0.913,0.026l-0.914,0.026l-0.152,0.726c-0.084,0.399-0.258,1.195-0.387,1.769c-0.128,0.574-0.316,1.431-0.417,1.905
	c-0.515,2.42-0.541,2.419-1.089-0.045c-0.124-0.555-0.45-1.972-0.72-3.129c-0.111-0.474-0.222-0.954-0.249-1.066
	C28.953,89.68,27.072,89.561,27.072,89.771 M43.902,91.619c0.52,0.268,0.848,0.842,0.922,1.609l0.048,0.498l-1.667-0.017
	L41.54,93.69l0.031-0.47C41.656,91.888,42.845,91.072,43.902,91.619 M76.423,91.57c0.562,0.236,0.99,1.01,0.992,1.793l0,0.362
	l-1.61-0.017c-1.834-0.02-1.776,0.011-1.567-0.833C74.518,91.748,75.478,91.174,76.423,91.57 M22.479,91.626
	c1.971-0.304,2.473,4.903,0.56,5.811c-1.942,0.921-3.581-1.877-2.604-4.447c0.308-0.813,1.364-1.687,1.682-1.393
	C22.16,91.638,22.323,91.651,22.479,91.626"/>
<path id="path3" fill="#54A3D2" d="M50.695,97.4c0,1.222,0.013,1.722,0.029,1.111c0.016-0.611,0.016-1.611,0-2.223
	C50.708,95.677,50.695,96.178,50.695,97.4"/>
<path id="path4" fill="#9A4D07" d="M8.157,92.638c0,3.741,0.011,5.286,0.024,3.431c0.014-1.854,0.014-4.916,0-6.803
	C8.168,87.378,8.157,88.896,8.157,92.638 M8.295,92.675c0,5.352-0.024,6.806-0.113,6.842c-0.068,0.027-0.05,0.048,0.045,0.052
	c0.15,0.007,0.159-0.376,0.159-6.841c0-3.767-0.021-6.848-0.045-6.848S8.295,88.938,8.295,92.675 M63.083,92.729
	c0,4.505,0.031,6.849,0.09,6.849c0.06,0,0.091-2.344,0.091-6.849c0-4.505-0.031-6.848-0.091-6.848
	C63.114,85.88,63.083,88.223,63.083,92.729 M81.268,92.683c0,3.767,0.011,5.308,0.025,3.424s0.014-4.965,0-6.849
	S81.268,88.917,81.268,92.683 M85.44,92.729c0,3.792,0.012,5.33,0.025,3.417c0.013-1.912,0.013-5.015,0-6.894
	C85.452,87.372,85.44,88.937,85.44,92.729 M14.165,89.052c0.083,0.098,0.171,0.161,0.193,0.138c0.054-0.054-0.168-0.317-0.268-0.317
	C14.047,88.873,14.081,88.954,14.165,89.052 M31.903,89.75c-0.131,0.053-0.152,0.269-0.034,0.342c0.044,0.027,0.1-0.051,0.124-0.176
	s0.039-0.223,0.033-0.219C32.02,89.701,31.964,89.725,31.903,89.75 M36.778,89.804c0,0.079-0.047,0.159-0.105,0.178
	c-0.075,0.025-0.079,0.083-0.01,0.204c0.084,0.151,0.102,0.137,0.159-0.125c0.036-0.162,0.041-0.318,0.011-0.347
	C36.802,89.683,36.778,89.724,36.778,89.804 M41.653,89.752c-0.087,0.023-0.159,0.081-0.159,0.129c0,0.05,0.086,0.042,0.204-0.019
	C42.039,89.685,42.026,89.655,41.653,89.752 M48.434,94.633c0,2.719,0.031,4.944,0.068,4.944s0.068-2.225,0.068-4.944
	s-0.03-4.944-0.068-4.944S48.434,91.915,48.434,94.633 M51.324,89.826c-0.028,0.075-0.109,0.137-0.178,0.137
	s-0.127,0.083-0.127,0.184c0,0.102-0.054,0.205-0.121,0.231c-0.066,0.025-0.121,0.113-0.121,0.196c0,0.109,0.039,0.09,0.144-0.07
	c0.079-0.121,0.259-0.353,0.402-0.516c0.143-0.164,0.213-0.297,0.156-0.297S51.353,89.751,51.324,89.826 M55.738,89.777
	c-0.073,0.046-0.111,0.107-0.083,0.134c0.027,0.027,0.128-0.011,0.224-0.083C56.07,89.683,55.953,89.641,55.738,89.777
	 M14.435,89.971c-0.028,0.104-0.014,0.278,0.029,0.385c0.064,0.157,0.08,0.12,0.085-0.19C14.555,89.746,14.513,89.673,14.435,89.971
	 M55.373,89.942c0,0.056-0.134,0.165-0.299,0.244c-0.199,0.094-0.339,0.25-0.414,0.457c-0.063,0.173-0.175,0.376-0.25,0.451
	c-0.076,0.075-0.108,0.181-0.075,0.236c0.035,0.057,0.136-0.064,0.233-0.282c0.094-0.211,0.343-0.54,0.553-0.731
	c0.209-0.192,0.352-0.377,0.317-0.413S55.373,89.887,55.373,89.942 M65.833,90.166c-0.347,0.385-0.34,0.594,0.007,0.257
	c0.176-0.17,0.298-0.343,0.273-0.385C66.048,89.933,66.041,89.936,65.833,90.166 M27.111,90.456
	c-0.046,0.111-0.033,0.188,0.035,0.211c0.059,0.02,0.107,0.112,0.107,0.205s0.041,0.194,0.09,0.225
	c0.12,0.074,0.105-0.108-0.042-0.499C27.198,90.319,27.174,90.301,27.111,90.456 M19.543,90.551
	c-0.062,0.075-0.164,0.136-0.227,0.136s-0.134,0.103-0.158,0.227l-0.043,0.226l0.191-0.209c0.303-0.332,0.444-0.516,0.395-0.516
	C19.677,90.416,19.605,90.477,19.543,90.551 M73.166,90.688c-0.116,0.097-0.198,0.212-0.182,0.255
	c0.018,0.043,0.126-0.038,0.242-0.18C73.473,90.462,73.458,90.445,73.166,90.688 M40.361,90.96
	c-0.032,0.099-0.115,0.181-0.185,0.181c-0.077,0-0.105,0.055-0.074,0.139c0.044,0.116,0.485-0.315,0.485-0.474
	C40.587,90.692,40.407,90.814,40.361,90.96 M31.607,91.141c0,0.149-0.037,0.272-0.083,0.272c-0.045,0-0.059,0.089-0.031,0.197
	c0.042,0.162,0.074,0.126,0.172-0.204c0.145-0.485,0.148-0.537,0.031-0.537C31.648,90.869,31.607,90.991,31.607,91.141
	 M36.455,90.968c-0.033,0.054-0.015,0.144,0.04,0.2c0.074,0.074,0.101,0.048,0.101-0.099C36.596,90.85,36.549,90.815,36.455,90.968
	 M14.192,91.277c0,0.075-0.064,0.136-0.142,0.136c-0.078,0-0.116,0.041-0.084,0.092c0.071,0.116,0.196,0.042,0.319-0.188
	c0.065-0.121,0.065-0.176,0.001-0.176C14.234,91.141,14.192,91.203,14.192,91.277 M72.692,91.164
	c-0.024,0.087-0.07,0.535-0.052,0.508c0.288-0.421,0.329-0.531,0.196-0.531C72.76,91.141,72.695,91.151,72.692,91.164
	 M18.869,91.333c0.034,0.055,0.006,0.137-0.063,0.18c-0.086,0.054-0.091,0.08-0.015,0.081c0.061,0,0.154-0.08,0.208-0.18
	c0.079-0.146,0.069-0.182-0.048-0.182C18.869,91.231,18.833,91.275,18.869,91.333 M36.385,91.383
	c-0.033,0.033-0.061,0.152-0.061,0.265c0,0.112-0.048,0.22-0.107,0.24c-0.068,0.022-0.081,0.1-0.036,0.211
	c0.058,0.144,0.096,0.095,0.204-0.264C36.512,91.41,36.512,91.255,36.385,91.383 M39.947,91.683
	c-0.078,0.083-0.126,0.198-0.106,0.257c0.02,0.059-0.006,0.107-0.059,0.107c-0.053,0-0.072,0.064-0.042,0.143
	c0.038,0.1,0.104,0.03,0.225-0.241C40.158,91.521,40.153,91.465,39.947,91.683 M54.194,91.641c0,0.074,0.041,0.136,0.09,0.136
	c0.05,0,0.091-0.062,0.091-0.136c0-0.075-0.041-0.137-0.091-0.137C54.234,91.504,54.194,91.565,54.194,91.641 M43.853,91.674
	c0,0.047,0.133,0.198,0.295,0.335c0.163,0.137,0.285,0.284,0.272,0.325c-0.012,0.042,0.018,0.077,0.068,0.077
	c0.141,0,0.108-0.135-0.098-0.396C44.179,91.746,43.853,91.54,43.853,91.674 M76.508,91.713c0,0.084,0.052,0.153,0.116,0.153
	c0.157,0,0.448,0.35,0.38,0.458c-0.029,0.047-0.01,0.087,0.043,0.087s0.096,0.061,0.096,0.136c0,0.075,0.041,0.136,0.091,0.136
	c0.121,0,0.115-0.054-0.038-0.345C77.004,91.97,76.508,91.52,76.508,91.713 M18.601,91.904c-0.03,0.12-0.083,0.293-0.115,0.385
	c-0.105,0.293,0.048,0.08,0.194-0.269c0.076-0.184,0.103-0.335,0.058-0.335C18.693,91.685,18.631,91.783,18.601,91.904
	 M27.498,91.81c-0.03,0.079-0.014,0.167,0.035,0.198c0.05,0.031,0.067,0.129,0.039,0.219c-0.032,0.1,0.002,0.184,0.087,0.217
	c0.168,0.064,0.17,0.021,0.015-0.427C27.589,91.773,27.536,91.71,27.498,91.81 M58.706,91.874c0.112,0.128,0.205,0.28,0.205,0.339
	s0.042,0.107,0.094,0.107c0.133,0-0.028-0.278-0.29-0.5l-0.212-0.179L58.706,91.874 M68.004,91.935
	c0.059,0.162,0.14,0.295,0.178,0.295c0.123,0,0.079-0.153-0.107-0.375l-0.179-0.213L68.004,91.935 M54.211,92.572
	c0.004,0.413,0.037,0.769,0.073,0.792c0.062,0.038,0.02-1.271-0.047-1.451C54.218,91.862,54.207,92.159,54.211,92.572
	 M72.335,92.275c0,0.125-0.043,0.227-0.096,0.227c-0.053,0-0.069,0.043-0.037,0.097c0.079,0.127,0.122,0.076,0.219-0.266
	c0.05-0.174,0.049-0.285-0.002-0.285C72.373,92.048,72.335,92.15,72.335,92.275 M23.573,92.404c0,0.096,0.031,0.156,0.069,0.132
	c0.038-0.023,0.094,0.061,0.126,0.188c0.052,0.207,0.22,0.331,0.219,0.163c0-0.075-0.344-0.658-0.387-0.658
	C23.585,92.229,23.573,92.309,23.573,92.404 M54.034,92.501c0,0.175,0.018,0.247,0.042,0.159c0.022-0.087,0.022-0.23,0-0.317
	C54.051,92.255,54.034,92.328,54.034,92.501 M36.052,92.547c0,0.075,0.041,0.136,0.091,0.136c0.051,0,0.091-0.062,0.091-0.136
	c0-0.075-0.041-0.136-0.091-0.136C36.092,92.411,36.052,92.472,36.052,92.547 M68.219,92.577c-0.04,0.116-0.049,0.235-0.02,0.265
	c0.095,0.094,0.16-0.045,0.125-0.264l-0.034-0.212L68.219,92.577 M44.538,92.585c-0.034,0.054-0.018,0.098,0.035,0.098
	c0.053,0,0.099,0.092,0.103,0.204c0.003,0.112,0.045,0.286,0.092,0.385c0.062,0.13,0.072,0.067,0.035-0.227
	C44.748,92.612,44.639,92.422,44.538,92.585 M27.707,92.717c0,0.075,0.041,0.161,0.091,0.193c0.05,0.031,0.09-0.006,0.09-0.08
	c0-0.075-0.041-0.162-0.09-0.192C27.748,92.607,27.707,92.643,27.707,92.717 M31.245,92.887c0,0.079-0.047,0.159-0.105,0.178
	c-0.075,0.026-0.078,0.083-0.01,0.205c0.084,0.15,0.102,0.137,0.159-0.125c0.036-0.162,0.04-0.318,0.01-0.348
	S31.245,92.808,31.245,92.887 M39.561,92.899c-0.034,0.089-0.058,0.311-0.052,0.494l0.01,0.332l0.08-0.408
	C39.686,92.88,39.663,92.634,39.561,92.899 M35.961,93.129c0,0.145-0.047,0.28-0.105,0.299c-0.074,0.025-0.078,0.084-0.013,0.2
	c0.078,0.138,0.108,0.1,0.196-0.249c0.126-0.502,0.127-0.515,0.013-0.515C36.002,92.864,35.961,92.983,35.961,93.129 M77.235,92.978
	c0.003,0.259,0.177,0.392,0.178,0.136c0.001-0.137-0.04-0.25-0.089-0.25S77.234,92.916,77.235,92.978 M18.181,93.341
	c0,0.23-0.031,0.339-0.074,0.271c-0.041-0.063-0.073,0.333-0.073,0.879s0.034,0.974,0.075,0.949
	c0.041-0.025,0.074,0.138,0.074,0.362s0.043,0.435,0.095,0.467c0.065,0.04,0.072-0.094,0.023-0.425
	c-0.089-0.595-0.094-2.086-0.01-2.548c0.036-0.196,0.026-0.34-0.022-0.34C18.221,92.955,18.182,93.129,18.181,93.341 M23.942,93.136
	c-0.048,0.079-0.037,0.139,0.029,0.162c0.059,0.02,0.108,0.185,0.108,0.368c0,0.183,0.041,0.394,0.089,0.469
	c0.132,0.203,0.104-0.424-0.036-0.811C24.05,93.092,24,93.043,23.942,93.136 M68.385,96.356c0,1.796,0.012,2.544,0.027,1.662
	c0.015-0.882,0.015-2.352,0-3.266C68.397,93.839,68.385,94.561,68.385,96.356 M27.957,93.574c-0.028,0.109-0.015,0.197,0.031,0.197
	c0.045,0,0.082,0.1,0.082,0.221c0,0.122,0.045,0.25,0.101,0.284c0.1,0.062,0.048-0.328-0.098-0.725
	C28.012,93.386,28.006,93.387,27.957,93.574 M30.974,93.567c0.004,0.198,0.177,0.331,0.178,0.136
	c0.001-0.112-0.04-0.205-0.089-0.205S30.973,93.53,30.974,93.567 M72.027,93.733c-0.092,0.241-0.062,1.928,0.036,1.988
	c0.059,0.036,0.091-0.332,0.091-1.038C72.154,93.602,72.134,93.455,72.027,93.733 M33.028,93.812
	c-0.038,0.1-0.023,0.198,0.038,0.236c0.06,0.037,0.077,0.146,0.042,0.256c-0.035,0.108-0.021,0.193,0.029,0.193
	c0.05,0,0.109,0.072,0.131,0.159c0.03,0.112,0.044,0.119,0.051,0.022C33.339,94.364,33.095,93.637,33.028,93.812 M39.317,94.724
	c0,0.574,0.036,0.952,0.091,0.952c0.05,0,0.091,0.133,0.092,0.295c0,0.163,0.045,0.356,0.099,0.431
	c0.076,0.104,0.083,0.085,0.037-0.091c-0.033-0.125-0.083-0.747-0.111-1.384C39.465,93.534,39.317,93.389,39.317,94.724
	 M54.438,93.83c-0.062,0.061,0.063,0.225,0.429,0.56c0.146,0.134,0.34,0.315,0.431,0.403c0.091,0.086,0.166,0.119,0.166,0.07
	c0-0.048-0.108-0.16-0.241-0.246c-0.131-0.086-0.351-0.311-0.487-0.498C54.601,93.931,54.467,93.801,54.438,93.83 M30.885,94.248
	c0.003,0.324-0.112,0.834-0.201,0.892c-0.045,0.029-0.051,0.13-0.016,0.224c0.049,0.126,0.11,0.004,0.229-0.46
	c0.188-0.734,0.199-0.859,0.076-0.859C30.924,94.044,30.884,94.136,30.885,94.248 M35.598,94.452c0,0.075,0.041,0.137,0.091,0.137
	c0.05,0,0.091-0.062,0.091-0.137s-0.041-0.136-0.091-0.136C35.639,94.315,35.598,94.376,35.598,94.452 M28.161,94.542
	c0,0.075,0.041,0.136,0.09,0.136c0.05,0,0.091-0.061,0.091-0.136s-0.041-0.136-0.091-0.136
	C28.201,94.406,28.161,94.468,28.161,94.542 M35.526,94.825c-0.081,0.088-0.091,0.176-0.03,0.284
	c0.077,0.136,0.096,0.124,0.151-0.096C35.724,94.711,35.685,94.652,35.526,94.825 M28.3,94.944c-0.04,0.065-0.033,0.143,0.016,0.175
	c0.048,0.032,0.12,0.18,0.159,0.33c0.039,0.15,0.087,0.229,0.106,0.177C28.645,95.457,28.38,94.814,28.3,94.944 M24.146,95.132
	c-0.036,0.125-0.065,0.335-0.066,0.469c0,0.132-0.052,0.26-0.114,0.282c-0.083,0.031-0.086,0.07-0.013,0.148
	c0.121,0.13,0.343-0.564,0.292-0.91l-0.033-0.217L24.146,95.132 M33.459,95.898c-0.044,0.111-0.031,0.189,0.037,0.211
	c0.059,0.02,0.107,0.131,0.107,0.249c0,0.118,0.045,0.243,0.1,0.276c0.104,0.063,0.046-0.347-0.103-0.732
	C33.532,95.725,33.529,95.725,33.459,95.898 M28.672,96.265c-0.038,0.098-0.02,0.196,0.042,0.235
	c0.059,0.036,0.084,0.151,0.057,0.256c-0.028,0.105-0.013,0.168,0.032,0.14c0.045-0.028,0.083,0.074,0.083,0.227
	s0.041,0.278,0.09,0.278c0.122,0,0.117-0.042-0.075-0.72C28.78,96.25,28.72,96.141,28.672,96.265 M23.807,96.359
	c0,0.077-0.062,0.163-0.136,0.191c-0.075,0.029-0.115,0.085-0.09,0.125c0.075,0.122-0.057,0.362-0.197,0.362
	c-0.073,0-0.109,0.038-0.081,0.083c0.028,0.045,0.009,0.104-0.042,0.129c-0.051,0.025-0.042,0.036,0.022,0.024
	c0.238-0.043,0.827-1.053,0.615-1.053C23.847,96.221,23.807,96.283,23.807,96.359 M53.895,96.619
	c-0.038,0.094-0.047,0.193-0.021,0.219c0.083,0.083,0.155-0.053,0.121-0.225C53.963,96.455,53.958,96.456,53.895,96.619
	 M72.196,96.678c-0.036,0.059-0.024,0.133,0.025,0.165s0.119,0.191,0.155,0.353c0.035,0.162,0.099,0.295,0.142,0.295
	c0.043,0,0.013-0.194-0.066-0.431C72.281,96.543,72.28,96.543,72.196,96.678 M59.092,96.805c0,0.071,0.041,0.155,0.091,0.187
	c0.05,0.031,0.091-0.028,0.091-0.131c0-0.103-0.041-0.187-0.091-0.187C59.133,96.674,59.092,96.733,59.092,96.805 M18.429,96.883
	c-0.033,0.084-0.02,0.154,0.029,0.154s0.088,0.061,0.088,0.136s0.042,0.136,0.094,0.136c0.06,0,0.064-0.057,0.012-0.159
	c-0.045-0.087-0.1-0.218-0.123-0.291C18.496,96.754,18.477,96.758,18.429,96.883 M77.08,96.823c-0.06,0.024-0.086,0.103-0.059,0.173
	c0.027,0.071-0.016,0.155-0.096,0.185c-0.08,0.031-0.145,0.103-0.142,0.16c0.003,0.122,0.45-0.366,0.45-0.492
	c0-0.047-0.01-0.082-0.023-0.078C77.198,96.776,77.14,96.799,77.08,96.823 M33.693,97.037c0,0.1,0.041,0.182,0.091,0.182
	s0.091-0.082,0.091-0.182c0-0.1-0.042-0.182-0.091-0.182S33.693,96.937,33.693,97.037 M44.284,97.19
	c-0.088,0.022-0.159,0.106-0.159,0.185c0,0.125,0.024,0.122,0.181-0.021c0.155-0.14,0.237-0.252,0.159-0.217
	C44.453,97.144,44.372,97.167,44.284,97.19 M58.936,97.241c-0.217,0.281-0.215,0.366,0.005,0.166
	c0.133-0.122,0.242-0.234,0.242-0.25C59.183,97.083,59.015,97.14,58.936,97.241 M33.842,97.446c-0.04,0.104-0.028,0.19,0.028,0.209
	c0.052,0.018,0.096,0.149,0.096,0.291c0,0.143,0.041,0.285,0.091,0.316c0.116,0.072,0.112,0.007-0.03-0.542
	C33.935,97.362,33.896,97.306,33.842,97.446 M54.073,97.438c-0.033,0.083-0.023,0.13,0.021,0.103
	c0.043-0.026,0.103,0.041,0.131,0.15c0.029,0.109,0.077,0.174,0.108,0.143c0.031-0.031-0.002-0.167-0.073-0.303
	C54.153,97.327,54.122,97.312,54.073,97.438 M18.762,97.594c0.013,0.132,0.092,0.309,0.176,0.392
	c0.083,0.084,0.152,0.211,0.152,0.282c0,0.072,0.048,0.13,0.108,0.13c0.059,0,0.209,0.092,0.334,0.204s0.061,0-0.142-0.25
	c-0.204-0.249-0.433-0.576-0.51-0.725l-0.141-0.272L18.762,97.594 M72.584,97.694c-0.026,0.065,0.079,0.241,0.231,0.389l0.277,0.269
	l-0.213-0.362c-0.117-0.2-0.221-0.375-0.231-0.39C72.638,97.585,72.609,97.627,72.584,97.694 M29.132,98.063
	c-0.033,0.084-0.02,0.153,0.028,0.153c0.049,0,0.088,0.1,0.088,0.221s0.041,0.247,0.091,0.278c0.118,0.073,0.105-0.104-0.036-0.494
	C29.217,97.98,29.178,97.944,29.132,98.063 M54.478,98.171c0.056,0.15,0.203,0.35,0.327,0.442c0.274,0.207,0.192,0.027-0.201-0.442
	l-0.228-0.272L54.478,98.171 M40.377,98.304c0.208,0.396,0.474,0.684,0.709,0.766c0.116,0.041,0.042-0.077-0.204-0.327
	c-0.212-0.215-0.45-0.473-0.528-0.572C40.255,98.044,40.262,98.085,40.377,98.304 M73.007,98.503
	c-0.039,0.062-0.025,0.08,0.034,0.043c0.054-0.033,0.125,0.021,0.156,0.123c0.032,0.102,0.188,0.25,0.347,0.33l0.288,0.145
	l-0.358-0.373C73.067,98.348,73.093,98.363,73.007,98.503 M55.101,98.886c0,0.069,0.085,0.148,0.189,0.175
	c0.183,0.047,0.184,0.043,0.031-0.125C55.133,98.728,55.101,98.72,55.101,98.886 M34.21,98.978c-0.037,0.094-0.046,0.193-0.02,0.219
	c0.083,0.083,0.155-0.053,0.121-0.226C34.28,98.814,34.274,98.814,34.21,98.978"/>
<path id="path5" fill="#7CBCDC" d="M8.248,92.683c0,3.767,0.011,5.308,0.024,3.424c0.014-1.883,0.014-4.965,0-6.849
	C8.259,87.375,8.248,88.917,8.248,92.683 M83.311,92.729c0,4.505,0.032,6.849,0.091,6.849s0.09-2.344,0.09-6.849
	c0-4.505-0.031-6.848-0.09-6.848S83.311,88.223,83.311,92.729 M87.617,92.729c0,3.792,0.011,5.33,0.025,3.417s0.014-5.015,0-6.894
	C87.628,87.372,87.617,88.937,87.617,92.729 M15.831,87.037c0.121,0.137,0.23,0.266,0.243,0.287
	c0.013,0.021,0.045,0.016,0.073-0.013c0.053-0.052-0.377-0.523-0.479-0.523C15.637,86.787,15.71,86.899,15.831,87.037 M48.43,94.588
	c0,2.668,0.012,3.76,0.026,2.426c0.013-1.335,0.013-3.518,0-4.853C48.442,90.827,48.43,91.919,48.43,94.588 M40.802,90.257
	c-0.419,0.461-0.456,0.612-0.041,0.173c0.343-0.364,0.418-0.468,0.339-0.468C41.084,89.962,40.95,90.094,40.802,90.257
	 M45.396,90.247c0.074,0.067,0.194,0.185,0.266,0.259c0.101,0.106,0.099,0.087-0.008-0.086c-0.076-0.121-0.196-0.239-0.267-0.26
	C45.284,90.13,45.286,90.146,45.396,90.247 M73.445,90.204c-0.063,0.026-0.157,0.126-0.209,0.224
	c-0.087,0.162-0.079,0.168,0.09,0.062c0.142-0.088,0.357-0.376,0.254-0.338C73.569,90.154,73.508,90.178,73.445,90.204
	 M78.127,90.39c0.237,0.34,0.445,0.506,0.303,0.24c-0.051-0.094-0.185-0.251-0.298-0.351l-0.207-0.18L78.127,90.39 M24.714,90.292
	c0,0.032,0.102,0.153,0.226,0.268c0.272,0.252,0.304,0.155,0.042-0.127C24.794,90.23,24.714,90.188,24.714,90.292 M78.594,90.937
	c0,0.043,0.059,0.158,0.132,0.254c0.126,0.17,0.129,0.169,0.08-0.029C78.754,90.958,78.594,90.787,78.594,90.937 M60.815,91.299
	c0,0.044,0.059,0.158,0.132,0.255c0.127,0.17,0.129,0.169,0.08-0.029C60.976,91.32,60.815,91.15,60.815,91.299 M13.647,91.747
	l-0.227,0.231l0.25-0.157c0.137-0.086,0.25-0.193,0.25-0.237C13.919,91.475,13.906,91.482,13.647,91.747 M74.89,91.916
	c-0.395,0.41-0.283,0.407,0.14-0.003c0.179-0.174,0.29-0.316,0.245-0.314C75.229,91.6,75.056,91.743,74.89,91.916 M58.571,91.829
	c0.087,0.103,0.158,0.236,0.158,0.295c0,0.058,0.041,0.106,0.091,0.106c0.159,0,0.098-0.144-0.158-0.37
	C58.481,91.7,58.456,91.692,58.571,91.829 M42.225,91.953c-0.237,0.237-0.486,0.73-0.369,0.73c0.051,0,0.092-0.062,0.092-0.136
	c0-0.075,0.072-0.209,0.159-0.299c0.255-0.261,0.412-0.471,0.351-0.471C42.427,91.776,42.322,91.855,42.225,91.953 M21.288,91.927
	c-0.063,0.025-0.157,0.126-0.209,0.224c-0.087,0.162-0.079,0.167,0.09,0.062c0.141-0.088,0.357-0.376,0.254-0.339
	C21.412,91.878,21.351,91.901,21.288,91.927 M65.896,92.046c-0.078,0.146-0.071,0.17,0.042,0.127c0.075-0.03,0.138-0.11,0.138-0.18
	C66.077,91.816,66.009,91.835,65.896,92.046 M54.053,92.457c0.002,0.274,0.035,0.499,0.072,0.499s0.068-0.225,0.068-0.499
	c0-0.274-0.033-0.499-0.073-0.499C54.081,91.958,54.05,92.182,54.053,92.457 M23.444,92.297c0.118,0.162,0.229,0.295,0.247,0.295
	c0.069,0-0.156-0.34-0.305-0.46C23.288,92.052,23.31,92.115,23.444,92.297 M18.337,92.32c-0.026,0.1-0.015,0.181,0.024,0.181
	s0.093-0.081,0.12-0.181c0.025-0.1,0.015-0.182-0.024-0.182C18.417,92.139,18.364,92.22,18.337,92.32 M16.061,92.917
	c-0.034,0.088-0.013,0.13,0.053,0.107c0.136-0.045,0.21-0.251,0.091-0.251C16.156,92.773,16.091,92.838,16.061,92.917 M68.163,93
	c0,0.075,0.041,0.136,0.091,0.136c0.05,0,0.091-0.062,0.091-0.136c0-0.075-0.041-0.136-0.091-0.136
	C68.204,92.864,68.163,92.925,68.163,93 M70.562,96.312c0,1.821,0.012,2.565,0.027,1.655c0.015-0.91,0.015-2.4,0-3.31
	C70.574,93.746,70.562,94.49,70.562,96.312 M74.24,93.232c0,0.103,0.041,0.162,0.091,0.131c0.05-0.032,0.09-0.115,0.09-0.187
	c0-0.072-0.041-0.131-0.09-0.131S74.24,93.13,74.24,93.232 M77.235,93.335c-0.001,0.134,0.039,0.269,0.089,0.3
	c0.116,0.072,0.116-0.229,0-0.408C77.255,93.121,77.236,93.144,77.235,93.335 M15.597,93.5c-0.143,0.149-0.222,0.27-0.175,0.27
	c0.109-0.002,0.531-0.444,0.477-0.5C15.875,93.248,15.74,93.351,15.597,93.5 M79.413,93.544c0,0.1,0.04,0.243,0.088,0.317
	c0.073,0.113,0.088,0.105,0.088-0.045c0-0.1-0.04-0.243-0.088-0.318C79.429,93.387,79.413,93.395,79.413,93.544 M39.317,93.636
	c0,0.075,0.042,0.136,0.091,0.136s0.09-0.061,0.09-0.136s-0.041-0.137-0.09-0.137S39.317,93.561,39.317,93.636 M26.346,94.542
	c0,0.393,0.038,0.68,0.091,0.68s0.091-0.287,0.091-0.68s-0.039-0.681-0.091-0.681S26.346,94.149,26.346,94.542 M50.77,94.271
	c0.001,0.199,0.02,0.27,0.042,0.157c0.022-0.113,0.021-0.276-0.002-0.363C50.787,93.979,50.769,94.07,50.77,94.271 M24.108,94.633
	c0,0.349,0.017,0.481,0.037,0.292c0.02-0.188,0.02-0.474-0.001-0.634C24.124,94.13,24.108,94.284,24.108,94.633 M79.529,94.905
	c0,0.299,0.018,0.411,0.038,0.248c0.021-0.163,0.02-0.408,0-0.544C79.545,94.473,79.529,94.606,79.529,94.905 M30.54,95.495
	c-0.059,0.095-0.072,0.195-0.029,0.221c0.044,0.027,0.103-0.041,0.131-0.15C30.709,95.306,30.674,95.281,30.54,95.495
	 M35.148,95.404c0,0.075,0.039,0.197,0.087,0.272c0.078,0.121,0.088,0.121,0.088,0c0-0.075-0.04-0.197-0.088-0.272
	C35.158,95.284,35.148,95.284,35.148,95.404 M44.465,96.629c-0.023,0.125-0.008,0.227,0.035,0.227s0.078-0.038,0.078-0.083
	c0-0.046,0.024-0.148,0.055-0.227c0.031-0.079,0.015-0.143-0.035-0.143C44.55,96.402,44.49,96.504,44.465,96.629 M74.691,97.032
	c0.143,0.267,0.273,0.31,0.153,0.051c-0.058-0.125-0.137-0.227-0.176-0.228C74.628,96.856,74.639,96.935,74.691,97.032
	 M46.298,98.061c-0.271,0.406-0.278,0.425-0.159,0.378c0.11-0.043,0.372-0.498,0.317-0.553
	C46.442,97.873,46.372,97.951,46.298,98.061 M72.729,98.11c0.083,0.091,0.15,0.209,0.15,0.263c0,0.052,0.061,0.119,0.134,0.148
	c0.095,0.036,0.075-0.042-0.067-0.262c-0.112-0.172-0.24-0.313-0.285-0.314C72.616,97.945,72.647,98.019,72.729,98.11
	 M54.376,98.193c-0.001,0.112,0.039,0.204,0.09,0.204c0.113,0,0.113-0.096,0-0.271C54.395,98.015,54.378,98.029,54.376,98.193
	 M45.894,98.648c-0.234,0.173-0.373,0.419-0.16,0.288c0.111-0.069,0.223-0.177,0.247-0.241
	C46.031,98.563,46.02,98.556,45.894,98.648 M78.335,98.808c-0.118,0.124-0.176,0.225-0.13,0.225c0.046,0,0.173-0.102,0.281-0.226
	C78.742,98.512,78.614,98.513,78.335,98.808"/>
<path id="path6" fill="#040464" d="M10.42,90.189c0,1.097,0.014,1.533,0.03,0.97c0.016-0.564,0.016-1.462,0-1.996
	C10.433,88.63,10.42,89.091,10.42,90.189 M16.668,90.099c0.001,0.298,0.018,0.41,0.038,0.248c0.02-0.164,0.02-0.408-0.001-0.545
	C16.685,89.665,16.668,89.798,16.668,90.099 M50.414,90.279c0,0.349,0.016,0.481,0.036,0.293c0.02-0.188,0.02-0.474-0.001-0.635
	C50.43,89.776,50.413,89.93,50.414,90.279 M70.361,92.773c0,0.175,0.019,0.247,0.041,0.159c0.023-0.087,0.023-0.229,0-0.317
	C70.379,92.528,70.361,92.599,70.361,92.773 M10.422,96.992c0,1.446,0.013,2.026,0.028,1.287c0.016-0.739,0.015-1.923,0-2.631
	S10.422,95.545,10.422,96.992 M46.783,94.905c0.001,0.299,0.018,0.411,0.038,0.248s0.02-0.408-0.001-0.544
	C46.8,94.473,46.783,94.606,46.783,94.905 M50.59,94.951c0,0.224,0.018,0.316,0.04,0.204c0.022-0.112,0.022-0.296,0-0.408
	C50.608,94.635,50.59,94.726,50.59,94.951"/>
<path id="path7" fill="#314164" d="M12.832,85.971c0,0.05,0.183,0.09,0.407,0.09c0.225,0,0.408-0.041,0.408-0.09
	s-0.183-0.09-0.408-0.09C13.014,85.88,12.832,85.921,12.832,85.971 M65.281,88.352c-0.02,2.349,0.015,2.736,0.215,2.413
	c0.04-0.064,0.024-0.08-0.039-0.041c-0.076,0.047-0.11-0.589-0.129-2.413l-0.026-2.476L65.281,88.352 M81.177,92.729
	c0,3.792,0.012,5.33,0.025,3.417c0.013-1.912,0.013-5.015,0-6.894C81.188,87.372,81.177,88.937,81.177,92.729 M83.263,92.683
	c0,3.767,0.011,5.308,0.025,3.424c0.014-1.883,0.014-4.965,0-6.849C83.274,87.375,83.263,88.917,83.263,92.683 M87.527,92.729
	c0,3.792,0.011,5.33,0.024,3.417c0.014-1.912,0.014-5.015,0-6.894C87.538,87.372,87.527,88.937,87.527,92.729 M14.69,86.271
	c0.149,0.071,0.289,0.113,0.31,0.095c0.065-0.056-0.029-0.106-0.31-0.165l-0.272-0.056L14.69,86.271 M12.785,88.238
	c0.25,0.108,0.338,0.108,0.272,0c-0.031-0.05-0.146-0.088-0.254-0.084C12.611,88.16,12.611,88.163,12.785,88.238 M22.673,89.508
	c0.03,0.05,0.116,0.091,0.191,0.091s0.111-0.041,0.08-0.091c-0.031-0.05-0.118-0.091-0.192-0.091
	C22.678,89.417,22.642,89.458,22.673,89.508 M42.357,89.508c-0.032,0.05,0.004,0.091,0.08,0.091c0.074,0,0.161-0.041,0.192-0.091
	c0.031-0.05-0.005-0.091-0.08-0.091S42.387,89.458,42.357,89.508 M43.49,89.508c0.179,0.115,0.389,0.115,0.317,0
	c-0.031-0.05-0.146-0.09-0.255-0.089C43.391,89.42,43.379,89.437,43.49,89.508 M58.094,89.508c0.18,0.116,0.48,0.116,0.409,0
	c-0.031-0.05-0.166-0.09-0.3-0.089C58.011,89.42,57.988,89.439,58.094,89.508 M76.1,89.508c0.031,0.05,0.117,0.091,0.192,0.091
	s0.111-0.041,0.08-0.091c-0.03-0.05-0.117-0.091-0.192-0.091S76.069,89.458,76.1,89.508 M23.356,89.635
	c0.073,0.069,0.235,0.149,0.359,0.178c0.207,0.046,0.205,0.042-0.023-0.053c-0.137-0.058-0.249-0.138-0.249-0.178
	s-0.049-0.073-0.11-0.073C23.258,89.508,23.266,89.548,23.356,89.635 M58.82,89.589c0,0.044,0.065,0.105,0.144,0.136
	c0.222,0.085,0.244,0.067,0.096-0.08C58.906,89.49,58.82,89.47,58.82,89.589 M68.714,89.574c-0.003,0.062,0.126,0.18,0.288,0.264
	c0.271,0.14,0.285,0.14,0.171,0.002c-0.069-0.082-0.177-0.15-0.242-0.15c-0.064,0-0.138-0.05-0.163-0.113
	C68.732,89.49,68.72,89.489,68.714,89.574 M76.798,89.585c0.037,0.137,0.617,0.411,0.617,0.291c0-0.042-0.112-0.104-0.249-0.139
	c-0.137-0.035-0.282-0.11-0.324-0.168C76.788,89.493,76.776,89.498,76.798,89.585 M44.306,89.726c0,0.02,0.133,0.081,0.295,0.135
	c0.27,0.09,0.28,0.087,0.119-0.036C44.558,89.7,44.306,89.641,44.306,89.726 M24.804,90.551c0.169,0.175,0.328,0.318,0.354,0.318
	c0.024,0-0.093-0.143-0.263-0.318c-0.169-0.174-0.328-0.317-0.353-0.317S24.636,90.377,24.804,90.551 M56.756,91.474
	c-0.125,0.05-0.065,0.211,0.079,0.211c0.05,0,0.067-0.038,0.039-0.084c-0.029-0.046,0.061-0.102,0.199-0.123
	c0.232-0.035,0.234-0.038,0.024-0.044C56.972,91.43,56.818,91.448,56.756,91.474 M66.489,91.497
	c-0.088,0.143,0.079,0.177,0.204,0.042c0.096-0.104,0.093-0.126-0.018-0.126C66.601,91.413,66.517,91.452,66.489,91.497
	 M75.341,91.494c-0.085,0.054-0.092,0.097-0.022,0.139c0.055,0.035,0.1,0.022,0.1-0.027s0.072-0.108,0.159-0.131
	c0.113-0.029,0.119-0.043,0.023-0.051C75.526,91.42,75.409,91.452,75.341,91.494 M42.169,91.889l-0.267,0.295l0.294-0.267
	c0.275-0.248,0.337-0.323,0.267-0.323C42.448,91.594,42.315,91.727,42.169,91.889 M65.844,91.98l-0.266,0.295l0.295-0.267
	c0.162-0.147,0.294-0.279,0.294-0.295C66.167,91.644,66.092,91.706,65.844,91.98 M20.99,92.116l-0.313,0.34l0.34-0.313
	c0.316-0.291,0.381-0.367,0.312-0.367C21.315,91.776,21.162,91.929,20.99,92.116 M51.513,91.917
	c-0.173,0.139-0.173,0.14,0.005,0.058c0.1-0.046,0.242-0.106,0.317-0.134c0.118-0.043,0.117-0.052-0.005-0.058
	C51.752,91.779,51.609,91.839,51.513,91.917 M52.675,92.048c0.02,0.075,0.112,0.136,0.203,0.136c0.092,0,0.184-0.061,0.204-0.136
	c0.03-0.108,0.02-0.111-0.048-0.015c-0.046,0.067-0.117,0.121-0.156,0.121c-0.038,0-0.108-0.054-0.155-0.121
	C52.655,91.937,52.646,91.939,52.675,92.048 M12.604,92.139l-0.363,0.065l0.38,0.013c0.209,0.007,0.405-0.028,0.436-0.078
	c0.031-0.05,0.023-0.084-0.017-0.078S12.804,92.104,12.604,92.139 M56.756,92.772c0.039,0.142,0.793,0.407,0.793,0.278
	c0-0.041-0.153-0.104-0.34-0.139c-0.187-0.035-0.374-0.111-0.415-0.168C56.744,92.672,56.731,92.68,56.756,92.772 M74.149,93.403
	c0,0.147,0.032,0.287,0.072,0.311c0.039,0.024,0.055-0.095,0.035-0.267C74.212,93.067,74.149,93.04,74.149,93.403 M59.418,93.667
	c0.152,0.129,0.581,0.282,0.581,0.208c0-0.041-0.149-0.12-0.332-0.175C59.485,93.644,59.373,93.63,59.418,93.667 M26.289,94.588
	c0,0.523,0.015,0.738,0.034,0.476c0.018-0.262,0.018-0.69,0-0.952C26.304,93.85,26.289,94.064,26.289,94.588 M46.78,94.044
	c0,0.224,0.018,0.316,0.04,0.204c0.021-0.112,0.021-0.296,0-0.408C46.798,93.728,46.78,93.819,46.78,94.044 M65.3,96.629
	c0,1.647,0.012,2.333,0.027,1.524c0.015-0.807,0.015-2.154,0-2.993C65.313,94.322,65.3,94.982,65.3,96.629 M60.135,94.01
	c0.05,0.044,0.234,0.202,0.409,0.352l0.316,0.271l-0.227-0.258c-0.124-0.142-0.307-0.3-0.407-0.351
	C60.126,93.973,60.085,93.967,60.135,94.01 M20.205,94.588c0,0.274,0.017,0.386,0.038,0.249c0.021-0.137,0.021-0.361,0-0.499
	C20.222,94.202,20.205,94.314,20.205,94.588 M24.194,94.588c0,0.225,0.018,0.316,0.04,0.204c0.022-0.113,0.022-0.297,0-0.409
	C24.212,94.272,24.194,94.363,24.194,94.588 M12.74,94.406c0,0.05,0.121,0.091,0.267,0.091c0.147,0,0.292-0.041,0.323-0.091
	c0.034-0.054-0.074-0.091-0.267-0.091C12.886,94.315,12.74,94.356,12.74,94.406 M79.438,94.905c0.001,0.299,0.018,0.411,0.038,0.248
	c0.02-0.163,0.02-0.408-0.001-0.544C79.455,94.473,79.438,94.606,79.438,94.905 M37.283,95.457c-0.033,0.132-0.043,0.259-0.022,0.28
	c0.021,0.021,0.066-0.07,0.1-0.203c0.033-0.133,0.043-0.26,0.021-0.281C37.361,95.232,37.317,95.323,37.283,95.457 M50.604,97.4
	c0,1.172,0.013,1.651,0.029,1.066c0.016-0.586,0.016-1.545,0-2.132C50.617,95.748,50.604,96.228,50.604,97.4 M61.295,96.356
	c0,0.25,0.018,0.341,0.039,0.204c0.021-0.138,0.021-0.343-0.001-0.454C61.312,95.994,61.294,96.107,61.295,96.356 M44.896,96.493
	c0.031,0.05,0.146,0.088,0.255,0.085c0.191-0.007,0.192-0.01,0.018-0.085C44.918,96.385,44.83,96.385,44.896,96.493 M54.239,96.493
	c-0.174,0.075-0.174,0.078,0.018,0.085c0.109,0.003,0.224-0.035,0.255-0.085C54.577,96.385,54.489,96.385,54.239,96.493
	 M77.46,96.493c0.031,0.05,0.146,0.088,0.255,0.085c0.192-0.007,0.193-0.01,0.018-0.085C77.482,96.385,77.394,96.385,77.46,96.493
	 M43.717,97.624c-0.15,0.068-0.209,0.128-0.131,0.131c0.078,0.004,0.221-0.052,0.317-0.125
	C44.123,97.464,44.068,97.462,43.717,97.624 M75.278,97.62c0.097,0.079,0.26,0.139,0.363,0.135c0.15-0.007,0.139-0.022-0.056-0.081
	c-0.133-0.041-0.297-0.102-0.363-0.136C75.156,97.505,75.181,97.541,75.278,97.62 M42.764,97.668
	c0.075,0.051,0.215,0.092,0.31,0.094c0.232,0.001,0.16-0.05-0.174-0.125C42.702,97.592,42.665,97.6,42.764,97.668 M57.005,97.672
	c0.075,0.048,0.238,0.084,0.363,0.08l0.227-0.008l-0.227-0.072C57.019,97.56,56.832,97.56,57.005,97.672 M59.404,99.349
	c-0.161,0.123-0.15,0.126,0.119,0.036c0.308-0.103,0.379-0.171,0.176-0.171C59.634,99.214,59.501,99.274,59.404,99.349
	 M77.364,99.345c-0.17,0.127-0.168,0.13,0.03,0.08c0.113-0.028,0.228-0.087,0.255-0.131C77.725,99.169,77.559,99.2,77.364,99.345
	 M22.673,99.668c-0.032,0.049,0.004,0.09,0.08,0.09c0.074,0,0.161-0.041,0.192-0.09c0.031-0.051-0.005-0.091-0.08-0.091
	S22.704,99.617,22.673,99.668 M42.447,99.668c0.251,0.108,0.43,0.108,0.363,0c-0.031-0.051-0.166-0.088-0.3-0.085
	C42.292,99.589,42.285,99.598,42.447,99.668 M43.762,99.668c-0.121,0.078-0.121,0.087,0,0.087c0.075,0,0.197-0.039,0.272-0.087
	c0.121-0.079,0.121-0.088,0-0.088C43.959,99.58,43.837,99.619,43.762,99.668 M56.779,99.668c0.268,0.115,0.586,0.115,0.407,0
	c-0.074-0.049-0.238-0.086-0.362-0.083C56.617,99.589,56.612,99.596,56.779,99.668 M58.23,99.668c-0.071,0.115,0.139,0.115,0.317,0
	c0.111-0.072,0.099-0.088-0.063-0.09C58.375,99.578,58.261,99.617,58.23,99.668 M75.102,99.668c0.03,0.049,0.145,0.089,0.254,0.089
	c0.162-0.002,0.173-0.019,0.063-0.089C75.24,99.552,75.03,99.552,75.102,99.668 M76.326,99.668c-0.11,0.071-0.099,0.087,0.063,0.089
	c0.109,0,0.224-0.04,0.255-0.089C76.715,99.552,76.505,99.552,76.326,99.668 M51.926,100.121c0,0.05,0.163,0.09,0.363,0.09
	c0.199,0,0.363-0.041,0.363-0.09s-0.164-0.09-0.363-0.09C52.089,100.031,51.926,100.071,51.926,100.121"/>
<path id="path8" fill="#3C9CCC" d="M65.39,88.238c0,1.322,0.013,1.863,0.029,1.202c0.015-0.661,0.015-1.743,0-2.403
	C65.403,86.375,65.39,86.916,65.39,88.238 M50.484,90.347c0.006,0.467,0.03,0.592,0.082,0.431c0.106-0.33,0.106-1.088,0-1.088
	C50.513,89.689,50.479,89.964,50.484,90.347 M65.391,96.765c0,1.571,0.013,2.214,0.028,1.428c0.015-0.786,0.015-2.071,0-2.857
	C65.404,94.55,65.391,95.193,65.391,96.765 M50.679,94.905c0.001,0.2,0.02,0.271,0.042,0.158c0.022-0.113,0.021-0.276-0.002-0.363
	C50.695,94.613,50.678,94.706,50.679,94.905"/>
<g>
	<path fill-rule="evenodd" clip-rule="evenodd" fill="#2671BD" d="M39.747,79.841c-10.345,0-20.689,0.001-31.035,0
		c-1.172,0-2.344-0.012-3.497-0.259c-1.849-0.395-2.569-1.278-2.558-3.158C2.665,75.062,3,73.747,3.305,72.433
		c2.61-11.251,5.237-22.498,7.843-33.75c1.458-6.295,2.878-12.599,4.332-18.895c0.415-1.799,1.057-3.502,2.486-4.777
		c1.522-1.355,3.393-1.743,5.342-1.74c8.268,0.01,16.537,0.083,24.805,0.092c13.186,0.016,26.371-0.001,39.556-0.002
		c1.083,0,2.16,0.055,3.204,0.398c1.063,0.349,1.626,1.087,1.746,2.176c0.134,1.206-0.097,2.384-0.353,3.547
		C90.604,27,88.925,34.515,87.248,42.029c-1.792,8.022-3.569,16.045-5.393,24.059c-0.666,2.919-1.191,5.874-2.109,8.732
		c-0.339,1.056-0.79,2.062-1.528,2.911c-1.143,1.313-2.686,1.75-4.329,1.95c-1.208,0.147-2.425,0.184-3.643,0.183
		c-10.167-0.004-20.333-0.002-30.5-0.002C39.747,79.855,39.747,79.848,39.747,79.841z M35.909,18.381
		c-1.426,0.027-2.534,0.633-3.535,1.487c-2.156,1.84-2.386,3.772-0.685,6.03c1.073,1.425,2.374,2.65,3.564,3.972
		c4.343,4.819,8.735,9.595,12.981,14.501c0.703,0.813,0.704,1.308,0.071,2.19c-0.267,0.371-0.614,0.661-0.994,0.907
		c-2.481,1.604-4.785,3.454-7.17,5.19c-5.155,3.751-10.297,7.52-15.427,11.305c-1.41,1.041-2.941,1.941-4.105,3.288
		c-1.001,1.159-1.108,2.341-0.366,3.679c1.397,2.517,3.477,3.109,5.962,1.685c0.41-0.234,0.801-0.504,1.182-0.784
		c1.709-1.25,3.409-2.515,5.118-3.766c8.816-6.456,17.639-12.901,26.448-19.368c2.82-2.071,2.97-3.876,0.608-6.442
		c-2.257-2.454-4.526-4.896-6.77-7.362c-4.428-4.866-8.835-9.749-13.267-14.611C38.543,19.206,37.364,18.447,35.909,18.381z
		 M52.554,72.556c1.08,0,2.162-0.004,3.242,0.001c1.104,0.004,2.207,0.054,3.309,0.019c1.234-0.041,2.485,0.047,3.694-0.281
		c1.881-0.51,3.021-2.444,2.75-4.625c-0.229-1.849-1.497-2.919-3.572-2.954c-5.54-0.094-11.08-0.124-16.619-0.024
		c-0.942,0.017-1.901-0.074-2.822,0.19c-1.749,0.501-2.699,2.32-2.434,4.598c0.208,1.783,1.483,2.921,3.405,3.023
		C46.522,72.662,49.539,72.586,52.554,72.556z"/>
	<path fill-rule="evenodd" clip-rule="evenodd" fill="#FBFBFC" d="M35.909,18.381c1.456,0.065,2.634,0.825,3.616,1.901
		c4.431,4.862,8.839,9.745,13.267,14.611c2.244,2.466,4.512,4.909,6.77,7.362c2.362,2.566,2.212,4.372-0.608,6.442
		c-8.809,6.466-17.631,12.912-26.448,19.368c-1.709,1.251-3.408,2.517-5.118,3.766c-0.381,0.279-0.772,0.55-1.182,0.784
		c-2.486,1.424-4.565,0.832-5.962-1.685c-0.743-1.338-0.635-2.521,0.366-3.679c1.164-1.347,2.695-2.248,4.105-3.288
		c5.13-3.785,10.272-7.553,15.427-11.305c2.386-1.736,4.689-3.586,7.17-5.19c0.38-0.246,0.727-0.536,0.994-0.907
		c0.633-0.882,0.632-1.377-0.071-2.19c-4.246-4.906-8.638-9.682-12.981-14.501c-1.19-1.322-2.492-2.546-3.564-3.972
		c-1.701-2.258-1.471-4.189,0.685-6.03C33.375,19.015,34.483,18.408,35.909,18.381z"/>
	<path fill-rule="evenodd" clip-rule="evenodd" fill="#FBFBFC" d="M52.554,72.556c-3.016,0.031-6.032,0.106-9.046-0.054
		c-1.922-0.102-3.197-1.24-3.405-3.023c-0.266-2.277,0.685-4.096,2.434-4.598c0.921-0.264,1.88-0.173,2.822-0.19
		c5.54-0.1,11.08-0.069,16.619,0.024c2.076,0.035,3.343,1.105,3.572,2.954c0.271,2.181-0.869,4.115-2.75,4.625
		c-1.209,0.328-2.46,0.24-3.694,0.281c-1.102,0.035-2.206-0.014-3.309-0.019C54.716,72.552,53.634,72.556,52.554,72.556z"/>
</g>
</svg>
