<?xml version="1.0" encoding="utf-8"?>
<!-- Generator: Adobe Illustrator 16.0.0, SVG Export Plug-In . SVG Version: 6.00 Build 0)  -->
<!DOCTYPE svg PUBLIC "-//W3C//DTD SVG 1.1//EN" "http://www.w3.org/Graphics/SVG/1.1/DTD/svg11.dtd">
<svg version="1.1" id="Laag_1" xmlns="http://www.w3.org/2000/svg" xmlns:xlink="http://www.w3.org/1999/xlink" x="0px" y="0px"
	 width="90px" height="112.161px" viewBox="374.873 555.941 90 112.161" enable-background="new 374.873 555.941 90 112.161"
	 xml:space="preserve">
<path d="M385.825,651.83c0-4.446-1.268-6.665-3.81-6.747c-1.032-0.077-1.982,0.159-2.937,0.478c-0.796,0.236-1.269,0.555-1.51,0.796
	v10.476c1.587,1.031,3.015,1.509,4.288,1.427C384.475,658.018,385.825,655.877,385.825,651.83z M388.922,651.989
	c0,2.224-0.478,4.047-1.587,5.556c-1.191,1.669-2.778,2.542-4.919,2.542c-1.586,0.077-3.173-0.478-4.842-1.51v9.525l-2.701-0.955
	v-21.191c0.478-0.555,1.032-1.032,1.668-1.428c1.587-0.95,3.574-1.428,5.792-1.428c2.064,0,3.728,0.873,4.842,2.542
	C388.362,647.466,388.922,649.447,388.922,651.989L388.922,651.989z M405.349,658.259c0,3.015-0.318,5.079-0.873,6.193
	c-0.637,1.108-1.746,2.063-3.415,2.777c-1.428,0.555-2.855,0.873-4.447,0.873l-0.478-1.669c1.669-0.236,2.778-0.477,3.415-0.637
	c1.269-0.477,2.223-1.108,2.696-2.063c0.396-0.714,0.555-2.142,0.555-4.206v-0.714c-1.823,0.873-3.81,1.269-5.792,1.269
	c-1.351,0-2.542-0.396-3.492-1.269c-1.109-0.873-1.669-2.063-1.669-3.491v-11.189l2.696-0.95v11.271
	c0,1.191,0.396,2.142,1.191,2.777c0.796,0.637,1.746,0.95,3.014,0.95c1.269,0,2.542-0.478,3.969-1.428v-13.181h2.696
	L405.349,658.259z M415.824,660.005h-0.873c-1.509,0-2.696-0.396-3.574-1.109c-0.873-0.714-1.269-1.745-1.269-3.014v-10.635h-1.823
	v-1.674h1.823v-4.523l2.696-0.95v5.474h3.014v1.669h-3.014v10.476c0,1.032,0.236,1.745,0.796,2.141
	c0.477,0.318,1.191,0.555,2.223,0.637V660.005z M432.173,659.764h-2.696v-10.398c0-1.031-0.236-1.981-0.714-2.695
	c-0.555-0.873-1.351-1.269-2.383-1.269c-1.268,0-2.778,0.637-4.601,1.982v12.462h-2.696v-24.843l2.696-0.873v11.271
	c1.746-1.269,3.574-1.905,5.633-1.905c1.428,0,2.542,0.478,3.492,1.428c0.873,0.95,1.351,2.142,1.351,3.574L432.173,659.764z
	 M446.458,651.353c0-1.669-0.318-3.096-0.95-4.205c-0.796-1.351-1.905-2.064-3.574-2.142c-2.937,0.159-4.446,2.301-4.446,6.347
	c0,1.905,0.318,3.415,0.95,4.684c0.795,1.586,1.982,2.382,3.574,2.382C444.949,658.336,446.458,656.036,446.458,651.353z
	 M449.396,651.353c0,2.383-0.637,4.447-1.823,6.034c-1.351,1.745-3.255,2.695-5.556,2.695c-2.383,0-4.206-0.873-5.556-2.695
	c-1.191-1.587-1.823-3.574-1.823-6.034c0-2.3,0.637-4.205,1.982-5.715c1.428-1.669,3.173-2.46,5.397-2.46
	c2.223,0,4.046,0.796,5.474,2.46C448.759,647.225,449.396,649.129,449.396,651.353z M464.873,659.764h-2.696v-10.952
	c0-1.191-0.396-2.142-1.109-2.778s-1.669-1.032-2.938-0.95c-1.268,0-2.542,0.478-3.651,1.269v13.571h-2.696v-13.89
	c1.51-1.109,2.937-1.905,4.288-2.224c1.269-0.318,2.3-0.478,3.255-0.478c0.637,0,1.269,0.077,1.823,0.159
	c1.032,0.236,1.905,0.714,2.542,1.351c0.714,0.714,1.109,1.669,1.109,2.696L464.873,659.764z"/>
<linearGradient id="SVGID_1_" gradientUnits="userSpaceOnUse" x1="12942.7578" y1="28288.4023" x2="12950.9473" y2="28295.4492" gradientTransform="matrix(4.1653 0 0 4.2061 -53524.3867 -118425.0547)">
	<stop  offset="0" style="stop-color:#5CA0D5"/>
	<stop  offset="1" style="stop-color:#316A99"/>
</linearGradient>
<path fill="url(#SVGID_1_)" d="M418.684,555.956c-2.542,0-5.001,0.236-7.143,0.637c-6.347,1.109-7.461,3.415-7.461,7.779v5.715
	h14.922v1.905h-20.478c-4.288,0-8.093,2.619-9.284,7.538c-1.35,5.715-1.427,9.207,0,15.158c1.032,4.447,3.574,7.539,7.938,7.539
	h5.161v-6.825c0-4.919,4.288-9.284,9.284-9.284h14.84c4.128,0,7.461-3.415,7.461-7.62V564.29c0-4.046-3.415-7.065-7.461-7.779
	C423.839,556.115,421.221,555.879,418.684,555.956z M410.586,560.48c1.51,0,2.778,1.268,2.778,2.855s-1.269,2.855-2.778,2.855
	c-1.509,0-2.778-1.269-2.778-2.855S409,560.48,410.586,560.48z"/>
<linearGradient id="SVGID_2_" gradientUnits="userSpaceOnUse" x1="12954.1289" y1="28299.7031" x2="12951.2051" y2="28295.5664" gradientTransform="matrix(4.1653 0 0 4.2061 -53524.3867 -118425.0547)">
	<stop  offset="0" style="stop-color:#FFD43E"/>
	<stop  offset="1" style="stop-color:#FFE975"/>
</linearGradient>
<path fill="url(#SVGID_2_)" d="M435.747,571.828v6.588c0,5.161-4.365,9.443-9.366,9.443h-14.84c-4.046,0-7.461,3.492-7.461,7.62
	v14.208c0,4.047,3.492,6.43,7.461,7.62c4.683,1.428,9.207,1.669,14.922,0c3.729-1.109,7.461-3.255,7.461-7.62v-5.715h-14.927v-1.905
	h22.383c4.288,0,5.951-3.014,7.461-7.538c1.586-4.683,1.509-9.125,0-15.158c-1.032-4.288-3.096-7.538-7.461-7.538L435.747,571.828z
	 M427.331,607.783c1.51,0,2.778,1.269,2.778,2.855c0,1.587-1.269,2.855-2.778,2.855c-1.509,0-2.778-1.269-2.778-2.855
	C424.553,609.051,425.826,607.783,427.331,607.783z"/>
<path d="M439.157,626.91c0,2.142-8.965,3.888-20,3.888c-11.035,0-20-1.746-20-3.888s8.966-3.887,20-3.887
	C430.191,623.023,439.157,624.764,439.157,626.91L439.157,626.91z"/>
</svg>
