<?xml version="1.0" encoding="utf-8"?>
<!-- Generator: Adobe Illustrator 16.0.0, SVG Export Plug-In . SVG Version: 6.00 Build 0)  -->
<!DOCTYPE svg PUBLIC "-//W3C//DTD SVG 1.1//EN" "http://www.w3.org/Graphics/SVG/1.1/DTD/svg11.dtd">
<svg version="1.1" id="svg" xmlns="http://www.w3.org/2000/svg" xmlns:xlink="http://www.w3.org/1999/xlink" x="0px" y="0px"
	 width="90px" height="115.458px" viewBox="155.764 98.782 90 115.458" enable-background="new 155.764 98.782 90 115.458"
	 xml:space="preserve">
<g id="svgg">
	<path id="path0" fill="#744CBC" d="M194.857,99.028c-0.147,0.119-0.174,0.171-0.061,0.117c0.154-0.074,0.168-0.058,0.056,0.065
		c-0.083,0.09-0.5,0.176-0.926,0.191c-0.596,0.022-0.767,0.075-0.742,0.231c0.033,0.208-0.028,0.231-0.713,0.26
		c-0.221,0.009-0.492,0.107-0.602,0.217c-0.11,0.11-0.238,0.161-0.285,0.114c-0.046-0.046-0.084-0.026-0.084,0.046
		c0,0.072-0.189,0.146-0.421,0.164c-0.727,0.055-1.137,0.244-1.005,0.463c0.08,0.132-0.141,0.246-0.546,0.279
		c-0.201,0.017-0.374,0.132-0.411,0.274c-0.044,0.168-0.197,0.245-0.485,0.245c-0.304,0-0.4,0.053-0.347,0.192
		c0.04,0.106-0.002,0.239-0.094,0.296c-0.107,0.066-0.133,0.046-0.07-0.055c0.058-0.095,0.009-0.159-0.125-0.159
		c-0.122,0-0.184,0.062-0.137,0.137c0.046,0.076-0.008,0.138-0.122,0.138c-0.114,0-0.287,0.115-0.386,0.256
		c-0.099,0.141-0.38,0.3-0.626,0.354c-0.245,0.054-0.446,0.185-0.446,0.291s-0.155,0.231-0.344,0.279s-0.343,0.165-0.343,0.262
		c0,0.096-0.124,0.207-0.275,0.247s-0.275,0.156-0.275,0.258s-0.139,0.25-0.309,0.327c-0.17,0.077-0.292,0.22-0.271,0.317
		c0.021,0.097-0.021,0.14-0.093,0.095c-0.072-0.044-0.17-0.018-0.218,0.059c-0.047,0.076-0.241,0.14-0.43,0.14
		c-0.278,0-0.336,0.059-0.301,0.309c0.033,0.238-0.017,0.299-0.217,0.264c-0.316-0.055-0.491,0.192-0.494,0.697
		c-0.001,0.208-0.067,0.377-0.147,0.377c-0.08,0-0.107-0.061-0.062-0.136c0.048-0.078-0.007-0.101-0.129-0.054
		c-0.117,0.045-0.213,0.196-0.213,0.334c0,0.139-0.072,0.296-0.161,0.351c-0.111,0.069-0.132,0.018-0.068-0.163
		c0.09-0.255,0.086-0.255-0.114,0.004c-0.113,0.146-0.206,0.378-0.206,0.515c0,0.157-0.101,0.248-0.275,0.248
		c-0.183,0-0.274,0.092-0.274,0.275c0,0.246-0.143,0.339-0.447,0.291c-0.057-0.009-0.096,0.03-0.086,0.087
		c0.046,0.295-0.031,0.591-0.139,0.525c-0.067-0.042-0.198,0.017-0.291,0.129c-0.094,0.113-0.116,0.206-0.05,0.208
		c0.066,0.002-0.035,0.126-0.223,0.277c-0.252,0.2-0.273,0.248-0.081,0.18c0.182-0.065,0.232-0.044,0.164,0.067
		c-0.055,0.088-0.188,0.161-0.297,0.161c-0.118,0-0.198,0.135-0.198,0.334c0,0.213-0.099,0.365-0.275,0.421
		c-0.202,0.064-0.275,0.208-0.275,0.541c0,0.384-0.048,0.451-0.309,0.437c-0.232-0.012-0.301,0.052-0.278,0.259
		c0.039,0.341-0.237,0.908-0.395,0.811c-0.101-0.062-0.143,0.114-0.107,0.453c0.006,0.053-0.118,0.144-0.274,0.202
		c-0.157,0.058-0.284,0.184-0.283,0.281c0.001,0.123,0.042,0.114,0.135-0.03c0.093-0.144,0.134-0.153,0.135-0.03
		c0.001,0.097-0.078,0.207-0.175,0.244c-0.15,0.058-0.227,0.37-0.271,1.103c-0.005,0.082-0.088,0.149-0.185,0.149
		c-0.133,0-0.14-0.068-0.029-0.286c0.121-0.235,0.114-0.255-0.034-0.115c-0.157,0.148-0.198,0.371-0.254,1.389
		c-0.005,0.103-0.096,0.154-0.201,0.113c-0.134-0.051-0.17,0.006-0.122,0.191c0.038,0.146,0.012,0.265-0.057,0.265
		c-0.07,0-0.142,0.258-0.161,0.574c-0.04,0.67-0.121,0.843-0.354,0.753c-0.12-0.046-0.178,0.162-0.201,0.709
		c-0.033,0.804-0.073,0.917-0.327,0.917c-0.089,0-0.175,0.34-0.205,0.816c-0.036,0.554-0.125,0.87-0.279,0.982
		c-0.224,0.163-0.255,0.408-0.29,2.219c-0.008,0.407-0.077,0.721-0.159,0.721c-0.08,0-0.103-0.069-0.05-0.155
		c0.058-0.093,0.021-0.13-0.093-0.092c-0.123,0.041-0.195,0.3-0.207,0.739c-0.01,0.372-0.037,1.492-0.059,2.49
		c-0.023,0.998-0.086,1.786-0.141,1.752c-0.322-0.199-0.547,4.336-0.234,4.714c0.094,0.113,0.105,0.225,0.028,0.281
		c-0.194,0.14-0.183,0.528,0.015,0.528c0.1,0,0.141-0.093,0.097-0.218c-0.043-0.12-0.035-0.18,0.018-0.133
		c0.203,0.181,0.209,0.657,0.008,0.58c-0.257-0.099-0.253,0.088,0.007,0.282c0.16,0.119,0.207,0.521,0.219,1.835
		c0.009,1.052,0.067,1.683,0.156,1.683c0.083,0,0.071,0.084-0.03,0.206c-0.165,0.199-0.065,0.275,0.296,0.227
		c0.113-0.016,0.075,0.267-0.067,0.495c-0.061,0.097-0.044,0.171,0.038,0.171c0.084,0,0.146,0.311,0.146,0.74
		c0,0.747,0.282,1.679,0.455,1.506c0.087-0.086,0.165,1.538,0.097,2.013c-0.016,0.113,0.017,0.16,0.073,0.104
		c0.178-0.175,0.478,0.596,0.515,1.324c0.039,0.751,0.174,1.096,0.38,0.969c0.072-0.044,0.128,0.195,0.128,0.547
		c0,0.535,0.04,0.626,0.274,0.626c0.275,0,0.329,0.231,0.316,1.347c-0.002,0.208,0.06,0.292,0.179,0.246
		c0.287-0.11,0.386,0.146,0.501,1.292c0.019,0.188,0.111,0.393,0.206,0.453c0.094,0.061,0.171,0.267,0.171,0.459
		c0,0.234,0.091,0.373,0.275,0.421c0.168,0.044,0.283,0.198,0.295,0.399c0.012,0.18,0.027,0.405,0.034,0.5
		c0.018,0.225,0.263,0.501,0.382,0.429c0.146-0.088,0.236,0.135,0.272,0.681c0.03,0.457,0.121,0.567,0.424,0.52
		c0.057-0.009,0.104,0.104,0.104,0.25s0.062,0.305,0.137,0.352c0.076,0.047,0.138,0.146,0.138,0.222s-0.07,0.094-0.156,0.042
		c-0.095-0.059-0.129-0.021-0.088,0.095c0.037,0.105,0.168,0.183,0.292,0.172c0.151-0.013,0.226,0.088,0.226,0.309
		c0,0.181,0.077,0.329,0.171,0.33c0.115,0.002,0.104,0.046-0.034,0.136c-0.198,0.128-0.08,0.196,0.281,0.162
		c0.042-0.003,0.09,0.199,0.107,0.45c0.024,0.362-0.02,0.453-0.21,0.438c-0.282-0.023-0.299,0.085-0.324,2.08
		c-0.016,1.292-0.038,1.398-0.245,1.239c-0.208-0.16-0.208-0.152,0.001,0.097c0.141,0.167,0.242,0.564,0.263,1.028
		c0.034,0.765,0.194,1.158,0.417,1.021c0.11-0.068,0.173,0.278,0.17,0.937c0,0.132,0.05,0.24,0.113,0.24
		c0.063,0,0.114-0.075,0.114-0.168c0-0.092,0.096-0.03,0.214,0.138c0.118,0.169,0.176,0.367,0.129,0.442
		c-0.047,0.076,0.036,0.138,0.183,0.138c0.174,0,0.299,0.125,0.357,0.355c0.063,0.249,0.154,0.332,0.303,0.274
		c0.14-0.053,0.238,0.014,0.285,0.193c0.04,0.152,0.148,0.275,0.241,0.275c0.25,0,0.771,0.491,0.655,0.617
		c-0.055,0.06,0.069,0.067,0.277,0.018c0.209-0.05,0.377-0.032,0.377,0.039c0,0.405,0.865,0.554,3.17,0.543
		c1.277-0.006,2.297-0.051,2.267-0.101c-0.118-0.19,0.284-0.499,0.676-0.519c0.59-0.029,0.62-0.037,0.602-0.151
		c-0.049-0.307,0.047-0.425,0.303-0.375c0.207,0.039,0.266,0,0.212-0.144c-0.071-0.184,0.213-0.433,0.531-0.463
		c0.076-0.008,0.146-0.076,0.154-0.151c0.01-0.075,0.025-0.199,0.035-0.275c0.009-0.075,0.137-0.137,0.284-0.137
		c0.193,0,0.252-0.076,0.214-0.274c-0.038-0.194,0.039-0.297,0.263-0.354c0.241-0.06,0.306-0.162,0.277-0.429
		c-0.051-0.47,0.062-0.728,0.283-0.643c0.197,0.075,0.303-0.318,0.337-1.247c0.011-0.299,0.094-0.636,0.186-0.748
		c0.13-0.161,0.129-0.183-0.004-0.103c-0.116,0.069-0.144,0.034-0.089-0.11c0.045-0.116,0.129-0.184,0.187-0.147
		c0.173,0.106,0.086-0.533-0.099-0.729c-0.095-0.1-0.17-0.255-0.167-0.344s0.095-0.042,0.206,0.104
		c0.111,0.147,0.202,0.214,0.202,0.148c0-0.064-0.096-0.225-0.214-0.354c-0.132-0.146-0.216-0.501-0.219-0.931
		c-0.005-0.573-0.062-0.731-0.326-0.905c-0.241-0.157-0.309-0.309-0.271-0.606c0.039-0.305-0.024-0.437-0.273-0.57
		c-0.184-0.099-0.292-0.255-0.251-0.361c0.04-0.104-0.042-0.231-0.183-0.284c-0.346-0.131-0.605-0.402-0.492-0.515
		c0.05-0.051-0.009-0.054-0.134-0.006c-0.147,0.057-0.278-0.013-0.378-0.199c-0.084-0.157-0.104-0.292-0.045-0.299
		c0.06-0.007-0.046-0.057-0.235-0.109c-0.189-0.053-0.343-0.184-0.343-0.292c0-0.126-0.174-0.211-0.481-0.235
		c-0.284-0.023-0.565-0.151-0.687-0.312c-0.182-0.24-0.386-0.274-1.732-0.293c-1.309-0.019-1.524-0.053-1.511-0.242
		c0.009-0.13-0.11-0.238-0.293-0.265c-0.297-0.042-0.349-0.171-0.345-0.883c0-0.219-0.131-0.301-0.41-0.257
		c-0.057,0.009-0.103-0.103-0.103-0.247c0-0.41-0.148-0.698-0.358-0.698c-0.117,0-0.192-0.147-0.193-0.378
		c-0.003-0.624-0.145-0.983-0.355-0.903c-0.171,0.066-0.294-0.59-0.206-1.099c0.011-0.063-0.031-0.083-0.093-0.043
		c-0.245,0.15-0.438-0.16-0.474-0.762c-0.032-0.529-0.079-0.624-0.291-0.583c-0.218,0.041-0.228,0.018-0.068-0.179
		c0.13-0.161,0.134-0.197,0.012-0.124c-0.116,0.07-0.179,0-0.192-0.214c-0.034-0.506-0.051-0.575-0.231-0.901
		c-0.094-0.17-0.122-0.31-0.063-0.311c0.059-0.001,0.028-0.053-0.07-0.115c-0.155-0.099-0.219-0.341-0.287-1.085
		c-0.008-0.094-0.124-0.176-0.256-0.181c-0.216-0.009-0.214-0.021,0.016-0.111c0.244-0.095,0.244-0.114,0.022-0.336
		c-0.157-0.157-0.244-0.484-0.259-0.983c-0.013-0.433-0.103-0.822-0.213-0.924c-0.157-0.146-0.171-0.141-0.08,0.029
		c0.061,0.113,0.058,0.157-0.006,0.099c-0.168-0.152-0.216-0.454-0.241-1.507c-0.012-0.51-0.074-0.927-0.137-0.927
		c-0.063,0-0.07-0.072-0.015-0.161c0.067-0.108,0.024-0.132-0.129-0.073c-0.169,0.065-0.231,0.009-0.238-0.217
		c-0.005-0.167-0.021-1.062-0.034-1.987c-0.014-0.925-0.067-1.683-0.119-1.683s-0.036-0.201,0.034-0.445
		c0.191-0.667,0.164-0.971-0.078-0.878c-0.25,0.096-0.269-0.069-0.036-0.303c0.136-0.136,0.129-0.197-0.034-0.3
		c-0.113-0.071-0.137-0.13-0.054-0.131c0.098-0.001,0.151-0.414,0.151-1.17c0-0.96-0.038-1.167-0.212-1.167
		c-0.17,0-0.162-0.036,0.042-0.185c0.14-0.102,0.209-0.257,0.155-0.344c-0.053-0.087-0.045-0.158,0.02-0.158
		c0.064,0,0.114-1.081,0.111-2.401c-0.005-2.198,0.15-3.312,0.37-2.654c0.033,0.099,0.092,0.009,0.132-0.199
		c0.04-0.208,0.016-0.378-0.054-0.378c-0.07,0-0.08-0.076-0.022-0.168c0.058-0.092,0.112-0.43,0.123-0.748
		c0.01-0.319,0.105-0.688,0.212-0.819c0.125-0.154,0.133-0.203,0.023-0.137c-0.249,0.149-0.21-0.054,0.067-0.361
		c0.261-0.289,0.259-0.279,0.292-1.269c0.017-0.483,0.061-0.627,0.151-0.485c0.182,0.288,0.328,0.08,0.36-0.515
		c0.015-0.281,0.034-0.62,0.042-0.752c0.009-0.144,0.125-0.24,0.29-0.24c0.232,0,0.275-0.092,0.275-0.597
		c0-0.423,0.08-0.67,0.274-0.846c0.152-0.137,0.275-0.329,0.275-0.427c0-0.304,0.309-0.873,0.432-0.796
		c0.064,0.04,0.117-0.052,0.117-0.204c0-0.346,0.281-0.976,0.435-0.976c0.063,0,0.115-0.151,0.115-0.335
		c0-0.184,0.062-0.374,0.137-0.42c0.076-0.046,0.137-0.007,0.137,0.088c0,0.406,0.291-0.147,0.316-0.603
		c0.021-0.382,0.079-0.477,0.268-0.44c0.174,0.033,0.24-0.043,0.24-0.28c0-0.234,0.088-0.338,0.309-0.37
		c0.189-0.027,0.296-0.127,0.275-0.258c-0.019-0.118,0.105-0.364,0.274-0.546c0.17-0.182,0.317-0.38,0.327-0.438
		c0.009-0.059,0.025-0.168,0.034-0.244c0.009-0.076,0.145-0.138,0.3-0.138c0.155,0,0.248-0.056,0.205-0.126
		c-0.103-0.167,0.322-0.586,0.488-0.483c0.072,0.044,0.121,0.029,0.11-0.033c-0.07-0.405,0.03-0.564,0.309-0.491
		c0.25,0.065,0.284,0.031,0.219-0.219c-0.066-0.254-0.02-0.296,0.331-0.296c0.357,0,0.398-0.039,0.324-0.309
		c-0.076-0.277-0.068-0.284,0.073-0.057c0.15,0.241,0.166,0.24,0.359-0.037c0.111-0.159,0.264-0.25,0.339-0.204
		c0.076,0.046,0.17-0.04,0.209-0.191c0.069-0.264,0.484-0.489,0.827-0.45c0.232,0.027,0.353-0.227,0.163-0.344
		c-0.101-0.062-0.124-0.041-0.063,0.059c0.054,0.087,0.033,0.158-0.047,0.158c-0.08,0-0.145-0.093-0.145-0.206
		c0-0.137,0.136-0.207,0.403-0.207c0.282,0,0.429-0.082,0.49-0.275c0.048-0.151,0.149-0.274,0.223-0.274
		c0.075,0,0.09,0.078,0.034,0.172c-0.083,0.137-0.061,0.137,0.106,0.001c0.116-0.094,0.432-0.186,0.701-0.206
		c0.375-0.028,0.458-0.077,0.349-0.208c-0.078-0.094-0.088-0.179-0.022-0.188s0.182-0.03,0.257-0.048s0.305-0.042,0.51-0.053
		c0.205-0.012,0.484-0.141,0.62-0.287c0.187-0.201,0.473-0.277,1.16-0.309c0.501-0.023,0.891-0.077,0.865-0.118
		c-0.172-0.281,0.286-0.399,1.686-0.435c0.968-0.025,1.485-0.087,1.403-0.169c-0.207-0.207-0.151-0.402,0.063-0.224
		c0.133,0.11,0.222,0.115,0.283,0.017c0.148-0.24,1.325-0.171,1.639,0.096c0.258,0.219,0.267,0.219,0.102,0.005
		c-0.164-0.211-0.143-0.23,0.208-0.184c0.535,0.071,0.871,0.216,0.871,0.375c0,0.073,0.201,0.122,0.446,0.109
		c1.315-0.072,1.737-0.005,1.686,0.268c-0.043,0.217,0.025,0.263,0.385,0.254c0.62-0.014,1.091,0.129,1.227,0.371
		c0.064,0.115,0.266,0.208,0.445,0.208c0.255,0,0.317,0.062,0.275,0.275c-0.045,0.237,0.021,0.275,0.489,0.275
		c0.502,0,0.617,0.095,0.555,0.457c-0.011,0.063,0.038,0.078,0.109,0.033c0.072-0.044,0.212,0.001,0.313,0.101
		c0.101,0.1,0.295,0.223,0.432,0.275c0.145,0.055,0.208,0.162,0.15,0.254c-0.06,0.096-0.038,0.122,0.054,0.065
		c0.083-0.052,0.217,0.027,0.296,0.175c0.078,0.148,0.283,0.289,0.453,0.313c0.199,0.028,0.325,0.154,0.354,0.353
		c0.024,0.169,0.128,0.309,0.232,0.309c0.104,0,0.232,0.072,0.287,0.16c0.067,0.109,0.023,0.132-0.136,0.071
		c-0.141-0.054-0.202-0.036-0.152,0.045c0.046,0.075,0.177,0.136,0.29,0.136s0.167,0.062,0.12,0.139
		c-0.101,0.163,0.165,0.452,0.547,0.598c0.196,0.075,0.224,0.131,0.099,0.208c-0.121,0.075-0.069,0.152,0.173,0.263
		c0.226,0.103,0.316,0.23,0.265,0.367c-0.061,0.156,0.012,0.21,0.277,0.21c0.341,0,0.461,0.246,0.366,0.744
		c-0.013,0.07,0.069,0.049,0.185-0.046c0.176-0.146,0.199-0.129,0.153,0.114c-0.03,0.158,0.002,0.287,0.073,0.287
		s0.13,0.086,0.13,0.19c0,0.104,0.124,0.222,0.274,0.262c0.202,0.053,0.274,0.188,0.274,0.506c0,0.428,0.299,0.896,0.465,0.729
		c0.047-0.046,0.085,0.111,0.085,0.351c0,0.318,0.064,0.438,0.241,0.446c0.143,0.006,0.171,0.039,0.068,0.08
		c-0.095,0.038-0.172,0.124-0.172,0.191c0,0.066,0.093,0.086,0.206,0.042c0.159-0.061,0.206,0.033,0.206,0.417
		c0,0.304,0.066,0.496,0.172,0.498c0.114,0.001,0.103,0.046-0.034,0.135c-0.168,0.108-0.15,0.133,0.095,0.135
		c0.256,0.001,0.308,0.09,0.343,0.585c0.034,0.462,0.094,0.58,0.288,0.564c0.186-0.016,0.21,0.022,0.098,0.158
		c-0.098,0.118-0.102,0.194-0.009,0.226c0.076,0.026,0.156,0.264,0.177,0.529c0.045,0.557,0.256,0.882,0.414,0.637
		c0.081-0.126,0.171,1.015,0.143,1.801c-0.004,0.094,0.076,0.171,0.178,0.171c0.224,0,0.375,0.729,0.378,1.815
		c0.001,0.477,0.062,0.796,0.15,0.797c0.082,0.001,0.063,0.056-0.04,0.123c-0.149,0.094-0.128,0.14,0.103,0.213
		c0.235,0.074,0.293,0.202,0.293,0.645c0,0.488,0.048,0.57,0.415,0.708c0.253,0.096,0.388,0.228,0.345,0.339
		c-0.039,0.102-0.008,0.144,0.072,0.094c0.078-0.048,0.243-0.005,0.368,0.096c0.162,0.13,0.197,0.134,0.123,0.012
		c-0.108-0.18,0.074-0.24,0.235-0.078c0.053,0.052,0.294,0.113,0.539,0.138c0.704,0.069,0.772,0.084,0.764,0.169
		c-0.038,0.349,0.038,0.425,0.289,0.291c0.178-0.095,0.295-0.097,0.352-0.005c0.048,0.076,0.304,0.138,0.571,0.138
		c0.377,0,0.502,0.064,0.561,0.286c0.058,0.219,0.103,0.243,0.193,0.103c0.084-0.131,0.147-0.139,0.221-0.029
		c0.19,0.285,1.517,0.222,1.611-0.076c0.134-0.422,0.04-2.533-0.122-2.749c-0.113-0.15-0.107-0.173,0.021-0.095
		c0.095,0.056,0.172,0.047,0.172-0.022c0-0.068-0.139-0.191-0.309-0.273c-0.289-0.14-0.291-0.15-0.034-0.163
		c0.254-0.013,0.258-0.026,0.039-0.192c-0.183-0.139-0.244-0.438-0.275-1.346c-0.029-0.82-0.104-1.23-0.252-1.378
		c-0.139-0.138-0.222-0.528-0.244-1.148c-0.02-0.517-0.101-1.019-0.182-1.116c-0.081-0.098-0.111-0.269-0.068-0.382
		c0.043-0.112-0.013-0.254-0.123-0.316c-0.117-0.065-0.216-0.355-0.235-0.69c-0.029-0.512-0.105-0.63-0.385-0.603
		c-0.042,0.004-0.091-0.221-0.108-0.499c-0.048-0.765-0.083-0.914-0.229-0.965c-0.312-0.106-0.413-0.306-0.393-0.768
		c0.013-0.269-0.025-0.459-0.085-0.422c-0.06,0.037-0.146-0.03-0.191-0.149c-0.126-0.325-0.098-0.427,0.054-0.194
		c0.084,0.129,0.134,0.144,0.136,0.039c0-0.092-0.124-0.234-0.277-0.316c-0.153-0.082-0.243-0.205-0.201-0.273
		c0.154-0.25-0.096-0.824-0.359-0.824c-0.168,0-0.26-0.097-0.26-0.274c0-0.151-0.062-0.275-0.137-0.275
		c-0.168,0-0.121-0.305,0.068-0.444c0.075-0.056-0.002-0.102-0.172-0.103c-0.237-0.001-0.31-0.082-0.31-0.345
		c0-0.214-0.077-0.344-0.205-0.344c-0.113,0-0.207-0.065-0.207-0.145c0-0.081,0.078-0.102,0.173-0.049
		c0.094,0.053,0.032-0.039-0.138-0.203c-0.171-0.165-0.31-0.397-0.31-0.516c0-0.135-0.077-0.186-0.205-0.137
		c-0.156,0.06-0.206-0.023-0.206-0.336c0-0.239-0.059-0.38-0.137-0.332c-0.081,0.05-0.099-0.012-0.045-0.153
		c0.071-0.184,0.038-0.216-0.146-0.146c-0.131,0.05-0.204,0.037-0.163-0.029c0.041-0.066-0.021-0.199-0.137-0.295
		c-0.169-0.141-0.176-0.2-0.032-0.302c0.123-0.088,0.083-0.107-0.131-0.06c-0.254,0.056-0.31,0.009-0.31-0.262
		c0-0.239-0.076-0.331-0.274-0.331c-0.16,0-0.274-0.091-0.274-0.219c0-0.121-0.122-0.25-0.271-0.289
		c-0.149-0.039-0.308-0.188-0.354-0.331c-0.045-0.143-0.162-0.26-0.261-0.26s-0.172-0.139-0.163-0.309
		c0.011-0.18-0.055-0.294-0.154-0.275c-0.095,0.019-0.172-0.031-0.172-0.111c0-0.08-0.063-0.106-0.141-0.059
		s-0.124,0.008-0.104-0.09c0.021-0.098-0.102-0.24-0.271-0.317c-0.169-0.078-0.309-0.25-0.309-0.383
		c0-0.147-0.104-0.242-0.267-0.242c-0.146,0-0.312-0.072-0.366-0.161c-0.067-0.109-0.023-0.131,0.136-0.07
		c0.131,0.05,0.202,0.035,0.159-0.034c-0.043-0.069-0.256-0.165-0.475-0.212c-0.229-0.051-0.425-0.199-0.466-0.354
		c-0.039-0.151-0.188-0.267-0.342-0.267c-0.175,0-0.266-0.086-0.253-0.241c0.012-0.155-0.079-0.241-0.256-0.241
		c-0.182,0-0.275-0.092-0.275-0.27c0-0.203-0.103-0.274-0.412-0.291c-0.7-0.037-0.773-0.054-0.703-0.167
		c0.102-0.165-0.077-0.357-0.506-0.546c-0.213-0.093-0.353-0.223-0.313-0.289c0.041-0.066-0.079-0.129-0.267-0.14
		c-0.692-0.041-0.753-0.065-0.753-0.308c0-0.175-0.067-0.222-0.229-0.16c-0.142,0.054-0.194,0.033-0.14-0.056
		c0.056-0.09-0.067-0.13-0.332-0.108c-0.35,0.03-0.411-0.008-0.357-0.214c0.057-0.215-0.054-0.262-0.811-0.343
		c-0.481-0.052-0.844-0.145-0.807-0.206c0.115-0.186-0.24-0.324-0.851-0.333c-0.417-0.006-0.649-0.093-0.841-0.313
		c-0.291-0.335-8.932-0.479-9.531-0.159c-0.168,0.09-0.251,0.087-0.251-0.008C195.346,98.75,195.165,98.778,194.857,99.028
		 M174.793,121.827c0.054,0.139,0.027,0.179-0.077,0.115c-0.11-0.068-0.128-0.018-0.059,0.165c0.072,0.189,0.059,0.221-0.05,0.114
		c-0.082-0.083-0.11-0.252-0.062-0.378C174.654,121.56,174.69,121.557,174.793,121.827 M192.826,125.075
		c-0.044,0.169-0.196,0.247-0.48,0.247c-0.446,0-1.847,0.787-1.732,0.973c0.038,0.062-0.051,0.088-0.198,0.06
		c-0.151-0.029-0.303,0.04-0.349,0.159c-0.044,0.116-0.17,0.175-0.284,0.132c-0.111-0.043-0.197-0.034-0.188,0.02
		c0.042,0.278-0.039,0.442-0.216,0.442c-0.109,0-0.242,0.071-0.296,0.158c-0.059,0.095-0.038,0.122,0.051,0.067
		c0.083-0.051,0.189-0.028,0.238,0.05c0.048,0.079,0.037,0.134-0.025,0.124c-0.314-0.055-0.429,0.043-0.396,0.336
		c0.021,0.193-0.065,0.386-0.213,0.479c-0.209,0.131-0.235,0.117-0.163-0.083c0.047-0.131,0.04-0.197-0.015-0.148
		c-0.114,0.102-0.192,0.445-0.207,0.912c-0.008,0.221-0.083,0.303-0.251,0.275c-0.391-0.065-0.413,4.473-0.023,4.746
		c0.178,0.125,0.277,0.375,0.299,0.755c0.027,0.47,0.074,0.554,0.273,0.491c0.186-0.059,0.241,0.004,0.241,0.277
		c0,0.215,0.077,0.353,0.198,0.353c0.267,0,0.395,0.232,0.195,0.355c-0.107,0.066-0.124,0.04-0.05-0.081
		c0.074-0.12,0.057-0.146-0.05-0.08c-0.221,0.136-0.059,0.362,0.191,0.266c0.111-0.042,0.202-0.018,0.202,0.054
		c0,0.277,0.491,0.657,0.79,0.612c0.282-0.042,0.373,0.101,0.335,0.527c-0.003,0.041,0.157,0.088,0.356,0.104
		c0.2,0.017,0.415,0.123,0.478,0.235c0.063,0.113,0.228,0.205,0.364,0.205c0.138,0,0.428,0.138,0.646,0.306
		c0.251,0.193,0.327,0.219,0.208,0.068c-0.129-0.162-0.138-0.236-0.03-0.236c0.087,0,0.194,0.092,0.237,0.205
		c0.043,0.113,0.134,0.171,0.201,0.129c0.068-0.042,0.124-0.014,0.124,0.061c0,0.083,0.605,0.126,1.566,0.111
		c0.912-0.015,1.534-0.078,1.488-0.152c-0.042-0.069,0.025-0.086,0.15-0.039c0.15,0.057,0.229,0.018,0.229-0.114
		c0-0.125,0.145-0.208,0.378-0.218c0.73-0.031,0.789-0.055,0.789-0.327c0-0.207,0.078-0.265,0.312-0.232
		c0.212,0.029,0.425-0.093,0.673-0.388c0.239-0.284,0.395-0.376,0.46-0.272c0.067,0.109,0.126,0.087,0.186-0.071
		c0.049-0.126,0.051-0.291,0.004-0.366c-0.048-0.079,0.046-0.117,0.225-0.09c0.237,0.035,0.321-0.031,0.361-0.284
		c0.028-0.181,0.174-0.435,0.324-0.565c0.15-0.13,0.272-0.368,0.272-0.529c0-0.338,0.053-0.342,4.602-0.301
		c2.677,0.024,3.153,0.071,3.016,0.292c-0.043,0.07-0.013,0.135,0.067,0.145c0.079,0.01,0.207,0.033,0.282,0.052
		s0.73,0.042,1.456,0.051c1.146,0.015,1.325,0.05,1.382,0.266c0.056,0.21,0.236,0.253,1.188,0.279c1.091,0.03,1.4,0.136,1.4,0.475
		c0,0.108,0.226,0.159,0.648,0.146c0.544-0.017,0.662,0.027,0.738,0.266c0.088,0.276,0.097,0.277,0.279,0.027
		c0.185-0.251,0.188-0.251,0.188,0.009c0,0.264,0.082,0.286,1.258,0.343c0.124,0.006,0.263,0.146,0.309,0.311
		c0.063,0.231,0.11,0.257,0.202,0.113c0.084-0.13,0.148-0.141,0.214-0.034c0.052,0.083,0.279,0.152,0.507,0.152
		c0.239,0,0.376,0.058,0.327,0.137c-0.047,0.076,0.038,0.138,0.189,0.138s0.313,0.062,0.359,0.137
		c0.047,0.076,0.236,0.138,0.42,0.138c0.25,0,0.336,0.074,0.336,0.291c0,0.244,0.034,0.263,0.206,0.121
		c0.142-0.118,0.205-0.124,0.205-0.017c0,0.085,0.109,0.154,0.242,0.154s0.322,0.127,0.42,0.284
		c0.131,0.211,0.291,0.273,0.616,0.241c0.337-0.034,0.439,0.009,0.441,0.187c0.001,0.126,0.058,0.281,0.125,0.343
		c0.07,0.064,0.081,0.039,0.024-0.059c-0.116-0.202,0.137-0.235,0.261-0.034c0.047,0.076,0.242,0.137,0.436,0.137
		c0.243,0,0.327,0.059,0.275,0.192c-0.077,0.203,0.275,0.352,0.841,0.355c0.224,0.001,0.303,0.072,0.274,0.242
		c-0.031,0.188,0.072,0.25,0.477,0.283c0.501,0.042,1.262,0.593,1.268,0.918c0.001,0.139,0.07,0.158,0.688,0.189
		c0.248,0.013,0.344,0.095,0.344,0.296c0,0.154,0.108,0.32,0.241,0.368c0.132,0.049,0.333,0.189,0.445,0.31
		c0.113,0.121,0.3,0.214,0.413,0.207c0.343-0.023,0.435,0.086,0.254,0.303c-0.139,0.167-0.134,0.201,0.027,0.178
		c0.526-0.071,0.904,0.214,0.822,0.621c-0.016,0.076,0.016,0.093,0.07,0.039c0.135-0.135,0.638,0.15,0.541,0.307
		c-0.043,0.069,0.075,0.165,0.262,0.211c0.218,0.055,0.313,0.155,0.266,0.279c-0.044,0.115,0.012,0.193,0.137,0.193
		c0.116,0,0.323,0.144,0.462,0.32c0.139,0.176,0.329,0.294,0.422,0.263c0.106-0.036,0.171,0.077,0.171,0.298
		c0,0.261,0.071,0.355,0.27,0.355c0.148,0,0.337,0.124,0.417,0.274c0.081,0.151,0.238,0.275,0.349,0.275s0.201,0.124,0.201,0.274
		c0,0.152,0.059,0.275,0.131,0.275c0.242,0,0.83,0.696,0.83,0.984c0,0.217,0.065,0.268,0.275,0.212
		c0.252-0.065,0.343,0.051,0.285,0.367c-0.012,0.066,0.104,0.209,0.259,0.317s0.28,0.275,0.28,0.371s0.152,0.318,0.339,0.493
		s0.311,0.364,0.276,0.42s0.029,0.178,0.142,0.271s0.204,0.239,0.202,0.325c-0.001,0.085-0.062,0.062-0.135-0.051
		c-0.084-0.129-0.135-0.144-0.136-0.039c-0.001,0.092,0.122,0.233,0.273,0.314c0.15,0.081,0.273,0.237,0.273,0.348
		c0,0.111,0.093,0.202,0.207,0.202c0.178,0,0.289,0.427,0.223,0.856c-0.009,0.055,0.139,0.139,0.327,0.187
		c0.316,0.079,0.45,0.473,0.358,1.052c-0.015,0.097,0.199,0.156,0.431,0.12c0.057-0.009,0.103,0.206,0.103,0.477
		c0,0.378,0.065,0.511,0.275,0.566c0.214,0.056,0.274,0.188,0.274,0.587c0,0.301,0.11,0.655,0.267,0.853
		c0.16,0.204,0.289,0.629,0.324,1.07c0.037,0.456,0.142,0.794,0.276,0.894c0.121,0.088,0.217,0.278,0.215,0.424
		s-0.003,1.655-0.002,3.355c0.002,3.653,0.015,3.423-0.192,3.344c-0.091-0.034-0.203,0.036-0.25,0.158
		c-0.059,0.151-0.031,0.188,0.086,0.118c0.132-0.079,0.134-0.058,0.007,0.1c-0.09,0.111-0.183,0.517-0.206,0.902
		c-0.032,0.539-0.087,0.683-0.238,0.625c-0.141-0.054-0.17-0.008-0.105,0.162c0.055,0.141,0.036,0.203-0.045,0.152
		c-0.081-0.05-0.136,0.146-0.136,0.49c0,0.502-0.033,0.564-0.27,0.503c-0.148-0.039-0.266-0.03-0.259,0.019
		c0.053,0.405-0.042,0.71-0.192,0.619c-0.137-0.082-0.138-0.061-0.001,0.107c0.204,0.253,0.063,0.449-0.179,0.249
		c-0.12-0.1-0.167-0.09-0.162,0.035c0.027,0.668-0.039,0.813-0.328,0.721c-0.187-0.059-0.261-0.041-0.204,0.05
		c0.049,0.078,0.021,0.184-0.061,0.234s-0.118,0.173-0.08,0.271c0.038,0.101-0.054,0.211-0.21,0.252
		c-0.154,0.04-0.239,0.139-0.189,0.22s0.025,0.146-0.055,0.146s-0.138,0.047-0.129,0.104c0.044,0.284-0.039,0.414-0.257,0.396
		c-0.15-0.012-0.233,0.07-0.222,0.222c0.014,0.167-0.081,0.24-0.309,0.24c-0.232,0-0.328,0.077-0.328,0.265
		c0,0.146-0.117,0.304-0.26,0.349c-0.144,0.045-0.294,0.212-0.335,0.37c-0.051,0.192-0.147,0.261-0.29,0.206
		c-0.192-0.073-0.277,0.059-0.23,0.355c0.009,0.057-0.03,0.096-0.087,0.087s-0.149-0.001-0.206,0.017
		c-0.057,0.019-0.181,0.045-0.274,0.058c-0.095,0.013-0.153,0.108-0.13,0.212c0.033,0.151,0.002,0.155-0.161,0.021
		c-0.17-0.142-0.191-0.123-0.129,0.113c0.061,0.232,0.01,0.283-0.286,0.283c-0.268,0-0.358,0.069-0.358,0.274
		c0,0.248-0.28,0.361-0.722,0.291c-0.057-0.009-0.103,0.053-0.103,0.136c0,0.085-0.101,0.113-0.226,0.066
		c-0.18-0.069-0.193-0.049-0.067,0.104c0.13,0.157,0.057,0.205-0.403,0.267c-0.31,0.041-0.634,0.171-0.723,0.288
		c-0.099,0.128-0.416,0.224-0.813,0.243c-0.4,0.019-0.652,0.095-0.652,0.196c0,0.253-0.281,0.313-1.603,0.341
		c-1.286,0.028-1.475,0.067-1.341,0.282c0.052,0.085,0.154,0.075,0.276-0.026c0.153-0.126,0.194-0.115,0.194,0.055
		c0,0.189-0.349,0.212-2.919,0.188c-2.251-0.021-2.911-0.065-2.885-0.198c0.019-0.095-0.012-0.178-0.068-0.187
		c-0.267-0.037-1.702-0.103-2.481-0.112c-0.54-0.006-0.834-0.062-0.781-0.147c0.047-0.075,0.016-0.138-0.068-0.138
		c-0.085,0-0.121-0.053-0.082-0.117c0.04-0.063-0.306-0.128-0.768-0.142c-0.883-0.026-1.073-0.081-1.073-0.307
		c0-0.076,0.07-0.094,0.158-0.04c0.098,0.062,0.121,0.038,0.061-0.061c-0.147-0.237-0.355-0.19-0.361,0.083
		c-0.003,0.226-0.016,0.226-0.19-0.006c-0.103-0.135-0.239-0.235-0.305-0.225c-0.483,0.088-0.883-0.031-0.846-0.251
		c0.035-0.208-0.097-0.246-0.989-0.28c-1.107-0.043-1.704,0.045-1.587,0.234c0.076,0.124-0.319,0.518-0.461,0.458
		c-0.045-0.019-0.082,0.043-0.082,0.137c0,0.095-0.139,0.192-0.31,0.216c-0.197,0.029-0.309,0.139-0.309,0.31
		c0,0.232-0.217,0.338-0.581,0.282c-0.055-0.009-0.2,0.139-0.323,0.326c-0.124,0.188-0.279,0.307-0.347,0.266
		c-0.066-0.042-0.123,0.005-0.124,0.104c-0.002,0.13-0.039,0.123-0.136-0.026c-0.106-0.166-0.133-0.143-0.135,0.115
		c-0.002,0.206-0.102,0.349-0.277,0.395c-0.151,0.039-0.274,0.157-0.274,0.262c0,0.106-0.139,0.19-0.317,0.19
		c-0.56,0-0.82,0.31-0.837,0.996c-0.008,0.347,0.017,0.627,0.055,0.624c0.292-0.021,0.58,0.043,0.511,0.112
		c-0.176,0.177,0.313,0.465,0.791,0.465c0.395,0,0.488,0.049,0.456,0.237c-0.042,0.25-0.014,0.258,1.017,0.291
		c0.561,0.019,0.638,0.056,0.593,0.29c-0.063,0.321,0.206,0.425,0.938,0.362c0.393-0.034,0.603,0.028,0.824,0.245
		c0.192,0.189,0.466,0.289,0.777,0.283c0.621-0.009,0.977,0.079,0.889,0.22c-0.038,0.063-0.011,0.149,0.062,0.193
		c0.071,0.044,0.175,0.008,0.229-0.081c0.066-0.108,0.036-0.125-0.094-0.051c-0.156,0.09-0.161,0.076-0.02-0.076
		c0.145-0.155,0.204-0.141,0.366,0.09c0.16,0.229,0.365,0.281,1.2,0.303c0.793,0.021,1.053,0.081,1.219,0.282
		c0.243,0.293,9.372,0.432,9.55,0.145c0.054-0.087,0.158-0.075,0.289,0.032c0.201,0.167,0.523-0.076,0.39-0.293
		c-0.027-0.044,0.085-0.09,0.25-0.102c0.292-0.02,0.292-0.015,0.032,0.179c-0.146,0.108-0.213,0.197-0.148,0.197
		c0.066,0,0.228-0.099,0.361-0.219c0.157-0.143,0.487-0.218,0.938-0.215c0.449,0.004,0.695-0.052,0.697-0.158
		c0.001-0.099,0.055-0.082,0.136,0.042c0.114,0.178,0.133,0.175,0.135-0.024c0.002-0.259,0.392-0.425,1.081-0.46
		c0.253-0.014,0.5-0.084,0.549-0.157c0.131-0.195,0.597-0.364,0.92-0.334c0.154,0.015,0.512-0.13,0.796-0.323
		c0.283-0.192,0.663-0.35,0.844-0.35c0.182,0,0.372-0.067,0.424-0.151c0.064-0.105,0.129-0.096,0.212,0.034
		c0.086,0.136,0.118,0.103,0.12-0.122c0.001-0.175,0.092-0.317,0.208-0.327c0.113-0.009,0.253-0.033,0.31-0.053
		c0.056-0.02,0.247-0.082,0.423-0.139c0.241-0.078,0.275-0.133,0.138-0.221c-0.127-0.08-0.073-0.116,0.176-0.118
		c0.197-0.001,0.517-0.125,0.708-0.276c0.192-0.151,0.479-0.274,0.638-0.274c0.192,0,0.287-0.088,0.287-0.266
		c0-0.146,0.124-0.305,0.274-0.353c0.151-0.048,0.274-0.176,0.274-0.284s0.128-0.196,0.284-0.196c0.384,0,0.842-0.259,0.742-0.42
		c-0.044-0.071,0.047-0.13,0.202-0.13s0.283-0.065,0.283-0.146s0.071-0.102,0.158-0.048c0.102,0.063,0.121,0.038,0.055-0.07
		c-0.065-0.105-0.001-0.193,0.174-0.239c0.151-0.04,0.313-0.221,0.358-0.402c0.046-0.182,0.129-0.323,0.184-0.314
		c0.284,0.044,0.444-0.038,0.444-0.228c0-0.115,0.093-0.246,0.206-0.289s0.206-0.14,0.206-0.213c0-0.183,0.769-0.936,0.954-0.936
		c0.084,0,0.211-0.155,0.283-0.345c0.071-0.189,0.204-0.328,0.293-0.309c0.09,0.02,0.199-0.089,0.243-0.239
		c0.045-0.151,0.174-0.275,0.287-0.275c0.2,0,0.226-0.07,0.259-0.721c0.01-0.179,0.104-0.31,0.226-0.31
		c0.115,0,0.273-0.168,0.352-0.375c0.079-0.206,0.212-0.417,0.296-0.47c0.085-0.052,0.169-0.197,0.188-0.322
		c0.061-0.415,0.188-0.637,0.319-0.556c0.18,0.111,0.324-0.168,0.383-0.741c0.027-0.269,0.059-0.566,0.067-0.661
		c0.01-0.095,0.115-0.157,0.234-0.138c0.145,0.023,0.21-0.058,0.192-0.24c-0.05-0.547,0.244-1.565,0.431-1.494
		c0.227,0.087,0.289-11.087,0.065-11.506c-0.083-0.154-0.086-0.255-0.007-0.255c0.072,0,0.061-0.144-0.027-0.332
		c-0.087-0.182-0.204-0.302-0.263-0.267c-0.09,0.056-0.144-0.463-0.142-1.355c0-0.13-0.114-0.273-0.256-0.318
		c-0.184-0.058-0.263-0.226-0.278-0.587c-0.011-0.278-0.035-0.568-0.053-0.644s-0.039-0.222-0.047-0.325
		c-0.011-0.118-0.118-0.161-0.291-0.116c-0.239,0.063-0.274,0.004-0.274-0.455c0-0.29-0.085-0.612-0.188-0.715
		c-0.103-0.103-0.233-0.339-0.29-0.525c-0.057-0.185-0.234-0.486-0.396-0.668c-0.282-0.319-0.283-0.328-0.018-0.24
		c0.26,0.086,0.261,0.081,0.026-0.102c-0.137-0.106-0.257-0.316-0.269-0.466c-0.012-0.162-0.093-0.246-0.197-0.206
		c-0.182,0.07-0.283-0.097-0.354-0.579c-0.056-0.386-0.233-0.637-0.385-0.543c-0.07,0.043-0.128-0.026-0.128-0.154
		s-0.159-0.381-0.355-0.563c-0.203-0.188-0.323-0.417-0.28-0.531c0.043-0.11,0.002-0.202-0.09-0.203
		c-0.106-0.001-0.092-0.051,0.039-0.135c0.166-0.107,0.146-0.133-0.104-0.135c-0.213-0.001-0.309-0.084-0.309-0.268
		c0-0.146-0.124-0.305-0.274-0.352c-0.243-0.077-0.347-0.315-0.289-0.66c0.01-0.06-0.091-0.09-0.225-0.068
		c-0.165,0.028-0.229-0.035-0.202-0.2c0.022-0.132-0.027-0.24-0.11-0.24c-0.084,0-0.122-0.049-0.085-0.109
		c0.038-0.061,0.006-0.199-0.07-0.309c-0.102-0.146-0.157-0.155-0.206-0.034c-0.087,0.211-0.873-0.666-0.873-0.974
		c0-0.128-0.112-0.222-0.267-0.222c-0.146,0-0.304-0.124-0.352-0.275c-0.048-0.151-0.176-0.275-0.284-0.275
		c-0.178,0-0.258-0.167-0.213-0.447c0.009-0.057-0.104-0.103-0.25-0.103c-0.146,0-0.304-0.124-0.353-0.275
		c-0.048-0.151-0.176-0.274-0.283-0.274c-0.108,0-0.197-0.124-0.197-0.275c0-0.18-0.092-0.275-0.265-0.275
		c-0.171,0-0.281-0.11-0.31-0.309c-0.028-0.195-0.132-0.302-0.284-0.29c-0.147,0.012-0.24-0.078-0.24-0.231
		c0-0.138-0.12-0.289-0.268-0.335c-0.147-0.046-0.306-0.201-0.351-0.343c-0.052-0.166-0.179-0.24-0.35-0.207
		c-0.147,0.028-0.271-0.022-0.272-0.112c-0.005-0.197-0.773-1.065-0.922-1.041c-0.486,0.078-0.75-0.034-0.683-0.291
		c0.057-0.219,0.004-0.275-0.259-0.275c-0.239,0-0.331-0.076-0.331-0.274c0-0.178-0.091-0.275-0.259-0.275
		c-0.143,0-0.291-0.123-0.33-0.275c-0.055-0.208-0.188-0.275-0.55-0.275c-0.361,0-0.494-0.066-0.549-0.274
		c-0.044-0.164-0.188-0.275-0.359-0.275c-0.158,0-0.287-0.087-0.287-0.195c0-0.108-0.197-0.238-0.439-0.292
		c-0.521-0.114-0.775-0.336-0.688-0.6c0.047-0.139-0.02-0.169-0.237-0.112c-0.192,0.05-0.329,0.008-0.376-0.117
		c-0.042-0.107-0.161-0.195-0.267-0.195s-0.191-0.062-0.191-0.138c0-0.075-0.102-0.137-0.225-0.137s-0.324-0.108-0.446-0.24
		s-0.377-0.24-0.566-0.24s-0.454-0.138-0.593-0.309c-0.138-0.17-0.396-0.31-0.575-0.31c-0.21,0-0.356-0.103-0.417-0.292
		c-0.073-0.23-0.119-0.252-0.213-0.104c-0.093,0.146-0.121,0.149-0.123,0.013c-0.001-0.098-0.078-0.167-0.173-0.155
		c-0.39,0.05-0.664-0.019-0.584-0.148c0.047-0.076,0.016-0.138-0.069-0.138c-0.084,0-0.116-0.059-0.072-0.131
		c0.048-0.076-0.093-0.109-0.336-0.078c-0.292,0.037-0.532-0.043-0.798-0.267c-0.247-0.208-0.557-0.32-0.883-0.32
		c-0.32,0-0.614-0.104-0.813-0.289c-0.217-0.203-0.489-0.288-0.914-0.288c-0.49,0-0.619-0.053-0.678-0.275
		c-0.039-0.151-0.13-0.275-0.2-0.275c-0.072,0-0.087,0.078-0.033,0.172c0.077,0.137,0.06,0.137-0.088,0
		c-0.103-0.094-0.404-0.176-0.673-0.181c-0.578-0.012-0.993-0.156-0.977-0.339c0.006-0.073-0.438-0.163-0.986-0.201
		c-0.765-0.052-0.997-0.117-0.997-0.274c0-0.134-0.111-0.194-0.317-0.172c-0.174,0.019-0.287-0.015-0.249-0.075
		c0.037-0.06-0.457-0.112-1.098-0.117c-1.071-0.008-1.916-0.224-1.774-0.455c0.031-0.049-0.604-0.084-1.412-0.078
		c-1.664,0.014-1.991-0.032-1.901-0.268c0.043-0.11-0.092-0.162-0.403-0.154c-0.258,0.007-0.469,0.062-0.469,0.123
		c0,0.062-0.063,0.072-0.14,0.025s-0.104-0.144-0.061-0.214c0.044-0.07-0.082-0.128-0.28-0.128s-0.33,0.048-0.294,0.107
		c0.037,0.059-0.099,0.095-0.3,0.08c-0.202-0.015-0.368-0.039-0.368-0.054c0-0.014-1.082-0.046-2.403-0.071
		c-1.322-0.025-2.457-0.049-2.521-0.054c-0.064-0.004-0.081-0.104-0.036-0.221c0.047-0.122,0.023-0.177-0.054-0.129
		c-0.075,0.046-0.137,0.002-0.138-0.096c-0.001-0.131-0.039-0.124-0.135,0.026c-0.135,0.208-0.167,0.152-0.192-0.344
		c-0.007-0.151-0.106-0.275-0.22-0.275s-0.382-0.2-0.598-0.446c-0.215-0.245-0.482-0.446-0.592-0.446s-0.162-0.062-0.115-0.138
		c0.049-0.08-0.089-0.137-0.332-0.137c-0.331,0-0.398-0.047-0.328-0.229c0.059-0.153,0.035-0.196-0.073-0.129
		c-0.088,0.054-0.161,0.034-0.161-0.046s-0.21-0.146-0.466-0.146c-0.296,0-0.496-0.078-0.549-0.214
		c-0.045-0.118-0.144-0.176-0.22-0.129s-0.139,0.015-0.139-0.071C196.307,124.612,192.905,124.776,192.826,125.075 M168.94,138.426
		c-0.131,0.098-0.198,0.219-0.148,0.268c0.049,0.049-0.041,0.09-0.2,0.09c-0.16,0-0.329,0.063-0.376,0.14
		c-0.047,0.077-0.159,0.096-0.248,0.042c-0.09-0.053-0.072,0.023,0.039,0.17c0.111,0.146,0.147,0.221,0.082,0.165
		c-0.066-0.056-0.205-0.032-0.308,0.054s-0.227,0.117-0.275,0.069c-0.048-0.049-0.157,0.051-0.241,0.221
		c-0.085,0.169-0.234,0.308-0.333,0.308c-0.098,0-0.261,0.114-0.362,0.251s-0.297,0.268-0.436,0.288
		c-0.161,0.024-0.246,0.145-0.235,0.333c0.015,0.265-0.164,0.369-0.531,0.312c-0.057-0.009-0.096,0.03-0.087,0.086
		c0.048,0.305-0.045,0.447-0.291,0.447c-0.178,0-0.274,0.091-0.274,0.258c0,0.145-0.124,0.291-0.279,0.332
		c-0.153,0.04-0.262,0.154-0.241,0.253c0.021,0.099-0.101,0.202-0.271,0.228c-0.198,0.03-0.309,0.143-0.309,0.312
		c0,0.174-0.095,0.266-0.275,0.266c-0.203,0-0.274,0.091-0.274,0.352c0,0.193-0.059,0.315-0.131,0.271s-0.195,0.041-0.274,0.188
		s-0.267,0.309-0.416,0.356c-0.15,0.047-0.266,0.129-0.259,0.181c0.042,0.297-0.038,0.625-0.124,0.507
		c-0.056-0.076-0.189-0.156-0.296-0.179c-0.161-0.035-0.165-0.005-0.018,0.171c0.12,0.144,0.127,0.214,0.023,0.214
		c-0.084,0-0.154,0.089-0.154,0.198c0,0.124-0.102,0.178-0.274,0.145c-0.271-0.052-0.293-0.008-0.329,0.68
		c-0.008,0.149-0.142,0.301-0.304,0.343c-0.177,0.046-0.275,0.168-0.252,0.316c0.033,0.216-0.096,0.302-0.385,0.256
		c-0.057-0.009-0.111,0.046-0.12,0.121c-0.009,0.076-0.033,0.261-0.051,0.412c-0.019,0.152-0.042,0.368-0.052,0.481
		c-0.009,0.113-0.063,0.198-0.12,0.189c-0.306-0.048-0.447,0.046-0.447,0.299c0,0.155-0.062,0.245-0.137,0.198
		c-0.076-0.047-0.138-0.024-0.138,0.049s0.077,0.165,0.172,0.203c0.094,0.038,0.041,0.074-0.119,0.08
		c-0.225,0.009-0.288,0.096-0.279,0.389c0.007,0.229-0.055,0.364-0.156,0.343c-0.092-0.019-0.151,0.043-0.133,0.137
		c0.019,0.095-0.035,0.16-0.119,0.144c-0.088-0.016-0.148,0.157-0.14,0.41c0.01,0.335-0.067,0.478-0.328,0.61
		c-0.191,0.097-0.25,0.174-0.134,0.176c0.161,0.003,0.167,0.029,0.027,0.118c-0.098,0.063-0.168,0.17-0.155,0.238
		c0.096,0.508-0.034,0.992-0.284,1.058c-0.232,0.061-0.275,0.187-0.275,0.824c0,0.617-0.045,0.764-0.255,0.819
		c-0.208,0.054-0.268,0.241-0.324,1.029c-0.041,0.57-0.161,1.095-0.294,1.285c-0.267,0.382-0.351,10.058-0.088,10.22
		c0.092,0.057,0.092,0.171,0,0.344c-0.092,0.172-0.092,0.286,0,0.343c0.133,0.082,0.191-0.015,0.151-0.25
		c-0.011-0.063,0.034-0.08,0.101-0.039c0.065,0.04,0.13,0.462,0.143,0.938c0.018,0.69,0.077,0.9,0.295,1.051
		c0.209,0.146,0.272,0.346,0.272,0.869c0,0.634,0.26,1.179,0.464,0.974c0.09-0.089,0.134,0.359,0.089,0.901
		c-0.022,0.268,0.021,0.307,0.259,0.23c0.247-0.078,0.287-0.033,0.287,0.325c0,0.243,0.117,0.526,0.283,0.681
		c0.158,0.146,0.289,0.449,0.295,0.68c0.008,0.287,0.068,0.395,0.195,0.346c0.108-0.042,0.238,0.071,0.315,0.275
		c0.073,0.19,0.213,0.398,0.314,0.461c0.16,0.1,0.394,0.518,0.526,0.938c0.065,0.209,0.368,0.481,0.534,0.481
		c0.081,0,0.147,0.095,0.147,0.21c0,0.116,0.092,0.246,0.205,0.29c0.113,0.043,0.171,0.134,0.129,0.201
		c-0.069,0.111,0.124,0.181,0.386,0.139c0.057-0.009,0.103,0.062,0.103,0.158c0,0.095,0.182,0.322,0.405,0.506
		c0.222,0.184,0.38,0.37,0.353,0.416c-0.028,0.045,0.068,0.093,0.214,0.107c0.576,0.058,0.638,0.086,0.623,0.296
		c-0.009,0.124,0.111,0.235,0.28,0.26c0.163,0.023,0.327,0.162,0.365,0.309c0.046,0.179,0.189,0.268,0.426,0.268
		c0.196,0,0.356,0.062,0.356,0.138c0,0.075-0.072,0.138-0.16,0.138c-0.338,0,0.052,0.192,0.452,0.223
		c0.457,0.035,0.601,0.124,0.601,0.372c0,0.09,0.256,0.179,0.587,0.202c0.33,0.024,0.551,0.101,0.505,0.174
		c-0.045,0.073-0.154,0.096-0.244,0.051c-0.089-0.044-0.042,0.017,0.104,0.135c0.146,0.119,0.389,0.217,0.539,0.217
		c0.149,0,0.388,0.104,0.528,0.231c0.141,0.128,0.517,0.27,0.835,0.315c0.346,0.05,0.565,0.149,0.544,0.249
		c-0.019,0.092,0.062,0.165,0.18,0.165c0.118,0,0.186,0.047,0.15,0.104c-0.035,0.058,0.1,0.11,0.301,0.119
		c0.632,0.025,1.163,0.174,1.276,0.356c0.06,0.098,0.374,0.189,0.698,0.203c0.834,0.038,1.017,0.091,1.361,0.393
		c0.184,0.161,0.257,0.187,0.186,0.062c-0.094-0.164-0.079-0.175,0.079-0.053c0.109,0.085,0.563,0.164,1.008,0.177
		c0.864,0.023,1.096,0.095,0.971,0.296c-0.042,0.07,0.018,0.09,0.135,0.045s0.213-0.014,0.213,0.07s0.068,0.152,0.152,0.152
		c0.085,0,0.114-0.101,0.066-0.226c-0.072-0.187-0.051-0.196,0.117-0.057c0.111,0.093,0.263,0.131,0.337,0.086
		c0.073-0.046,0.167-0.028,0.209,0.039c0.105,0.17,6.699,0.155,6.915-0.016c0.116-0.092,0.171-0.085,0.171,0.019
		c0,0.085,0.062,0.154,0.137,0.154c0.076,0,0.138-0.09,0.138-0.198s0.062-0.235,0.136-0.282c0.078-0.048,0.101,0.008,0.054,0.13
		c-0.105,0.273,0.303,0.289,0.456,0.018c0.078-0.139,0.452-0.208,1.29-0.24c1.043-0.04,1.172-0.072,1.117-0.285
		c-0.07-0.269,0.173-0.329,0.326-0.082c0.065,0.104,0.037,0.121-0.082,0.048c-0.12-0.074-0.146-0.058-0.081,0.049
		c0.055,0.089,0.158,0.125,0.229,0.081c0.072-0.044,0.094-0.139,0.051-0.209c-0.043-0.07,0.11-0.135,0.341-0.145
		c0.23-0.01,0.636-0.025,0.9-0.034c0.265-0.01,0.481-0.071,0.481-0.137s0.127-0.086,0.283-0.045c0.227,0.06,0.252,0.037,0.127-0.113
		c-0.122-0.146-0.101-0.188,0.095-0.187c0.138,0,0.56-0.03,0.938-0.067c0.378-0.037,0.733-0.072,0.79-0.077
		c0.056-0.005,0.096-0.056,0.087-0.112c-0.059-0.372,0.059-0.447,0.703-0.447c0.377,0,0.687-0.06,0.687-0.133
		c0-0.072,0.095-0.096,0.211-0.052c0.133,0.052,0.197,0.013,0.172-0.103c-0.027-0.126,0.162-0.21,0.592-0.262
		c0.348-0.043,0.738-0.184,0.869-0.313c0.14-0.14,0.447-0.235,0.754-0.235c0.344,0,0.602-0.093,0.767-0.275
		c0.137-0.151,0.368-0.274,0.515-0.274c0.146,0,0.423-0.124,0.615-0.274c0.192-0.151,0.469-0.275,0.614-0.275
		c0.369,0,0.821-0.262,0.724-0.419c-0.079-0.129-0.023-0.15,0.451-0.179c0.132-0.008,0.285-0.124,0.339-0.258
		c0.088-0.216,0.418-0.313,0.881-0.258c0.085,0.011,0.189-0.109,0.229-0.267c0.042-0.157,0.157-0.274,0.257-0.261
		c0.536,0.072,0.801-0.021,0.801-0.282c0-0.246,0.143-0.339,0.445-0.291c0.057,0.009,0.104-0.053,0.104-0.138
		c0-0.106,0.064-0.102,0.206,0.017c0.172,0.143,0.206,0.124,0.206-0.11c0-0.199,0.118-0.306,0.412-0.371
		c0.227-0.05,0.412-0.178,0.412-0.285s0.065-0.195,0.146-0.195s0.104,0.077,0.053,0.172c-0.051,0.094,0.054,0.011,0.232-0.185
		c0.179-0.196,0.404-0.329,0.501-0.296s0.159-0.018,0.138-0.112s0.085-0.209,0.235-0.253c0.151-0.045,0.275-0.174,0.275-0.286
		c0-0.119,0.169-0.234,0.403-0.274c0.224-0.039,0.393-0.117,0.379-0.174c-0.083-0.319-0.011-0.397,0.205-0.223
		c0.158,0.129,0.199,0.134,0.13,0.018c-0.072-0.119,0.002-0.172,0.244-0.172c0.25,0,0.325-0.057,0.269-0.204
		c-0.052-0.135,0.045-0.251,0.279-0.341c0.196-0.074,0.356-0.223,0.356-0.329s0.124-0.226,0.275-0.265
		c0.151-0.04,0.274-0.171,0.274-0.291c0-0.127,0.115-0.219,0.274-0.219c0.152,0,0.275-0.069,0.275-0.152
		c0-0.084,0.099-0.114,0.219-0.067c0.146,0.056,0.242-0.008,0.29-0.19c0.039-0.15,0.126-0.24,0.191-0.199
		c0.066,0.04,0.084-0.022,0.039-0.14c-0.045-0.116-0.013-0.213,0.073-0.213c0.085,0,0.226-0.154,0.312-0.344
		c0.086-0.188,0.246-0.344,0.356-0.344c0.109,0,0.409-0.228,0.664-0.507c0.256-0.279,0.465-0.423,0.465-0.321
		c0,0.433,0.273-0.262,0.309-0.785c0.007-0.095,0.07-0.172,0.142-0.172s0.094,0.091,0.052,0.202c-0.043,0.11-0.025,0.234,0.04,0.273
		c0.136,0.084,0.316-0.311,0.216-0.472c-0.037-0.061,0.04-0.102,0.171-0.092c0.157,0.013,0.226-0.063,0.199-0.221
		c-0.022-0.133,0.024-0.24,0.103-0.24c0.079,0,0.144-0.124,0.144-0.274c0-0.184,0.092-0.275,0.274-0.275
		c0.184,0,0.275-0.092,0.275-0.274c0-0.151,0.089-0.274,0.196-0.274c0.108,0,0.236-0.124,0.284-0.275
		c0.077-0.244,0.224-0.331,0.499-0.296c0.048,0.006,0.127-0.188,0.176-0.431c0.065-0.327,0.12-0.391,0.21-0.247
		c0.087,0.139,0.156,0.021,0.246-0.412c0.069-0.333,0.193-0.593,0.275-0.576c0.082,0.018,0.223-0.168,0.313-0.412
		c0.09-0.243,0.192-0.366,0.229-0.274c0.051,0.132,0.104,0.132,0.246,0c0.1-0.092,0.152-0.216,0.117-0.274
		c-0.036-0.059,0.079-0.228,0.254-0.373c0.215-0.179,0.255-0.268,0.122-0.271c-0.143-0.003-0.123-0.06,0.069-0.206
		c0.146-0.11,0.212-0.204,0.146-0.206s-0.044-0.096,0.05-0.208s0.234-0.165,0.313-0.117c0.08,0.05,0.103,0.023,0.051-0.061
		c-0.051-0.082-0.031-0.186,0.042-0.231c0.073-0.045,0.099-0.173,0.056-0.284c-0.043-0.11-0.005-0.201,0.083-0.201
		s0.116-0.072,0.063-0.159c-0.057-0.092-0.038-0.121,0.045-0.069c0.173,0.106,0.429-0.177,0.484-0.538
		c0.055-0.351,0.234-0.627,0.357-0.551c0.088,0.056,0.143-0.154,0.188-0.719c0.008-0.102,0.118-0.154,0.248-0.121
		c0.129,0.033,0.232-0.008,0.23-0.093c-0.013-0.562,0.059-0.914,0.17-0.846c0.138,0.085,0.458-0.392,0.342-0.508
		c-0.038-0.038,0.235-0.109,0.607-0.159c0.372-0.049,0.753-0.181,0.847-0.293c0.093-0.111,0.272-0.203,0.399-0.203
		c0.128,0,0.353-0.097,0.499-0.216s0.174-0.171,0.061-0.115c-0.114,0.055-0.158,0.048-0.1-0.017c0.06-0.065,0.198-0.137,0.31-0.16
		c0.11-0.022,0.295-0.061,0.409-0.084s0.284-0.125,0.378-0.227c0.137-0.147,0.133-0.162-0.022-0.073
		c-0.13,0.073-0.161,0.058-0.095-0.049c0.054-0.087,0.189-0.158,0.304-0.158c0.113,0,0.168-0.062,0.122-0.136
		c-0.05-0.081,0.012-0.099,0.153-0.045c0.178,0.068,0.216,0.036,0.153-0.127c-0.059-0.152,0.018-0.242,0.256-0.302
		c0.187-0.047,0.33-0.161,0.318-0.253c-0.045-0.349,0.017-0.51,0.183-0.477c0.095,0.019,0.154-0.05,0.132-0.152
		c-0.021-0.102,0.034-0.274,0.124-0.381c0.088-0.107,0.125-0.231,0.081-0.275c-0.043-0.043,0.087-0.232,0.29-0.419
		c0.203-0.188,0.292-0.301,0.197-0.253c-0.206,0.106-0.233-0.149-0.029-0.274c0.226-0.14,0.151-3.982-0.086-4.436
		c-0.105-0.203-0.193-0.281-0.193-0.174c-0.001,0.45-0.175-0.025-0.206-0.566c-0.022-0.393-0.098-0.59-0.224-0.59
		c-0.104,0-0.208-0.139-0.232-0.31c-0.028-0.198-0.139-0.309-0.31-0.309c-0.146,0-0.266-0.094-0.266-0.209s-0.16-0.271-0.356-0.346
		c-0.235-0.089-0.331-0.206-0.279-0.34c0.057-0.148-0.02-0.204-0.275-0.204c-0.244,0-0.331-0.059-0.281-0.189
		c0.089-0.233-0.155-0.499-0.38-0.412c-0.238,0.091-0.931-0.198-0.837-0.35c0.043-0.071,0.016-0.167-0.061-0.214
		c-0.077-0.047-0.14-0.013-0.14,0.076c0,0.124-0.047,0.124-0.198-0.001c-0.108-0.09-0.309-0.153-0.446-0.139
		c-0.507,0.053-0.88-0.009-0.804-0.134c0.142-0.229-0.173-0.292-0.387-0.079c-0.146,0.146-0.236,0.163-0.303,0.055
		c-0.053-0.085-0.01-0.208,0.095-0.274c0.121-0.077-0.061-0.121-0.516-0.122c-0.509-0.001-0.757,0.064-0.894,0.238
		c-0.171,0.219-0.166,0.223,0.056,0.049c0.134-0.105,0.278-0.157,0.321-0.114c0.212,0.211-0.996,0.458-2.488,0.506
		c-0.211,0.007-0.23,0.037-0.084,0.13c0.151,0.096,0.13,0.152-0.105,0.279c-0.163,0.087-0.357,0.121-0.432,0.076
		c-0.074-0.046-0.135,0.074-0.135,0.268c0,0.255-0.071,0.352-0.263,0.352c-0.409,0-0.698,0.148-0.698,0.358
		c0,0.105-0.047,0.185-0.104,0.175c-0.057-0.009-0.149-0.001-0.205,0.017c-0.057,0.019-0.181,0.044-0.275,0.057
		c-0.094,0.013-0.154,0.102-0.134,0.198c0.021,0.097-0.075,0.279-0.213,0.406c-0.137,0.127-0.168,0.175-0.068,0.108
		c0.133-0.09,0.158-0.063,0.095,0.103c-0.048,0.124-0.144,0.226-0.213,0.226s-0.185,0.155-0.257,0.344
		c-0.072,0.19-0.179,0.337-0.237,0.327c-0.272-0.044-0.36,0.032-0.175,0.153c0.138,0.088,0.149,0.134,0.034,0.135
		c-0.117,0.001-0.171,0.258-0.171,0.818c0,0.449-0.063,0.854-0.14,0.902c-0.077,0.047-0.104,0.145-0.059,0.217
		s0.01,0.114-0.078,0.093c-0.205-0.048-0.276,1.513-0.072,1.598c0.08,0.034,0.067,0.064-0.029,0.071
		c-0.095,0.006-0.172,0.079-0.172,0.163c0,0.084,0.088,0.119,0.194,0.078c0.19-0.073,0.433,0.289,0.29,0.431
		c-0.04,0.04-0.072,0-0.072-0.088s-0.071-0.16-0.158-0.16c-0.096,0-0.07,0.097,0.063,0.246c0.123,0.136,0.239,0.455,0.259,0.708
		c0.022,0.298,0.117,0.483,0.269,0.522c0.145,0.038,0.214,0.163,0.183,0.326c-0.028,0.148,0.114,0.46,0.326,0.708
		c0.207,0.244,0.366,0.52,0.354,0.615c-0.013,0.094-0.032,0.328-0.041,0.519c-0.012,0.223-0.129,0.394-0.326,0.473
		c-0.17,0.068-0.238,0.128-0.149,0.133c0.274,0.015-0.113,0.833-0.396,0.833c-0.193,0-0.245,0.113-0.245,0.533
		c0,0.418-0.06,0.549-0.275,0.605c-0.158,0.041-0.274,0.188-0.274,0.344c0,0.175-0.086,0.266-0.241,0.253
		c-0.139-0.011-0.24,0.077-0.241,0.209c-0.001,0.126-0.104,0.343-0.23,0.481s-0.296,0.427-0.376,0.639
		c-0.081,0.212-0.209,0.348-0.284,0.301c-0.122-0.074-0.158,0.006-0.13,0.292c0.006,0.047-0.134,0.157-0.309,0.244
		c-0.175,0.088-0.325,0.234-0.335,0.326c-0.009,0.093-0.024,0.233-0.034,0.313s-0.094,0.099-0.188,0.042
		c-0.137-0.082-0.137-0.061-0.002,0.107c0.197,0.244,0.097,0.407-0.184,0.299c-0.134-0.051-0.192,0.032-0.192,0.274
		c0,0.257-0.081,0.36-0.31,0.393c-0.17,0.024-0.309,0.134-0.309,0.244c0,0.109-0.143,0.233-0.317,0.274
		c-0.174,0.041-0.313,0.121-0.31,0.178c0.025,0.318-0.017,0.378-0.266,0.378c-0.151,0-0.268,0.046-0.259,0.104
		c0.048,0.306-0.046,0.446-0.299,0.446c-0.155,0-0.248,0.057-0.205,0.126c0.109,0.177-0.326,0.583-0.507,0.472
		c-0.081-0.051-0.11-0.032-0.066,0.04c0.102,0.162-0.025,0.345-0.382,0.551c-0.15,0.088-0.257,0.231-0.236,0.319
		c0.021,0.089-0.019,0.126-0.087,0.084c-0.07-0.043-0.205,0.017-0.301,0.133c-0.141,0.169-0.198,0.176-0.288,0.033
		c-0.093-0.146-0.114-0.146-0.115,0.002c-0.001,0.099-0.071,0.137-0.154,0.085c-0.104-0.063-0.121,0.006-0.054,0.219
		c0.082,0.256,0.058,0.297-0.129,0.226c-0.135-0.053-0.194-0.032-0.145,0.047c0.046,0.075-0.007,0.137-0.116,0.137
		c-0.11,0-0.234,0.093-0.278,0.206c-0.044,0.112-0.198,0.206-0.344,0.206c-0.166,0-0.257,0.088-0.244,0.24
		c0.011,0.132-0.061,0.224-0.156,0.205c-0.098-0.021-0.313,0.097-0.481,0.26c-0.167,0.163-0.228,0.253-0.133,0.2
		c0.095-0.054,0.172-0.032,0.172,0.048s-0.156,0.145-0.346,0.145s-0.45,0.124-0.58,0.275c-0.129,0.151-0.345,0.274-0.479,0.274
		c-0.141,0-0.245,0.103-0.245,0.241c-0.001,0.132-0.156,0.312-0.344,0.399c-0.188,0.087-0.308,0.103-0.266,0.034
		c0.042-0.068-0.025-0.125-0.15-0.125c-0.125,0-0.258,0.118-0.296,0.262c-0.038,0.145-0.186,0.294-0.331,0.331
		c-0.144,0.037-0.262,0.167-0.262,0.287c0,0.145-0.122,0.219-0.354,0.219c-0.363,0-0.799,0.313-0.647,0.465
		c0.069,0.069-0.384,0.116-0.726,0.075c-0.043-0.004-0.213,0.135-0.378,0.311c-0.164,0.176-0.438,0.312-0.607,0.303
		c-0.226-0.012-0.312,0.063-0.319,0.273c-0.009,0.284-0.012,0.284-0.127,0.016c-0.101-0.234-0.12-0.24-0.128-0.034
		c-0.005,0.133-0.102,0.24-0.215,0.24s-0.206,0.069-0.206,0.153c0,0.087-0.121,0.122-0.277,0.081
		c-0.184-0.048-0.324,0.018-0.42,0.196c-0.095,0.179-0.229,0.242-0.398,0.189c-0.14-0.045-0.301-0.007-0.356,0.083
		c-0.07,0.113-0.042,0.128,0.091,0.048c0.165-0.1,0.165-0.082,0,0.122c-0.106,0.132-0.272,0.209-0.369,0.171
		c-0.096-0.036-0.196-0.005-0.221,0.07c-0.025,0.076-0.276,0.149-0.558,0.164c-0.385,0.021-0.512,0.086-0.513,0.267
		c0,0.163-0.108,0.241-0.333,0.241c-0.475,0-0.767,0.137-0.767,0.358c0,0.175-0.407,0.238-1.532,0.24c-0.146,0-0.21,0.09-0.18,0.25
		c0.048,0.25-0.429,0.336-1.419,0.255c-0.333-0.027-0.754,0.231-0.65,0.4c0.072,0.116,0.038,0.12-1.335,0.146
		c-0.711,0.013-1.065,0.073-1.066,0.181c-0.001,0.096-0.059,0.077-0.14-0.045c-0.118-0.176-0.175-0.161-0.398,0.104
		c-0.292,0.349-7.977,0.506-7.977,0.163c0-0.082-0.116-0.111-0.26-0.064c-0.147,0.046-0.348-0.006-0.462-0.119
		c-0.13-0.131-0.547-0.217-1.171-0.242c-0.533-0.022-0.94-0.088-0.904-0.146c0.037-0.059,0.023-0.174-0.028-0.259
		c-0.065-0.105-0.13-0.095-0.212,0.035c-0.087,0.137-0.119,0.141-0.121,0.015c-0.001-0.099-0.176-0.172-0.409-0.172
		c-0.267,0-0.458-0.095-0.555-0.274c-0.081-0.151-0.241-0.274-0.356-0.274c-0.127,0-0.171,0.066-0.112,0.171
		c0.077,0.138,0.06,0.138-0.088,0c-0.102-0.094-0.358-0.171-0.57-0.171c-0.278,0-0.385-0.068-0.385-0.246
		c0-0.225-0.12-0.276-0.778-0.335c-0.088-0.008-0.226-0.159-0.306-0.336c-0.081-0.175-0.264-0.319-0.408-0.319
		c-0.151,0-0.294-0.123-0.337-0.289c-0.042-0.158-0.142-0.247-0.223-0.197c-0.08,0.049-0.284-0.007-0.451-0.124
		c-0.29-0.203-0.292-0.215-0.035-0.229c0.148-0.009-0.002-0.075-0.335-0.15c-0.418-0.094-0.548-0.171-0.418-0.251
		c0.103-0.063,0.246-0.079,0.318-0.035c0.072,0.045,0.086,0.009,0.032-0.08c-0.055-0.088-0.16-0.123-0.233-0.078
		c-0.165,0.102-0.558-0.203-0.461-0.358c0.038-0.063-0.003-0.157-0.092-0.212c-0.1-0.062-0.124-0.04-0.063,0.059
		c0.054,0.088,0.033,0.159-0.047,0.159s-0.146-0.083-0.146-0.185s-0.139-0.253-0.309-0.335c-0.17-0.081-0.232-0.152-0.137-0.158
		c0.094-0.005,0.171-0.07,0.171-0.146c0-0.075-0.077-0.122-0.171-0.103c-0.099,0.02-0.154-0.074-0.128-0.219
		c0.034-0.199-0.017-0.233-0.244-0.161c-0.158,0.05-0.278,0.04-0.268-0.022c0.061-0.345-0.044-0.585-0.287-0.662
		c-0.17-0.054-0.275-0.208-0.275-0.403c0-0.173-0.163-0.479-0.362-0.677c-0.2-0.2-0.315-0.362-0.258-0.362
		c0.058,0,0.02-0.105-0.084-0.232c-0.163-0.201-0.161-0.217,0.018-0.116c0.113,0.064,0.072-0.031-0.091-0.213
		c-0.164-0.183-0.318-0.486-0.343-0.675c-0.026-0.189-0.156-0.445-0.289-0.567c-0.134-0.124-0.261-0.447-0.283-0.722
		c-0.023-0.273-0.173-0.676-0.335-0.896c-0.242-0.326-0.302-0.625-0.335-1.683c-0.036-1.125-0.071-1.282-0.281-1.266
		c-0.257,0.021-0.332-0.29-0.104-0.431c0.076-0.047,0.139-0.004,0.14,0.095c0.001,0.132,0.039,0.124,0.139-0.026
		c0.179-0.271,0.134-1.923-0.053-1.923c-0.087,0-0.079-0.064,0.021-0.165c0.107-0.106,0.165-0.657,0.165-1.559
		c0-1.297,0.021-1.403,0.297-1.526c0.235-0.104,0.306-0.271,0.338-0.79c0.028-0.455,0.127-0.732,0.321-0.9
		c0.193-0.167,0.28-0.411,0.28-0.78c0-0.375,0.086-0.611,0.286-0.783c0.168-0.144,0.252-0.333,0.204-0.459
		c-0.062-0.162-0.014-0.196,0.195-0.142c0.152,0.04,0.242,0.017,0.199-0.052c-0.042-0.069-0.012-0.125,0.068-0.125
		s0.123-0.139,0.097-0.309c-0.03-0.193,0.073-0.422,0.275-0.611c0.178-0.167,0.324-0.46,0.324-0.653c0-0.201,0.078-0.35,0.184-0.35
		c0.102,0,0.257-0.161,0.347-0.357c0.09-0.197,0.24-0.327,0.335-0.291c0.112,0.043,0.171-0.061,0.168-0.296
		c-0.003-0.279,0.058-0.356,0.271-0.337c0.262,0.023,0.263,0.016,0.025-0.16c-0.239-0.176-0.237-0.188,0.034-0.274
		c0.156-0.05,0.284-0.174,0.284-0.277s0.124-0.227,0.275-0.275c0.151-0.048,0.275-0.176,0.275-0.284
		c0-0.108,0.123-0.197,0.274-0.197c0.187,0,0.275-0.092,0.275-0.288c0-0.174,0.11-0.317,0.282-0.361
		c0.166-0.043,0.253-0.15,0.211-0.26c-0.04-0.103,0.064-0.257,0.233-0.346c0.167-0.087,0.354-0.243,0.414-0.345
		c0.061-0.103,0.192-0.186,0.293-0.186c0.101,0,0.217-0.128,0.257-0.285c0.042-0.157,0.203-0.319,0.36-0.359
		c0.156-0.041,0.285-0.153,0.285-0.249c0-0.095,0.13-0.208,0.289-0.25c0.159-0.041,0.25-0.138,0.203-0.215
		c-0.083-0.133,0.247-0.386,0.539-0.415c0.076-0.007,0.138-0.08,0.138-0.162s0.092-0.221,0.206-0.309
		c0.336-0.262,0.341-0.876,0.008-0.982c-0.28-0.089-0.292-0.134-0.327-1.333c-0.006-0.203-0.061-0.338-0.121-0.301
		c-0.061,0.038-0.11-0.023-0.11-0.135s0.077-0.234,0.172-0.272c0.094-0.038,0.033-0.074-0.137-0.081
		c-0.315-0.011-0.399-0.453-0.351-1.83c0.008-0.224-0.059-0.378-0.164-0.378c-0.216,0-0.344-0.306-0.344-0.828
		c0-0.216-0.062-0.431-0.137-0.478s-0.138,0.023-0.138,0.156c0,0.221-0.014,0.222-0.171,0.015
		C169.206,138.284,169.14,138.276,168.94,138.426 M161.692,161.938c0,0.475-0.052,0.731-0.137,0.679
		c-0.242-0.149-0.159-1.442,0.092-1.442C161.671,161.174,161.692,161.518,161.692,161.938"/>
	<path id="path1" fill="#333333" d="M199.845,105.184c-0.132,0.1-0.241,0.229-0.241,0.287s0.083,0.036,0.185-0.048
		c0.101-0.084,0.216-0.121,0.255-0.083c0.039,0.039,0.149-0.023,0.245-0.138C200.516,104.929,200.198,104.916,199.845,105.184
		 M201.436,105.21c0,0.107,0.03,0.164,0.067,0.127c0.038-0.037,0.152,0.003,0.255,0.088c0.104,0.085,0.22,0.124,0.258,0.086
		s-0.077-0.166-0.255-0.283C201.489,105.052,201.436,105.049,201.436,105.21 M209.769,108.976c0,0.076,0.065,0.138,0.146,0.138
		c0.079,0,0.113,0.051,0.074,0.114s0.02,0.115,0.13,0.115c0.166,0,0.161-0.043-0.027-0.252
		C209.832,108.804,209.769,108.782,209.769,108.976 M174.33,142.094c0,0.107,0.139,0.281,0.309,0.386l0.31,0.189l-0.273-0.328
		c-0.15-0.181-0.289-0.354-0.309-0.386C174.346,141.923,174.33,141.986,174.33,142.094 M170.906,143.399
		c-0.006,0.083,0.113,0.262,0.264,0.399c0.156,0.141,0.275,0.18,0.275,0.09c0-0.087-0.065-0.158-0.146-0.158
		s-0.101-0.072-0.047-0.159c0.058-0.093,0.038-0.122-0.049-0.067c-0.081,0.049-0.179,0.013-0.217-0.082
		C170.947,143.322,170.913,143.313,170.906,143.399 M216.294,145.24c-0.227,0.15-0.351,0.272-0.275,0.271
		c0.138-0.002,0.885-0.537,0.756-0.542C216.737,144.968,216.521,145.09,216.294,145.24 M213.478,146.545
		c-0.14,0.169-0.131,0.206,0.052,0.206c0.123,0,0.223-0.093,0.223-0.206s-0.022-0.206-0.051-0.206
		C213.672,146.339,213.572,146.432,213.478,146.545 M157.22,152.646c0.043,0.069,0,0.157-0.095,0.195
		c-0.104,0.042-0.077,0.074,0.068,0.08c0.132,0.006,0.24-0.082,0.24-0.195c0-0.113-0.065-0.206-0.145-0.206
		C157.208,152.521,157.178,152.577,157.22,152.646 M186.349,153.07c-0.047,0.075,0.006,0.137,0.118,0.137
		c0.111,0,0.316,0.043,0.455,0.096c0.235,0.089,0.237,0.081,0.021-0.138C186.681,152.902,186.473,152.868,186.349,153.07
		 M156.747,154.146c0,0.088-0.069,0.145-0.154,0.125c-0.085-0.019-0.183,0.043-0.217,0.137c-0.035,0.095-0.003,0.172,0.069,0.172
		c0.188,0,0.498-0.401,0.392-0.507C156.787,154.025,156.747,154.058,156.747,154.146 M161.829,158.101
		c0,0.183,0.038,0.192,0.207,0.052c0.113-0.094,0.206-0.194,0.206-0.223c0-0.029-0.093-0.053-0.206-0.053
		C161.922,157.877,161.829,157.978,161.829,158.101 M179.412,160.487c0,0.075,0.065,0.138,0.145,0.138
		c0.08,0,0.112,0.055,0.07,0.122c-0.042,0.066,0.004,0.188,0.102,0.268c0.136,0.113,0.177,0.071,0.177-0.182
		c0-0.18-0.049-0.297-0.11-0.261c-0.061,0.038-0.109,0.003-0.109-0.077s-0.062-0.146-0.138-0.146S179.412,160.411,179.412,160.487
		 M166.1,173.021c0.032,0.019,0.274,0.22,0.538,0.446l0.48,0.412l-0.403-0.446c-0.222-0.245-0.464-0.446-0.538-0.446
		C166.103,172.987,166.068,173.003,166.1,173.021 M202.58,188.464c-0.05,0.05-0.097,1.89-0.103,4.086
		c-0.005,2.197-0.042,3.918-0.079,3.823c-0.039-0.095-0.157-0.172-0.265-0.172c-0.106,0-0.318-0.123-0.47-0.274
		c-0.251-0.252-0.457-0.275-2.485-0.275c-2.095,0-2.214,0.015-2.282,0.275c-0.057,0.217-0.188,0.274-0.618,0.274
		c-0.431,0-0.562,0.059-0.619,0.275c-0.05,0.192-0.187,0.274-0.46,0.274c-0.217,0-0.467,0.109-0.567,0.25
		c-0.099,0.137-0.288,0.29-0.42,0.339c-0.132,0.05-0.24,0.177-0.24,0.283c0,0.107-0.124,0.228-0.275,0.267
		c-0.165,0.043-0.275,0.188-0.275,0.359c0,0.196-0.087,0.288-0.274,0.288c-0.185,0-0.275,0.092-0.275,0.28
		c0,0.154-0.124,0.413-0.274,0.575c-0.152,0.162-0.275,0.469-0.275,0.68c0,0.236-0.106,0.451-0.275,0.557
		c-0.211,0.132-0.274,0.321-0.274,0.813c0,0.633-0.004,0.638-0.343,0.481c-0.307-0.143-0.342-0.242-0.344-0.948
		c0-0.698-0.033-0.79-0.275-0.79c-0.229,0-0.275-0.092-0.275-0.55s-0.046-0.55-0.274-0.55c-0.184,0-0.275-0.091-0.275-0.274
		c0-0.183-0.092-0.274-0.275-0.274c-0.201,0-0.274-0.092-0.274-0.344c0-0.244-0.074-0.344-0.259-0.344
		c-0.144,0-0.291-0.122-0.331-0.274c-0.04-0.15-0.17-0.274-0.291-0.274c-0.121,0-0.219-0.086-0.219-0.191
		c0-0.219-0.292-0.358-0.751-0.358c-0.2,0-0.342-0.1-0.388-0.274c-0.055-0.211-0.188-0.275-0.565-0.275
		c-0.311,0-0.596-0.102-0.768-0.274c-0.254-0.254-0.458-0.275-2.677-0.275c-2.254,0-2.414,0.018-2.575,0.275
		c-0.128,0.205-0.32,0.274-0.757,0.274c-0.402,0-0.671,0.087-0.859,0.275c-0.151,0.151-0.374,0.274-0.494,0.274
		c-0.12,0-0.25,0.118-0.287,0.262c-0.043,0.167-0.238,0.294-0.537,0.35c-0.257,0.049-0.468,0.171-0.468,0.271
		c0,0.102-0.128,0.218-0.285,0.259s-0.318,0.203-0.359,0.359s-0.162,0.285-0.269,0.285c-0.106,0-0.233,0.107-0.28,0.24
		c-0.048,0.132-0.2,0.352-0.339,0.486s-0.253,0.391-0.253,0.567c0,0.207-0.099,0.348-0.274,0.395
		c-0.218,0.057-0.275,0.187-0.275,0.634c0,0.389-0.059,0.562-0.191,0.562c-0.488,0-0.566,6.363-0.083,6.8
		c0.186,0.169,0.275,0.423,0.275,0.79c0,0.425,0.059,0.557,0.275,0.613c0.151,0.039,0.274,0.173,0.274,0.297
		s0.124,0.303,0.275,0.397c0.154,0.096,0.275,0.319,0.275,0.509c0,0.197,0.114,0.398,0.274,0.484c0.151,0.08,0.275,0.233,0.275,0.34
		c0,0.104,0.124,0.23,0.275,0.278s0.338,0.207,0.417,0.353c0.078,0.146,0.25,0.266,0.381,0.266c0.132,0,0.329,0.124,0.438,0.274
		c0.109,0.151,0.332,0.275,0.495,0.275c0.182,0,0.325,0.106,0.369,0.274c0.061,0.232,0.187,0.274,0.824,0.274
		s0.764,0.042,0.824,0.275c0.07,0.264,0.188,0.274,3.086,0.274c2.839,0,3.028-0.016,3.262-0.274c0.168-0.187,0.423-0.275,0.79-0.275
		c0.425,0,0.556-0.059,0.613-0.274c0.054-0.208,0.187-0.274,0.549-0.274c0.362,0,0.495-0.066,0.549-0.275
		c0.04-0.15,0.164-0.274,0.276-0.274s0.388-0.154,0.613-0.343c0.225-0.189,0.496-0.344,0.604-0.344c0.115,0,0.196-0.136,0.196-0.327
		c0-0.179,0.094-0.404,0.209-0.5c0.188-0.155,0.188-0.198,0-0.405c-0.115-0.128-0.209-0.366-0.209-0.53
		c0-0.207-0.084-0.299-0.275-0.299c-0.202,0-0.275-0.091-0.275-0.343s-0.073-0.344-0.274-0.344c-0.184,0-0.275-0.091-0.275-0.274
		c0-0.626-0.449-0.824-1.867-0.824c-1.202,0-1.324,0.024-1.39,0.274c-0.054,0.209-0.187,0.275-0.549,0.275s-0.495,0.066-0.549,0.274
		c-0.066,0.252-0.188,0.274-1.43,0.274c-1.174,0-1.395-0.036-1.632-0.274c-0.151-0.151-0.422-0.274-0.603-0.274
		c-0.211,0-0.353-0.097-0.399-0.275c-0.04-0.15-0.17-0.274-0.291-0.274c-0.139,0-0.219-0.119-0.219-0.326
		c0-0.631-0.172-1.171-0.394-1.24c-0.124-0.039-0.008-0.032,0.256,0.014c0.875,0.153,8.431,0.197,8.722,0.05
		c0.151-0.076,0.52-0.155,0.819-0.176c0.448-0.031,0.561-0.099,0.638-0.382c0.056-0.201,0.101,0.154,0.109,0.86
		c0.012,1.022,0.055,1.238,0.289,1.438c0.195,0.167,0.275,0.405,0.275,0.822c0,0.405,0.085,0.674,0.274,0.862
		c0.151,0.151,0.275,0.391,0.275,0.531s0.123,0.413,0.275,0.605c0.151,0.191,0.274,0.443,0.274,0.559s0.117,0.247,0.26,0.292
		c0.143,0.046,0.292,0.204,0.331,0.353s0.169,0.271,0.29,0.271c0.12,0,0.219,0.095,0.219,0.209c0,0.115,0.146,0.266,0.324,0.333
		c0.179,0.068,0.362,0.222,0.408,0.341c0.054,0.138,0.252,0.216,0.552,0.216c0.354,0,0.487,0.067,0.541,0.275
		c0.068,0.261,0.188,0.274,2.433,0.274s2.364-0.014,2.433-0.274c0.057-0.216,0.188-0.275,0.605-0.275
		c0.441,0,0.533-0.047,0.533-0.274c0-0.207,0.093-0.275,0.378-0.276c0.435-0.003,0.647-0.118,0.759-0.41
		c0.063-0.168,0.08-0.162,0.089,0.027c0.014,0.282,0.637,0.934,0.894,0.934c0.102,0,0.217,0.125,0.257,0.278
		c0.069,0.267,0.163,0.277,2.18,0.24l2.107-0.038l0.067-0.549c0.038-0.302,0.053-6.098,0.032-12.878l-0.037-12.328H205.6
		C203.989,188.372,202.631,188.413,202.58,188.464 M156.163,189.243l-0.377,0.328v12.038c0,11.854,0.004,12.041,0.275,12.313
		c0.257,0.258,0.458,0.274,3.271,0.274h2.997l0.304-0.349c0.3-0.346,0.303-0.39,0.265-4.465l-0.039-4.115h0.652
		c0.506,0,0.653,0.049,0.653,0.219c0,0.121,0.124,0.251,0.275,0.291c0.208,0.055,0.275,0.188,0.275,0.55
		c0,0.361,0.066,0.494,0.274,0.549c0.152,0.04,0.275,0.188,0.275,0.33s0.124,0.383,0.274,0.534c0.151,0.151,0.275,0.373,0.275,0.493
		c0,0.121,0.12,0.251,0.267,0.289c0.192,0.051,0.279,0.211,0.309,0.571c0.034,0.398,0.104,0.51,0.351,0.545
		c0.26,0.036,0.309,0.128,0.309,0.583c0,0.449,0.046,0.54,0.275,0.54c0.201,0,0.274,0.092,0.274,0.346
		c0,0.189,0.124,0.45,0.275,0.579c0.151,0.13,0.275,0.376,0.275,0.548c0,0.21,0.081,0.313,0.246,0.313
		c0.159,0,0.292,0.157,0.378,0.445c0.093,0.315,0.251,0.484,0.543,0.582c0.227,0.076,0.493,0.247,0.592,0.379
		c0.304,0.41,6.478,0.365,6.735-0.049c0.13-0.208,0.14-0.333,0.033-0.439c-0.082-0.082-0.148-0.42-0.148-0.752
		c0-0.488-0.053-0.617-0.275-0.676c-0.152-0.04-0.274-0.188-0.274-0.33c0-0.168-0.098-0.26-0.275-0.26
		c-0.199,0-0.275-0.092-0.275-0.331c0-0.475-0.136-0.768-0.358-0.768c-0.105,0-0.191-0.115-0.191-0.256s-0.113-0.403-0.251-0.584
		c-0.138-0.18-0.293-0.441-0.344-0.581c-0.051-0.139-0.216-0.286-0.366-0.324c-0.208-0.055-0.274-0.188-0.274-0.55
		c0-0.362-0.066-0.495-0.275-0.55c-0.152-0.039-0.274-0.187-0.274-0.33c0-0.167-0.097-0.259-0.275-0.259
		c-0.229,0-0.275-0.092-0.275-0.55s-0.045-0.549-0.274-0.549c-0.202,0-0.275-0.092-0.275-0.344c0-0.188-0.123-0.467-0.275-0.618
		c-0.151-0.151-0.274-0.367-0.274-0.48c0-0.114-0.117-0.206-0.259-0.206c-0.167,0-0.282-0.122-0.324-0.344
		c-0.052-0.271-0.01-0.343,0.203-0.343c0.153,0,0.299-0.119,0.341-0.275c0.04-0.152,0.188-0.274,0.331-0.274
		c0.167,0,0.258-0.098,0.258-0.274c0-0.184,0.092-0.275,0.275-0.275s0.274-0.092,0.274-0.274s0.092-0.274,0.275-0.274
		c0.178,0,0.275-0.092,0.275-0.259c0-0.144,0.123-0.291,0.274-0.331c0.211-0.055,0.275-0.188,0.275-0.565
		c0-0.271,0.058-0.493,0.127-0.493c0.322,0,0.56-0.465,0.56-1.095c0-0.43,0.065-0.688,0.186-0.733
		c0.387-0.148,0.358-2.959-0.031-3.089c-0.085-0.028-0.156-0.309-0.157-0.624c-0.002-0.837-0.129-1.189-0.426-1.189
		c-0.205,0-0.259-0.103-0.259-0.494c0-0.378-0.064-0.511-0.275-0.565c-0.151-0.04-0.274-0.185-0.274-0.321
		c0-0.138-0.124-0.289-0.275-0.337s-0.275-0.178-0.275-0.287c0-0.114-0.183-0.237-0.423-0.285c-0.233-0.047-0.495-0.199-0.583-0.34
		c-0.087-0.141-0.254-0.255-0.37-0.255c-0.117,0-0.317-0.124-0.447-0.275c-0.17-0.198-0.405-0.274-0.846-0.274
		c-0.489,0-0.627-0.055-0.697-0.274c-0.079-0.252-0.208-0.275-1.471-0.275c-1.16,0-1.412-0.039-1.559-0.24
		c-0.161-0.22-0.584-0.244-4.892-0.277l-4.716-0.038L156.163,189.243 M165.987,194.828c0.138,0.162,0.405,0.274,0.648,0.274
		c0.322,0,0.414,0.061,0.414,0.274c0,0.18,0.091,0.274,0.262,0.274c0.299,0,0.399,0.818,0.307,2.508
		c-0.043,0.8-0.086,0.927-0.31,0.927c-0.168,0-0.259,0.098-0.259,0.274c0,0.225-0.092,0.275-0.494,0.275
		c-0.378,0-0.51,0.064-0.566,0.274c-0.066,0.256-0.186,0.275-1.738,0.272c-0.92-0.001-1.587-0.052-1.489-0.114
		c0.138-0.087,0.169-0.721,0.138-2.813l-0.041-2.702h1.446C165.582,194.553,165.78,194.585,165.987,194.828 M210.769,195.737
		c-0.093,0.04-0.355,0.247-0.584,0.461l-0.416,0.389v5.714c0,5.531,0.009,5.723,0.275,5.988c0.214,0.214,0.274,0.459,0.274,1.1
		s0.061,0.885,0.274,1.099c0.151,0.151,0.275,0.404,0.275,0.563c0,0.172,0.11,0.316,0.274,0.359
		c0.189,0.049,0.274,0.187,0.274,0.442c0,0.45,0.832,1.246,1.303,1.246c0.198,0,0.341,0.101,0.386,0.274
		c0.043,0.166,0.188,0.274,0.365,0.274c0.161,0,0.426,0.124,0.589,0.275c0.271,0.252,0.484,0.274,2.603,0.274
		c2.159,0,2.319-0.018,2.479-0.274c0.116-0.187,0.32-0.275,0.633-0.275c0.337,0,0.479-0.07,0.528-0.261
		c0.108-0.415,0.716-0.452,1.101-0.067c0.181,0.181,0.411,0.328,0.513,0.328s0.216,0.124,0.256,0.275
		c0.067,0.26,0.188,0.274,2.206,0.274h2.135l0.051-0.722l0.051-0.721l0.024,0.721l0.026,0.722h2.729
		c2.521,0,2.756-0.021,3.078-0.274c0.192-0.151,0.418-0.275,0.502-0.275s0.224-0.154,0.31-0.344
		c0.086-0.188,0.201-0.343,0.257-0.343c0.055,0,0.195-0.239,0.313-0.531c0.116-0.293,0.309-0.569,0.427-0.614
		c0.138-0.053,0.214-0.255,0.214-0.567c0-0.394,0.052-0.485,0.274-0.485c0.16,0,0.275-0.091,0.275-0.219
		c0-0.119,0.123-0.376,0.274-0.567c0.151-0.192,0.274-0.465,0.274-0.605c0-0.351,0.497-0.335,0.59,0.019
		c0.04,0.151,0.17,0.274,0.29,0.274c0.141,0,0.22,0.12,0.22,0.332c0,0.513,0.142,0.767,0.427,0.767c0.197,0,0.26,0.1,0.26,0.412
		c0,0.262,0.1,0.472,0.274,0.582c0.151,0.094,0.274,0.311,0.274,0.481c0,0.219,0.082,0.311,0.275,0.311
		c0.209,0,0.274,0.092,0.274,0.385c0,0.483,0.226,0.714,0.698,0.714c0.254,0,0.392,0.087,0.441,0.275
		c0.068,0.264,0.187,0.274,3.031,0.274h2.96l0.092-0.488c0.129-0.688-0.02-1.428-0.349-1.734c-0.154-0.144-0.28-0.32-0.28-0.393
		c0-0.073-0.093-0.133-0.206-0.133s-0.206-0.101-0.206-0.225c0-0.123-0.155-0.367-0.344-0.542c-0.188-0.176-0.343-0.445-0.343-0.6
		c0-0.19-0.09-0.282-0.275-0.282c-0.224,0-0.274-0.091-0.274-0.492c0-0.379-0.064-0.511-0.274-0.566
		c-0.158-0.041-0.274-0.188-0.274-0.343c0-0.156-0.117-0.303-0.275-0.344c-0.205-0.054-0.274-0.188-0.274-0.527
		c0-0.335-0.073-0.479-0.274-0.543c-0.151-0.048-0.275-0.206-0.275-0.353c0-0.174-0.095-0.266-0.274-0.266
		c-0.224,0-0.274-0.092-0.274-0.493c0-0.378-0.065-0.511-0.275-0.565c-0.152-0.04-0.274-0.188-0.274-0.331
		c0-0.174-0.101-0.261-0.309-0.267l-0.31-0.009l0.31-0.125c0.205-0.083,0.309-0.239,0.309-0.471c0-0.198,0.118-0.42,0.274-0.518
		c0.151-0.095,0.275-0.28,0.275-0.414c0-0.15,0.104-0.241,0.274-0.241c0.183,0,0.274-0.092,0.274-0.274
		c0-0.151,0.124-0.399,0.275-0.55c0.15-0.151,0.274-0.398,0.274-0.55c0-0.183,0.091-0.274,0.274-0.274
		c0.198,0,0.275-0.092,0.275-0.327c0-0.213,0.096-0.354,0.274-0.399c0.197-0.052,0.274-0.188,0.274-0.481
		c0-0.293,0.078-0.429,0.274-0.48c0.165-0.043,0.275-0.188,0.275-0.359c0-0.195,0.087-0.287,0.272-0.287
		c0.213,0,0.293-0.122,0.361-0.55c0.065-0.414,0.151-0.55,0.345-0.55c0.166,0,0.258-0.098,0.258-0.274
		c0-0.15,0.088-0.274,0.196-0.274c0.617,0,0.376-1.469-0.261-1.588c-1.06-0.199-5.306-0.005-5.447,0.248
		c-0.073,0.133-0.255,0.24-0.402,0.24c-0.171,0-0.268,0.095-0.268,0.26c0,0.143-0.123,0.29-0.274,0.33
		c-0.151,0.039-0.275,0.187-0.275,0.326s-0.123,0.332-0.274,0.427c-0.175,0.108-0.275,0.32-0.275,0.582
		c0,0.319-0.061,0.411-0.274,0.411c-0.228,0-0.274,0.092-0.274,0.539c0,0.456-0.048,0.547-0.309,0.585
		c-0.249,0.035-0.318,0.145-0.353,0.559c-0.061,0.738-0.575,0.758-0.575,0.021c0-0.378-0.064-0.511-0.274-0.565
		c-0.152-0.04-0.275-0.188-0.275-0.33c0-0.168-0.097-0.26-0.274-0.26c-0.229,0-0.274-0.091-0.274-0.54
		c0-0.42-0.062-0.56-0.275-0.627c-0.151-0.049-0.274-0.202-0.274-0.342c0-0.391-0.147-0.688-0.343-0.688
		c-0.098,0-0.215-0.154-0.263-0.344c-0.074-0.294-0.165-0.344-0.634-0.344c-0.376,0-0.547-0.06-0.547-0.191
		c0-0.317-0.331-0.358-2.93-0.355c-3.056,0.002-3.107,0.013-3.136,0.666l-0.021,0.5l-0.057-0.454
		c-0.082-0.669-0.421-0.741-3.242-0.69c-2.237,0.041-2.466,0.068-2.644,0.312c-0.161,0.221-0.196,1.29-0.196,6.159v5.894
		l-0.309,0.257c-0.169,0.143-0.386,0.261-0.479,0.263c-0.094,0.003-0.247,0.128-0.342,0.279c-0.387,0.62-2.135,0.336-2.363-0.384
		c-0.053-0.166-0.185-0.303-0.293-0.303c-0.168,0-0.196-0.869-0.196-5.892c0-7.325,0.368-6.53-3.044-6.567
		C212.07,195.678,210.861,195.698,210.769,195.737 M227.499,198.3c0.146,0.092,0.265,0.274,0.265,0.407
		c0,0.15,0.104,0.242,0.274,0.242c0.197,0,0.275,0.092,0.275,0.321c0,0.178,0.123,0.435,0.274,0.571
		c0.15,0.137,0.274,0.358,0.274,0.492c0,0.135,0.124,0.284,0.275,0.332c0.15,0.048,0.274,0.206,0.274,0.353
		c0,0.174,0.095,0.266,0.274,0.266c0.199,0,0.275,0.092,0.275,0.332c0,0.475,0.136,0.767,0.357,0.767
		c0.105,0,0.191,0.109,0.191,0.242c0,0.132,0.115,0.313,0.255,0.401c0.142,0.087,0.294,0.35,0.34,0.582
		c0.062,0.306,0.162,0.423,0.364,0.423c0.186,0,0.277,0.091,0.277,0.275c0,0.188,0.098,0.28,0.31,0.293l0.309,0.019l-0.309,0.06
		c-0.186,0.035-0.31,0.159-0.31,0.309c0,0.137-0.12,0.28-0.266,0.319c-0.173,0.045-0.297,0.237-0.356,0.553
		c-0.059,0.312-0.184,0.507-0.353,0.552c-0.145,0.037-0.262,0.166-0.262,0.287c0,0.12-0.123,0.342-0.274,0.493
		s-0.274,0.392-0.274,0.534s-0.123,0.291-0.275,0.33c-0.151,0.039-0.274,0.17-0.274,0.291c0,0.12-0.124,0.342-0.274,0.493
		c-0.151,0.151-0.275,0.429-0.275,0.618c0,0.252-0.073,0.343-0.274,0.343c-0.153,0-0.274,0.092-0.274,0.207
		c0,0.113-0.124,0.329-0.275,0.48s-0.274,0.429-0.274,0.618c0,0.248-0.074,0.343-0.265,0.343c-0.166,0-0.288,0.116-0.325,0.31
		c-0.033,0.17-0.059-2.998-0.059-7.04c0.002-4.041,0.028-7.177,0.061-6.966C227.207,197.962,227.353,198.209,227.499,198.3
		 M184.792,200.962c0.138,0.125,0.251,0.309,0.251,0.407s0.124,0.246,0.275,0.327s0.275,0.269,0.275,0.417
		c0,0.258-0.105,0.27-2.331,0.27c-1.801,0-2.318-0.039-2.278-0.171c0.029-0.096,0.09-0.342,0.136-0.55
		c0.045-0.208,0.161-0.378,0.256-0.378s0.262-0.124,0.371-0.275C182.018,200.634,184.389,200.597,184.792,200.962 M201.77,201.009
		c0.095,0.151,0.295,0.275,0.446,0.275c0.265,0,0.273,0.096,0.273,3.351v3.351l-0.344,0.086c-0.188,0.047-0.344,0.171-0.344,0.274
		c0,0.106-0.209,0.228-0.48,0.278c-0.288,0.054-0.48,0.17-0.48,0.29c0,0.154-0.203,0.199-0.893,0.199
		c-0.726,0-0.893-0.041-0.893-0.218c0-0.121-0.124-0.252-0.275-0.291c-0.178-0.047-0.274-0.188-0.274-0.399
		c0-0.18-0.124-0.451-0.275-0.603c-0.358-0.358-0.426-4.512-0.077-4.8c0.108-0.091,0.236-0.36,0.285-0.601
		c0.164-0.815,0.216-0.898,0.623-0.988c0.224-0.049,0.406-0.177,0.406-0.283C199.467,200.586,201.551,200.657,201.77,201.009"/>
	<path id="path2" fill="#783C98" d="M191.3,100.175c-0.043,0.071-0.016,0.167,0.061,0.214s0.14,0.017,0.14-0.067
		c0-0.084,0.062-0.115,0.137-0.068s0.138,0.02,0.138-0.061C191.775,100.014,191.408,100,191.3,100.175 M188.004,101.822
		c-0.05,0.082-0.023,0.149,0.062,0.149c0.084,0,0.11,0.078,0.056,0.172c-0.077,0.137-0.06,0.137,0.088,0
		c0.133-0.124,0.143-0.213,0.036-0.321C188.139,101.714,188.071,101.714,188.004,101.822 M214.852,104.787
		c0,0.113,0.1,0.207,0.223,0.207c0.183,0,0.191-0.038,0.052-0.207c-0.094-0.113-0.194-0.206-0.223-0.206
		S214.852,104.673,214.852,104.787 M201.655,105.175c0.075,0.076,0.248,0.146,0.385,0.156c0.136,0.01,0.324,0.065,0.417,0.123
		c0.093,0.058,0.169,0.043,0.169-0.031c0-0.142-0.437-0.325-0.863-0.363C201.6,105.045,201.563,105.084,201.655,105.175
		 M215.996,106.022c0,0.114,0.077,0.207,0.172,0.207s0.203,0.078,0.24,0.172c0.041,0.099,0.074,0.108,0.081,0.021
		c0.006-0.083-0.103-0.252-0.241-0.378C216.033,105.849,215.996,105.846,215.996,106.022 M205.923,106.174
		c0,0.097,0.37,0.466,0.467,0.466c0.147,0-0.081-0.392-0.271-0.465C206.011,106.134,205.923,106.134,205.923,106.174
		 M182.461,106.401c-0.128,0.154-0.135,0.242-0.025,0.31c0.204,0.126,0.308,0.007,0.25-0.287
		C182.645,106.21,182.622,106.208,182.461,106.401 M190.638,108.004c-0.048,0.186-0.012,0.243,0.121,0.192
		c0.105-0.041,0.159-0.123,0.122-0.185c-0.038-0.061,0.009-0.142,0.104-0.181c0.11-0.044,0.092-0.073-0.052-0.08
		C190.809,107.745,190.676,107.859,190.638,108.004 M208.99,108.214c0.139,0.104,0.344,0.304,0.456,0.442
		c0.113,0.138,0.161,0.159,0.105,0.045c-0.163-0.339-0.502-0.687-0.662-0.683C208.807,108.021,208.852,108.109,208.99,108.214
		 M178.131,112.345c-0.051,0.149-0.13,0.364-0.175,0.477c-0.046,0.113,0.021,0.065,0.147-0.106c0.127-0.172,0.206-0.387,0.176-0.477
		C178.248,112.146,178.183,112.193,178.131,112.345 M223.307,120.502c-0.102,0.165,0.055,0.562,0.222,0.562
		c0.071,0,0.087,0.072,0.032,0.159c-0.058,0.093-0.038,0.121,0.048,0.068c0.17-0.105,0.063-0.64-0.127-0.64
		c-0.071,0-0.092-0.062-0.045-0.137s0.054-0.138,0.017-0.138C223.415,120.377,223.35,120.434,223.307,120.502 M174.479,122.003
		c-0.1,0.187-0.086,0.252,0.051,0.252c0.107,0,0.152-0.086,0.106-0.206c-0.056-0.145-0.025-0.172,0.103-0.093
		c0.121,0.074,0.149,0.059,0.084-0.046C174.69,121.694,174.637,121.709,174.479,122.003 M223.918,124.086
		c0.266,0.172,0.411,0.172,0.411,0c0-0.075-0.139-0.136-0.309-0.135C223.771,123.953,223.75,123.979,223.918,124.086
		 M191.312,125.532c-0.065,0.171-0.03,0.182,0.191,0.063c0.318-0.17,0.349-0.273,0.081-0.273
		C191.478,125.322,191.355,125.417,191.312,125.532 M190.49,126.124c-0.188,0.208-0.193,0.252-0.027,0.252
		c0.11,0,0.171-0.048,0.135-0.106s0.044-0.17,0.178-0.248c0.134-0.078,0.176-0.144,0.093-0.146S190.616,125.985,190.49,126.124
		 M203.484,128.165c0.133,0.034,0.349,0.034,0.48,0c0.133-0.035,0.024-0.063-0.24-0.063
		C203.461,128.102,203.353,128.13,203.484,128.165 M211.356,128.958c0.37,0.28,0.702,0.283,0.424,0.004
		c-0.113-0.113-0.314-0.206-0.448-0.206C211.112,128.757,211.115,128.775,211.356,128.958 M173.462,134.578
		c-0.043,0.111,0.009,0.274,0.115,0.362c0.157,0.13,0.181,0.103,0.133-0.146C173.633,134.396,173.558,134.33,173.462,134.578
		 M213.811,136.128c0.019,0.126,0.142,0.245,0.274,0.264c0.229,0.034,0.229,0.022,0.002-0.229
		C213.795,135.841,213.768,135.837,213.811,136.128 M198.917,137.205c-0.178,0.189-0.266,0.341-0.196,0.339
		c0.118-0.004,0.684-0.683,0.57-0.683C199.263,136.861,199.095,137.015,198.917,137.205 M191.271,137.895
		c0,0.224,0.515,0.413,0.807,0.296c0.098-0.04,0.037-0.077-0.136-0.082c-0.172-0.006-0.349-0.104-0.393-0.217
		C191.447,137.624,191.271,137.625,191.271,137.895 M232.159,138.028c0,0.114,0.101,0.207,0.223,0.207
		c0.183,0,0.192-0.038,0.052-0.207c-0.094-0.113-0.193-0.206-0.223-0.206C232.183,137.822,232.159,137.915,232.159,138.028
		 M168.904,138.372c-0.039,0.063,0.039,0.096,0.171,0.076c0.132-0.02,0.292,0.032,0.355,0.116c0.075,0.1,0.095,0.086,0.061-0.042
		C169.432,138.304,169.012,138.197,168.904,138.372 M173.928,139.491c0.15,0.281,0.296,0.253,0.343-0.065
		c0.014-0.096-0.091-0.183-0.233-0.194C173.82,139.216,173.803,139.256,173.928,139.491 M174.341,141.688
		c-0.006,0.124,0.11,0.372,0.259,0.549c0.246,0.296,0.271,0.301,0.275,0.061c0.002-0.145-0.038-0.22-0.09-0.168
		c-0.052,0.052-0.171-0.077-0.264-0.287C174.418,141.613,174.348,141.551,174.341,141.688 M170.623,142.092
		c0.001,0.107,0.063,0.287,0.138,0.4c0.108,0.164,0.127,0.143,0.093-0.1C170.804,142.042,170.62,141.801,170.623,142.092
		 M171.079,145c-0.229,0.366-0.168,0.543,0.102,0.299c0.145-0.131,0.264-0.291,0.264-0.354
		C171.445,144.768,171.201,144.805,171.079,145 M216.704,145.243c-0.047,0.076-0.14,0.106-0.204,0.066
		c-0.065-0.04-0.157-0.01-0.205,0.066s-0.002,0.14,0.102,0.14c0.233,0,0.783-0.401,0.558-0.408
		C216.864,145.104,216.752,145.166,216.704,145.243 M217.874,145.232c0,0.23,0.243,0.288,0.324,0.076
		c0.048-0.124-0.001-0.205-0.123-0.205C217.964,145.103,217.874,145.161,217.874,145.232 M176.115,147.764
		c0,0.029,0.093,0.129,0.206,0.223c0.169,0.14,0.207,0.13,0.207-0.052c0-0.123-0.093-0.223-0.207-0.223
		C176.208,147.712,176.115,147.736,176.115,147.764 M165.767,150.414c-0.05,0.05-0.091,0.2-0.091,0.332
		c0,0.132-0.064,0.271-0.141,0.31c-0.077,0.038-0.065,0.055,0.027,0.037c0.092-0.019,0.212-0.199,0.267-0.402
		C165.931,150.307,165.92,150.261,165.767,150.414 M210.656,150.92c-0.282,0.31-0.322,0.456-0.126,0.456
		c0.11,0,0.17-0.031,0.133-0.068s0.003-0.152,0.088-0.255C210.943,150.822,210.855,150.701,210.656,150.92 M186.417,153.336
		c0,0.071,0.119,0.12,0.265,0.109c0.146-0.011,0.235-0.069,0.198-0.129C186.787,153.164,186.417,153.18,186.417,153.336
		 M163.158,154.535c-0.051,0.051-0.092,0.179-0.092,0.285c0,0.16,0.035,0.157,0.206-0.013c0.114-0.113,0.207-0.242,0.207-0.285
		C163.478,154.415,163.27,154.423,163.158,154.535 M211.082,155.14c0.287,0.317,0.29,0.317,0.29,0.069
		c0-0.108-0.119-0.228-0.265-0.265C210.854,154.877,210.854,154.886,211.082,155.14 M156.055,156.435
		c-0.015,0.076-0.02,0.184-0.011,0.24c0.009,0.057-0.045,0.104-0.121,0.104s-0.137,0.106-0.137,0.237c0,0.192,0.04,0.18,0.216-0.072
		c0.12-0.17,0.186-0.385,0.148-0.478C156.113,156.374,156.069,156.36,156.055,156.435 M238.478,156.746
		c0,0.158,0.374,0.583,0.512,0.583c0.045,0-0.037-0.139-0.18-0.31c-0.143-0.169-0.276-0.334-0.296-0.366
		C238.494,156.621,238.478,156.663,238.478,156.746 M239.194,158.974c0.173,0.276,0.383,0.371,0.383,0.174
		c0-0.059-0.125-0.183-0.278-0.278C239.042,158.708,239.033,158.716,239.194,158.974 M179.691,159.792
		c-0.186,0.347-0.18,0.454,0.044,0.76c0.167,0.229,0.187,0.188,0.187-0.386C179.922,159.451,179.896,159.409,179.691,159.792
		 M161.484,161.315c-0.048,0.077-0.07,0.414-0.049,0.75c0.021,0.337-0.006,0.654-0.059,0.707c-0.192,0.192-0.098,0.454,0.132,0.366
		c0.166-0.064,0.198-0.038,0.117,0.094c-0.076,0.122-0.06,0.149,0.048,0.082c0.088-0.054,0.115-0.172,0.06-0.261
		c-0.056-0.09-0.082-0.549-0.059-1.021C161.716,161.203,161.667,161.02,161.484,161.315 M217.255,161.448
		c-0.137,0.151-0.18,0.275-0.095,0.275s0.22-0.124,0.301-0.275c0.081-0.15,0.124-0.274,0.096-0.274
		C217.527,161.174,217.392,161.298,217.255,161.448 M182.708,165.981c0.151,0.151,0.346,0.275,0.433,0.275
		c0.087,0,0.016-0.124-0.159-0.275c-0.174-0.151-0.369-0.274-0.433-0.274S182.557,165.83,182.708,165.981 M245.309,168.858
		c-0.048,0.184-0.013,0.24,0.121,0.189c0.217-0.083,0.25-0.266,0.069-0.378C245.432,168.629,245.346,168.713,245.309,168.858
		 M244.705,170.584c0,0.117,0.057,0.194,0.125,0.172c0.068-0.023,0.124-0.101,0.124-0.172c0-0.072-0.056-0.149-0.124-0.173
		C244.762,170.389,244.705,170.466,244.705,170.584 M209.472,171.432c-0.295,0.078-0.447,0.457-0.184,0.457
		c0.108,0,0.263-0.124,0.344-0.275c0.081-0.15,0.13-0.267,0.107-0.258C209.718,171.363,209.598,171.397,209.472,171.432
		 M205.329,174.966c-0.045,0.116-0.026,0.244,0.041,0.286c0.18,0.111,0.332-0.205,0.174-0.362
		C205.457,174.801,205.382,174.828,205.329,174.966 M174.604,177.231c0,0.066,0.098,0.159,0.217,0.205
		c0.336,0.13,0.37,0.102,0.146-0.122C174.734,177.08,174.604,177.051,174.604,177.231 M225.778,177.943
		c0.035,0.057-0.014,0.133-0.108,0.17c-0.096,0.036-0.034,0.059,0.137,0.051c0.334-0.017,0.438-0.323,0.108-0.323
		C225.806,177.841,225.744,177.887,225.778,177.943 M199.146,178.848c-0.158,0.158-0.1,0.321,0.114,0.321
		c0.113,0,0.206-0.094,0.206-0.206C199.467,178.748,199.304,178.689,199.146,178.848 M194.138,181.303
		c-0.145,0.165-0.142,0.201,0.02,0.201c0.108,0,0.232-0.093,0.276-0.206C194.534,181.037,194.371,181.04,194.138,181.303
		 M230.82,182.79c-0.171,0.084-0.31,0.202-0.31,0.262c0,0.133,0.5-0.12,0.618-0.313c0.047-0.074,0.066-0.129,0.043-0.119
		C231.148,182.629,230.989,182.705,230.82,182.79 M172.206,183.418c-0.049,0.08-0.056,0.154-0.013,0.163
		c0.223,0.051,0.355,0.089,0.385,0.114c0.131,0.105,0.5,0.093,0.434-0.015c-0.045-0.074-0.118-0.1-0.161-0.057
		c-0.043,0.044-0.185-0.019-0.316-0.138C172.376,183.345,172.266,183.321,172.206,183.418 M213.396,183.448
		c-0.062,0.099-0.038,0.121,0.061,0.061c0.087-0.054,0.158-0.039,0.158,0.033c0,0.071,0.092,0.166,0.204,0.209
		c0.171,0.064,0.177,0.034,0.035-0.191C213.662,183.251,213.537,183.221,213.396,183.448 M175.978,184.239
		c0,0.06,0.191,0.112,0.426,0.119c0.502,0.015,0.477-0.063-0.051-0.158C176.146,184.162,175.978,184.18,175.978,184.239"/>
	<path id="path3" fill="#783C98" d="M191.3,100.175c-0.043,0.071-0.016,0.167,0.061,0.214s0.14,0.017,0.14-0.067
		c0-0.084,0.062-0.115,0.137-0.068s0.138,0.02,0.138-0.061C191.775,100.014,191.408,100,191.3,100.175 M188.004,101.822
		c-0.05,0.082-0.023,0.149,0.062,0.149c0.084,0,0.11,0.078,0.056,0.172c-0.077,0.137-0.06,0.137,0.088,0
		c0.133-0.124,0.143-0.213,0.036-0.321C188.139,101.714,188.071,101.714,188.004,101.822 M214.852,104.787
		c0,0.113,0.1,0.207,0.223,0.207c0.183,0,0.191-0.038,0.052-0.207c-0.094-0.113-0.194-0.206-0.223-0.206
		S214.852,104.673,214.852,104.787 M201.655,105.175c0.075,0.076,0.248,0.146,0.385,0.156c0.136,0.01,0.324,0.065,0.417,0.123
		c0.093,0.058,0.169,0.043,0.169-0.031c0-0.142-0.437-0.325-0.863-0.363C201.6,105.045,201.563,105.084,201.655,105.175
		 M215.996,106.022c0,0.114,0.077,0.207,0.172,0.207s0.203,0.078,0.24,0.172c0.041,0.099,0.074,0.108,0.081,0.021
		c0.006-0.083-0.103-0.252-0.241-0.378C216.033,105.849,215.996,105.846,215.996,106.022 M205.923,106.174
		c0,0.097,0.37,0.466,0.467,0.466c0.147,0-0.081-0.392-0.271-0.465C206.011,106.134,205.923,106.134,205.923,106.174
		 M182.461,106.401c-0.128,0.154-0.135,0.242-0.025,0.31c0.204,0.126,0.308,0.007,0.25-0.287
		C182.645,106.21,182.622,106.208,182.461,106.401 M190.638,108.004c-0.048,0.186-0.012,0.243,0.121,0.192
		c0.105-0.041,0.159-0.123,0.122-0.185c-0.038-0.061,0.009-0.142,0.104-0.181c0.11-0.044,0.092-0.073-0.052-0.08
		C190.809,107.745,190.676,107.859,190.638,108.004 M208.99,108.214c0.139,0.104,0.344,0.304,0.456,0.442
		c0.113,0.138,0.161,0.159,0.105,0.045c-0.163-0.339-0.502-0.687-0.662-0.683C208.807,108.021,208.852,108.109,208.99,108.214
		 M178.131,112.345c-0.051,0.149-0.13,0.364-0.175,0.477c-0.046,0.113,0.021,0.065,0.147-0.106c0.127-0.172,0.206-0.387,0.176-0.477
		C178.248,112.146,178.183,112.193,178.131,112.345 M223.307,120.502c-0.102,0.165,0.055,0.562,0.222,0.562
		c0.071,0,0.087,0.072,0.032,0.159c-0.058,0.093-0.038,0.121,0.048,0.068c0.17-0.105,0.063-0.64-0.127-0.64
		c-0.071,0-0.092-0.062-0.045-0.137s0.054-0.138,0.017-0.138C223.415,120.377,223.35,120.434,223.307,120.502 M174.479,122.003
		c-0.1,0.187-0.086,0.252,0.051,0.252c0.107,0,0.152-0.086,0.106-0.206c-0.056-0.145-0.025-0.172,0.103-0.093
		c0.121,0.074,0.149,0.059,0.084-0.046C174.69,121.694,174.637,121.709,174.479,122.003 M223.918,124.086
		c0.266,0.172,0.411,0.172,0.411,0c0-0.075-0.139-0.136-0.309-0.135C223.771,123.953,223.75,123.979,223.918,124.086
		 M191.312,125.532c-0.065,0.171-0.03,0.182,0.191,0.063c0.318-0.17,0.349-0.273,0.081-0.273
		C191.478,125.322,191.355,125.417,191.312,125.532 M190.49,126.124c-0.188,0.208-0.193,0.252-0.027,0.252
		c0.11,0,0.171-0.048,0.135-0.106s0.044-0.17,0.178-0.248c0.134-0.078,0.176-0.144,0.093-0.146S190.616,125.985,190.49,126.124
		 M203.484,128.165c0.133,0.034,0.349,0.034,0.48,0c0.133-0.035,0.024-0.063-0.24-0.063
		C203.461,128.102,203.353,128.13,203.484,128.165 M211.356,128.958c0.37,0.28,0.702,0.283,0.424,0.004
		c-0.113-0.113-0.314-0.206-0.448-0.206C211.112,128.757,211.115,128.775,211.356,128.958 M173.462,134.578
		c-0.043,0.111,0.009,0.274,0.115,0.362c0.157,0.13,0.181,0.103,0.133-0.146C173.633,134.396,173.558,134.33,173.462,134.578
		 M213.811,136.128c0.019,0.126,0.142,0.245,0.274,0.264c0.229,0.034,0.229,0.022,0.002-0.229
		C213.795,135.841,213.768,135.837,213.811,136.128 M198.917,137.205c-0.178,0.189-0.266,0.341-0.196,0.339
		c0.118-0.004,0.684-0.683,0.57-0.683C199.263,136.861,199.095,137.015,198.917,137.205 M191.271,137.895
		c0,0.224,0.515,0.413,0.807,0.296c0.098-0.04,0.037-0.077-0.136-0.082c-0.172-0.006-0.349-0.104-0.393-0.217
		C191.447,137.624,191.271,137.625,191.271,137.895 M232.159,138.028c0,0.114,0.101,0.207,0.223,0.207
		c0.183,0,0.192-0.038,0.052-0.207c-0.094-0.113-0.193-0.206-0.223-0.206C232.183,137.822,232.159,137.915,232.159,138.028
		 M168.904,138.372c-0.039,0.063,0.039,0.096,0.171,0.076c0.132-0.02,0.292,0.032,0.355,0.116c0.075,0.1,0.095,0.086,0.061-0.042
		C169.432,138.304,169.012,138.197,168.904,138.372 M173.928,139.491c0.15,0.281,0.296,0.253,0.343-0.065
		c0.014-0.096-0.091-0.183-0.233-0.194C173.82,139.216,173.803,139.256,173.928,139.491 M174.341,141.688
		c-0.006,0.124,0.11,0.372,0.259,0.549c0.246,0.296,0.271,0.301,0.275,0.061c0.002-0.145-0.038-0.22-0.09-0.168
		c-0.052,0.052-0.171-0.077-0.264-0.287C174.418,141.613,174.348,141.551,174.341,141.688 M170.623,142.092
		c0.001,0.107,0.063,0.287,0.138,0.4c0.108,0.164,0.127,0.143,0.093-0.1C170.804,142.042,170.62,141.801,170.623,142.092
		 M171.079,145c-0.229,0.366-0.168,0.543,0.102,0.299c0.145-0.131,0.264-0.291,0.264-0.354
		C171.445,144.768,171.201,144.805,171.079,145 M216.704,145.243c-0.047,0.076-0.14,0.106-0.204,0.066
		c-0.065-0.04-0.157-0.01-0.205,0.066s-0.002,0.14,0.102,0.14c0.233,0,0.783-0.401,0.558-0.408
		C216.864,145.104,216.752,145.166,216.704,145.243 M217.874,145.232c0,0.23,0.243,0.288,0.324,0.076
		c0.048-0.124-0.001-0.205-0.123-0.205C217.964,145.103,217.874,145.161,217.874,145.232 M176.115,147.764
		c0,0.029,0.093,0.129,0.206,0.223c0.169,0.14,0.207,0.13,0.207-0.052c0-0.123-0.093-0.223-0.207-0.223
		C176.208,147.712,176.115,147.736,176.115,147.764 M165.767,150.414c-0.05,0.05-0.091,0.2-0.091,0.332
		c0,0.132-0.064,0.271-0.141,0.31c-0.077,0.038-0.065,0.055,0.027,0.037c0.092-0.019,0.212-0.199,0.267-0.402
		C165.931,150.307,165.92,150.261,165.767,150.414 M210.656,150.92c-0.282,0.31-0.322,0.456-0.126,0.456
		c0.11,0,0.17-0.031,0.133-0.068s0.003-0.152,0.088-0.255C210.943,150.822,210.855,150.701,210.656,150.92 M186.417,153.336
		c0,0.071,0.119,0.12,0.265,0.109c0.146-0.011,0.235-0.069,0.198-0.129C186.787,153.164,186.417,153.18,186.417,153.336
		 M163.158,154.535c-0.051,0.051-0.092,0.179-0.092,0.285c0,0.16,0.035,0.157,0.206-0.013c0.114-0.113,0.207-0.242,0.207-0.285
		C163.478,154.415,163.27,154.423,163.158,154.535 M211.082,155.14c0.287,0.317,0.29,0.317,0.29,0.069
		c0-0.108-0.119-0.228-0.265-0.265C210.854,154.877,210.854,154.886,211.082,155.14 M156.055,156.435
		c-0.015,0.076-0.02,0.184-0.011,0.24c0.009,0.057-0.045,0.104-0.121,0.104s-0.137,0.106-0.137,0.237c0,0.192,0.04,0.18,0.216-0.072
		c0.12-0.17,0.186-0.385,0.148-0.478C156.113,156.374,156.069,156.36,156.055,156.435 M238.478,156.746
		c0,0.158,0.374,0.583,0.512,0.583c0.045,0-0.037-0.139-0.18-0.31c-0.143-0.169-0.276-0.334-0.296-0.366
		C238.494,156.621,238.478,156.663,238.478,156.746 M239.194,158.974c0.173,0.276,0.383,0.371,0.383,0.174
		c0-0.059-0.125-0.183-0.278-0.278C239.042,158.708,239.033,158.716,239.194,158.974 M179.691,159.792
		c-0.186,0.347-0.18,0.454,0.044,0.76c0.167,0.229,0.187,0.188,0.187-0.386C179.922,159.451,179.896,159.409,179.691,159.792
		 M161.484,161.315c-0.048,0.077-0.07,0.414-0.049,0.75c0.021,0.337-0.006,0.654-0.059,0.707c-0.192,0.192-0.098,0.454,0.132,0.366
		c0.166-0.064,0.198-0.038,0.117,0.094c-0.076,0.122-0.06,0.149,0.048,0.082c0.088-0.054,0.115-0.172,0.06-0.261
		c-0.056-0.09-0.082-0.549-0.059-1.021C161.716,161.203,161.667,161.02,161.484,161.315 M217.255,161.448
		c-0.137,0.151-0.18,0.275-0.095,0.275s0.22-0.124,0.301-0.275c0.081-0.15,0.124-0.274,0.096-0.274
		C217.527,161.174,217.392,161.298,217.255,161.448 M182.708,165.981c0.151,0.151,0.346,0.275,0.433,0.275
		c0.087,0,0.016-0.124-0.159-0.275c-0.174-0.151-0.369-0.274-0.433-0.274S182.557,165.83,182.708,165.981 M245.309,168.858
		c-0.048,0.184-0.013,0.24,0.121,0.189c0.217-0.083,0.25-0.266,0.069-0.378C245.432,168.629,245.346,168.713,245.309,168.858
		 M244.705,170.584c0,0.117,0.057,0.194,0.125,0.172c0.068-0.023,0.124-0.101,0.124-0.172c0-0.072-0.056-0.149-0.124-0.173
		C244.762,170.389,244.705,170.466,244.705,170.584 M209.472,171.432c-0.295,0.078-0.447,0.457-0.184,0.457
		c0.108,0,0.263-0.124,0.344-0.275c0.081-0.15,0.13-0.267,0.107-0.258C209.718,171.363,209.598,171.397,209.472,171.432
		 M205.329,174.966c-0.045,0.116-0.026,0.244,0.041,0.286c0.18,0.111,0.332-0.205,0.174-0.362
		C205.457,174.801,205.382,174.828,205.329,174.966 M174.604,177.231c0,0.066,0.098,0.159,0.217,0.205
		c0.336,0.13,0.37,0.102,0.146-0.122C174.734,177.08,174.604,177.051,174.604,177.231 M225.778,177.943
		c0.035,0.057-0.014,0.133-0.108,0.17c-0.096,0.036-0.034,0.059,0.137,0.051c0.334-0.017,0.438-0.323,0.108-0.323
		C225.806,177.841,225.744,177.887,225.778,177.943 M199.146,178.848c-0.158,0.158-0.1,0.321,0.114,0.321
		c0.113,0,0.206-0.094,0.206-0.206C199.467,178.748,199.304,178.689,199.146,178.848 M194.138,181.303
		c-0.145,0.165-0.142,0.201,0.02,0.201c0.108,0,0.232-0.093,0.276-0.206C194.534,181.037,194.371,181.04,194.138,181.303
		 M230.82,182.79c-0.171,0.084-0.31,0.202-0.31,0.262c0,0.133,0.5-0.12,0.618-0.313c0.047-0.074,0.066-0.129,0.043-0.119
		C231.148,182.629,230.989,182.705,230.82,182.79 M172.206,183.418c-0.049,0.08-0.056,0.154-0.013,0.163
		c0.223,0.051,0.355,0.089,0.385,0.114c0.131,0.105,0.5,0.093,0.434-0.015c-0.045-0.074-0.118-0.1-0.161-0.057
		c-0.043,0.044-0.185-0.019-0.316-0.138C172.376,183.345,172.266,183.321,172.206,183.418 M213.396,183.448
		c-0.062,0.099-0.038,0.121,0.061,0.061c0.087-0.054,0.158-0.039,0.158,0.033c0,0.071,0.092,0.166,0.204,0.209
		c0.171,0.064,0.177,0.034,0.035-0.191C213.662,183.251,213.537,183.221,213.396,183.448 M175.978,184.239
		c0,0.06,0.191,0.112,0.426,0.119c0.502,0.015,0.477-0.063-0.051-0.158C176.146,184.162,175.978,184.18,175.978,184.239"/>
	<path id="path4" fill="#783C98" d="M191.3,100.175c-0.043,0.071-0.016,0.167,0.061,0.214s0.14,0.017,0.14-0.067
		c0-0.084,0.062-0.115,0.137-0.068s0.138,0.02,0.138-0.061C191.775,100.014,191.408,100,191.3,100.175 M188.004,101.822
		c-0.05,0.082-0.023,0.149,0.062,0.149c0.084,0,0.11,0.078,0.056,0.172c-0.077,0.137-0.06,0.137,0.088,0
		c0.133-0.124,0.143-0.213,0.036-0.321C188.139,101.714,188.071,101.714,188.004,101.822 M214.852,104.787
		c0,0.113,0.1,0.207,0.223,0.207c0.183,0,0.191-0.038,0.052-0.207c-0.094-0.113-0.194-0.206-0.223-0.206
		S214.852,104.673,214.852,104.787 M201.655,105.175c0.075,0.076,0.248,0.146,0.385,0.156c0.136,0.01,0.324,0.065,0.417,0.123
		c0.093,0.058,0.169,0.043,0.169-0.031c0-0.142-0.437-0.325-0.863-0.363C201.6,105.045,201.563,105.084,201.655,105.175
		 M215.996,106.022c0,0.114,0.077,0.207,0.172,0.207s0.203,0.078,0.24,0.172c0.041,0.099,0.074,0.108,0.081,0.021
		c0.006-0.083-0.103-0.252-0.241-0.378C216.033,105.849,215.996,105.846,215.996,106.022 M205.923,106.174
		c0,0.097,0.37,0.466,0.467,0.466c0.147,0-0.081-0.392-0.271-0.465C206.011,106.134,205.923,106.134,205.923,106.174
		 M182.461,106.401c-0.128,0.154-0.135,0.242-0.025,0.31c0.204,0.126,0.308,0.007,0.25-0.287
		C182.645,106.21,182.622,106.208,182.461,106.401 M190.638,108.004c-0.048,0.186-0.012,0.243,0.121,0.192
		c0.105-0.041,0.159-0.123,0.122-0.185c-0.038-0.061,0.009-0.142,0.104-0.181c0.11-0.044,0.092-0.073-0.052-0.08
		C190.809,107.745,190.676,107.859,190.638,108.004 M208.99,108.214c0.139,0.104,0.344,0.304,0.456,0.442
		c0.113,0.138,0.161,0.159,0.105,0.045c-0.163-0.339-0.502-0.687-0.662-0.683C208.807,108.021,208.852,108.109,208.99,108.214
		 M178.131,112.345c-0.051,0.149-0.13,0.364-0.175,0.477c-0.046,0.113,0.021,0.065,0.147-0.106c0.127-0.172,0.206-0.387,0.176-0.477
		C178.248,112.146,178.183,112.193,178.131,112.345 M223.307,120.502c-0.102,0.165,0.055,0.562,0.222,0.562
		c0.071,0,0.087,0.072,0.032,0.159c-0.058,0.093-0.038,0.121,0.048,0.068c0.17-0.105,0.063-0.64-0.127-0.64
		c-0.071,0-0.092-0.062-0.045-0.137s0.054-0.138,0.017-0.138C223.415,120.377,223.35,120.434,223.307,120.502 M174.479,122.003
		c-0.1,0.187-0.086,0.252,0.051,0.252c0.107,0,0.152-0.086,0.106-0.206c-0.056-0.145-0.025-0.172,0.103-0.093
		c0.121,0.074,0.149,0.059,0.084-0.046C174.69,121.694,174.637,121.709,174.479,122.003 M223.918,124.086
		c0.266,0.172,0.411,0.172,0.411,0c0-0.075-0.139-0.136-0.309-0.135C223.771,123.953,223.75,123.979,223.918,124.086
		 M191.312,125.532c-0.065,0.171-0.03,0.182,0.191,0.063c0.318-0.17,0.349-0.273,0.081-0.273
		C191.478,125.322,191.355,125.417,191.312,125.532 M190.49,126.124c-0.188,0.208-0.193,0.252-0.027,0.252
		c0.11,0,0.171-0.048,0.135-0.106s0.044-0.17,0.178-0.248c0.134-0.078,0.176-0.144,0.093-0.146S190.616,125.985,190.49,126.124
		 M203.484,128.165c0.133,0.034,0.349,0.034,0.48,0c0.133-0.035,0.024-0.063-0.24-0.063
		C203.461,128.102,203.353,128.13,203.484,128.165 M211.356,128.958c0.37,0.28,0.702,0.283,0.424,0.004
		c-0.113-0.113-0.314-0.206-0.448-0.206C211.112,128.757,211.115,128.775,211.356,128.958 M173.462,134.578
		c-0.043,0.111,0.009,0.274,0.115,0.362c0.157,0.13,0.181,0.103,0.133-0.146C173.633,134.396,173.558,134.33,173.462,134.578
		 M213.811,136.128c0.019,0.126,0.142,0.245,0.274,0.264c0.229,0.034,0.229,0.022,0.002-0.229
		C213.795,135.841,213.768,135.837,213.811,136.128 M198.917,137.205c-0.178,0.189-0.266,0.341-0.196,0.339
		c0.118-0.004,0.684-0.683,0.57-0.683C199.263,136.861,199.095,137.015,198.917,137.205 M191.271,137.895
		c0,0.224,0.515,0.413,0.807,0.296c0.098-0.04,0.037-0.077-0.136-0.082c-0.172-0.006-0.349-0.104-0.393-0.217
		C191.447,137.624,191.271,137.625,191.271,137.895 M232.159,138.028c0,0.114,0.101,0.207,0.223,0.207
		c0.183,0,0.192-0.038,0.052-0.207c-0.094-0.113-0.193-0.206-0.223-0.206C232.183,137.822,232.159,137.915,232.159,138.028
		 M168.904,138.372c-0.039,0.063,0.039,0.096,0.171,0.076c0.132-0.02,0.292,0.032,0.355,0.116c0.075,0.1,0.095,0.086,0.061-0.042
		C169.432,138.304,169.012,138.197,168.904,138.372 M173.928,139.491c0.15,0.281,0.296,0.253,0.343-0.065
		c0.014-0.096-0.091-0.183-0.233-0.194C173.82,139.216,173.803,139.256,173.928,139.491 M174.341,141.688
		c-0.006,0.124,0.11,0.372,0.259,0.549c0.246,0.296,0.271,0.301,0.275,0.061c0.002-0.145-0.038-0.22-0.09-0.168
		c-0.052,0.052-0.171-0.077-0.264-0.287C174.418,141.613,174.348,141.551,174.341,141.688 M170.623,142.092
		c0.001,0.107,0.063,0.287,0.138,0.4c0.108,0.164,0.127,0.143,0.093-0.1C170.804,142.042,170.62,141.801,170.623,142.092
		 M171.079,145c-0.229,0.366-0.168,0.543,0.102,0.299c0.145-0.131,0.264-0.291,0.264-0.354
		C171.445,144.768,171.201,144.805,171.079,145 M216.704,145.243c-0.047,0.076-0.14,0.106-0.204,0.066
		c-0.065-0.04-0.157-0.01-0.205,0.066s-0.002,0.14,0.102,0.14c0.233,0,0.783-0.401,0.558-0.408
		C216.864,145.104,216.752,145.166,216.704,145.243 M217.874,145.232c0,0.23,0.243,0.288,0.324,0.076
		c0.048-0.124-0.001-0.205-0.123-0.205C217.964,145.103,217.874,145.161,217.874,145.232 M176.115,147.764
		c0,0.029,0.093,0.129,0.206,0.223c0.169,0.14,0.207,0.13,0.207-0.052c0-0.123-0.093-0.223-0.207-0.223
		C176.208,147.712,176.115,147.736,176.115,147.764 M165.767,150.414c-0.05,0.05-0.091,0.2-0.091,0.332
		c0,0.132-0.064,0.271-0.141,0.31c-0.077,0.038-0.065,0.055,0.027,0.037c0.092-0.019,0.212-0.199,0.267-0.402
		C165.931,150.307,165.92,150.261,165.767,150.414 M210.656,150.92c-0.282,0.31-0.322,0.456-0.126,0.456
		c0.11,0,0.17-0.031,0.133-0.068s0.003-0.152,0.088-0.255C210.943,150.822,210.855,150.701,210.656,150.92 M186.417,153.336
		c0,0.071,0.119,0.12,0.265,0.109c0.146-0.011,0.235-0.069,0.198-0.129C186.787,153.164,186.417,153.18,186.417,153.336
		 M163.158,154.535c-0.051,0.051-0.092,0.179-0.092,0.285c0,0.16,0.035,0.157,0.206-0.013c0.114-0.113,0.207-0.242,0.207-0.285
		C163.478,154.415,163.27,154.423,163.158,154.535 M211.082,155.14c0.287,0.317,0.29,0.317,0.29,0.069
		c0-0.108-0.119-0.228-0.265-0.265C210.854,154.877,210.854,154.886,211.082,155.14 M156.055,156.435
		c-0.015,0.076-0.02,0.184-0.011,0.24c0.009,0.057-0.045,0.104-0.121,0.104s-0.137,0.106-0.137,0.237c0,0.192,0.04,0.18,0.216-0.072
		c0.12-0.17,0.186-0.385,0.148-0.478C156.113,156.374,156.069,156.36,156.055,156.435 M238.478,156.746
		c0,0.158,0.374,0.583,0.512,0.583c0.045,0-0.037-0.139-0.18-0.31c-0.143-0.169-0.276-0.334-0.296-0.366
		C238.494,156.621,238.478,156.663,238.478,156.746 M239.194,158.974c0.173,0.276,0.383,0.371,0.383,0.174
		c0-0.059-0.125-0.183-0.278-0.278C239.042,158.708,239.033,158.716,239.194,158.974 M179.691,159.792
		c-0.186,0.347-0.18,0.454,0.044,0.76c0.167,0.229,0.187,0.188,0.187-0.386C179.922,159.451,179.896,159.409,179.691,159.792
		 M161.484,161.315c-0.048,0.077-0.07,0.414-0.049,0.75c0.021,0.337-0.006,0.654-0.059,0.707c-0.192,0.192-0.098,0.454,0.132,0.366
		c0.166-0.064,0.198-0.038,0.117,0.094c-0.076,0.122-0.06,0.149,0.048,0.082c0.088-0.054,0.115-0.172,0.06-0.261
		c-0.056-0.09-0.082-0.549-0.059-1.021C161.716,161.203,161.667,161.02,161.484,161.315 M217.255,161.448
		c-0.137,0.151-0.18,0.275-0.095,0.275s0.22-0.124,0.301-0.275c0.081-0.15,0.124-0.274,0.096-0.274
		C217.527,161.174,217.392,161.298,217.255,161.448 M182.708,165.981c0.151,0.151,0.346,0.275,0.433,0.275
		c0.087,0,0.016-0.124-0.159-0.275c-0.174-0.151-0.369-0.274-0.433-0.274S182.557,165.83,182.708,165.981 M245.309,168.858
		c-0.048,0.184-0.013,0.24,0.121,0.189c0.217-0.083,0.25-0.266,0.069-0.378C245.432,168.629,245.346,168.713,245.309,168.858
		 M244.705,170.584c0,0.117,0.057,0.194,0.125,0.172c0.068-0.023,0.124-0.101,0.124-0.172c0-0.072-0.056-0.149-0.124-0.173
		C244.762,170.389,244.705,170.466,244.705,170.584 M209.472,171.432c-0.295,0.078-0.447,0.457-0.184,0.457
		c0.108,0,0.263-0.124,0.344-0.275c0.081-0.15,0.13-0.267,0.107-0.258C209.718,171.363,209.598,171.397,209.472,171.432
		 M205.329,174.966c-0.045,0.116-0.026,0.244,0.041,0.286c0.18,0.111,0.332-0.205,0.174-0.362
		C205.457,174.801,205.382,174.828,205.329,174.966 M174.604,177.231c0,0.066,0.098,0.159,0.217,0.205
		c0.336,0.13,0.37,0.102,0.146-0.122C174.734,177.08,174.604,177.051,174.604,177.231 M225.778,177.943
		c0.035,0.057-0.014,0.133-0.108,0.17c-0.096,0.036-0.034,0.059,0.137,0.051c0.334-0.017,0.438-0.323,0.108-0.323
		C225.806,177.841,225.744,177.887,225.778,177.943 M199.146,178.848c-0.158,0.158-0.1,0.321,0.114,0.321
		c0.113,0,0.206-0.094,0.206-0.206C199.467,178.748,199.304,178.689,199.146,178.848 M194.138,181.303
		c-0.145,0.165-0.142,0.201,0.02,0.201c0.108,0,0.232-0.093,0.276-0.206C194.534,181.037,194.371,181.04,194.138,181.303
		 M230.82,182.79c-0.171,0.084-0.31,0.202-0.31,0.262c0,0.133,0.5-0.12,0.618-0.313c0.047-0.074,0.066-0.129,0.043-0.119
		C231.148,182.629,230.989,182.705,230.82,182.79 M172.206,183.418c-0.049,0.08-0.056,0.154-0.013,0.163
		c0.223,0.051,0.355,0.089,0.385,0.114c0.131,0.105,0.5,0.093,0.434-0.015c-0.045-0.074-0.118-0.1-0.161-0.057
		c-0.043,0.044-0.185-0.019-0.316-0.138C172.376,183.345,172.266,183.321,172.206,183.418 M213.396,183.448
		c-0.062,0.099-0.038,0.121,0.061,0.061c0.087-0.054,0.158-0.039,0.158,0.033c0,0.071,0.092,0.166,0.204,0.209
		c0.171,0.064,0.177,0.034,0.035-0.191C213.662,183.251,213.537,183.221,213.396,183.448 M175.978,184.239
		c0,0.06,0.191,0.112,0.426,0.119c0.502,0.015,0.477-0.063-0.051-0.158C176.146,184.162,175.978,184.18,175.978,184.239"/>
</g>
</svg>
