<?xml version="1.0" encoding="utf-8"?>
<!-- Generator: Adobe Illustrator 16.0.0, SVG Export Plug-In . SVG Version: 6.00 Build 0)  -->
<!DOCTYPE svg PUBLIC "-//W3C//DTD SVG 1.1//EN" "http://www.w3.org/Graphics/SVG/1.1/DTD/svg11.dtd">
<svg version="1.1" id="Layer_1" xmlns="http://www.w3.org/2000/svg" xmlns:xlink="http://www.w3.org/1999/xlink" x="0px" y="0px"
	 width="90px" height="61.99px" viewBox="284.76 196.285 90 61.99" enable-background="new 284.76 196.285 90 61.99"
	 xml:space="preserve">
<path fill-rule="evenodd" clip-rule="evenodd" fill="#080808" d="M286.038,242.04c0-1.793,0-3.585,0-5.378
	c0-0.076,0.007-0.153-0.001-0.229c-0.02-0.178,0.063-0.219,0.23-0.218c1.355,0.009,2.711-0.01,4.065,0.018
	c0.819,0.016,1.608,0.218,2.297,0.677c0.493,0.329,0.853,0.775,1.074,1.346c0.229,0.593,0.301,1.197,0.249,1.817
	c-0.051,0.604-0.252,1.152-0.631,1.648c-0.339,0.442-0.765,0.748-1.236,1.016c-0.069,0.04-0.184,0.019-0.201,0.138
	c-0.015,0.103,0.009,0.207,0.057,0.285c0.1,0.162,0.176,0.337,0.269,0.501c0.662,1.168,1.292,2.353,1.911,3.543
	c0.074,0.143,0.176,0.271,0.25,0.415c0.074,0.142,0.038,0.212-0.115,0.215c-0.416,0.007-0.831,0-1.246,0.003
	c-0.132,0.001-0.196-0.087-0.247-0.181c-0.422-0.775-0.838-1.555-1.261-2.329c-0.367-0.674-0.743-1.342-1.107-2.017
	c-0.067-0.125-0.166-0.125-0.274-0.126c-0.35-0.001-0.7,0-1.049,0c-0.426,0-0.853-0.002-1.279,0
	c-0.263,0.002-0.266,0.004-0.266,0.271c-0.001,1.322,0,2.646,0,3.968c0,0.469,0,0.47-0.456,0.47c-0.273,0-0.547-0.005-0.82,0.002
	c-0.156,0.003-0.22-0.065-0.214-0.215c0.003-0.076,0-0.153,0-0.229C286.038,245.646,286.038,243.843,286.038,242.04z
	 M287.527,239.681c0,0.678-0.001,1.355,0.001,2.033c0.001,0.229,0.006,0.234,0.238,0.234c0.743,0.003,1.487-0.01,2.229,0.005
	c0.465,0.009,0.903-0.083,1.313-0.286c0.48-0.238,0.83-0.604,1.029-1.117c0.178-0.459,0.155-0.93,0.087-1.388
	c-0.073-0.499-0.319-0.923-0.748-1.236c-0.439-0.321-0.934-0.463-1.458-0.479c-0.819-0.026-1.64-0.012-2.459-0.01
	c-0.227,0-0.231,0.006-0.232,0.242C287.525,238.347,287.527,239.014,287.527,239.681z"/>
<path fill-rule="evenodd" clip-rule="evenodd" fill="#080808" d="M306.693,238.76c-0.033,0.283-0.038,0.566,0.006,0.849
	c-0.015,0.069-0.031,0.141,0.081,0.136c0.02,0.063,0.039,0.124,0.058,0.187c-0.028,0.075,0.004,0.094,0.074,0.077
	c0.167,0.329,0.47,0.523,0.774,0.684c0.622,0.329,1.298,0.521,1.97,0.726c0.971,0.295,1.923,0.645,2.675,1.371
	c0.4,0.387,0.664,0.845,0.792,1.397c0.072,0.313,0.119,0.619,0.098,0.934c-0.062,0.972-0.514,1.72-1.314,2.269
	c-0.379,0.26-0.801,0.432-1.234,0.551c-0.699,0.192-1.428,0.232-2.141,0.139c-0.881-0.117-1.723-0.38-2.45-0.936
	c-0.521-0.397-0.928-0.883-1.147-1.494c-0.104-0.288-0.207-0.596-0.174-0.922c0.012-0.119,0.041-0.176,0.171-0.174
	c0.383,0.006,0.765,0.005,1.148,0.002c0.142-0.001,0.182,0.067,0.19,0.199c0.055,0.943,0.59,1.508,1.43,1.863
	c0.708,0.3,1.445,0.31,2.173,0.217c0.565-0.072,1.118-0.261,1.498-0.762c0.368-0.485,0.431-1.01,0.282-1.585
	c-0.162-0.621-0.631-0.926-1.164-1.177c-0.634-0.298-1.311-0.471-1.971-0.693c-0.838-0.283-1.665-0.6-2.346-1.194
	c-0.432-0.377-0.734-0.825-0.902-1.391c-0.126-0.426-0.142-0.846-0.073-1.256c0.117-0.693,0.456-1.289,1.007-1.744
	c0.519-0.43,1.105-0.7,1.771-0.844c0.533-0.114,1.063-0.148,1.594-0.1c1.033,0.093,1.976,0.429,2.713,1.199
	c0.312,0.325,0.563,0.69,0.707,1.131c0.104,0.317,0.209,0.63,0.233,0.965c0.011,0.156-0.062,0.221-0.208,0.222
	c-0.372,0.001-0.744-0.004-1.115,0.002c-0.187,0.003-0.168-0.125-0.179-0.244c-0.042-0.479-0.183-0.919-0.514-1.285
	c-0.086-0.096-0.166-0.193-0.287-0.244c-0.046-0.146-0.165-0.197-0.3-0.226c-0.058-0.02-0.115-0.04-0.172-0.06
	c-0.037-0.106-0.111-0.126-0.21-0.094c-0.063-0.012-0.125-0.023-0.187-0.034c-0.078-0.145-0.208-0.12-0.335-0.103
	c-0.392-0.039-0.783-0.03-1.174-0.004c-0.148-0.02-0.291-0.021-0.394,0.115c-0.086,0-0.172-0.002-0.243,0.059
	c-0.155,0.048-0.346,0.027-0.427,0.221c-0.04,0.019-0.079,0.037-0.118,0.056c-0.058-0.005-0.088,0.019-0.078,0.08
	c-0.035,0.026-0.071,0.053-0.105,0.078c-0.115,0.018-0.169,0.093-0.188,0.201c-0.021,0.045-0.042,0.089-0.063,0.133
	c-0.073,0.002-0.137,0.012-0.099,0.112c-0.016,0.063-0.033,0.128-0.048,0.191C306.633,238.576,306.693,238.681,306.693,238.76z"/>
<path fill-rule="evenodd" clip-rule="evenodd" fill="#080808" d="M356.365,248.05c-0.142,0-0.287-0.019-0.426,0.004
	c-0.248,0.041-0.371-0.098-0.43-0.295c-0.126-0.424-0.3-0.83-0.442-1.248c-0.15-0.439-0.304-0.879-0.466-1.314
	c-0.057-0.155-0.142-0.251-0.353-0.249c-1.454,0.014-2.908,0.008-4.362,0.006c-0.17,0-0.268,0.008-0.341,0.229
	c-0.209,0.629-0.443,1.251-0.655,1.88c-0.085,0.253-0.202,0.495-0.274,0.754c-0.043,0.152-0.159,0.231-0.318,0.232
	c-0.371,0.003-0.743,0.006-1.114-0.001c-0.173-0.004-0.23-0.098-0.166-0.263c0.204-0.525,0.437-1.042,0.618-1.575
	c0.18-0.527,0.399-1.04,0.581-1.567c0.145-0.419,0.312-0.83,0.47-1.243c0.167-0.439,0.33-0.88,0.497-1.319
	c0.195-0.518,0.4-1.032,0.597-1.551c0.218-0.576,0.426-1.155,0.645-1.73c0.201-0.526,0.417-1.048,0.614-1.576
	c0.097-0.259,0.182-0.522,0.296-0.776c0.06-0.135,0.133-0.185,0.268-0.184c0.307,0.002,0.612,0.009,0.918-0.003
	c0.179-0.007,0.265,0.103,0.313,0.231c0.25,0.654,0.471,1.319,0.735,1.967c0.222,0.542,0.435,1.089,0.632,1.638
	c0.326,0.912,0.691,1.81,1.019,2.721c0.26,0.722,0.539,1.437,0.81,2.153c0.274,0.726,0.561,1.445,0.833,2.172
	c0.066,0.176,0.13,0.358,0.218,0.531c0.136,0.267,0.049,0.373-0.255,0.376C356.672,248.051,356.519,248.05,356.365,248.05z
	 M353.968,243.689c0.054-0.261-0.097-0.484-0.18-0.703c-0.181-0.482-0.344-0.972-0.524-1.454c-0.113-0.303-0.219-0.609-0.329-0.914
	c-0.159-0.441-0.323-0.88-0.477-1.323c-0.098-0.282-0.234-0.552-0.287-0.851c-0.012-0.067-0.064-0.072-0.125-0.044
	c-0.065,0.031-0.098,0.083-0.115,0.148c-0.072,0.261-0.18,0.509-0.264,0.764c-0.237,0.714-0.497,1.419-0.748,2.127
	c-0.199,0.56-0.376,1.131-0.616,1.678c-0.055,0.126-0.09,0.266-0.137,0.398c-0.056,0.154-0.022,0.194,0.134,0.204
	c0.044,0.003,0.087,0.001,0.131,0.001c1.081,0,2.161,0,3.242-0.001C353.77,243.72,353.869,243.739,353.968,243.689z"/>
<path fill-rule="evenodd" clip-rule="evenodd" fill="#080808" d="M358.748,242.014c0-1.813,0-3.627,0-5.44
	c0-0.076,0.003-0.153-0.001-0.229c-0.005-0.101,0.046-0.136,0.14-0.13c0.032,0.001,0.065-0.001,0.098-0.001
	c1.475,0.002,2.95-0.011,4.425,0.011c0.788,0.012,1.536,0.215,2.198,0.665c0.563,0.383,0.988,0.871,1.229,1.522
	c0.279,0.756,0.304,1.509,0.143,2.295c-0.156,0.763-0.531,1.362-1.143,1.824c-0.327,0.246-0.688,0.418-1.085,0.54
	c-0.578,0.177-1.162,0.25-1.762,0.245c-0.819-0.006-1.639-0.001-2.458-0.001c-0.303,0-0.286-0.031-0.286,0.279
	c0,1.311,0.001,2.621,0,3.933c0,0.356-0.005,0.362-0.367,0.365c-0.306,0.004-0.612-0.003-0.918,0.002
	c-0.151,0.003-0.225-0.054-0.213-0.21c0.005-0.076,0.001-0.153,0.001-0.229C358.748,245.641,358.748,243.827,358.748,242.014z
	 M360.245,239.759c0,0.699,0.004,1.399-0.002,2.099c-0.002,0.16,0.029,0.229,0.214,0.228c0.994-0.012,1.989-0.003,2.984-0.015
	c0.324-0.003,0.628-0.106,0.929-0.234c0.819-0.35,1.161-0.998,1.208-1.845c0.01-0.185,0.005-0.371-0.005-0.557
	c-0.019-0.373-0.148-0.713-0.357-1.018c-0.441-0.644-1.076-0.956-1.839-0.976c-0.962-0.025-1.924-0.01-2.887-0.01
	c-0.24,0-0.243,0.005-0.244,0.261C360.244,238.381,360.245,239.07,360.245,239.759z"/>
<path fill-rule="evenodd" clip-rule="evenodd" fill="#080808" d="M296.153,242.075c0-1.793,0-3.585,0-5.377c0-0.065,0-0.132,0-0.197
	c0.001-0.333,0.009-0.282,0.286-0.282c2.229-0.001,4.459-0.001,6.688-0.001c0.055,0,0.109,0.002,0.164,0.001
	c0.118,0,0.188,0.055,0.189,0.176c0.003,0.295,0.002,0.59,0.003,0.885c0,0.094-0.055,0.142-0.14,0.15
	c-0.086,0.009-0.174,0.006-0.262,0.006c-1.672,0.001-3.344,0-5.017,0c-0.065,0-0.131,0.006-0.196-0.001
	c-0.15-0.015-0.216,0.035-0.216,0.199c0.005,1.147,0.005,2.295,0,3.442c-0.001,0.169,0.077,0.197,0.221,0.195
	c0.394-0.007,0.787-0.002,1.18-0.002c1.126,0,2.251-0.001,3.377,0c0.28,0,0.282,0.003,0.284,0.291
	c0.002,0.251-0.004,0.503,0.002,0.754c0.003,0.128-0.047,0.181-0.172,0.173c-0.076-0.004-0.153,0-0.229,0
	c-1.454,0-2.907-0.001-4.36,0c-0.297,0-0.299,0.002-0.299,0.308c-0.001,1.213,0,2.426,0,3.639c0,0.055,0.002,0.109,0.001,0.164
	c-0.002,0.096,0.042,0.14,0.138,0.136c0.077-0.004,0.153-0.001,0.229-0.001c1.705,0,3.41,0,5.115,0c0.077,0,0.153,0.005,0.229,0
	c0.11-0.008,0.159,0.035,0.159,0.149c-0.003,0.316-0.001,0.634,0,0.95c0,0.097-0.044,0.139-0.139,0.135
	c-0.065-0.003-0.131,0-0.197,0c-2.229,0-4.459,0-6.688,0c-0.021,0-0.043,0-0.065,0c-0.281-0.003-0.284-0.003-0.284-0.285
	C296.152,245.813,296.153,243.943,296.153,242.075z"/>
<path fill-rule="evenodd" clip-rule="evenodd" fill="#080808" d="M337.562,243.604c0,1.333,0,2.666,0,3.999
	c0,0.076-0.002,0.153,0,0.229c0.002,0.097-0.047,0.135-0.141,0.135c-0.371-0.002-0.743-0.003-1.114,0
	c-0.132,0.001-0.168-0.081-0.175-0.188c-0.009-0.131,0.002-0.264-0.019-0.392c-0.018-0.106-0.086-0.146-0.184-0.062
	c-0.28,0.242-0.59,0.425-0.944,0.548c-0.297,0.103-0.597,0.184-0.905,0.215c-0.282,0.027-0.569,0.029-0.852,0.006
	c-0.987-0.082-1.758-0.528-2.188-1.439c-0.179-0.377-0.279-0.797-0.297-1.223c-0.016-0.359-0.012-0.721-0.012-1.081
	c-0.001-1.596-0.001-3.191,0-4.786c0-0.418-0.036-0.356,0.373-0.359c0.295-0.003,0.59-0.005,0.885,0.001
	c0.229,0.004,0.229,0.01,0.234,0.248c0.002,0.076,0.001,0.152,0.001,0.229c0.002,1.824,0.006,3.649,0.005,5.474
	c0,0.377,0.104,0.722,0.279,1.05c0.209,0.39,0.564,0.585,0.971,0.642c0.473,0.065,0.957,0.042,1.413-0.132
	c0.507-0.194,0.897-0.533,1.14-1.021c0.049-0.1,0.029-0.236,0.029-0.355c0.002-1.924,0.001-3.847,0.002-5.77
	c0-0.366,0-0.366,0.375-0.367c0.316,0,0.634,0.003,0.95-0.001c0.124-0.002,0.183,0.043,0.173,0.171
	c-0.005,0.076-0.001,0.153-0.001,0.229C337.562,240.938,337.562,242.271,337.562,243.604z"/>
<path fill-rule="evenodd" clip-rule="evenodd" fill="#080808" d="M318.017,242.63c0-1.596,0-3.191,0-4.786
	c0-0.076-0.004-0.153,0-0.229c0.008-0.12-0.03-0.188-0.164-0.179c-0.076,0.006-0.153,0-0.229,0c-0.995,0-1.989,0.002-2.983,0
	c-0.352-0.001-0.304,0.041-0.308-0.319c-0.002-0.219-0.003-0.438,0-0.656c0.004-0.238,0.006-0.238,0.258-0.242
	c0.033,0,0.065,0,0.098,0c2.765,0,5.529-0.001,8.294,0.002c0.392,0,0.356-0.074,0.36,0.369c0.001,0.186,0.001,0.371,0,0.558
	c-0.002,0.326,0.032,0.289-0.305,0.289c-1.016,0.001-2.033,0-3.049,0c-0.055,0-0.109,0.001-0.164,0
	c-0.335-0.001-0.311-0.019-0.311,0.327c0,0.722,0,1.442,0,2.164c0,2.502,0,5.005,0,7.507c0,0.065,0.002,0.132,0,0.197
	c-0.007,0.221-0.026,0.252-0.24,0.258c-0.36,0.01-0.721,0.002-1.082,0.003c-0.122,0-0.179-0.059-0.176-0.181
	c0.002-0.076,0-0.153,0-0.229C318.017,245.864,318.017,244.247,318.017,242.63z"/>
<path fill-rule="evenodd" clip-rule="evenodd" fill="#080808" d="M325.672,244.222c0-1.169,0-2.338-0.001-3.508
	c0-0.271-0.003-0.272-0.262-0.274c-0.306-0.002-0.612-0.007-0.918,0.002c-0.146,0.005-0.188-0.049-0.184-0.188
	c0.008-0.273,0.009-0.547,0-0.82c-0.005-0.164,0.042-0.235,0.221-0.227c0.284,0.014,0.568,0.002,0.853,0.004
	c0.316,0.001,0.291-0.004,0.292-0.28c0.001-0.339-0.021-0.681,0.016-1.016c0.073-0.653,0.277-1.256,0.791-1.711
	c0.32-0.284,0.684-0.459,1.101-0.577c0.4-0.113,0.794-0.088,1.194-0.106c0.228-0.012,0.422,0.091,0.634,0.127
	c0.07,0.012,0.087,0.056,0.087,0.114c0.001,0.295,0,0.59,0.002,0.885c0.001,0.128-0.074,0.13-0.173,0.126
	c-0.284-0.01-0.57-0.032-0.852-0.012c-0.734,0.054-1.222,0.531-1.284,1.246c-0.029,0.336-0.007,0.677-0.018,1.016
	c-0.004,0.14,0.042,0.192,0.186,0.19c0.437-0.007,0.874-0.004,1.312-0.002c0.28,0.001,0.282,0.003,0.285,0.292
	c0.002,0.252-0.006,0.503,0.002,0.755c0.005,0.146-0.057,0.194-0.194,0.184c-0.086-0.007-0.175-0.005-0.262-0.001
	c-0.434,0.02-0.87-0.044-1.302,0.035c-0.055,0.435-0.022,0.871-0.023,1.307c-0.004,1.912-0.002,3.825-0.002,5.737
	c0,0.055,0,0.109,0,0.164c-0.002,0.347-0.019,0.364-0.377,0.366c-0.273,0.002-0.546,0.002-0.819,0
	c-0.301-0.002-0.301-0.003-0.306-0.318c-0.001-0.055,0-0.109,0-0.164C325.672,246.451,325.672,245.337,325.672,244.222z"/>
<path fill-rule="evenodd" clip-rule="evenodd" fill="#080808" d="M341.375,241.758c0,1.934,0,3.867,0,5.802
	c0,0.076-0.004,0.152,0.001,0.229c0.007,0.122-0.036,0.18-0.168,0.179c-0.393-0.005-0.786-0.003-1.18,0
	c-0.118,0.002-0.151-0.058-0.147-0.162c0.002-0.076,0-0.152,0-0.229c0-3.89-0.001-7.778,0-11.668c0-0.443-0.049-0.387,0.378-0.39
	c0.295-0.003,0.59-0.004,0.885,0c0.226,0.004,0.23,0.009,0.23,0.242c0.002,1.169,0.001,2.338,0.001,3.507
	C341.375,240.097,341.375,240.928,341.375,241.758z"/>
<path fill-rule="evenodd" clip-rule="evenodd" fill="#080808" d="M370.626,242.08c0,1.825,0,3.649,0,5.475
	c0,0.065-0.006,0.132,0.001,0.196c0.016,0.149-0.033,0.221-0.197,0.218c-0.371-0.008-0.743-0.006-1.114,0
	c-0.135,0.002-0.209-0.033-0.193-0.184c0.007-0.064,0.001-0.131,0.001-0.196c0-3.672-0.001-7.343,0.001-11.015
	c0-0.4-0.063-0.358,0.37-0.36c0.306-0.002,0.612,0.005,0.918-0.003c0.17-0.004,0.22,0.062,0.218,0.23
	c-0.009,0.831-0.004,1.661-0.004,2.491C370.626,239.982,370.626,241.031,370.626,242.08z"/>
<path fill-rule="evenodd" clip-rule="evenodd" fill="#FF7E7E" d="M286.994,255.182c0-0.862-0.001-1.725,0-2.587
	c0.001-0.271,0.005-0.275,0.271-0.276c0.524-0.003,1.05-0.027,1.572,0.007c0.942,0.063,1.678,0.488,2.113,1.353
	c0.202,0.401,0.308,0.83,0.294,1.287c-0.013,0.445,0.015,0.891-0.123,1.328c-0.215,0.683-0.596,1.217-1.26,1.524
	c-0.367,0.17-0.744,0.271-1.153,0.26c-0.48-0.012-0.96,0-1.441-0.002c-0.268-0.002-0.272-0.006-0.273-0.273
	C286.992,256.929,286.994,256.055,286.994,255.182z M287.72,255.225c0,0.634-0.002,1.268,0.001,1.902
	c0.001,0.283,0.069,0.35,0.344,0.357c0.153,0.004,0.308,0.015,0.458-0.003c0.411-0.046,0.824-0.08,1.181-0.331
	c0.403-0.282,0.63-0.67,0.698-1.148c0.024-0.173,0.048-0.346,0.085-0.517c0.043-0.194,0.043-0.388,0.001-0.583
	c-0.029-0.139-0.071-0.279-0.072-0.418c-0.001-0.214-0.06-0.405-0.15-0.594c-0.195-0.407-0.489-0.744-0.929-0.838
	c-0.387-0.084-0.781-0.185-1.193-0.15c-0.359,0.029-0.424,0.067-0.425,0.421C287.719,253.957,287.72,254.591,287.72,255.225z"/>
<path fill-rule="evenodd" clip-rule="evenodd" fill="#FF7E7E" d="M361.744,256.285c0,0.263-0.011,0.525,0.004,0.787
	c0.012,0.221-0.08,0.369-0.248,0.498c-0.376,0.291-0.784,0.472-1.271,0.502c-0.327,0.02-0.646,0.028-0.975-0.001
	c-0.628-0.058-1.099-0.364-1.471-0.845c-0.37-0.479-0.529-1.029-0.523-1.631c0.002-0.295-0.003-0.59,0.002-0.885
	c0.01-0.707,0.231-1.333,0.734-1.841c0.313-0.317,0.682-0.524,1.146-0.55c0.271-0.015,0.539-0.014,0.811-0.002
	c0.726,0.029,1.224,0.402,1.572,1.004c0.091,0.157,0.134,0.344,0.191,0.519c0.027,0.081-0.029,0.131-0.1,0.134
	c-0.163,0.008-0.328,0.012-0.49-0.003c-0.102-0.009-0.159-0.074-0.188-0.19c-0.096-0.375-0.322-0.623-0.687-0.795
	c-0.376-0.177-0.759-0.15-1.117-0.083c-0.411,0.078-0.723,0.384-0.915,0.769c-0.143,0.284-0.237,0.588-0.211,0.914
	c0.014,0.178-0.069,0.347-0.056,0.519c0.039,0.486,0.015,0.985,0.222,1.443c0.272,0.602,0.73,0.961,1.402,1.015
	c0.365,0.028,0.717-0.028,1.055-0.177c0.313-0.138,0.431-0.303,0.432-0.646c0-0.175,0.001-0.35-0.001-0.524
	c-0.003-0.369-0.078-0.447-0.438-0.451c-0.251-0.002-0.503,0.006-0.754-0.002c-0.21-0.007-0.244-0.058-0.237-0.297
	c0.006-0.214,0.033-0.25,0.246-0.252c0.558-0.005,1.115,0.001,1.673-0.003c0.138-0.002,0.197,0.045,0.194,0.188
	C361.739,255.694,361.744,255.99,361.744,256.285z"/>
<path fill-rule="evenodd" clip-rule="evenodd" fill="#98FF98" d="M322.676,255.288c0-0.277-0.02-0.487,0.003-0.692
	c0.077-0.666,0.258-1.294,0.787-1.756c0.34-0.297,0.723-0.492,1.191-0.551c0.312-0.039,0.608-0.012,0.906,0.031
	c0.294,0.043,0.567,0.188,0.789,0.374c0.439,0.368,0.723,0.832,0.867,1.409c0.147,0.589,0.138,1.177,0.085,1.755
	c-0.065,0.726-0.333,1.404-0.95,1.861c-0.263,0.194-0.555,0.35-0.91,0.372c-0.293,0.018-0.576,0.043-0.874,0.002
	c-0.673-0.093-1.151-0.441-1.495-1.007C322.724,256.511,322.622,255.881,322.676,255.288z M324.951,252.893
	c-0.408-0.058-0.745,0.132-1.026,0.445c-0.286,0.318-0.436,0.691-0.465,1.119c-0.031,0.455-0.031,0.907-0.006,1.363
	c0.021,0.382,0.125,0.733,0.329,1.047c0.4,0.616,0.969,0.785,1.547,0.646c0.674-0.161,1.096-0.695,1.156-1.431
	c0.01-0.13-0.004-0.261,0.039-0.389c0.092-0.276,0.1-0.56,0.017-0.836c-0.099-0.332-0.03-0.682-0.174-1.019
	C326.145,253.314,325.655,252.823,324.951,252.893z"/>
<path fill-rule="evenodd" clip-rule="evenodd" fill="#98FF98" d="M328.388,256.434c0.076,0,0.153-0.002,0.229,0.001
	c0.087,0.003,0.141,0.045,0.155,0.136c0.108,0.681,0.635,0.855,1.196,0.962c0.351,0.066,0.699-0.011,1.024-0.147
	c0.325-0.138,0.446-0.427,0.464-0.758c0.017-0.322-0.143-0.562-0.412-0.722c-0.358-0.213-0.761-0.318-1.153-0.444
	c-0.463-0.147-0.921-0.317-1.277-0.662c-0.209-0.202-0.387-0.438-0.368-0.762c0.018-0.3-0.056-0.608,0.132-0.887
	c0.327-0.484,0.751-0.804,1.352-0.844c0.29-0.02,0.574-0.057,0.874-0.013c0.584,0.087,1.033,0.36,1.382,0.821
	c0.142,0.188,0.17,0.423,0.243,0.637c0.052,0.15-0.018,0.229-0.174,0.242c-0.119,0.01-0.241,0.01-0.359-0.002
	c-0.2-0.021-0.277-0.087-0.28-0.288c-0.005-0.207-0.106-0.352-0.243-0.476c-0.229-0.206-0.486-0.35-0.813-0.339
	c-0.301,0.01-0.603-0.03-0.886,0.132c-0.237,0.136-0.558,0.42-0.51,0.831c0.035,0.3,0.225,0.503,0.45,0.64
	c0.243,0.147,0.526,0.231,0.806,0.313c0.608,0.175,1.23,0.342,1.671,0.846c0.475,0.542,0.472,1.24,0.104,1.742
	c-0.3,0.408-0.716,0.634-1.227,0.689c-0.368,0.041-0.729,0.065-1.103,0.005c-0.775-0.126-1.35-0.489-1.633-1.246
	c-0.011-0.031-0.023-0.062-0.03-0.094c-0.049-0.247,0.001-0.311,0.254-0.317c0.044-0.001,0.087,0,0.131,0
	C328.388,256.431,328.388,256.433,328.388,256.434z"/>
<path fill-rule="evenodd" clip-rule="evenodd" fill="#5E5AFF" d="M349.309,254.535c0,0.634,0.028,1.269-0.007,1.9
	c-0.039,0.698-0.414,1.193-1.043,1.51c-0.302,0.15-0.632,0.143-0.945,0.22c-0.186,0.045-0.404-0.063-0.609-0.077
	c-0.491-0.033-0.882-0.26-1.207-0.61c-0.286-0.309-0.419-0.691-0.424-1.102c-0.013-1.268-0.007-2.534-0.004-3.802
	c0-0.246,0.009-0.247,0.265-0.254c0.486-0.014,0.486-0.014,0.486,0.474c0,0.95,0.007,1.9-0.003,2.851
	c-0.004,0.341,0.03,0.675,0.075,1.01c0.028,0.209,0.134,0.392,0.285,0.53c0.489,0.448,1.429,0.485,1.937,0.073
	c0.252-0.204,0.396-0.457,0.415-0.778c0.011-0.174,0.016-0.35,0.016-0.523c0.002-1.082,0.001-2.163,0.001-3.245
	c0.001-0.391,0.001-0.392,0.405-0.391c0.401,0,0.362-0.024,0.363,0.379c0.001,0.612,0,1.224,0,1.836
	C349.313,254.535,349.311,254.535,349.309,254.535z"/>
<path fill-rule="evenodd" clip-rule="evenodd" fill="#5E5AFF" d="M340.008,255.204c0-0.852,0-1.703,0-2.554
	c0.001-0.327,0.002-0.33,0.315-0.33c0.666,0,1.331,0.006,1.997,0.001c0.394-0.003,0.75,0.119,1.08,0.315
	c0.583,0.349,0.797,0.89,0.752,1.542c-0.013,0.193,0.011,0.398-0.074,0.581c-0.286,0.61-0.776,0.938-1.441,1.005
	c-0.478,0.049-0.956,0.068-1.438,0.061c-0.413-0.007-0.431,0.016-0.432,0.415c-0.001,0.502,0.002,1.004-0.001,1.507
	c-0.002,0.324-0.006,0.328-0.333,0.327c-0.475-0.001-0.424,0.048-0.425-0.414C340.007,256.841,340.008,256.022,340.008,255.204z
	 M340.736,254.091c0,0.284-0.003,0.568,0.001,0.853c0.003,0.23,0.014,0.247,0.237,0.249c0.48,0.005,0.961,0.005,1.441-0.007
	c0.218-0.006,0.416-0.095,0.6-0.216c0.526-0.347,0.54-1.274,0.092-1.702c-0.272-0.261-0.612-0.314-0.95-0.348
	c-0.357-0.035-0.721-0.013-1.081-0.008c-0.266,0.003-0.335,0.078-0.339,0.359C340.733,253.545,340.736,253.818,340.736,254.091z"/>
<path fill-rule="evenodd" clip-rule="evenodd" fill="#FF7E7E" d="M292.447,255.206c0-0.853-0.001-1.704,0-2.557
	c0-0.328,0.003-0.331,0.326-0.331c1.027-0.002,2.054-0.002,3.081,0c0.095,0,0.22-0.037,0.272,0.062
	c0.073,0.139,0.054,0.302,0.016,0.448c-0.028,0.106-0.144,0.078-0.227,0.078c-0.47,0.002-0.939,0.001-1.41,0.001
	c-0.328,0-0.655-0.003-0.983,0.001c-0.217,0.003-0.297,0.057-0.302,0.251c-0.012,0.48-0.006,0.962-0.002,1.442
	c0.001,0.187,0.138,0.191,0.277,0.191c0.579-0.002,1.158-0.001,1.737-0.001c0.065,0,0.131,0,0.197,0.001
	c0.304,0.004,0.305,0.005,0.3,0.313c-0.004,0.267-0.01,0.278-0.277,0.279c-0.623,0.004-1.245,0-1.868,0.002
	c-0.313,0.002-0.365,0.049-0.368,0.357c-0.005,0.458-0.005,0.917,0,1.376c0.003,0.313,0.054,0.362,0.361,0.363
	c0.721,0.002,1.442,0.001,2.163,0.001c0.077,0,0.153,0,0.229,0.002c0.115,0.002,0.187,0.054,0.19,0.176
	c0.002,0.088,0,0.175,0.001,0.263c0.001,0.114-0.064,0.151-0.167,0.149c-0.055-0.001-0.109,0-0.164,0
	c-1.016,0.001-2.032,0.001-3.048,0c-0.333,0-0.334-0.002-0.334-0.346C292.446,256.889,292.447,256.047,292.447,255.206z"/>
<path fill-rule="evenodd" clip-rule="evenodd" fill="#FF7E7E" d="M362.979,255.212c0-0.842,0-1.684,0.001-2.525
	c0-0.351,0.002-0.354,0.336-0.354c1.006-0.001,2.012-0.001,3.017,0c0.308,0,0.419,0.164,0.324,0.458
	c-0.033,0.101-0.11,0.091-0.185,0.091c-0.328,0.002-0.656,0.001-0.984,0.001c-0.47,0-0.939-0.002-1.41,0.001
	c-0.286,0.002-0.358,0.063-0.364,0.334c-0.009,0.438-0.007,0.875,0,1.312c0.003,0.239,0.046,0.278,0.298,0.28
	c0.645,0.005,1.29,0,1.935,0.004c0.09,0.001,0.221-0.049,0.258,0.072c0.042,0.134,0.045,0.284-0.005,0.419
	c-0.032,0.084-0.132,0.06-0.206,0.06c-0.503,0.002-1.006,0.001-1.508,0.001c-0.164,0-0.328-0.006-0.492,0.002
	c-0.217,0.011-0.276,0.063-0.279,0.276c-0.007,0.514-0.009,1.027,0.001,1.541c0.005,0.256,0.081,0.321,0.345,0.322
	c0.776,0.003,1.552-0.001,2.328,0.003c0.251,0.001,0.269,0.022,0.276,0.252c0.01,0.285,0.004,0.295-0.28,0.296
	c-1.039,0.001-2.077,0.001-3.115,0c-0.285-0.001-0.288-0.004-0.288-0.288C362.979,256.917,362.979,256.064,362.979,255.212z"/>
<path fill-rule="evenodd" clip-rule="evenodd" fill="#FF7E7E" d="M301.482,255.158c0-0.841-0.001-1.682,0-2.522
	c0-0.313,0.002-0.317,0.296-0.317c1.038-0.002,2.075-0.002,3.112,0.001c0.09,0.001,0.221-0.049,0.256,0.078
	c0.041,0.146,0.046,0.306-0.009,0.45c-0.031,0.081-0.132,0.058-0.207,0.059c-0.306,0.002-0.611,0.001-0.917,0.001
	c-0.481,0-0.961-0.003-1.442,0.001c-0.251,0.003-0.309,0.056-0.313,0.31c-0.007,0.448-0.006,0.896,0,1.344
	c0.002,0.215,0.018,0.229,0.257,0.229c0.611,0.004,1.223,0.001,1.835,0.001c0.076,0,0.153,0.005,0.229,0
	c0.147-0.01,0.195,0.066,0.184,0.199c-0.001,0.021,0,0.044,0,0.065c0.005,0.322,0,0.329-0.323,0.33
	c-0.601,0.002-1.202-0.001-1.802,0.001c-0.352,0.001-0.379,0.027-0.381,0.365c-0.002,0.47-0.003,0.939,0.001,1.409
	c0.002,0.284,0.038,0.32,0.324,0.321c0.753,0.004,1.507,0,2.261,0.004c0.103,0,0.245-0.051,0.296,0.07
	c0.06,0.141,0.038,0.301,0.008,0.451c-0.009,0.046-0.059,0.061-0.104,0.063c-0.065,0.003-0.131,0.004-0.196,0.004
	c-1.016,0.001-2.031,0.001-3.047,0c-0.315,0-0.317-0.003-0.317-0.328C301.481,256.884,301.482,256.021,301.482,255.158z"/>
<path fill-rule="evenodd" clip-rule="evenodd" fill="#FF7E7E" d="M311.055,255.201c0-0.864-0.001-1.728,0-2.591
	c0.001-0.288,0.004-0.292,0.29-0.292c1.039-0.002,2.077-0.002,3.116,0.001c0.091,0,0.221-0.046,0.258,0.075
	c0.044,0.145,0.043,0.305-0.006,0.451c-0.023,0.068-0.109,0.061-0.174,0.061c-0.251,0.001-0.503,0.001-0.754,0.001
	c-0.547,0-1.093-0.002-1.64,0.001c-0.272,0.002-0.307,0.035-0.311,0.3c-0.006,0.448-0.005,0.896,0,1.345
	c0.002,0.225,0.015,0.236,0.248,0.238c0.656,0.004,1.312,0,1.968,0.003c0.093,0.001,0.228-0.045,0.266,0.064
	c0.049,0.143,0.053,0.307-0.008,0.45c-0.038,0.089-0.147,0.078-0.235,0.078c-0.404,0.001-0.809,0.001-1.213,0.001
	c-0.251,0-0.503-0.006-0.754,0.002c-0.222,0.007-0.268,0.051-0.27,0.276c-0.006,0.514-0.006,1.027,0,1.541
	c0.003,0.235,0.047,0.274,0.302,0.276c0.71,0.004,1.421,0.002,2.131,0.002c0.044,0,0.088-0.004,0.131,0
	c0.105,0.011,0.245-0.047,0.305,0.061c0.076,0.135,0.038,0.297,0.021,0.448c-0.006,0.049-0.048,0.07-0.094,0.074
	c-0.065,0.005-0.131,0.007-0.196,0.007c-1.027,0.001-2.055,0.001-3.083,0c-0.294-0.001-0.296-0.004-0.297-0.316
	C311.054,256.906,311.055,256.054,311.055,255.201z"/>
<path fill-rule="evenodd" clip-rule="evenodd" fill="#98FF98" d="M317.75,255.2c0-0.863-0.001-1.727,0.001-2.59
	c0-0.291,0.004-0.295,0.288-0.296c0.677-0.001,1.357-0.034,2.032,0.012c0.671,0.046,1.305,0.26,1.625,0.922
	c0.559,1.151-0.033,2.43-1.429,2.525c-0.446,0.031-0.896,0.011-1.344,0.014c-0.404,0.003-0.444,0.043-0.445,0.459
	c-0.001,0.514,0.002,1.027-0.001,1.541c-0.001,0.284-0.005,0.288-0.299,0.288c-0.481,0-0.426,0.036-0.427-0.416
	C317.749,256.839,317.75,256.02,317.75,255.2z M318.479,254.06c0,0.295-0.004,0.59,0.001,0.885c0.004,0.229,0.016,0.244,0.24,0.247
	c0.415,0.006,0.83,0.002,1.245,0c0.184-0.001,0.356-0.056,0.535-0.1c0.67-0.167,0.865-1.206,0.422-1.726
	c-0.302-0.354-0.703-0.407-1.106-0.453c-0.334-0.037-0.676-0.011-1.014-0.007c-0.252,0.003-0.312,0.055-0.32,0.302
	C318.472,253.492,318.479,253.776,318.479,254.06z"/>
<path fill-rule="evenodd" clip-rule="evenodd" fill="#5E5AFF" d="M352.595,255.545c0,0.754,0.001,1.508-0.001,2.262
	c-0.001,0.264-0.005,0.264-0.275,0.269c-0.492,0.009-0.492,0.009-0.492-0.469c0-1.388,0-2.774,0-4.162
	c0-0.088,0.004-0.176-0.003-0.263c-0.018-0.21-0.072-0.267-0.285-0.269c-0.427-0.006-0.853,0-1.278-0.004
	c-0.092-0.001-0.222,0.044-0.253-0.085c-0.036-0.146-0.046-0.303,0.014-0.449c0.018-0.043,0.067-0.051,0.112-0.052
	c0.076-0.002,0.152-0.003,0.229-0.003c1.256,0,2.512,0,3.769,0c0.055,0,0.109,0.005,0.164-0.001
	c0.158-0.017,0.222,0.056,0.207,0.209c-0.004,0.043,0,0.088-0.001,0.131c-0.006,0.245-0.007,0.249-0.265,0.251
	c-0.437,0.003-0.873-0.001-1.311,0.001c-0.313,0.002-0.329,0.017-0.33,0.34C352.593,254.016,352.595,254.78,352.595,255.545z"/>
<path fill-rule="evenodd" clip-rule="evenodd" fill="#FF7E7E" d="M308.315,255.557c0,0.754,0.001,1.509-0.001,2.263
	c0,0.249-0.006,0.249-0.257,0.256c-0.516,0.015-0.516,0.015-0.516-0.514c0-1.377,0-2.755,0-4.132c0-0.076,0.004-0.153-0.001-0.229
	c-0.016-0.229-0.071-0.288-0.299-0.291c-0.372-0.006-0.743-0.002-1.115-0.002c-0.077,0-0.153-0.002-0.229-0.001
	c-0.121,0.002-0.184-0.057-0.188-0.176c-0.003-0.087-0.003-0.175,0.001-0.262c0.004-0.089,0.05-0.144,0.142-0.147
	c0.077-0.003,0.153-0.004,0.229-0.004c1.257,0,2.514,0,3.771,0c0.055,0,0.11,0.005,0.164,0c0.159-0.016,0.221,0.059,0.208,0.211
	c-0.003,0.033,0,0.065,0,0.099c-0.003,0.273-0.003,0.277-0.271,0.279c-0.438,0.004-0.875-0.001-1.312,0.002
	c-0.289,0.002-0.321,0.03-0.322,0.32C308.313,254.005,308.315,254.781,308.315,255.557z"/>
<path fill-rule="evenodd" clip-rule="evenodd" fill="#FF7E7E" d="M369.813,255.521c0,0.765,0.002,1.528-0.001,2.293
	c0,0.235-0.006,0.242-0.232,0.242c-0.519,0-0.448,0.046-0.449-0.422c-0.003-1.354-0.001-2.707-0.002-4.061
	c0-0.131,0.005-0.261-0.031-0.39c-0.075-0.271-0.101-0.299-0.379-0.301c-0.426-0.003-0.851,0-1.276-0.002
	c-0.085,0-0.194,0.017-0.2-0.107c-0.007-0.138-0.057-0.291,0.04-0.409c0.056-0.069,0.165-0.031,0.25-0.031
	c0.929-0.002,1.856-0.001,2.784-0.001c0.382,0,0.764-0.003,1.146,0c0.255,0.002,0.255,0.006,0.259,0.252
	c0.004,0.287,0.001,0.295-0.247,0.297c-0.459,0.004-0.917-0.002-1.375,0.002c-0.261,0.003-0.281,0.02-0.282,0.28
	C369.811,253.95,369.813,254.736,369.813,255.521C369.813,255.521,369.813,255.521,369.813,255.521z"/>
<path fill-rule="evenodd" clip-rule="evenodd" fill="#98FF98" d="M335.257,255.508c0,0.742,0.002,1.485,0,2.228
	c-0.001,0.34-0.005,0.34-0.354,0.341c-0.044,0-0.088-0.003-0.131,0.001c-0.161,0.013-0.25-0.046-0.236-0.222
	c0.007-0.076,0.001-0.152,0.001-0.229c0-1.354,0-2.708,0-4.063c0-0.055-0.004-0.109,0.001-0.163c0.037-0.406-0.119-0.519-0.48-0.499
	c-0.382,0.02-0.765,0.007-1.146,0.002c-0.091-0.001-0.22,0.042-0.251-0.088c-0.034-0.147-0.043-0.304,0.015-0.45
	c0.01-0.026,0.073-0.042,0.113-0.047c0.076-0.008,0.152-0.004,0.229-0.004c1.245,0,2.489,0,3.734,0c0.022,0,0.044,0,0.065,0
	c0.326,0.003,0.434,0.157,0.341,0.479c-0.033,0.115-0.12,0.11-0.207,0.11c-0.426,0.001-0.852,0.001-1.277,0.001
	c-0.076,0-0.153,0.004-0.229,0.001c-0.125-0.005-0.178,0.062-0.183,0.177c-0.003,0.077-0.004,0.153-0.004,0.229
	C335.257,254.044,335.257,254.776,335.257,255.508z"/>
<path fill-rule="evenodd" clip-rule="evenodd" fill="#FF7E7E" d="M297.099,255.197c0-0.863-0.001-1.727,0-2.59
	c0.001-0.285,0.004-0.289,0.291-0.289c0.471-0.001,0.434-0.032,0.434,0.415c0,1.431,0.007,2.862-0.005,4.294
	c-0.003,0.337,0.113,0.473,0.458,0.463c0.677-0.019,1.355-0.007,2.032-0.004c0.105,0.001,0.246-0.047,0.305,0.061
	c0.075,0.135,0.041,0.298,0.019,0.449c-0.007,0.049-0.05,0.069-0.095,0.072c-0.065,0.005-0.131,0.007-0.196,0.007
	c-0.983,0.001-1.967,0.001-2.95,0c-0.288-0.001-0.291-0.004-0.292-0.288C297.098,256.924,297.099,256.061,297.099,255.197z"/>
<path fill-rule="evenodd" clip-rule="evenodd" fill="#FF7E7E" d="M308.148,237.429c0.103-0.137,0.246-0.135,0.394-0.115
	C308.442,237.461,308.304,237.475,308.148,237.429z"/>
<path fill-rule="evenodd" clip-rule="evenodd" fill="#FF7E7E" d="M309.716,237.317c0.127-0.018,0.257-0.042,0.335,0.103
	C309.908,237.488,309.794,237.458,309.716,237.317z"/>
<path fill-rule="evenodd" clip-rule="evenodd" fill="#FF7E7E" d="M307.479,237.708c0.081-0.193,0.271-0.173,0.427-0.221
	C307.792,237.619,307.633,237.658,307.479,237.708z"/>
<path fill-rule="evenodd" clip-rule="evenodd" fill="#FF7E7E" d="M310.62,237.607c0.135,0.028,0.254,0.079,0.3,0.226
	C310.803,237.779,310.66,237.762,310.62,237.607z"/>
<path fill-rule="evenodd" clip-rule="evenodd" fill="#FF7E7E" d="M310.238,237.454c0.099-0.032,0.173-0.013,0.21,0.094
	C310.337,237.606,310.283,237.542,310.238,237.454z"/>
<path fill-rule="evenodd" clip-rule="evenodd" fill="#FF7E7E" d="M306.989,238.123c0.019-0.108,0.073-0.184,0.188-0.201
	C307.147,238.021,307.12,238.12,306.989,238.123z"/>
<path fill-rule="evenodd" clip-rule="evenodd" fill="#FF7E7E" d="M306.693,238.76c0-0.079-0.061-0.184,0.085-0.2
	C306.796,238.646,306.83,238.739,306.693,238.76z"/>
<path fill-rule="evenodd" clip-rule="evenodd" fill="#FF7E7E" d="M306.781,239.744c-0.112,0.005-0.096-0.066-0.081-0.136
	C306.809,239.604,306.811,239.665,306.781,239.744z"/>
<path fill-rule="evenodd" clip-rule="evenodd" fill="#FF7E7E" d="M306.827,238.368c-0.038-0.101,0.026-0.11,0.099-0.112
	C306.922,238.32,306.929,238.393,306.827,238.368z"/>
<path fill-rule="evenodd" clip-rule="evenodd" fill="#FF7E7E" d="M307.283,237.844c-0.01-0.062,0.021-0.085,0.078-0.08
	C307.384,237.839,307.358,237.865,307.283,237.844z"/>
<path fill-rule="evenodd" clip-rule="evenodd" fill="#FF7E7E" d="M306.912,240.008c-0.07,0.017-0.102-0.002-0.074-0.077
	C306.92,239.901,306.934,239.938,306.912,240.008z"/>
<g>
	<path fill-rule="evenodd" clip-rule="evenodd" fill="#020202" d="M374.471,228.221c-0.116-0.768-0.416-1.464-0.781-2.143
		c-0.434-0.808-0.988-1.535-1.481-2.304c-1-1.559-2.035-3.096-3.046-4.648c-0.107-0.165-0.248-0.316-0.29-0.52
		c-0.017-0.009-0.025-0.024-0.026-0.043c-0.195-0.098-0.254-0.308-0.361-0.47c-0.934-1.411-1.852-2.831-2.776-4.248
		c-0.164-0.252-0.335-0.499-0.502-0.75c-0.025-0.037-0.037-0.079-0.021-0.123c-0.017-0.009-0.023-0.023-0.021-0.042
		c-0.051,0.009-0.079-0.023-0.103-0.06c-0.37-0.559-0.739-1.118-1.108-1.677c-0.024-0.037-0.031-0.08-0.015-0.123
		c-0.015-0.007-0.022-0.019-0.023-0.036c-0.049,0.014-0.075-0.007-0.104-0.049c-0.631-0.958-1.265-1.916-1.896-2.874
		c-0.01-0.015-0.001-0.042-0.001-0.063c-0.018-0.01-0.025-0.026-0.024-0.046c-0.205-0.112-0.242-0.345-0.358-0.519
		c-0.305-0.459-0.64-0.886-1.072-1.232c-0.036-0.029-0.061-0.06-0.049-0.108c-0.019-0.002-0.031-0.013-0.038-0.031
		c-0.293-0.101-0.521-0.32-0.811-0.436c-0.444-0.177-0.886-0.34-1.37-0.359c-0.558-0.023-1.114-0.028-1.648,0.16
		c-0.486,0.171-0.937,0.376-1.272,0.822c-0.997,1.326-2.028,2.627-3.053,3.933c-0.932,1.187-1.868,2.37-2.809,3.549
		c-0.699,0.875-1.401,1.75-2.118,2.611c-0.717,0.86-1.413,1.739-2.207,2.533c-0.106,0.106-0.213,0.211-0.373,0.269
		c-0.114-0.162-0.066-0.35-0.017-0.5c0.107-0.325,0.134-0.664,0.19-0.994c0.15-0.881,0.349-1.753,0.479-2.638
		c0.102-0.689,0.268-1.37,0.363-2.06c0.051-0.368,0.118-0.733,0.195-1.092c0.072-0.339,0.09-0.687,0.195-1.021
		c0.085-0.268,0.102-0.557,0.146-0.833c0.101-0.634,0.233-1.263,0.321-1.899c0.085-0.615,0.22-1.224,0.332-1.835
		c0.031-0.172,0.058-0.344,0.092-0.516c0.022-0.113,0.001-0.245,0.119-0.323c0.006-0.055,0.011-0.11,0.017-0.166
		c-0.058-0.345,0.133-0.653,0.146-0.991c0.004-0.126,0.14-0.181,0.27-0.164c0.073,0.01,0.144,0.044,0.215,0.067
		c0.06,0.003,0.119,0.006,0.179,0.009c0.449-0.028,0.893,0.007,1.329,0.121c0.06,0.002,0.118,0.005,0.178,0.008
		c0.458-0.021,0.915-0.022,1.364,0.087c0.042,0.01,0.086,0.018,0.129,0.017c0.777-0.012,1.544,0.119,2.314,0.183
		c0.793,0.065,1.589,0.101,2.379,0.205c0.659,0.087,1.324,0.129,1.987,0.187c0.729,0.063,1.457,0.12,2.186,0.185
		c0.101,0.009,0.222-0.021,0.295,0.09c0.1,0.005,0.2,0.01,0.302,0.016c0.36-0.033,0.719-0.003,1.073,0.053
		c0.217,0.034,0.433,0.054,0.65,0.069c0.816,0.058,1.635,0.098,2.448,0.189c0.467,0.052,0.934,0.08,1.401,0.113
		c0.164,0.011,0.323,0.055,0.484,0.075c0.777,0.095,1.513-0.021,2.166-0.489c0.014-0.01,0.041,0,0.063,0
		c0.008-0.017,0.021-0.026,0.039-0.027c0.029-0.125,0.152-0.168,0.221-0.257c0.281-0.361,0.482-0.759,0.576-1.214
		c0.072-0.354,0.145-0.708,0.11-1.069c-0.076-0.799-0.183-1.592-0.649-2.281c-0.01-0.014,0.002-0.042,0.004-0.063
		c-0.017-0.008-0.025-0.022-0.028-0.04c-0.225-0.12-0.366-0.341-0.59-0.469c-0.397-0.228-0.82-0.385-1.263-0.489
		c-0.559-0.131-1.119-0.253-1.681-0.368c-0.309-0.063-0.626-0.102-0.936-0.126c-0.543-0.042-1.079-0.138-1.62-0.187
		c-0.529-0.048-1.055-0.143-1.583-0.21c-0.216-0.028-0.434-0.042-0.65-0.06c-0.183-0.015-0.367-0.024-0.527-0.128
		c-0.047-0.005-0.095-0.01-0.143-0.015c-0.328,0.031-0.647-0.006-0.954-0.133c-0.054-0.005-0.108-0.01-0.163-0.015
		c-0.283,0.021-0.563,0.019-0.826-0.111c-0.052-0.005-0.104-0.01-0.156-0.015c-0.284,0.055-0.561-0.021-0.839-0.053
		c-0.615-0.071-1.231-0.14-1.845-0.227c-0.581-0.083-1.168-0.113-1.745-0.227c-0.351-0.069-0.712-0.088-1.066-0.128
		c-0.485-0.055-0.966-0.153-1.456-0.178c-0.4-0.021-0.79-0.143-1.193-0.153c0.003-0.031,0.005-0.063,0.007-0.094
		c-0.137-0.007-0.274-0.015-0.411-0.021c-0.13,0.054-0.261-0.032-0.391,0.004l0,0c-0.104-0.003-0.209,0.003-0.308-0.035
		c-0.002-0.027-0.003-0.054-0.005-0.081c-0.137-0.007-0.274-0.014-0.412-0.021c-0.13,0.06-0.262-0.033-0.392,0.006
		c-0.103-0.004-0.208,0.004-0.308-0.035c-0.001-0.028-0.002-0.056-0.003-0.084c-0.116-0.007-0.231-0.015-0.348-0.022
		c-0.161,0.036-0.319-0.065-0.48-0.008c-0.114-0.01-0.229-0.021-0.345-0.031c-0.006-0.035-0.012-0.07-0.018-0.105
		c-0.439-0.033-0.879-0.017-1.318-0.005c-0.005,0.035-0.01,0.07-0.015,0.105h0.001c-0.113,0.046-0.234,0.041-0.353,0.05
		c-0.138,0.062-0.275,0.124-0.434,0.098c-0.091,0.02-0.182,0.039-0.271,0.058c-0.034-0.009-0.069-0.018-0.104-0.027
		c-0.048,0.008-0.097,0.017-0.145,0.025c-0.001,0.028-0.003,0.057-0.004,0.084c-0.048,0.013-0.095,0.026-0.143,0.039
		c-0.043,0.113-0.146,0.103-0.237,0.114c-0.045,0.01-0.09,0.02-0.135,0.03c-0.019-0.006-0.037-0.012-0.056-0.017
		c-0.384,0.18-0.749,0.394-1.078,0.659c-0.29,0.233-0.581,0.471-0.776,0.799c-0.02,0.032-0.04,0.065-0.061,0.098
		c-0.036-0.031-0.055-0.004-0.076,0.021c-0.442,0.52-0.748,1.12-0.963,1.76c-0.195,0.582-0.42,1.153-0.598,1.741
		c-0.182,0.6-0.419,1.182-0.624,1.775c-0.291,0.842-0.555,1.693-0.867,2.526c-0.266,0.709-0.507,1.427-0.751,2.144
		c-0.253,0.74-0.547,1.465-0.76,2.22c-0.131,0.464-0.33,0.909-0.488,1.367c-0.22,0.636-0.428,1.275-0.645,1.912
		c-0.196,0.572-0.402,1.14-0.595,1.712c-0.176,0.521-0.354,1.043-0.502,1.572c-0.058,0.206-0.176,0.398-0.165,0.624
		c-0.011,0.064-0.021,0.128-0.033,0.193c-0.155,0.039-0.1,0.162-0.104,0.262c-0.021,0.032-0.042,0.065-0.063,0.098
		c-0.043-0.005-0.085-0.016-0.128-0.015c-2.479,0.034-4.96-0.004-7.44,0.068c-1.692,0.049-3.387,0.024-5.081,0.046
		c-1.898,0.025-3.8-0.078-5.693,0.148c-0.19,0.022-0.397-0.03-0.562,0.118c-0.085,0.006-0.171,0.013-0.257,0.019
		c-0.206-0.028-0.415-0.021-0.61,0.041c-0.352,0.113-0.721,0.115-1.079,0.186c-0.347,0.068-0.698,0.14-1.046,0.208
		c-0.56,0.109-1.093,0.325-1.63,0.518c-0.05,0.018-0.14,0.017-0.107,0.118c-0.06,0.014-0.121,0.029-0.181,0.043
		c-0.076-0.01-0.153-0.021-0.146,0.096c-0.039,0.013-0.077,0.025-0.116,0.039v0c-0.489,0.129-0.844,0.455-1.161,0.822
		c-0.269,0.312-0.425,0.695-0.618,1.055c-0.366,0.683-0.664,1.393-0.774,2.168c0.011,0.091-0.02,0.148-0.121,0.149
		c0,0-0.005,0.006-0.005,0.006c-0.025,0.157-0.123,0.231-0.276,0.242l-0.001,0.002c0.008,0.015,0.017,0.028,0.027,0.042
		c-0.163,0.097-0.337,0.143-0.529,0.137c-2.968-0.08-5.936,0.055-8.903-0.003c-0.478-0.009-0.959,0.015-1.431-0.099
		c-0.54-0.13-1.052-0.346-1.578-0.517c-0.205-0.066-0.402-0.153-0.605-0.222c-0.065-0.022-0.124-0.04-0.143-0.114
		c-0.037-0.007-0.075-0.015-0.112-0.022c-0.194,0.026-0.351-0.096-0.516-0.156c-1.246-0.453-2.477-0.945-3.703-1.449
		c-0.534-0.22-1.069-0.439-1.605-0.653c-0.45-0.18-0.874-0.086-1.278,0.146c-0.063,0.036-0.11,0.111-0.199,0.078
		c-0.009,0.016-0.023,0.024-0.042,0.025c-0.001,0.129-0.125,0.164-0.195,0.229c-0.489,0.457-0.78,1.016-0.926,1.664
		c-0.058,0.255-0.11,0.505-0.109,0.769c0.002,0.729,0.227,1.374,0.698,1.931c0.039,0.046,0.112,0.077,0.086,0.159
		c0.017,0.001,0.029,0.01,0.034,0.027c0.221,0.07,0.351,0.265,0.536,0.386c0.458,0.299,0.979,0.451,1.475,0.66
		c0.649,0.274,1.306,0.529,1.968,0.771c0.809,0.295,1.599,0.639,2.42,0.903c0.588,0.19,1.16,0.429,1.745,0.631
		c0.348,0.12,0.711,0.195,1.057,0.322c0.582,0.213,1.182,0.166,1.78,0.159c1.53-0.015,3.062,0.001,4.59-0.053
		c2.698-0.096,5.398-0.063,8.096-0.145c2.655-0.081,5.311-0.071,7.965-0.132c2.492-0.058,4.982,0.029,7.474,0.024
		c3.181-0.007,6.361,0.023,9.542,0.041c1.049,0.007,2.099,0.021,3.147,0.033c2.786,0.034,5.571-0.026,8.356-0.061
		c0.777-0.01,1.547-0.102,2.32-0.157c0.383-0.028,0.675-0.263,0.951-0.515c0.615-0.562,1.115-1.223,1.609-1.886
		c0.882-1.185,1.683-2.428,2.465-3.68c0.805-1.289,1.589-2.591,2.344-3.91c0.557-0.972,1.135-1.933,1.655-2.925
		c0.024-0.047,0.063-0.086,0.094-0.13c0.108-0.161,0.158-0.15,0.274,0.056c0.017,0.008,0.024,0.021,0.025,0.04
		c0.235,0.176,0.376,0.431,0.543,0.661c0.903,1.241,1.798,2.489,2.693,3.736c0.017,0.022,0.012,0.06,0.016,0.09
		c0.018,0.009,0.025,0.023,0.025,0.043c0.167,0.065,0.208,0.236,0.301,0.362c0.434,0.588,0.86,1.182,1.29,1.772
		c0.028,0.039,0.043,0.074,0.024,0.119c0.017,0.009,0.025,0.022,0.026,0.041c0.231,0.136,0.337,0.382,0.485,0.584
		c0.871,1.19,1.726,2.393,2.587,3.591c0.038,0.054,0.085,0.101,0.06,0.174c0.015,0.006,0.022,0.018,0.023,0.033
		c0.093-0.02,0.115,0.023,0.095,0.105c0.018,0.009,0.026,0.022,0.028,0.041c0.224,0.131,0.311,0.374,0.454,0.568
		c0.599,0.81,1.224,1.594,2.014,2.229c0.471,0.378,0.969,0.71,1.539,0.929c0.608,0.233,1.238,0.282,1.863,0.167
		c0.393-0.072,0.796-0.196,1.115-0.478c0.033-0.029,0.078-0.036,0.123-0.021c0.008-0.016,0.021-0.022,0.039-0.02
		c0.025-0.133,0.149-0.174,0.236-0.244c0.87-0.698,1.201-1.632,1.203-2.714C374.574,228.643,374.503,228.436,374.471,228.221z"/>
	<path fill-rule="evenodd" clip-rule="evenodd" fill="#020202" d="M288.116,221.353c0.345,0.12,0.685,0.256,1.026,0.385
		c0.058,0.021,0.134,0.02,0.128,0.112c0.035,0.008,0.071,0.016,0.106,0.023c0.093-0.003,0.199-0.034,0.223,0.107
		c0.036,0.007,0.072,0.013,0.108,0.02c0.215-0.008,0.378,0.136,0.57,0.196c0.215,0.066,0.414,0.181,0.639,0.217
		c0.184,0.03,0.199,0.01,0.2-0.18c0-0.203-0.083-0.404-0.013-0.608c-0.006-0.114-0.012-0.229-0.018-0.343
		c-0.1-0.254-0.099-0.68,0.004-0.925c0.006-0.093,0.012-0.187,0.018-0.281c-0.065-0.14-0.003-0.276,0.012-0.413
		c0.03-0.272-0.025-0.365-0.291-0.396c-0.631-0.074-1.24-0.007-1.795,0.333c-0.039,0.023-0.071,0.048-0.117,0.029
		c-0.024,0.019-0.048,0.037-0.073,0.056c-0.079,0.125-0.167,0.237-0.322,0.271c-0.001,0.017-0.01,0.028-0.025,0.035
		c-0.134,0.295-0.34,0.552-0.46,0.857c-0.026,0.068-0.061,0.135-0.079,0.208C287.92,221.204,287.958,221.298,288.116,221.353z"/>
	<path fill-rule="evenodd" clip-rule="evenodd" fill="#020202" d="M344.438,196.687c-0.075,0.017-0.151,0.035-0.227,0.052
		c-0.002,0.028-0.003,0.056-0.004,0.083c0.158,0.025,0.296-0.037,0.435-0.099C344.575,196.711,344.507,196.699,344.438,196.687z"/>
	<path fill-rule="evenodd" clip-rule="evenodd" fill="#020202" d="M343.357,197.006c-0.019,0.037-0.036,0.073-0.054,0.11
		c0.093-0.012,0.195-0.001,0.238-0.114c-0.012-0.008-0.022-0.019-0.032-0.03C343.459,196.982,343.408,196.994,343.357,197.006z"/>
	<path fill-rule="evenodd" clip-rule="evenodd" fill="#020202" d="M291.857,222.808c0.477,0.213,0.969,0.386,1.458,0.567
		c0.436,0.161,0.871,0.326,1.309,0.48c0.458,0.161,0.915,0.323,1.379,0.46c0.51,0.15,1.041,0.109,1.563,0.119
		c2.034,0.037,4.067-0.008,6.1-0.022c0.863-0.006,1.727,0.008,2.59,0.025c0.184,0.004,0.318-0.038,0.396-0.208
		c0.319-0.704,0.56-1.436,0.676-2.197c0.105-0.69,0.165-1.387,0.058-2.09c-0.049-0.323-0.091-0.646-0.157-0.967
		c-0.126-0.619-0.321-1.215-0.606-1.771c-0.38-0.743-0.858-1.421-1.446-2.025c-0.949-0.974-2.075-1.646-3.359-2.072
		c-0.522-0.173-1.057-0.26-1.601-0.314c-0.957-0.096-1.905-0.03-2.828,0.219c-0.752,0.203-1.465,0.523-2.139,0.923
		c-0.144,0.085-0.261,0.216-0.434,0.249c-0.008,0.016-0.02,0.024-0.038,0.024c0.014,0.068-0.036,0.084-0.082,0.118
		c-0.99,0.73-1.772,1.639-2.335,2.733c-0.198,0.385-0.354,0.787-0.499,1.195c-0.171,0.484-0.293,0.979-0.337,1.483
		c-0.08,0.926-0.078,1.854,0.12,2.771C291.677,222.646,291.721,222.747,291.857,222.808z"/>
</g>
</svg>
