<?xml version="1.0" encoding="utf-8"?>
<!-- Generator: Adobe Illustrator 16.0.0, SVG Export Plug-In . SVG Version: 6.00 Build 0)  -->
<!DOCTYPE svg PUBLIC "-//W3C//DTD SVG 1.1//EN" "http://www.w3.org/Graphics/SVG/1.1/DTD/svg11.dtd">
<svg version="1.1" id="Layer_1" xmlns="http://www.w3.org/2000/svg" xmlns:xlink="http://www.w3.org/1999/xlink" x="0px" y="0px"
	 width="90px" height="126.193px" viewBox="125.875 177.313 90 126.193" enable-background="new 125.875 177.313 90 126.193"
	 xml:space="preserve">
<g id="_x23_000000ff">
	<path d="M143.88,177.35c5.53-0.068,11.061-0.021,16.591-0.023c0.013,1.73,0.04,3.46-0.023,5.19c-3.832-0.026-7.661,0-11.49,0.024
		c-0.026,2.512-0.076,5.025-0.052,7.537c3.845,0.023,7.692,0.061,11.537,0.045c0.045,1.422,0.029,2.849-0.013,4.274
		c-5.515-0.037-11.029-0.021-16.543-0.016C143.898,188.703,143.909,183.028,143.88,177.35z"/>
	<path d="M162.444,177.332c5.599-0.011,11.198-0.045,16.799,0.018c-0.021,1.636-0.006,3.269-0.006,4.904
		c-4.073-0.013-8.15,0.005-12.224,0.053c0.005,0.643,0.005,1.285,0,1.928c4.068,0.066,8.134,0.074,12.201,0.097
		c0.016,3.353,0.008,6.703,0.029,10.052c-5.602-0.01-11.203-0.005-16.805,0.021c-0.029-1.354-0.031-2.705,0.008-4.058
		c3.882,0.011,7.766,0.016,11.648-0.016c0.023-0.872,0.034-1.746,0.031-2.618c-3.9,0-7.803,0.013-11.703-0.014
		C162.423,184.245,162.423,180.787,162.444,177.332z"/>
	<path d="M181.118,177.361c5.588,0,11.18,0,16.768,0c0.023,1.644,0.047,3.287-0.006,4.927c-4.092-0.002-8.185,0.021-12.277,0.029
		c0.011,0.672,0.026,1.343,0.061,2.015c4.069-0.018,8.138,0.032,12.204,0.074c0.037,3.337,0.063,6.673,0.016,10.01
		c-5.602-0.016-11.203-0.016-16.805,0.01c-0.034-1.348-0.044-2.702,0.014-4.05c3.874,0.029,7.75,0.024,11.627-0.013
		c0.01-0.874,0.028-1.749,0.021-2.62c-3.891,0.037-7.782,0.016-11.675,0.002C181.065,184.284,181.092,180.821,181.118,177.361z"/>
</g>
<g id="_x23_0170baff">
	<path fill="#0170BA" d="M125.875,201.447c30.001-0.002,59.999-0.005,90,0c-1.651,18.659-3.276,37.317-4.996,55.97
		c-1.021,11.922-2.075,23.844-3.187,35.757c-6.401,1.696-12.74,3.63-19.14,5.333c-5.878,1.726-11.804,3.287-17.684,4.999h-0.174
		c-5.596-1.665-11.248-3.129-16.844-4.793c-6.604-1.78-13.151-3.766-19.759-5.539c-0.861-8.93-1.638-17.865-2.405-26.801
		c-1.446-16.509-3.018-33.008-4.408-49.52c-0.482-4.97-0.827-9.955-1.404-14.914V201.447 M171.016,208.808
		c-0.063,3.584,0.047,7.171-0.063,10.752c-10.292-0.037-20.586-0.008-30.878,0.003c0.177,3.479,0.643,6.934,1.122,10.384
		c9.575,0.355,19.164-0.013,28.739,0.274c-8.377,3.758-16.857,7.297-25.271,10.977c-0.722,0.321-1.493,0.563-2.138,1.032
		c0.071,3.821,0.687,7.621,0.958,11.435c5.104-0.019,10.205-0.101,15.309-0.108c4.09-0.021,8.182,0.062,12.272-0.028
		c-0.195,6.283,0.061,12.574-0.132,18.858c-2.752-0.408-5.47-1.021-8.211-1.509c-2.162-0.472-4.377-0.717-6.507-1.336
		c-0.303-3.015-0.514-6.041-0.782-9.059c-0.616-0.189-1.27-0.171-1.907-0.182c-3.092,0.018-6.186-0.011-9.281,0.036
		c0.303,5.802,0.825,11.596,1.712,17.342c3.05,0.796,6.104,1.575,9.149,2.404c4.664,1.27,9.386,2.325,14.058,3.574
		c0.556,0.118,1.117,0.324,1.693,0.276c0.311,3.815,0.071,7.655,0.129,11.482c1.078-0.174,2.136-0.44,3.176-0.762
		c8.843-2.401,17.676-4.848,26.514-7.273c0.44-3.477,0.646-6.977,0.993-10.461c0.919-10.592,1.846-21.184,2.81-31.772
		c1.13-12.114,2.107-24.242,3.245-36.355C195.486,208.802,183.251,208.768,171.016,208.808z"/>
</g>
<g id="_x23_29a9dfff">
	<path fill="#29A9DF" d="M171.016,208.808c12.235-0.04,24.47-0.005,36.708-0.016c-1.138,12.114-2.115,24.241-3.245,36.355
		c-0.964,10.589-1.891,21.181-2.81,31.772c-0.348,3.484-0.553,6.984-0.993,10.461c-8.838,2.426-17.671,4.872-26.514,7.273
		c-1.04,0.321-2.099,0.588-3.176,0.762c-0.058-3.827,0.182-7.667-0.129-11.482c0.079-0.016,0.24-0.048,0.318-0.063
		c8.225-2.064,16.394-4.337,24.6-6.476c1.037-11.64,2.188-23.275,2.918-34.938c-6.979,0.037-13.961,0.016-20.939,0.044
		c-1.017,0.006-2.033,0-3.044-0.073c3.755-1.933,7.705-3.466,11.561-5.19c3.7-1.678,7.445-3.25,11.158-4.896
		c0.717-0.329,1.48-0.603,2.109-1.093c0.248-0.909,0.234-1.859,0.332-2.789c0.214-2.95,0.593-5.883,0.734-8.835
		c-9.883-0.079-19.767-0.011-29.653-0.063C171.063,215.979,170.953,212.392,171.016,208.808z"/>
	<path fill="#29A9DF" d="M171.066,253.527c4.772-0.082,9.546,0.047,14.321,0.016c-0.266,4.88-0.672,9.752-0.924,14.632
		c-2.927,0.956-5.896,1.765-8.847,2.649c-1.571,0.479-3.187,0.858-4.682,1.562C171.126,266.102,170.871,259.811,171.066,253.527z"/>
</g>
<g id="_x23_cfcfcfff">
	<path fill="#CFCFCF" d="M140.075,219.563c10.292-0.011,20.586-0.04,30.878-0.003c0.134,11.324-0.034,22.648,0.113,33.967
		c-4.09,0.09-8.182,0.008-12.272,0.028c-5.104,0.008-10.205,0.09-15.309,0.108c-0.271-3.813-0.888-7.613-0.958-11.435
		c0.645-0.469,1.417-0.711,2.138-1.032c8.414-3.679,16.894-7.219,25.271-10.977c-9.575-0.287-19.164,0.082-28.739-0.274
		C140.717,226.497,140.251,223.042,140.075,219.563z"/>
	<path fill="#CFCFCF" d="M144.246,260.337c3.095-0.047,6.189-0.019,9.281-0.036c0.637,0.011,1.291-0.008,1.907,0.182
		c0.269,3.018,0.479,6.044,0.782,9.059c2.13,0.619,4.345,0.864,6.507,1.336c2.741,0.487,5.459,1.101,8.211,1.509
		c0.263,3.823-0.197,7.674,0.242,11.484c-0.079,0.016-0.239,0.048-0.318,0.063c-0.577,0.048-1.138-0.158-1.693-0.276
		c-4.672-1.249-9.394-2.305-14.058-3.574c-3.044-0.829-6.099-1.608-9.149-2.404C145.071,271.933,144.549,266.139,144.246,260.337z"
		/>
</g>
<g id="_x23_ffffffff">
	<path fill="#FFFFFF" d="M170.953,219.56c9.886,0.053,19.77-0.016,29.653,0.063c-0.142,2.952-0.521,5.886-0.734,8.835
		c-0.098,0.929-0.084,1.88-0.332,2.789c-0.629,0.49-1.393,0.764-2.109,1.093c-3.713,1.646-7.458,3.218-11.158,4.896
		c-3.855,1.725-7.806,3.258-11.561,5.19c1.011,0.073,2.027,0.079,3.044,0.073c6.979-0.028,13.96-0.007,20.939-0.044
		c-0.729,11.663-1.881,23.299-2.918,34.938c-8.206,2.139-16.375,4.411-24.6,6.476c-0.439-3.811,0.021-7.661-0.242-11.484
		c1.496-0.703,3.111-1.083,4.682-1.562c2.95-0.885,5.92-1.693,8.847-2.649c0.252-4.88,0.658-9.752,0.924-14.632
		c-4.774,0.031-9.549-0.098-14.321-0.016C170.918,242.208,171.087,230.884,170.953,219.56z"/>
</g>
</svg>
