<?xml version="1.0" encoding="utf-8"?>
<!-- Generator: Adobe Illustrator 16.0.0, SVG Export Plug-In . SVG Version: 6.00 Build 0)  -->
<!DOCTYPE svg PUBLIC "-//W3C//DTD SVG 1.1//EN" "http://www.w3.org/Graphics/SVG/1.1/DTD/svg11.dtd">
<svg version="1.1" id="Layer_1" xmlns="http://www.w3.org/2000/svg" xmlns:xlink="http://www.w3.org/1999/xlink" x="0px" y="0px"
	 width="90px" height="90px" viewBox="15 15 90 90" enable-background="new 15 15 90 90" xml:space="preserve">
<path fill="#006FAF" d="M60,105c-24.813,0-45-20.187-45-45c0-24.813,20.187-45,45-45c24.813,0,45,20.187,45,45
	C105,84.813,84.813,105,60,105z M60,18.461c-22.904,0-41.539,18.634-41.539,41.539c0,22.905,18.634,41.538,41.539,41.538
	c22.905,0,41.538-18.633,41.538-41.538C101.538,37.096,82.905,18.461,60,18.461z"/>
<g enable-background="new    ">
	<path fill="#006FAF" d="M27.92,63.495l2.839,0.477c-0.365,1.041-0.941,1.833-1.729,2.378s-1.773,0.816-2.956,0.816
		c-1.873,0-3.259-0.612-4.158-1.835c-0.71-0.98-1.065-2.218-1.065-3.712c0-1.785,0.466-3.183,1.399-4.193s2.113-1.516,3.539-1.516
		c1.603,0,2.867,0.529,3.793,1.587c0.926,1.058,1.369,2.679,1.329,4.863h-7.14c0.021,0.845,0.25,1.503,0.69,1.973
		s0.987,0.705,1.643,0.705c0.446,0,0.822-0.122,1.126-0.365C27.535,64.428,27.765,64.036,27.92,63.495z M28.082,60.615
		c-0.02-0.825-0.233-1.452-0.639-1.881c-0.406-0.429-0.899-0.644-1.48-0.644c-0.622,0-1.136,0.227-1.542,0.68
		c-0.406,0.453-0.605,1.068-0.599,1.846H28.082z"/>
	<path fill="#006FAF" d="M31.865,66.923l3.884-5.547l-3.722-5.223h3.478l1.907,2.961l2.008-2.961h3.347l-3.651,5.101l3.986,5.669
		h-3.499l-2.19-3.336l-2.211,3.336H31.865z"/>
	<path fill="#006FAF" d="M44.704,56.153h2.657v1.582c0.345-0.541,0.811-0.98,1.399-1.318c0.588-0.338,1.241-0.507,1.957-0.507
		c1.251,0,2.313,0.49,3.185,1.471c0.872,0.98,1.308,2.346,1.308,4.097c0,1.798-0.439,3.196-1.318,4.193
		c-0.879,0.998-1.944,1.496-3.194,1.496c-0.595,0-1.134-0.118-1.618-0.355s-0.992-0.642-1.526-1.217v5.425h-2.85V56.153z
		 M47.523,61.355c0,1.21,0.24,2.104,0.72,2.683c0.48,0.578,1.064,0.867,1.754,0.867c0.663,0,1.213-0.265,1.653-0.796
		s0.659-1.401,0.659-2.611c0-1.129-0.227-1.967-0.68-2.515c-0.453-0.547-1.014-0.821-1.683-0.821c-0.696,0-1.274,0.269-1.734,0.806
		C47.753,59.505,47.523,60.301,47.523,61.355z"/>
	<path fill="#006FAF" d="M60.199,66.923h-2.85v-10.77h2.647v1.531c0.453-0.724,0.86-1.2,1.222-1.43s0.772-0.345,1.232-0.345
		c0.649,0,1.274,0.179,1.876,0.538l-0.882,2.484c-0.48-0.311-0.926-0.466-1.339-0.466c-0.399,0-0.737,0.11-1.014,0.33
		s-0.495,0.617-0.654,1.191c-0.159,0.575-0.239,1.778-0.239,3.61V66.923z"/>
	<path fill="#006FAF" d="M71.791,63.495l2.839,0.477c-0.365,1.041-0.941,1.833-1.729,2.378s-1.773,0.816-2.956,0.816
		c-1.873,0-3.259-0.612-4.158-1.835c-0.71-0.98-1.064-2.218-1.064-3.712c0-1.785,0.466-3.183,1.399-4.193
		c0.933-1.011,2.113-1.516,3.539-1.516c1.603,0,2.867,0.529,3.793,1.587c0.926,1.058,1.369,2.679,1.329,4.863h-7.14
		c0.021,0.845,0.25,1.503,0.689,1.973s0.987,0.705,1.643,0.705c0.446,0,0.821-0.122,1.125-0.365
		C71.405,64.428,71.635,64.036,71.791,63.495z M71.953,60.615c-0.021-0.825-0.233-1.452-0.639-1.881
		c-0.406-0.429-0.899-0.644-1.481-0.644c-0.622,0-1.136,0.227-1.542,0.68c-0.405,0.453-0.605,1.068-0.598,1.846H71.953z"/>
	<path fill="#006FAF" d="M76.101,63.85l2.86-0.436c0.121,0.555,0.368,0.976,0.74,1.263c0.372,0.288,0.893,0.431,1.562,0.431
		c0.737,0,1.291-0.135,1.663-0.406c0.25-0.189,0.375-0.443,0.375-0.761c0-0.216-0.067-0.396-0.202-0.537
		c-0.143-0.135-0.46-0.261-0.953-0.375c-2.299-0.507-3.756-0.97-4.371-1.389c-0.853-0.582-1.278-1.39-1.278-2.424
		c0-0.933,0.369-1.717,1.105-2.353c0.737-0.635,1.88-0.953,3.428-0.953c1.474,0,2.569,0.24,3.286,0.72s1.21,1.19,1.48,2.129
		l-2.688,0.497c-0.115-0.419-0.333-0.74-0.654-0.963s-0.779-0.335-1.374-0.335c-0.75,0-1.288,0.105-1.612,0.314
		c-0.217,0.149-0.324,0.342-0.324,0.578c0,0.203,0.095,0.375,0.283,0.517c0.258,0.189,1.145,0.457,2.662,0.801
		c1.519,0.345,2.578,0.768,3.18,1.268c0.595,0.507,0.893,1.214,0.893,2.12c0,0.987-0.412,1.835-1.237,2.545
		s-2.045,1.065-3.661,1.065c-1.467,0-2.628-0.297-3.483-0.893C76.924,65.679,76.364,64.871,76.101,63.85z"/>
	<path fill="#006FAF" d="M87.651,63.85l2.86-0.436c0.121,0.555,0.368,0.976,0.74,1.263c0.372,0.288,0.893,0.431,1.562,0.431
		c0.737,0,1.291-0.135,1.663-0.406c0.25-0.189,0.375-0.443,0.375-0.761c0-0.216-0.067-0.396-0.202-0.537
		c-0.143-0.135-0.46-0.261-0.953-0.375c-2.299-0.507-3.756-0.97-4.371-1.389c-0.852-0.582-1.278-1.39-1.278-2.424
		c0-0.933,0.369-1.717,1.105-2.353c0.737-0.635,1.88-0.953,3.428-0.953c1.475,0,2.569,0.24,3.286,0.72s1.21,1.19,1.48,2.129
		l-2.688,0.497c-0.115-0.419-0.333-0.74-0.654-0.963s-0.779-0.335-1.374-0.335c-0.75,0-1.288,0.105-1.612,0.314
		c-0.216,0.149-0.324,0.342-0.324,0.578c0,0.203,0.095,0.375,0.284,0.517c0.257,0.189,1.144,0.457,2.662,0.801
		c1.518,0.345,2.577,0.768,3.179,1.268c0.595,0.507,0.893,1.214,0.893,2.12c0,0.987-0.412,1.835-1.237,2.545
		s-2.045,1.065-3.661,1.065c-1.467,0-2.628-0.297-3.483-0.893C88.475,65.679,87.915,64.871,87.651,63.85z"/>
</g>
</svg>
