<?xml version="1.0" encoding="utf-8"?>
<!-- Generator: Adobe Illustrator 16.0.0, SVG Export Plug-In . SVG Version: 6.00 Build 0)  -->
<!DOCTYPE svg PUBLIC "-//W3C//DTD SVG 1.1//EN" "http://www.w3.org/Graphics/SVG/1.1/DTD/svg11.dtd">
<svg version="1.1"
	 id="svg2" xmlns:sodipodi="http://sodipodi.sourceforge.net/DTD/sodipodi-0.dtd" xmlns:inkscape="http://www.inkscape.org/namespaces/inkscape" xmlns:dc="http://purl.org/dc/elements/1.1/" xmlns:cc="http://creativecommons.org/ns#" xmlns:rdf="http://www.w3.org/1999/02/22-rdf-syntax-ns#" xmlns:svg="http://www.w3.org/2000/svg" sodipodi:docname="javascript.svg" inkscape:version="0.48.4 r9939"
	 xmlns="http://www.w3.org/2000/svg" xmlns:xlink="http://www.w3.org/1999/xlink" x="0px" y="0px" width="90px" height="97.458px"
	 viewBox="27.875 30.185 90 97.458" enable-background="new 27.875 30.185 90 97.458" xml:space="preserve">
<g id="layer1" transform="translate(-326.59295,-168.33349)" inkscape:label="Layer 1" inkscape:groupmode="layer">
	<g id="g8487" transform="translate(-202.57553,-38.463711)">
		<g id="g3652" transform="matrix(1.25,0,0,1.25,-2.5065195,174.1722)">
			<path id="path3654" inkscape:connector-curvature="0" opacity="0.85" fill="#101010" enable-background="new    " d="
				M501.689,50.279c0.865-0.012,1.735-0.025,2.606-0.031c0.012,0.482,0.03,1.439,0.043,1.92c-0.889,0-1.778-0.006-2.661-0.006
				C501.678,51.693,501.689,50.754,501.689,50.279z"/>
		</g>
		<path id="path3664" inkscape:connector-curvature="0" fill="#131313" d="M558.665,237.514c1.983,0.016,3.975,0.023,5.974,0.031
			c-0.17,3.551,0.525,7.24-0.479,10.698c-1.297,2.486-4.523,2-6.847,2.045c-0.092-0.787-0.185-1.574-0.27-2.361
			c1.335-0.108,2.786,0.154,4.014-0.533c0.795-2.462,0.44-5.094,0.239-7.625c-0.679,0.016-2.03,0.031-2.709,0.039
			C558.61,239.236,558.641,238.086,558.665,237.514L558.665,237.514z"/>
		<path id="path3666" inkscape:connector-curvature="0" fill="#131313" d="M598.408,238.487c2.339-1.806,5.411-1.065,8.013-0.362
			c-0.008,0.687-0.016,2.061-0.016,2.748c-2.015-0.811-5.843-2.578-6.353,0.757c1.907,0.579,3.921,0.918,5.65,1.952
			c1.838,1.498,1.32,4.901-0.795,5.929c-2.408,1.428-5.264,0.648-7.803,0.131c-0.146-1.057-0.293-2.107-0.424-3.165
			c2.138,0.942,6.468,3.173,7.108-0.432c-2.146-0.811-4.816-0.926-6.375-2.779C596.726,241.69,596.841,239.498,598.408,238.487
			L598.408,238.487z"/>
		<path id="path3668" inkscape:connector-curvature="0" fill="#131313" d="M641.084,237.955c0.903,0,1.813,0,2.732,0
			c0.023,0.872,0.054,1.745,0.093,2.616c0.694,0.008,2.092,0.024,2.794,0.031c0.016,0.533,0.039,1.59,0.054,2.116
			c-0.709-0.008-2.13-0.023-2.84-0.039c0.038,1.767-0.417,3.697,0.471,5.326c0.664,0.069,1.992,0.2,2.655,0.27
			c-0.069,3.25-3.774,1.775-5.734,1.266c-0.178-1.984-0.264-3.967-0.264-5.959c-0.501-0.702-1.003-1.412-1.496-2.115
			c0.377-0.347,1.134-1.042,1.512-1.389C641.069,239.544,641.077,238.479,641.084,237.955L641.084,237.955z"/>
		<path id="path3670" inkscape:connector-curvature="0" fill="#131313" d="M567.047,240.672c2.516-0.132,6.036-1.066,7.619,1.536
			c0.563,2.578,0.208,5.257,0.293,7.881c-1.127-0.101-2.254-0.208-3.373-0.309c-1.281,0.108-2.786,1.057-3.967,0.208
			c-1.96-0.941-1.992-4.415,0.069-5.256c1.498-0.618,3.134-0.726,4.701-1.096c-1.49-1.544-3.605-0.957-5.48-0.757
			C566.947,242.323,567.016,241.219,567.047,240.672 M569.501,245.974c-0.085,0.749-0.162,1.497-0.232,2.254
			c0.857-0.046,1.714-0.085,2.579-0.131c0.062-0.811,0.131-1.621,0.2-2.431C571.192,245.766,570.343,245.874,569.501,245.974z"/>
		<path id="path3672" inkscape:connector-curvature="0" fill="#131313" d="M576.108,240.401c0.741,0.146,2.231,0.44,2.972,0.586
			c0.779,1.791,1.312,3.674,2.068,5.48c0.633-1.93,1.219-3.882,1.791-5.834c0.741-0.016,2.231-0.039,2.972-0.055
			c-1.05,3.312-2.223,6.584-3.536,9.811c-1.019-0.132-2.022-0.348-2.995-0.633C577.977,246.762,577.05,243.566,576.108,240.401
			L576.108,240.401z"/>
		<path id="path3674" inkscape:connector-curvature="0" fill="#131313" d="M586.868,242.864c0.216-0.733,0.463-1.467,0.733-2.185
			c2.393-0.347,5.635-0.856,7.279,1.382c0.563,2.67,0.216,5.434,0.27,8.143c-1.134-0.154-2.261-0.309-3.388-0.463
			c-2.022,1.073-5.396,0.687-5.349-2.161c-0.386-3.381,3.836-3.428,6.128-3.875C591.16,241.853,588.767,242.833,586.868,242.864
			 M589.663,246.043c-0.085,0.695-0.162,1.397-0.239,2.092c0.849,0.023,1.698,0.046,2.555,0.062
			c0.077-0.857,0.154-1.706,0.231-2.563C591.361,245.766,590.512,245.905,589.663,246.043L589.663,246.043z"/>
		<path id="path3676" inkscape:connector-curvature="0" fill="#131313" d="M607.516,245.387c-0.239-4.199,5.102-6.398,8.298-4.16
			c0.077,0.595,0.224,1.791,0.293,2.385c-1.467-0.463-2.972-1.512-4.547-0.802c-1.666,1.59-1.319,5.626,1.506,5.388
			c0.779-0.247,2.331-0.741,3.11-0.988c-0.139,0.664-0.409,1.992-0.54,2.648C612.293,251.432,607.253,249.571,607.516,245.387
			L607.516,245.387z"/>
		<path id="path3678" inkscape:connector-curvature="0" fill="#131313" d="M617.388,240.37c1.157,0.309,2.339,0.618,3.505,0.95
			c0.872-0.316,1.752-0.625,2.639-0.942c0.039,0.741,0.132,2.224,0.179,2.964c-1.112,0.054-2.224,0.108-3.319,0.162
			c-0.077,2.216-0.101,4.423-0.116,6.638c-0.726,0.008-2.185,0.016-2.91,0.023C617.327,246.9,617.319,243.636,617.388,240.37
			L617.388,240.37z"/>
		<path id="path3680" inkscape:connector-curvature="0" fill="#131313" d="M629.939,240.579c2.13,0.479,4.275,0.332,6.398-0.093
			c3.327,0.688,3.404,5.403,2.139,7.873c-1.05,2.131-3.62,1.93-5.604,1.822c0.016,1.127,0.031,2.247,0.047,3.374
			c-0.741-0.008-2.238-0.023-2.987-0.039C629.931,249.208,629.923,244.894,629.939,240.579 M632.949,242.848
			c-0.03,1.799-0.046,3.605-0.03,5.403c0.957-0.262,2.191-0.077,2.917-0.903c0.54-1.466,0.116-3.049,0.008-4.562
			C634.878,242.802,633.914,242.825,632.949,242.848L632.949,242.848z"/>
		<g id="g3688" transform="matrix(1.25,0,0,1.25,-2.5065195,174.1722)">
			<path id="path3690" inkscape:connector-curvature="0" fill="#131313" d="M501.912,53.143c0.549,0,1.648,0,2.192,0
				c0.037,2.551,0.037,5.095,0,7.645c-0.55,0-1.643,0-2.192,0C501.869,58.244,501.869,55.694,501.912,53.143z"/>
		</g>
		<g id="g3768" transform="matrix(1.25,0,0,1.25,-2.5065195,174.1722)">
			<path id="path3770" inkscape:connector-curvature="0" fill="#D6BA32" d="M456.094,65.747c6.157-0.259,12.325,0.074,18.488-0.031
				c6.798-0.216,13.591-0.037,20.396-0.012c5.397,0.012,10.794-0.025,16.191,0.018c-1.698,18.728-3.409,37.457-4.984,56.198
				c-7.23,2.055-14.468,4.081-21.698,6.125c-0.927,0.383-1.877,0.025-2.766-0.216c-6.873-1.976-13.745-3.933-20.63-5.835
				C459.298,103.26,457.613,84.507,456.094,65.747 M483.745,70.631c-0.254,9.238-0.037,18.476-0.111,27.713
				c0.068,8.448-0.123,16.901,0.099,25.348c6.076-1.433,12.072-3.192,18.068-4.927c1.507-16.037,2.977-32.073,4.237-48.128
				C498.608,70.563,491.174,70.65,483.745,70.631 M476.014,106.706c-3.569-0.977-7.095-2.1-10.713-2.872
				c-0.105,2.148-0.068,4.298,0.179,6.434c5.298,1.291,10.485,2.988,15.789,4.254c0.037-12.232-0.018-24.471,0.025-36.704
				c-1.729-0.043-3.458-0.068-5.187-0.105C475.909,87.372,476.094,97.042,476.014,106.706z"/>
		</g>
		<g id="g3796" transform="matrix(1.25,0,0,1.25,-2.5065195,174.1722)">
			<path id="path3798" inkscape:connector-curvature="0" fill="#FFDA3E" d="M483.745,70.631c7.429,0.018,14.863-0.068,22.292,0.006
				c-1.26,16.055-2.73,32.091-4.236,48.128c-5.996,1.735-11.992,3.495-18.068,4.927c-0.222-8.448-0.031-16.901-0.099-25.348
				C483.708,89.107,483.492,79.869,483.745,70.631 M485.826,77.813c0.024,7.954,0.03,15.913,0,23.866
				c3.631-0.587,7.249-1.259,10.868-1.92c-0.055,1.852-0.13,3.705-0.21,5.557c-3.526,0.938-7.045,1.908-10.59,2.779
				c-0.055,2.136-0.062,4.273-0.044,6.416c4.465-1.001,8.862-2.26,13.295-3.378c0.556-0.259,1.624-0.228,1.575-1.098
				c0.538-5.719,0.871-11.461,1.389-17.191c-3.674,0.302-7.31,0.92-10.984,1.173c-0.031-3.248-0.038-6.496,0.012-9.745
				c3.866,0,7.725,0,11.591,0.006c0.247-2.168,0.462-4.341,0.63-6.514C497.515,77.788,491.667,77.708,485.826,77.813L485.826,77.813
				z"/>
		</g>
		<path id="path3806" inkscape:connector-curvature="0" fill="#EBEBEB" d="M592.511,307.555c0.101-12.08-0.131-24.168,0.116-36.24
			c2.162,0.046,4.323,0.077,6.484,0.131c-0.054,15.291,0.015,30.589-0.031,45.879c-6.63-1.582-13.114-3.704-19.737-5.317
			c-0.309-2.671-0.355-5.357-0.224-8.043C583.642,304.93,588.049,306.334,592.511,307.555z"/>
	</g>
</g>
</svg>
