<?xml version="1.0" encoding="utf-8"?>
<!-- Generator: Adobe Illustrator 16.0.0, SVG Export Plug-In . SVG Version: 6.00 Build 0)  -->
<!DOCTYPE svg PUBLIC "-//W3C//DTD SVG 1.1//EN" "http://www.w3.org/Graphics/SVG/1.1/DTD/svg11.dtd">
<svg version="1.1" id="svg" xmlns="http://www.w3.org/2000/svg" xmlns:xlink="http://www.w3.org/1999/xlink" x="0px" y="0px"
	 width="90px" height="83.886px" viewBox="157.78 144.377 90 83.886" enable-background="new 157.78 144.377 90 83.886"
	 xml:space="preserve">
<g>
	<path d="M157.78,201.631h3.384v12.473l6.167-12.473h3.581l-5.27,9.599l6.168,16.555h-3.666l-4.574-12.986l-2.406,4.402v8.584
		h-3.384V201.631z"/>
	<path d="M173.352,201.631h3.985l6.72,18.854v-18.854h2.83v26.153h-3.159l-7.546-20.942v20.942h-2.83V201.631z"/>
	<path d="M190.69,201.631h11.708v3.468h-8.325v7.473h6.528v3.486h-6.528v8.182h8.459v3.545H190.69V201.631z"/>
	<path d="M203.072,201.631h3.75l2.948,8.354l3.28-8.354h3.137l-4.741,11.881l5.386,14.272h-3.801l-3.479-10.01l-3.951,10.01h-3.188
		l5.472-13.559L203.072,201.631z"/>
	<path d="M218.359,222.841h3.413v4.943h-3.413V222.841z"/>
	<path d="M227.866,201.631h3.384v16.267c0,2.695-0.119,4.701-0.359,6.017c-0.239,1.315-0.753,2.369-1.542,3.161
		c-0.788,0.792-1.922,1.188-3.398,1.188c-0.759,0-1.662-0.159-2.71-0.479v-3.583c0.698,0.243,1.357,0.364,1.977,0.364
		c0.729,0,1.28-0.173,1.654-0.518s0.634-0.872,0.778-1.581s0.217-2.232,0.217-4.569V201.631z"/>
	<path d="M247.271,207.475l-2.891,1.283c-0.339-1.386-0.785-2.409-1.34-3.07c-0.554-0.661-1.31-0.991-2.268-0.991
		c-0.889,0-1.575,0.336-2.06,1.009s-0.726,1.444-0.726,2.315c0,0.961,0.271,1.727,0.815,2.297s1.63,1.251,3.257,2.043
		c1.388,0.677,2.455,1.322,3.204,1.935c0.749,0.613,1.355,1.435,1.819,2.463s0.696,2.219,0.696,3.573
		c0,2.197-0.606,4.068-1.819,5.613c-1.213,1.546-2.912,2.318-5.098,2.318c-3.773,0-6.109-2.439-7.008-7.319l3.024-1.092
		c0.529,3.219,1.906,4.828,4.133,4.828c1.088,0,1.913-0.36,2.478-1.082c0.563-0.722,0.846-1.612,0.846-2.673
		c0-0.779-0.194-1.501-0.584-2.165c-0.389-0.664-1.357-1.373-2.904-2.127c-1.637-0.792-2.817-1.463-3.541-2.012
		s-1.34-1.36-1.849-2.434c-0.51-1.073-0.764-2.293-0.764-3.659c0-2.082,0.566-3.832,1.699-5.25s2.638-2.127,4.514-2.127
		C244.231,201.152,246.353,203.259,247.271,207.475z"/>
</g>
<path fill="#E16629" d="M196.603,199.882c-0.124,0-0.247,0-0.369,0c-0.112-0.063-0.233-0.118-0.335-0.197
	c-0.333-0.259-0.67-0.518-0.987-0.799c-0.158-0.14-0.291-0.315-0.404-0.498c-0.141-0.227-0.145-0.468-0.04-0.728
	c0.609-1.49,1.202-2.985,1.808-4.477c0.092-0.226,0.109-0.435,0.034-0.67c-0.178-0.566-0.319-1.143-0.502-1.707
	c-0.087-0.269-0.024-0.444,0.169-0.635c0.582-0.573,1.15-1.161,1.722-1.745c0.057-0.057,0.108-0.119,0.185-0.208
	c-0.097-0.023-0.154-0.044-0.21-0.053c-1.106-0.178-2.185-0.461-3.23-0.857c-1.181-0.447-2.291-1.027-3.335-1.733
	c-0.072-0.048-0.136-0.124-0.255-0.108c-0.009,0.137-0.023,0.267-0.027,0.396c-0.021,0.733-0.047,1.464-0.054,2.197
	c-0.003,0.245-0.09,0.4-0.307,0.518c-0.481,0.257-0.953,0.536-1.436,0.794c-0.216,0.116-0.353,0.279-0.453,0.501
	c-0.665,1.482-1.341,2.96-2.004,4.443c-0.18,0.402-0.478,0.6-0.9,0.661c-0.427,0.063-0.846-0.011-1.267-0.03
	c-0.137-0.006-0.281-0.013-0.411-0.053c-0.485-0.147-0.762-0.654-0.623-1.158c0.074-0.267,0.179-0.524,0.272-0.786
	c0.695-1.917,1.392-3.836,2.087-5.754c0.031-0.088,0.053-0.183,0.092-0.319c-0.149,0.048-0.251,0.078-0.351,0.112
	c-2.224,0.776-4.448,1.553-6.674,2.328c-0.469,0.164-1.041-0.188-1.106-0.679c-0.05-0.373-0.094-0.748-0.128-1.123
	c-0.018-0.198-0.029-0.402-0.004-0.6c0.045-0.372,0.208-0.646,0.59-0.804c1.452-0.599,2.892-1.229,4.34-1.837
	c0.263-0.111,0.448-0.268,0.582-0.524c0.261-0.507,0.558-0.995,0.816-1.502c0.131-0.256,0.306-0.375,0.588-0.338
	c0.038,0.005,0.077,0,0.115,0c0.772-0.004,1.542-0.005,2.313-0.011c0.084-0.001,0.185,0.031,0.253-0.055
	c-0.341-0.539-0.702-1.057-1.012-1.605c-0.308-0.541-0.592-1.1-0.838-1.671c-0.249-0.58-0.46-1.177-0.647-1.779
	c-0.183-0.597-0.312-1.213-0.473-1.852c-0.09,0.081-0.161,0.137-0.227,0.2c-0.559,0.529-1.123,1.056-1.675,1.594
	c-0.181,0.177-0.362,0.223-0.605,0.147c-0.53-0.164-1.067-0.301-1.599-0.46c-0.21-0.063-0.403-0.047-0.606,0.031
	c-0.849,0.326-1.701,0.642-2.551,0.963c-0.691,0.26-1.384,0.517-2.074,0.783c-0.355,0.136-0.684,0.096-0.987-0.119
	c-0.15-0.107-0.292-0.229-0.418-0.362c-0.229-0.24-0.429-0.507-0.661-0.743c-0.327-0.332-0.375-1.048,0.193-1.432
	c0.102-0.066,0.216-0.118,0.327-0.17c2.023-0.946,4.046-1.893,6.068-2.841c0.067-0.031,0.129-0.069,0.243-0.13
	c-0.144-0.076-0.243-0.129-0.343-0.177c-2.114-1.022-4.229-2.045-6.347-3.062c-0.229-0.11-0.371-0.262-0.421-0.508
	c-0.014-0.063-0.065-0.117-0.098-0.174c0-0.077,0-0.155,0-0.231c0.033-0.049,0.068-0.097,0.098-0.147
	c0.045-0.079,0.076-0.168,0.131-0.24c0.267-0.339,0.531-0.682,0.814-1.008c0.124-0.144,0.278-0.266,0.438-0.369
	c0.253-0.164,0.512-0.187,0.81-0.063c1.481,0.61,2.972,1.197,4.454,1.801c0.229,0.094,0.439,0.105,0.673,0.034
	c0.567-0.171,1.14-0.325,1.705-0.502c0.251-0.08,0.433-0.035,0.621,0.156c0.576,0.588,1.172,1.162,1.759,1.74
	c0.057,0.056,0.12,0.106,0.179,0.161c0.032-0.035,0.048-0.044,0.052-0.057c0.012-0.044,0.021-0.089,0.028-0.134
	c0.185-1.152,0.483-2.272,0.907-3.359c0.445-1.14,1.008-2.215,1.699-3.226c0.043-0.064,0.076-0.137,0.129-0.234
	c-0.11-0.009-0.176-0.02-0.245-0.021c-0.777-0.019-1.555-0.044-2.334-0.05c-0.279-0.002-0.458-0.104-0.587-0.354
	c-0.253-0.486-0.533-0.957-0.794-1.437c-0.101-0.184-0.24-0.309-0.434-0.394c-0.571-0.251-1.138-0.513-1.707-0.771
	c-0.926-0.418-1.849-0.842-2.78-1.252c-0.354-0.157-0.58-0.409-0.643-0.786c-0.038-0.227-0.047-0.46-0.042-0.69
	c0.009-0.3,0.047-0.599,0.069-0.898c0.036-0.461,0.364-0.802,0.824-0.852c0.204-0.021,0.396,0.017,0.588,0.087
	c0.802,0.294,1.606,0.583,2.41,0.874c1.31,0.475,2.619,0.95,3.931,1.424c0.082,0.029,0.166,0.054,0.296,0.094
	c-0.049-0.161-0.081-0.27-0.117-0.375c-0.772-2.217-1.546-4.434-2.319-6.652c-0.167-0.484,0.206-1.068,0.718-1.124
	c0.269-0.029,0.536-0.063,0.804-0.087c0.245-0.022,0.492-0.063,0.735-0.048c0.438,0.024,0.775,0.182,0.963,0.646
	c0.6,1.468,1.24,2.92,1.857,4.383c0.089,0.211,0.224,0.357,0.424,0.464c0.529,0.284,1.049,0.586,1.583,0.863
	c0.235,0.122,0.331,0.281,0.328,0.549c-0.012,0.824,0,1.649,0.005,2.475c0,0.079,0.013,0.159,0.024,0.293
	c1.057-0.78,2.138-1.409,3.293-1.908c1.161-0.501,2.367-0.855,3.658-1.092c-0.082-0.098-0.131-0.164-0.186-0.222
	c-0.545-0.577-1.089-1.155-1.641-1.727c-0.154-0.161-0.205-0.325-0.139-0.545c0.161-0.521,0.297-1.051,0.456-1.574
	c0.07-0.239,0.067-0.46-0.026-0.696c-0.267-0.673-0.514-1.353-0.769-2.03c-0.322-0.858-0.644-1.715-0.969-2.572
	c-0.126-0.327-0.104-0.636,0.086-0.927c0.092-0.141,0.196-0.278,0.318-0.394c0.269-0.254,0.555-0.49,0.828-0.739
	c0.439-0.402,1.11-0.292,1.439,0.216c0.055,0.083,0.096,0.176,0.139,0.268c0.945,2.023,1.892,4.045,2.838,6.068
	c0.037,0.081,0.084,0.155,0.15,0.278c0.077-0.148,0.131-0.248,0.181-0.348c1.021-2.116,2.045-4.229,3.06-6.349
	c0.106-0.222,0.259-0.354,0.49-0.413c0.066-0.016,0.126-0.049,0.188-0.075c0.078,0,0.155,0,0.231,0
	c0.134,0.071,0.279,0.127,0.398,0.218c0.337,0.257,0.669,0.523,0.992,0.796c0.125,0.108,0.242,0.237,0.335,0.377
	c0.189,0.284,0.23,0.57,0.089,0.913c-0.611,1.472-1.193,2.956-1.793,4.434c-0.09,0.219-0.1,0.424-0.031,0.649
	c0.175,0.575,0.329,1.155,0.507,1.728c0.076,0.242,0.033,0.417-0.151,0.599c-0.596,0.583-1.173,1.183-1.756,1.777
	c-0.056,0.057-0.139,0.101-0.13,0.206c0.496,0.102,0.988,0.186,1.472,0.305c0.494,0.124,0.981,0.268,1.461,0.433
	c0.474,0.163,0.94,0.347,1.396,0.553c0.462,0.21,0.915,0.445,1.358,0.694c0.431,0.242,0.847,0.517,1.306,0.8
	c0.008-0.115,0.016-0.188,0.017-0.262c0.019-0.785,0.042-1.571,0.053-2.358c0.003-0.249,0.096-0.417,0.321-0.535
	c0.471-0.247,0.926-0.523,1.396-0.77c0.239-0.125,0.395-0.302,0.5-0.547c0.269-0.622,0.555-1.237,0.834-1.855
	c0.392-0.862,0.784-1.725,1.171-2.589c0.113-0.251,0.276-0.451,0.537-0.544c0.156-0.057,0.329-0.102,0.494-0.102
	c0.453,0.003,0.91,0.019,1.361,0.058c0.469,0.042,0.792,0.41,0.821,0.882c0.013,0.213-0.046,0.41-0.119,0.606
	c-0.439,1.209-0.878,2.417-1.318,3.625c-0.319,0.883-0.64,1.765-0.957,2.651c-0.028,0.08-0.101,0.16-0.035,0.264
	c0.048-0.012,0.094-0.018,0.136-0.031c0.394-0.137,0.787-0.272,1.18-0.409c1.889-0.659,3.779-1.319,5.67-1.974
	c0.094-0.033,0.194-0.075,0.289-0.066c0.347,0.034,0.788,0.399,0.821,0.773c0.024,0.283,0.063,0.565,0.09,0.849
	c0.021,0.229,0.06,0.462,0.046,0.69c-0.022,0.449-0.185,0.789-0.655,0.982c-1.468,0.599-2.921,1.236-4.383,1.855
	c-0.203,0.085-0.345,0.213-0.447,0.408c-0.289,0.538-0.595,1.063-0.877,1.603c-0.113,0.217-0.257,0.311-0.508,0.309
	c-0.84-0.004-1.682,0.015-2.521,0.026c-0.071,0-0.146,0.009-0.275,0.018c0.523,0.718,0.975,1.422,1.363,2.163
	c0.392,0.746,0.723,1.516,0.997,2.312c0.271,0.79,0.468,1.603,0.64,2.477c0.113-0.1,0.187-0.161,0.257-0.227
	c0.554-0.524,1.112-1.046,1.658-1.579c0.182-0.179,0.364-0.223,0.605-0.152c0.531,0.159,1.069,0.297,1.599,0.457
	c0.212,0.064,0.404,0.053,0.607-0.026c0.502-0.194,1.009-0.381,1.513-0.572c1.037-0.392,2.076-0.779,3.11-1.177
	c0.365-0.14,0.696-0.096,1.004,0.127c0.132,0.094,0.259,0.196,0.369,0.315c0.247,0.265,0.484,0.538,0.72,0.815
	c0.267,0.313,0.298,0.722,0.089,1.075c-0.113,0.192-0.275,0.328-0.478,0.421c-0.418,0.195-0.835,0.395-1.255,0.588
	c-1.66,0.777-3.32,1.552-4.981,2.329c-0.063,0.03-0.126,0.068-0.229,0.125c0.12,0.063,0.193,0.104,0.268,0.139
	c2.114,1.024,4.229,2.048,6.347,3.063c0.244,0.117,0.439,0.248,0.49,0.531c0.002,0.01,0.022,0.018,0.035,0.026
	c0,0.169,0,0.339,0,0.509c-0.135,0.194-0.265,0.392-0.407,0.58c-0.192,0.251-0.389,0.5-0.595,0.74
	c-0.398,0.469-0.785,0.561-1.35,0.334c-1.442-0.581-2.887-1.159-4.327-1.745c-0.227-0.091-0.433-0.105-0.67-0.03
	c-0.572,0.181-1.155,0.328-1.728,0.507c-0.236,0.073-0.405,0.03-0.58-0.146c-0.579-0.586-1.172-1.161-1.76-1.739
	c-0.064-0.062-0.134-0.118-0.208-0.184c-0.024,0.045-0.04,0.063-0.045,0.083c-0.016,0.06-0.029,0.121-0.04,0.181
	c-0.241,1.531-0.704,2.995-1.369,4.393c-0.353,0.739-0.762,1.445-1.219,2.123c-0.044,0.063-0.12,0.123-0.091,0.234
	c0.157,0.01,0.309,0.023,0.461,0.027c0.717,0.021,1.434,0.045,2.15,0.054c0.229,0.002,0.375,0.091,0.481,0.288
	c0.264,0.488,0.545,0.966,0.808,1.455c0.11,0.209,0.264,0.346,0.479,0.442c0.887,0.393,1.769,0.797,2.653,1.196
	c0.618,0.28,1.233,0.562,1.853,0.837c0.285,0.127,0.479,0.333,0.563,0.633c0.035,0.133,0.068,0.272,0.066,0.409
	c-0.01,0.446-0.021,0.893-0.061,1.338c-0.036,0.426-0.343,0.741-0.761,0.819c-0.21,0.037-0.412,0.003-0.612-0.071
	c-0.925-0.339-1.853-0.672-2.778-1.009c-1.194-0.433-2.388-0.867-3.583-1.298c-0.089-0.032-0.183-0.052-0.317-0.088
	c0.04,0.127,0.063,0.207,0.091,0.284c0.293,0.844,0.587,1.687,0.881,2.529c0.491,1.41,0.983,2.82,1.473,4.232
	c0.029,0.085,0.065,0.179,0.063,0.268c-0.014,0.349-0.398,0.768-0.745,0.814c-0.375,0.048-0.75,0.094-1.126,0.128
	c-0.198,0.019-0.401,0.027-0.599,0.003c-0.371-0.045-0.645-0.207-0.803-0.591c-0.609-1.473-1.247-2.934-1.866-4.402
	c-0.094-0.218-0.228-0.371-0.437-0.483c-0.538-0.285-1.063-0.592-1.602-0.876c-0.214-0.111-0.292-0.258-0.292-0.496
	c0-0.84-0.017-1.68-0.027-2.52c-0.001-0.074-0.009-0.146-0.018-0.262c-0.108,0.07-0.187,0.115-0.257,0.167
	c-1.956,1.396-4.109,2.322-6.471,2.765c-0.063,0.011-0.122,0.039-0.216,0.07c0.083,0.09,0.138,0.15,0.194,0.211
	c0.53,0.559,1.056,1.124,1.595,1.674c0.186,0.188,0.232,0.377,0.156,0.627c-0.158,0.522-0.293,1.053-0.45,1.575
	c-0.066,0.221-0.055,0.419,0.027,0.629c0.229,0.588,0.449,1.18,0.672,1.771c0.355,0.942,0.707,1.889,1.069,2.83
	c0.147,0.382,0.095,0.726-0.143,1.045c-0.092,0.124-0.19,0.244-0.304,0.35c-0.254,0.235-0.526,0.45-0.775,0.691
	c-0.331,0.321-1.033,0.369-1.418-0.182c-0.073-0.107-0.13-0.229-0.185-0.346c-0.943-2.017-1.886-4.033-2.83-6.048
	c-0.033-0.073-0.076-0.142-0.138-0.256c-0.067,0.13-0.117,0.216-0.158,0.303c-1.006,2.081-2.014,4.161-3.011,6.243
	c-0.142,0.297-0.303,0.534-0.647,0.589C196.626,199.858,196.614,199.873,196.603,199.882z M196.081,172.124
	c-0.004,2.279,1.832,4.125,4.097,4.138c2.189,0.013,4.138-1.736,4.14-4.117c0.005-2.293-1.831-4.132-4.13-4.123
	C197.817,168.029,196.08,169.961,196.081,172.124z M211.857,170.341c-0.085-1.563-1.562-4.882-2.447-5.539
	c-0.208,0.14-2.328,2.274-2.417,2.44c0.029,0.046,0.06,0.099,0.094,0.15c0.571,0.833,0.983,1.739,1.228,2.72
	c0.062,0.247,0.063,0.249,0.325,0.249c0.986,0.001,1.972,0.001,2.957,0C211.679,170.36,211.762,170.348,211.857,170.341z
	 M198.864,180.404c-1.132-0.189-2.196-0.598-3.177-1.213c-0.069,0.064-0.122,0.108-0.171,0.157
	c-0.753,0.761-1.506,1.521-2.259,2.283c-0.005,0.004-0.004,0.015-0.004,0.021c0,0.009,0.002,0.016,0.006,0.051
	c1.667,1.204,3.532,1.937,5.588,2.175C198.923,183.676,198.934,180.675,198.864,180.404z M202.02,183.787
	c1.291,0.036,4.925-1.577,5.508-2.423c-0.809-0.807-1.614-1.61-2.441-2.434c-0.915,0.663-1.957,1.122-3.072,1.381
	C201.963,180.591,201.969,183.585,202.02,183.787z M209.729,179.125c1.235-1.708,1.969-3.577,2.211-5.664
	c-0.101-0.013-0.167-0.028-0.234-0.028c-1.009-0.001-2.019-0.002-3.027,0c-0.205,0.001-0.209,0.01-0.249,0.22
	c-0.187,0.995-0.537,1.925-1.058,2.793c-0.126,0.211-0.126,0.213,0.045,0.384c0.708,0.709,1.416,1.418,2.126,2.126
	C209.594,179.009,209.651,179.056,209.729,179.125z M188.559,173.961c-0.105,1.138,1.549,4.886,2.435,5.52
	c0.232-0.169,2.33-2.286,2.421-2.45c-0.677-0.93-1.127-1.975-1.39-3.085C191.659,173.896,188.722,173.912,188.559,173.961z
	 M207.158,162.597c-1.11-0.821-2.327-1.416-3.646-1.799c-0.647-0.189-1.304-0.339-1.998-0.385c-0.008,0.095-0.019,0.164-0.019,0.229
	c-0.001,1.002-0.001,2.003,0,3.005c0,0.221,0.003,0.222,0.227,0.264c1,0.191,1.939,0.544,2.813,1.073
	c0.058,0.035,0.119,0.063,0.148,0.079C205.513,164.235,206.325,163.427,207.158,162.597z M192.839,162.898
	c0.171,0.246,2.303,2.363,2.456,2.448c0.02-0.009,0.042-0.016,0.061-0.028c0.884-0.625,1.852-1.065,2.905-1.314
	c0.141-0.033,0.16-0.116,0.16-0.234c-0.002-1.033,0-2.064-0.002-3.096c0-0.063-0.019-0.126-0.03-0.211
	C196.31,160.794,194.479,161.605,192.839,162.898z M193.145,167.643c-0.263-0.341-2.326-2.374-2.498-2.458
	c-1.215,1.683-1.949,3.552-2.184,5.615c0.222,0.062,3.26,0.063,3.474,0.003C192.129,169.678,192.524,168.619,193.145,167.643z"/>
</svg>
