<svg id="svg3059" xmlns="http://www.w3.org/2000/svg" xmlns:xlink="http://www.w3.org/1999/xlink" viewBox="0 0 90 40.17">
  <defs>
    <style>.cls-1{fill:#141414;}.cls-2{fill:#f208ff;}.cls-3{fill:#7A00FE}</style>
  </defs>
  <path id="less-bg" class="cls-1" d="M85.15,32.28a7.67,7.67,0,0,1-7.65,7.65H13.16A7.68,7.68,0,0,1,5.5,32.28V7.9A7.68,7.68,0,0,1,13.16.25H77.5A7.67,7.67,0,0,1,85.15,7.9Z" transform="translate(0 0)"/>
  <path id="less-s2" class="cls-3" d="M71.69,23.57q5.06,1.77,5,6a5.4,5.4,0,0,1-2.09,4.47,9.33,9.33,0,0,1-6,1.79,14.57,14.57,0,0,1-7.17-2A6.42,6.42,0,0,1,62,31.75a6,6,0,0,1,1.12-1.84,11.84,11.84,0,0,0,5.27,1.58,3.05,3.05,0,0,0,1.63-.36,1.07,1.07,0,0,0,.57-.95c0-.76-.58-1.32-1.74-1.69L66.8,27.7Q62.06,26,62.06,22.06a5.58,5.58,0,0,1,2-4.52,8.26,8.26,0,0,1,5.37-2.07,16.35,16.35,0,0,1,3.67.46,15.06,15.06,0,0,1,3.3,1.51A5.26,5.26,0,0,1,76,19.75a3.86,3.86,0,0,1-1.21,1.79,13.63,13.63,0,0,0-5.31-1.43,1.73,1.73,0,0,0-1.16.34,1.09,1.09,0,0,0-.39.86c0,.6.48,1.08,1.44,1.43l2.35.83Z" transform="translate(0 0)"/>
  <path id="less-s1" class="cls-3" d="M54.9,23.57q5,1.77,5,6a5.4,5.4,0,0,1-2.09,4.47,9.33,9.33,0,0,1-6,1.79,14.51,14.51,0,0,1-7.16-2,6.19,6.19,0,0,1,.51-2.14,6,6,0,0,1,1.11-1.84,11.88,11.88,0,0,0,5.28,1.58,3.08,3.08,0,0,0,1.63-.36,1.09,1.09,0,0,0,.57-.95c0-.76-.59-1.32-1.75-1.69L50,27.7Q45.26,26,45.26,22.06a5.59,5.59,0,0,1,2-4.52,8.21,8.21,0,0,1,5.36-2.07,16.43,16.43,0,0,1,3.68.46,15,15,0,0,1,3.29,1.51,5.24,5.24,0,0,1-.41,2.31A3.86,3.86,0,0,1,58,21.54a13.63,13.63,0,0,0-5.31-1.43,1.7,1.7,0,0,0-1.15.34,1.07,1.07,0,0,0-.4.86c0,.6.48,1.08,1.44,1.43l2.36.83Z" transform="translate(0 0)"/>
  <path id="less-e" class="cls-3" d="M42.65,23.83a8.94,8.94,0,0,0-.55-3.19,7.27,7.27,0,0,0-1.57-2.51A7.5,7.5,0,0,0,38,16.47a8.68,8.68,0,0,0-3.28-1A8.93,8.93,0,0,0,31,16.62a7.16,7.16,0,0,0-2.65,2.07,8.79,8.79,0,0,0-1.56,3.1,14.06,14.06,0,0,0-.51,3.88,18,18,0,0,0,.42,4,8.37,8.37,0,0,0,1.42,3.19A6.74,6.74,0,0,0,30.73,35a9.35,9.35,0,0,0,4,.88,12.69,12.69,0,0,0,7.43-2.27,6,6,0,0,0-1.55-3.46,19.47,19.47,0,0,1-2.74.84,10.07,10.07,0,0,1-2.09.25,3.26,3.26,0,0,1-2.61-.93,3.77,3.77,0,0,1-.87-2.46h9.86A14.5,14.5,0,0,0,42.65,23.83Zm-10.39.26a7.79,7.79,0,0,1,.7-3.2A2,2,0,0,1,34.75,20a2.12,2.12,0,0,1,1.86.9,5.63,5.63,0,0,1,.62,2.74v.41Z" transform="translate(0 0)"/>
  <g id="less-right-brackjet-group">
    <path id="less-right-bracket" d="M87.14,22.59a5.16,5.16,0,0,0-1.7,4.05V33.2a5.81,5.81,0,0,1-2.18,5A9,9,0,0,1,78,39.93H76.78V36.65a4,4,0,0,0,1.9-1.06A4.38,4.38,0,0,0,80,32.24v-5.3a8.22,8.22,0,0,1,.82-4.23A8,8,0,0,1,84.68,20a8.07,8.07,0,0,1-4.23-3.76A9.54,9.54,0,0,1,80,12.54V7.69a4.68,4.68,0,0,0-1.17-3.37,3.66,3.66,0,0,0-2.07-1V.24c1.42,0,2.14,0,3,0A5.36,5.36,0,0,1,83,1.66a6.38,6.38,0,0,1,2.15,3.22,7.48,7.48,0,0,1,.27,2.25v5.61A5.89,5.89,0,0,0,87,17.16a6.68,6.68,0,0,0,2.73,1.53v2.54a6.2,6.2,0,0,0-2.62,1.36Z" transform="translate(0 0)"/>
    <path id="less-right-bracket-outline" class="cls-2" d="M78,40.17H76.54V36.47l.17,0a3.72,3.72,0,0,0,1.8-1,4.17,4.17,0,0,0,1.27-3.17v-5.3a8.22,8.22,0,0,1,.86-4.36A7.63,7.63,0,0,1,84.1,20a8,8,0,0,1-3.87-3.65,9.73,9.73,0,0,1-.45-3.83V7.69a4.33,4.33,0,0,0-1.1-3.2,3.46,3.46,0,0,0-2-.94l-.19,0V0h3.23a5.65,5.65,0,0,1,3.4,1.47A6.68,6.68,0,0,1,85.4,4.81a7.74,7.74,0,0,1,.28,2.32v5.61A5.72,5.72,0,0,0,87.2,17a6.56,6.56,0,0,0,2.64,1.48l.16.05v2.89l-.18.05a6.11,6.11,0,0,0-2.52,1.31,4.9,4.9,0,0,0-1.61,3.87V33.2a6,6,0,0,1-2.28,5.17A9.23,9.23,0,0,1,78,40.17Zm-1-.49h1A8.62,8.62,0,0,0,83.11,38,5.54,5.54,0,0,0,85.2,33.2V26.64A5.34,5.34,0,0,1,87,22.41a6.27,6.27,0,0,1,2.54-1.36V18.86a6.86,6.86,0,0,1-2.66-1.53,6.19,6.19,0,0,1-1.66-4.59V7.13A7.33,7.33,0,0,0,84.94,5a6.23,6.23,0,0,0-2.07-3.1A5.15,5.15,0,0,0,79.77.49H77V3.12a3.74,3.74,0,0,1,2,1,4.82,4.82,0,0,1,1.24,3.54v4.85a9.39,9.39,0,0,0,.41,3.63,7.89,7.89,0,0,0,4.11,3.65l.51.23-.52.21A7.85,7.85,0,0,0,81,22.85a7.9,7.9,0,0,0-.78,4.1v5.29a4.68,4.68,0,0,1-1.42,3.53A4.09,4.09,0,0,1,77,36.83v2.85Z" transform="translate(0 0)"/>
  </g>
  <g id="less-left-bracket-group">
    <path id="left-bracket-outline" class="cls-2" d="M12.43,40.18h0A9.31,9.31,0,0,1,7,38.37c-1.47-1.11-2.13-2.7-2.13-5.17V26.64a5,5,0,0,0-1.76-3.86A7.75,7.75,0,0,0,.18,21.46l-.18,0v-2.9l.16-.05A8.69,8.69,0,0,0,3.21,17a5.67,5.67,0,0,0,1.66-4.25V6.81a9.81,9.81,0,0,1,.13-2A5.62,5.62,0,0,1,7.24,1.47,5.67,5.67,0,0,1,10.63,0H15V3.7H13.43a3.94,3.94,0,0,0-1.7.8,4.5,4.5,0,0,0-1,3.2v4.85a9.32,9.32,0,0,1-.6,3.83A8.08,8.08,0,0,1,6.31,20a7.68,7.68,0,0,1,3.46,2.56,8.3,8.3,0,0,1,1,4.36v5.3a4.12,4.12,0,0,0,1.11,3.17,4.5,4.5,0,0,0,2,1l.17,0v3.69ZM.48,21.05a8,8,0,0,1,3,1.36,5.49,5.49,0,0,1,1.93,4.23V33.2C5.36,35.5,6,37,7.29,38a8.6,8.6,0,0,0,5.15,1.71h1.1V36.83a4.76,4.76,0,0,1-2-1.07,4.51,4.51,0,0,1-1.26-3.52v-5.3a7.79,7.79,0,0,0-.94-4.09,7.8,7.8,0,0,0-3.73-2.59l-.52-.21.51-.23a8,8,0,0,0,4.12-3.65,8.88,8.88,0,0,0,.56-3.62V7.69a4.9,4.9,0,0,1,1.09-3.54,4.26,4.26,0,0,1,1.94-.93h1.19V.49H10.63A5.1,5.1,0,0,0,7.54,1.85,5.17,5.17,0,0,0,5.47,4.94a10.22,10.22,0,0,0-.12,1.87v5.94a6.12,6.12,0,0,1-1.81,4.59A8.41,8.41,0,0,1,.48,18.87v2.18Z" transform="translate(0 0)"/>
    <path id="left-bracket" d="M11.73.25H10.66A5.34,5.34,0,0,0,7.39,1.66,5.47,5.47,0,0,0,5.24,4.89a10.88,10.88,0,0,0-.12,2.24v5.61a6,6,0,0,1-1.74,4.43A9.33,9.33,0,0,1,.24,18.69v2.54a8.38,8.38,0,0,1,3,1.36,5.26,5.26,0,0,1,1.84,4.05V33.2c0,2.18.52,3.84,2,5a8.94,8.94,0,0,0,5.28,1.75h1.35V36.65a4.64,4.64,0,0,1-2-1.06,4.33,4.33,0,0,1-1.19-3.35v-5.3a8,8,0,0,0-1-4.23A8,8,0,0,0,5.72,20,8.11,8.11,0,0,0,10,16.27a9.2,9.2,0,0,0,.58-3.73V7.69a4.64,4.64,0,0,1,1-3.37,4.15,4.15,0,0,1,1.83-.87h1.37V.25Z" transform="translate(0 0)"/>
  </g>
  <path id="less-l" class="cls-3" d="M24.34,30.85h-1c-1.11,0-1.53-.58-1.53-1.76V7.48a4,4,0,0,0-.85-2.73c-.48-.53-1.32-.52-2.51-.52H15.84V30.14a6,6,0,0,0,1.12,4,4.6,4.6,0,0,0,3.66,1.26A25.34,25.34,0,0,0,24.68,35a7.51,7.51,0,0,0,.11-1.62,7.39,7.39,0,0,0-.45-2.51Z" transform="translate(0 0)"/>
</svg>