<svg id="svg3030" xmlns="http://www.w3.org/2000/svg" viewBox="0 0 443.6 249.88">
  <defs>
    <style>.cls-1{fill:#404137;}.cls-1,.cls-2{fill-rule:evenodd;}.cls-2{fill:#00ff00;}</style>
  </defs>
  <path id="D" class="cls-1" d="M323.27,13.4,299.73.24A2.34,2.34,0,0,0,298.54,0a2.38,2.38,0,0,0-2.38,2.38V63a1.61,1.61,0,0,1-.79,1.43,1.66,1.66,0,0,1-1.67,0l-9.91-5.71a4.74,4.74,0,0,0-4.75,0L239.48,81.57a4.87,4.87,0,0,0-2.38,4.2v45.66a4.73,4.73,0,0,0,2.38,4.12L279,158.38a4.7,4.7,0,0,0,4.75,0l39.56-22.83a4.73,4.73,0,0,0,2.38-4.12V17.6A4.83,4.83,0,0,0,323.27,13.4Zm-27.19,103a1.2,1.2,0,0,1-.64,1l-13.55,7.85a1.2,1.2,0,0,1-1.19,0l-13.56-7.85a1.23,1.23,0,0,1-.63-1v-15.7a1.26,1.26,0,0,1,.63-1L280.7,91.8a1,1,0,0,1,.56-.16,1.31,1.31,0,0,1,.63.16l13.55,7.84a1.25,1.25,0,0,1,.64,1Z"/>
  <path id="N" class="cls-1" d="M44.07,57a4.51,4.51,0,0,0-2.14.55L2.38,80.38A4.73,4.73,0,0,0,0,84.5l.08,61.28a2.34,2.34,0,0,0,1.19,2.06,2.31,2.31,0,0,0,2.38,0l23.46-13.47a4.85,4.85,0,0,0,2.46-4.13V101.63A4.75,4.75,0,0,1,32,97.5l10-5.78a4.72,4.72,0,0,1,2.38-.64,4.67,4.67,0,0,1,2.38.64l10,5.78a4.75,4.75,0,0,1,2.38,4.13v28.61a4.87,4.87,0,0,0,2.45,4.13L85,147.84a2.31,2.31,0,0,0,2.38,0,2.39,2.39,0,0,0,1.19-2.06l.08-61.28a4.73,4.73,0,0,0-2.38-4.12L46.69,57.55A4.46,4.46,0,0,0,44.55,57Z"/>
  <path id="E" class="cls-1" d="M399.53,57.55a4.7,4.7,0,0,0-2.38.64L357.59,81a4.74,4.74,0,0,0-2.37,4.12V130.8a4.77,4.77,0,0,0,2.45,4.12l39.24,22.35a4.76,4.76,0,0,0,4.68.08l23.78-13.24a2.34,2.34,0,0,0,.08-4.12l-39.79-22.83a2.54,2.54,0,0,1-1.27-2.14V100.75a2.46,2.46,0,0,1,1.27-2.06L398,91.56a2.36,2.36,0,0,1,2.38,0l12.37,7.13a2.38,2.38,0,0,1,1.19,2.06V112a2.37,2.37,0,0,0,3.56,2.06l23.7-13.79a4.75,4.75,0,0,0,2.38-4.12v-11A4.77,4.77,0,0,0,441.22,81L401.91,58.18a4.82,4.82,0,0,0-2.38-.63Z"/>
  <path id="O" class="cls-2" d="M162.9,57.31a4.72,4.72,0,0,0-2.38.64L121,80.7a4.86,4.86,0,0,0-2.38,4.2v45.66a4.73,4.73,0,0,0,2.38,4.12l39.55,22.83a4.71,4.71,0,0,0,4.76,0l39.56-22.83a4.75,4.75,0,0,0,2.38-4.12V84.9a4.86,4.86,0,0,0-2.38-4.2L165.28,58A4.7,4.7,0,0,0,162.9,57.31Z"/>
  <g id="JS">
    <path class="cls-2" d="M221.4,148.17a7.88,7.88,0,0,0-3.88,1l-37.34,21.56a7.9,7.9,0,0,0-3.88,6.82v43.05a7.87,7.87,0,0,0,3.88,6.81l9.75,5.63c4.74,2.34,6.49,2.3,8.64,2.3,7,0,11-4.26,11-11.65V181.15a1.07,1.07,0,0,0-1.11-1h-4.67a1.06,1.06,0,0,0-1.11,1v42.49c0,3.28-3.42,6.57-9,3.8l-10.15-5.94a1.12,1.12,0,0,1-.63-.95V177.5a1.26,1.26,0,0,1,.63-1L220.85,155a1.1,1.1,0,0,1,1.11,0l37.26,21.48a1.27,1.27,0,0,1,.63,1v43.05a1.19,1.19,0,0,1-.55,1L222,243.06a1.15,1.15,0,0,1-1.11,0l-9.59-5.71a1,1,0,0,0-.95,0,24.8,24.8,0,0,1-5.63,2.54c-.61.21-1.54.54.32,1.58l12.52,7.38a7.84,7.84,0,0,0,7.77,0l37.34-21.49a7.88,7.88,0,0,0,3.88-6.81V177.5a7.9,7.9,0,0,0-3.88-6.82l-37.34-21.56a7.86,7.86,0,0,0-3.89-1Z"/>
    <path class="cls-2" d="M231.39,178.93c-10.63,0-17,4.52-17,12,0,8.16,6.28,10.4,16.49,11.41,12.2,1.2,13.16,3,13.16,5.39,0,4.17-3.33,5.95-11.18,5.95-9.87,0-12-2.46-12.76-7.37a1.08,1.08,0,0,0-1-1h-4.84a1.13,1.13,0,0,0-1.11,1.11c0,6.28,3.42,13.71,19.74,13.71,11.81,0,18.63-4.64,18.63-12.76s-5.51-10.22-17-11.74-12.68-2.28-12.68-5c0-2.24.94-5.23,9.51-5.23,7.66,0,10.5,1.65,11.66,6.82a1.09,1.09,0,0,0,1,.87h4.83a1.13,1.13,0,0,0,.79-.4A1,1,0,0,0,250,192c-.75-8.9-6.68-13.08-18.63-13.08Z"/>
  </g>
  <path id="insideE" class="cls-2" d="M399.45,98.06a1,1,0,0,0-.48.08l-7.61,4.44a.92.92,0,0,0-.47.79v8.72a.92.92,0,0,0,.47.79l7.61,4.36a.82.82,0,0,0,.88,0l7.61-4.36a.92.92,0,0,0,.47-.79v-8.72a.92.92,0,0,0-.47-.79l-7.61-4.44A.63.63,0,0,0,399.45,98.06Z"/>
</svg>