<?xml version="1.0" encoding="utf-8"?>
<!-- Generator: Adobe Illustrator 16.0.0, SVG Export Plug-In . SVG Version: 6.00 Build 0)  -->
<!DOCTYPE svg PUBLIC "-//W3C//DTD SVG 1.1//EN" "http://www.w3.org/Graphics/SVG/1.1/DTD/svg11.dtd">
<svg version="1.1" id="Layer_1" xmlns="http://www.w3.org/2000/svg" xmlns:xlink="http://www.w3.org/1999/xlink" x="0px" y="0px"
	 width="90px" height="55.12px" viewBox="249.913 153.06 90 55.12" enable-background="new 249.913 153.06 90 55.12"
	 xml:space="preserve">
<path fill="#689F63" d="M294.397,208.18c-0.297,0-0.592-0.077-0.853-0.228l-2.713-1.606c-0.405-0.227-0.208-0.307-0.074-0.353
	c0.54-0.189,0.65-0.232,1.227-0.56c0.061-0.035,0.14-0.022,0.202,0.014l2.084,1.237c0.075,0.041,0.182,0.041,0.252,0l8.127-4.691
	c0.075-0.043,0.124-0.13,0.124-0.22v-9.379c0-0.094-0.049-0.177-0.125-0.224l-8.125-4.688c-0.075-0.044-0.175-0.044-0.25,0
	l-8.123,4.688c-0.079,0.044-0.129,0.132-0.129,0.222v9.379c0,0.089,0.049,0.175,0.126,0.218l2.226,1.285
	c1.208,0.604,1.947-0.107,1.947-0.823v-9.257c0-0.133,0.104-0.234,0.236-0.234h1.029c0.128,0,0.234,0.102,0.234,0.234v9.261
	c0,1.611-0.879,2.537-2.407,2.537c-0.47,0-0.84,0-1.874-0.509l-2.132-1.229c-0.527-0.306-0.853-0.875-0.853-1.483v-9.379
	c0-0.61,0.325-1.181,0.853-1.481l8.136-4.693c0.515-0.291,1.198-0.291,1.709,0l8.126,4.695c0.525,0.303,0.853,0.871,0.853,1.481
	v9.379c0,0.608-0.327,1.176-0.853,1.481l-8.126,4.693c-0.26,0.15-0.555,0.228-0.856,0.228"/>
<path fill="#689F63" d="M296.908,201.718c-3.557,0-4.302-1.633-4.302-3.002c0-0.13,0.105-0.234,0.235-0.234h1.05
	c0.116,0,0.213,0.085,0.232,0.199c0.159,1.069,0.631,1.609,2.781,1.609c1.713,0,2.441-0.387,2.441-1.296
	c0-0.522-0.208-0.911-2.869-1.171c-2.226-0.221-3.601-0.711-3.601-2.491c0-1.64,1.383-2.616,3.7-2.616
	c2.603,0,3.893,0.903,4.056,2.845c0.006,0.067-0.019,0.132-0.063,0.181c-0.045,0.047-0.107,0.075-0.173,0.075h-1.056
	c-0.11,0-0.206-0.077-0.229-0.183c-0.254-1.125-0.868-1.485-2.539-1.485c-1.869,0-2.087,0.651-2.087,1.14
	c0,0.592,0.256,0.765,2.778,1.099c2.499,0.331,3.686,0.799,3.686,2.555c0,1.771-1.478,2.785-4.053,2.785 M306.795,191.78h0.272
	c0.224,0,0.267-0.156,0.267-0.248c0-0.24-0.165-0.24-0.256-0.24h-0.281L306.795,191.78z M306.464,191.011h0.604
	c0.208,0,0.614,0,0.614,0.464c0,0.324-0.207,0.391-0.331,0.432c0.242,0.017,0.258,0.175,0.291,0.399
	c0.016,0.14,0.043,0.382,0.091,0.463h-0.372c-0.01-0.081-0.067-0.528-0.067-0.553c-0.024-0.1-0.059-0.148-0.183-0.148h-0.308v0.704
	h-0.339V191.011z M305.738,191.886c0,0.729,0.588,1.318,1.31,1.318c0.729,0,1.316-0.602,1.316-1.318c0-0.73-0.596-1.31-1.318-1.31
	c-0.712,0-1.31,0.571-1.31,1.308 M308.617,191.89c0,0.863-0.706,1.567-1.566,1.567c-0.855,0-1.567-0.696-1.567-1.567
	c0-0.887,0.729-1.566,1.567-1.566c0.844,0,1.563,0.682,1.563,1.566"/>
<path fill="#333333" d="M269.228,171.482c0-0.375-0.198-0.718-0.521-0.904l-8.617-4.958c-0.146-0.085-0.309-0.13-0.474-0.136h-0.089
	c-0.165,0.006-0.328,0.051-0.476,0.136l-8.617,4.958c-0.321,0.187-0.521,0.531-0.521,0.905l0.019,13.354
	c0,0.186,0.096,0.358,0.258,0.45c0.159,0.098,0.358,0.098,0.517,0l5.123-2.934c0.323-0.192,0.521-0.533,0.521-0.903v-6.239
	c0-0.372,0.197-0.716,0.52-0.901l2.181-1.256c0.162-0.094,0.34-0.14,0.521-0.14c0.178,0,0.36,0.046,0.518,0.14l2.18,1.255
	c0.323,0.185,0.521,0.529,0.521,0.901v6.239c0,0.37,0.2,0.712,0.521,0.903l5.12,2.932c0.161,0.096,0.361,0.096,0.521,0
	c0.158-0.092,0.258-0.265,0.258-0.45L269.228,171.482z M309.891,178.435c0,0.093-0.05,0.179-0.131,0.225l-2.959,1.706
	c-0.081,0.046-0.18,0.046-0.26,0l-2.961-1.706c-0.081-0.046-0.13-0.132-0.13-0.225v-3.417c0-0.093,0.049-0.179,0.128-0.226
	l2.958-1.709c0.082-0.047,0.182-0.047,0.263,0l2.96,1.709c0.082,0.047,0.131,0.133,0.131,0.226L309.891,178.435z M310.691,153.125
	c-0.162-0.09-0.358-0.087-0.519,0.005c-0.158,0.094-0.256,0.265-0.256,0.45v13.224c0,0.13-0.069,0.25-0.183,0.315
	c-0.111,0.065-0.251,0.065-0.364,0l-2.158-1.243c-0.321-0.186-0.718-0.186-1.04,0l-8.62,4.975c-0.322,0.185-0.521,0.529-0.521,0.899
	v9.953c0,0.372,0.198,0.714,0.521,0.901l8.62,4.979c0.322,0.185,0.718,0.185,1.041,0l8.62-4.98c0.321-0.188,0.521-0.529,0.521-0.901
	v-24.805c0-0.377-0.205-0.725-0.534-0.909L310.691,153.125z M339.396,174.928c0.32-0.186,0.518-0.529,0.518-0.899v-2.412
	c0-0.371-0.198-0.713-0.519-0.9l-8.565-4.972c-0.323-0.187-0.72-0.187-1.044,0l-8.617,4.974c-0.324,0.188-0.521,0.529-0.521,0.901
	v9.949c0,0.374,0.201,0.72,0.525,0.905l8.563,4.881c0.315,0.181,0.702,0.183,1.021,0.006l5.18-2.879
	c0.163-0.092,0.267-0.265,0.267-0.452c0-0.187-0.1-0.361-0.262-0.453l-8.672-4.977c-0.162-0.092-0.262-0.265-0.262-0.45v-3.121
	c0-0.186,0.098-0.358,0.26-0.451l2.698-1.556c0.16-0.094,0.357-0.094,0.519,0l2.7,1.556c0.16,0.092,0.26,0.265,0.26,0.45v2.454
	c0,0.185,0.1,0.358,0.261,0.452c0.161,0.091,0.36,0.091,0.521-0.002L339.396,174.928z"/>
<path fill="#689F63" d="M330.182,174.462c0.061-0.036,0.138-0.036,0.199,0l1.653,0.954c0.063,0.036,0.101,0.102,0.101,0.173v1.911
	c0,0.071-0.038,0.137-0.101,0.173l-1.653,0.954c-0.062,0.036-0.139,0.036-0.199,0l-1.653-0.954
	c-0.063-0.036-0.102-0.102-0.102-0.173v-1.911c0-0.071,0.036-0.137,0.1-0.173L330.182,174.462z"/>
<g>
	<g>
		<defs>
			<path id="SVGID_1_" d="M282.612,165.793l-8.571,4.948c-0.321,0.185-0.518,0.527-0.518,0.896v9.901
				c0,0.37,0.197,0.712,0.518,0.896l8.572,4.951c0.321,0.185,0.716,0.185,1.036,0l8.571-4.951c0.319-0.185,0.517-0.526,0.517-0.896
				v-9.901c0-0.369-0.197-0.711-0.519-0.896l-8.569-4.948c-0.161-0.092-0.34-0.138-0.519-0.138s-0.358,0.046-0.519,0.138"/>
		</defs>
		<clipPath id="SVGID_2_">
			<use xlink:href="#SVGID_1_"  overflow="visible"/>
		</clipPath>
		<g clip-path="url(#SVGID_2_)">
			<g>
				<defs>
					
						<rect id="SVGID_3_" x="269.68" y="162.545" transform="matrix(0.8979 0.4401 -0.4401 0.8979 106.6319 -106.5885)" width="26.898" height="28.136"/>
				</defs>
				<clipPath id="SVGID_4_">
					<use xlink:href="#SVGID_3_"  overflow="visible"/>
				</clipPath>
				<polygon clip-path="url(#SVGID_4_)" fill="#3E863D" points="301.398,169.9 277.25,158.061 301.398,158.061 				"/>
				<polygon clip-path="url(#SVGID_4_)" fill="#3E863D" points="301.398,179.291 264.859,161.381 264.859,158.061 277.265,158.061 
					301.398,169.893 				"/>
				<polygon clip-path="url(#SVGID_4_)" fill="#3E863D" points="301.398,179.564 264.859,161.654 264.859,161.381 301.398,179.291 
									"/>
				<polygon clip-path="url(#SVGID_4_)" fill="#3F873E" points="301.398,179.838 264.859,161.928 264.859,161.654 301.398,179.564 
									"/>
				<polygon clip-path="url(#SVGID_4_)" fill="#40873F" points="301.398,180.111 264.859,162.197 264.859,161.928 301.398,179.838 
									"/>
				<polygon clip-path="url(#SVGID_4_)" fill="#41883F" points="301.398,180.381 264.859,162.471 264.859,162.197 301.398,180.111 
									"/>
				<polygon clip-path="url(#SVGID_4_)" fill="#428840" points="301.398,180.654 264.859,162.744 264.859,162.471 301.398,180.381 
									"/>
				<polygon clip-path="url(#SVGID_4_)" fill="#438941" points="301.398,180.928 264.859,163.018 264.859,162.744 301.398,180.654 
									"/>
				<polygon clip-path="url(#SVGID_4_)" fill="#448A42" points="301.398,181.197 264.859,163.287 264.859,163.018 301.398,180.928 
									"/>
				<polygon clip-path="url(#SVGID_4_)" fill="#458A43" points="301.398,181.471 264.859,163.561 264.859,163.287 301.398,181.197 
									"/>
				<polygon clip-path="url(#SVGID_4_)" fill="#468B44" points="301.398,181.744 264.859,163.834 264.859,163.561 301.398,181.471 
									"/>
				<polygon clip-path="url(#SVGID_4_)" fill="#478B44" points="301.398,182.018 264.859,164.107 264.859,163.834 301.398,181.744 
									"/>
				<polygon clip-path="url(#SVGID_4_)" fill="#488C45" points="301.398,182.291 264.859,164.377 264.859,164.107 301.398,182.018 
									"/>
				<polygon clip-path="url(#SVGID_4_)" fill="#4A8D46" points="301.398,182.561 264.859,164.65 264.859,164.377 301.398,182.291 
									"/>
				<polygon clip-path="url(#SVGID_4_)" fill="#4B8D47" points="301.398,182.834 264.859,164.924 264.859,164.65 301.398,182.561 
									"/>
				<polygon clip-path="url(#SVGID_4_)" fill="#4C8E48" points="301.398,183.107 264.859,165.197 264.859,164.924 301.398,182.834 
									"/>
				<polygon clip-path="url(#SVGID_4_)" fill="#4D8E48" points="301.398,183.377 264.859,165.471 264.859,165.197 301.398,183.107 
									"/>
				<polygon clip-path="url(#SVGID_4_)" fill="#4E8F49" points="301.398,183.65 264.859,165.74 264.859,165.471 301.398,183.377 
									"/>
				<polygon clip-path="url(#SVGID_4_)" fill="#4F8F4A" points="301.398,183.924 264.859,166.014 264.859,165.74 301.398,183.65 
									"/>
				<polygon clip-path="url(#SVGID_4_)" fill="#50904B" points="301.398,184.197 264.859,166.287 264.859,166.014 301.398,183.924 
									"/>
				<polygon clip-path="url(#SVGID_4_)" fill="#51914C" points="301.398,184.471 264.859,166.557 264.859,166.287 301.398,184.197 
									"/>
				<polygon clip-path="url(#SVGID_4_)" fill="#52914D" points="301.398,184.74 264.859,166.83 264.859,166.557 301.398,184.471 
									"/>
				<polygon clip-path="url(#SVGID_4_)" fill="#53924D" points="301.398,185.014 264.859,167.104 264.859,166.83 301.398,184.74 
									"/>
				<polygon clip-path="url(#SVGID_4_)" fill="#54924E" points="301.398,185.287 264.859,167.377 264.859,167.104 301.398,185.014 
									"/>
				<polygon clip-path="url(#SVGID_4_)" fill="#55934F" points="301.398,185.557 264.859,167.65 264.859,167.377 301.398,185.287 
									"/>
				<polygon clip-path="url(#SVGID_4_)" fill="#55934F" points="301.398,185.92 264.859,168.01 264.859,167.65 301.398,185.561 				
					"/>
				<polygon clip-path="url(#SVGID_4_)" fill="#55944F" points="301.398,186.283 264.859,168.373 264.859,168.01 301.398,185.92 
									"/>
				<polygon clip-path="url(#SVGID_4_)" fill="#55954E" points="301.398,186.643 264.859,168.732 264.859,168.373 301.398,186.283 
									"/>
				<polygon clip-path="url(#SVGID_4_)" fill="#56964E" points="301.398,187.006 264.859,169.096 264.859,168.732 301.398,186.643 
									"/>
				<polygon clip-path="url(#SVGID_4_)" fill="#56974D" points="301.398,187.369 264.859,169.455 264.859,169.096 301.398,187.006 
									"/>
				<polygon clip-path="url(#SVGID_4_)" fill="#56984D" points="301.398,187.729 264.859,169.818 264.859,169.455 301.398,187.369 
									"/>
				<polygon clip-path="url(#SVGID_4_)" fill="#56994D" points="301.398,188.092 264.859,170.182 264.859,169.818 301.398,187.729 
									"/>
				<polygon clip-path="url(#SVGID_4_)" fill="#569A4C" points="301.398,188.451 264.859,170.541 264.859,170.182 301.398,188.092 
									"/>
				<polygon clip-path="url(#SVGID_4_)" fill="#579B4C" points="301.398,188.814 264.859,170.904 264.859,170.541 301.398,188.451 
									"/>
				<polygon clip-path="url(#SVGID_4_)" fill="#579C4B" points="301.398,189.174 264.859,171.264 264.859,170.904 301.398,188.814 
									"/>
				<polygon clip-path="url(#SVGID_4_)" fill="#579D4B" points="301.398,189.537 264.859,171.627 264.859,171.264 301.398,189.174 
									"/>
				<polygon clip-path="url(#SVGID_4_)" fill="#579E4B" points="301.398,189.9 264.859,171.986 264.859,171.627 301.398,189.537 
									"/>
				<polygon clip-path="url(#SVGID_4_)" fill="#579F4A" points="301.398,190.26 264.859,172.35 264.859,171.986 301.398,189.9 				
					"/>
				<polygon clip-path="url(#SVGID_4_)" fill="#58A14A" points="301.398,190.619 264.859,172.713 264.859,172.35 301.398,190.26 
									"/>
				<polygon clip-path="url(#SVGID_4_)" fill="#58A249" points="301.398,190.982 264.859,173.072 264.859,172.713 301.398,190.619 
									"/>
				<polygon clip-path="url(#SVGID_4_)" fill="#58A349" points="301.398,191.346 264.859,173.436 264.859,173.072 301.398,190.982 
									"/>
				<polygon clip-path="url(#SVGID_4_)" fill="#58A449" points="301.398,191.705 264.859,173.795 264.859,173.436 301.398,191.346 
									"/>
				<polygon clip-path="url(#SVGID_4_)" fill="#58A548" points="301.398,192.068 264.859,174.158 264.859,173.795 301.398,191.705 
									"/>
				<polygon clip-path="url(#SVGID_4_)" fill="#59A648" points="301.398,192.432 264.859,174.518 264.859,174.158 301.398,192.068 
									"/>
				<polygon clip-path="url(#SVGID_4_)" fill="#59A747" points="301.398,192.791 264.859,174.881 264.859,174.518 301.398,192.432 
									"/>
				<polygon clip-path="url(#SVGID_4_)" fill="#59A847" points="301.398,193.15 264.859,175.244 264.859,174.881 301.398,192.791 
									"/>
				<polygon clip-path="url(#SVGID_4_)" fill="#59A947" points="301.398,193.514 264.859,175.604 264.859,175.24 301.398,193.15 
									"/>
				<polygon clip-path="url(#SVGID_4_)" fill="#59AA46" points="301.398,193.877 264.859,175.967 264.859,175.604 301.398,193.514 
									"/>
				<polygon clip-path="url(#SVGID_4_)" fill="#5AAB46" points="301.398,194.236 264.859,176.326 264.859,175.967 301.398,193.877 
									"/>
				<polygon clip-path="url(#SVGID_4_)" fill="#5AAC45" points="301.398,194.6 264.859,176.689 264.859,176.326 301.398,194.236 
									"/>
				<polygon clip-path="url(#SVGID_4_)" fill="#5AAD45" points="301.398,194.959 264.859,177.049 264.859,176.689 301.398,194.6 
									"/>
				<polygon clip-path="url(#SVGID_4_)" fill="#5AAD45" points="289.031,195.166 264.859,183.314 264.859,177.049 301.398,194.959 
					301.398,195.166 				"/>
				<polygon clip-path="url(#SVGID_4_)" fill="#5AAD45" points="264.859,183.314 289.031,195.166 264.859,195.166 				"/>
			</g>
		</g>
	</g>
</g>
<g>
	<g>
		<defs>
			<path id="SVGID_5_" d="M273.735,182.167c0.082,0.106,0.185,0.198,0.305,0.268l7.353,4.247l1.225,0.704
				c0.183,0.105,0.392,0.15,0.597,0.136l0.204-0.038l9.04-16.552c-0.069-0.075-0.15-0.138-0.241-0.191l-5.612-3.241l-2.967-1.707
				c-0.084-0.049-0.176-0.083-0.269-0.108L273.735,182.167z"/>
		</defs>
		<clipPath id="SVGID_6_">
			<use xlink:href="#SVGID_5_"  overflow="visible"/>
		</clipPath>
		<g clip-path="url(#SVGID_6_)">
			<defs>
				
					<rect id="SVGID_7_" x="268.748" y="162.59" transform="matrix(-0.5942 -0.8043 0.8043 -0.5942 309.2783 509.2523)" width="28.699" height="28.043"/>
			</defs>
			<clipPath id="SVGID_8_">
				<use xlink:href="#SVGID_7_"  overflow="visible"/>
			</clipPath>
			<polygon clip-path="url(#SVGID_8_)" fill="#3E863D" points="270.828,156.74 300.199,196.486 263.292,196.486 263.292,156.74 			
				"/>
			<polygon clip-path="url(#SVGID_8_)" fill="#3E863D" points="271.019,156.74 300.39,196.486 300.238,196.486 270.871,156.74 			
				"/>
			<polygon clip-path="url(#SVGID_8_)" fill="#3F873E" points="271.171,156.74 300.539,196.486 300.39,196.486 271.019,156.74 			
				"/>
			<polygon clip-path="url(#SVGID_8_)" fill="#40873F" points="271.32,156.74 300.687,196.486 300.539,196.486 271.171,156.74 			
				"/>
			<polygon clip-path="url(#SVGID_8_)" fill="#41883F" points="271.468,156.74 300.835,196.486 300.687,196.486 271.32,156.74 			
				"/>
			<polygon clip-path="url(#SVGID_8_)" fill="#428840" points="271.621,156.74 300.988,196.486 300.835,196.486 271.468,156.74 			
				"/>
			<polygon clip-path="url(#SVGID_8_)" fill="#438941" points="271.769,156.74 301.136,196.486 300.988,196.486 271.621,156.74 			
				"/>
			<polygon clip-path="url(#SVGID_8_)" fill="#448942" points="271.917,156.74 301.289,196.486 301.136,196.486 271.769,156.74 			
				"/>
			<polygon clip-path="url(#SVGID_8_)" fill="#458A42" points="272.07,156.74 301.437,196.486 301.289,196.486 271.917,156.74 			
				"/>
			<polygon clip-path="url(#SVGID_8_)" fill="#468A43" points="272.218,156.74 301.585,196.486 301.437,196.486 272.07,156.74 			
				"/>
			<polygon clip-path="url(#SVGID_8_)" fill="#478B44" points="272.367,156.74 301.734,196.486 301.585,196.486 272.218,156.74 			
				"/>
			<polygon clip-path="url(#SVGID_8_)" fill="#488B45" points="272.519,156.74 301.886,196.486 301.734,196.486 272.367,156.74 			
				"/>
			<polygon clip-path="url(#SVGID_8_)" fill="#498C45" points="272.667,156.74 302.035,196.486 301.886,196.486 272.519,156.74 			
				"/>
			<polygon clip-path="url(#SVGID_8_)" fill="#4A8C46" points="272.816,156.74 302.187,196.486 302.035,196.486 272.667,156.74 			
				"/>
			<polygon clip-path="url(#SVGID_8_)" fill="#4B8D47" points="272.968,156.74 302.335,196.486 302.187,196.486 272.816,156.74 			
				"/>
			<polygon clip-path="url(#SVGID_8_)" fill="#4C8D48" points="273.117,156.74 302.484,196.486 302.335,196.486 272.968,156.74 			
				"/>
			<polygon clip-path="url(#SVGID_8_)" fill="#4D8E48" points="273.265,156.74 302.632,196.486 302.484,196.486 273.117,156.74 			
				"/>
			<polygon clip-path="url(#SVGID_8_)" fill="#4E8E49" points="273.417,156.74 302.785,196.486 302.632,196.486 273.265,156.74 			
				"/>
			<polygon clip-path="url(#SVGID_8_)" fill="#508F4A" points="273.566,156.74 302.902,196.439 302.902,196.486 302.785,196.486 
				273.417,156.74 			"/>
			<polygon clip-path="url(#SVGID_8_)" fill="#51904B" points="273.714,156.74 302.902,196.24 302.902,196.439 273.566,156.74 			
				"/>
			<polygon clip-path="url(#SVGID_8_)" fill="#52904C" points="273.867,156.74 302.902,196.033 302.902,196.24 273.714,156.74 			
				"/>
			<polygon clip-path="url(#SVGID_8_)" fill="#53914C" points="274.015,156.74 302.902,195.834 302.902,196.033 273.867,156.74 			
				"/>
			<polygon clip-path="url(#SVGID_8_)" fill="#54914D" points="274.164,156.74 302.902,195.631 302.902,195.834 274.015,156.74 			
				"/>
			<polygon clip-path="url(#SVGID_8_)" fill="#55924E" points="274.316,156.74 302.902,195.428 302.902,195.631 274.164,156.74 			
				"/>
			<polygon clip-path="url(#SVGID_8_)" fill="#56924F" points="274.464,156.74 302.902,195.225 302.902,195.428 274.316,156.74 			
				"/>
			<polygon clip-path="url(#SVGID_8_)" fill="#57934F" points="274.613,156.74 302.902,195.025 302.902,195.225 274.464,156.74 			
				"/>
			<polygon clip-path="url(#SVGID_8_)" fill="#589350" points="274.765,156.74 302.902,194.822 302.902,195.025 274.613,156.74 			
				"/>
			<polygon clip-path="url(#SVGID_8_)" fill="#599451" points="274.914,156.74 302.902,194.619 302.902,194.822 274.765,156.74 			
				"/>
			<polygon clip-path="url(#SVGID_8_)" fill="#5A9452" points="275.062,156.74 302.902,194.416 302.902,194.619 274.914,156.74 			
				"/>
			<polygon clip-path="url(#SVGID_8_)" fill="#5B9552" points="275.214,156.74 302.902,194.213 302.902,194.416 275.062,156.74 			
				"/>
			<polygon clip-path="url(#SVGID_8_)" fill="#5C9553" points="275.363,156.74 302.902,194.01 302.902,194.213 275.214,156.74 			
				"/>
			<polygon clip-path="url(#SVGID_8_)" fill="#5D9654" points="275.511,156.74 302.902,193.807 302.902,194.01 275.363,156.74 			
				"/>
			<polygon clip-path="url(#SVGID_8_)" fill="#5E9655" points="275.664,156.74 302.902,193.604 302.902,193.807 275.511,156.74 			
				"/>
			<polygon clip-path="url(#SVGID_8_)" fill="#5F9755" points="275.812,156.74 302.902,193.4 302.902,193.604 275.664,156.74 			"/>
			<polygon clip-path="url(#SVGID_8_)" fill="#609756" points="275.96,156.74 302.902,193.197 302.902,193.4 275.812,156.74 			"/>
			<polygon clip-path="url(#SVGID_8_)" fill="#619857" points="276.113,156.74 302.902,192.998 302.902,193.197 275.96,156.74 			
				"/>
			<polygon clip-path="url(#SVGID_8_)" fill="#619857" points="276.578,156.74 302.902,192.365 302.902,192.994 276.113,156.74 			
				"/>
			<polygon clip-path="url(#SVGID_8_)" fill="#629958" points="277.046,156.74 302.902,191.736 302.902,192.365 276.578,156.74 			
				"/>
			<polygon clip-path="url(#SVGID_8_)" fill="#639A58" points="277.511,156.74 302.902,191.104 302.902,191.736 277.046,156.74 			
				"/>
			<polygon clip-path="url(#SVGID_8_)" fill="#649B59" points="277.976,156.74 302.902,190.475 302.902,191.104 277.511,156.74 			
				"/>
			<polygon clip-path="url(#SVGID_8_)" fill="#659C5A" points="278.441,156.74 302.902,189.842 302.902,190.475 277.976,156.74 			
				"/>
			<polygon clip-path="url(#SVGID_8_)" fill="#669D5A" points="278.906,156.74 302.902,189.213 302.902,189.842 278.441,156.74 			
				"/>
			<polygon clip-path="url(#SVGID_8_)" fill="#679E5B" points="279.375,156.74 302.902,188.58 302.902,189.213 278.906,156.74 			
				"/>
			<polygon clip-path="url(#SVGID_8_)" fill="#689F5C" points="279.839,156.74 302.902,187.951 302.902,188.58 279.375,156.74 			
				"/>
			<polygon clip-path="url(#SVGID_8_)" fill="#69A05C" points="280.304,156.74 302.902,187.322 302.902,187.951 279.839,156.74 			
				"/>
			<polygon clip-path="url(#SVGID_8_)" fill="#6AA15D" points="280.769,156.74 302.902,186.689 302.902,187.322 280.304,156.74 			
				"/>
			<polygon clip-path="url(#SVGID_8_)" fill="#6CA25E" points="281.238,156.74 302.902,186.061 302.902,186.689 280.769,156.74 			
				"/>
			<polygon clip-path="url(#SVGID_8_)" fill="#6DA35E" points="281.703,156.74 302.902,185.432 302.902,186.061 281.238,156.74 			
				"/>
			<polygon clip-path="url(#SVGID_8_)" fill="#6EA45F" points="282.167,156.74 302.902,184.799 302.902,185.432 281.703,156.74 			
				"/>
			<polygon clip-path="url(#SVGID_8_)" fill="#6FA55F" points="282.632,156.74 302.902,184.17 302.902,184.799 282.167,156.74 			
				"/>
			<polygon clip-path="url(#SVGID_8_)" fill="#70A660" points="283.101,156.74 302.902,183.541 302.902,184.17 282.632,156.74 			
				"/>
			<polygon clip-path="url(#SVGID_8_)" fill="#71A761" points="283.566,156.74 302.902,182.908 302.902,183.541 283.101,156.74 			
				"/>
			<polygon clip-path="url(#SVGID_8_)" fill="#72A861" points="284.031,156.74 302.902,182.279 302.902,182.908 283.566,156.74 			
				"/>
			<polygon clip-path="url(#SVGID_8_)" fill="#73A962" points="284.5,156.74 302.902,181.646 302.902,182.279 284.031,156.74 			"/>
			<polygon clip-path="url(#SVGID_8_)" fill="#74AA63" points="284.964,156.74 302.902,181.018 302.902,181.646 284.5,156.74 			"/>
			<polygon clip-path="url(#SVGID_8_)" fill="#75AB63" points="285.429,156.74 302.902,180.385 302.902,181.018 284.964,156.74 			
				"/>
			<polygon clip-path="url(#SVGID_8_)" fill="#76AC64" points="285.894,156.74 302.902,179.756 302.902,180.385 285.429,156.74 			
				"/>
			<polygon clip-path="url(#SVGID_8_)" fill="#76AC64" points="302.902,179.756 285.894,156.74 302.902,156.74 			"/>
		</g>
	</g>
</g>
<g>
	<g>
		<defs>
			<path id="SVGID_9_" d="M283.027,165.661c-0.144,0.014-0.285,0.059-0.414,0.132l-8.547,4.933l9.216,16.787
				c0.128-0.019,0.254-0.061,0.368-0.127l8.572-4.951c0.264-0.153,0.445-0.413,0.5-0.707l-9.396-16.05l-0.209-0.021l-0.085,0.004"/>
		</defs>
		<clipPath id="SVGID_10_">
			<use xlink:href="#SVGID_9_"  overflow="visible"/>
		</clipPath>
		<g clip-path="url(#SVGID_10_)">
			<g>
				<defs>
					<rect id="SVGID_11_" x="274.065" y="165.657" width="18.653" height="21.857"/>
				</defs>
				<clipPath id="SVGID_12_">
					<use xlink:href="#SVGID_11_"  overflow="visible"/>
				</clipPath>
				<rect x="274.066" y="165.658" clip-path="url(#SVGID_12_)" fill="#6BBF47" width="0.035" height="21.855"/>
				<rect x="274.101" y="165.658" clip-path="url(#SVGID_12_)" fill="#6BBF47" width="2.984" height="21.855"/>
				<rect x="277.085" y="165.658" clip-path="url(#SVGID_12_)" fill="#6BBF47" width="0.156" height="21.855"/>
				<rect x="277.242" y="165.658" clip-path="url(#SVGID_12_)" fill="#6CBF48" width="0.156" height="21.855"/>
				<rect x="277.398" y="165.658" clip-path="url(#SVGID_12_)" fill="#6CBE49" width="0.16" height="21.855"/>
				<rect x="277.558" y="165.658" clip-path="url(#SVGID_12_)" fill="#6DBE4A" width="0.156" height="21.855"/>
				<rect x="277.714" y="165.658" clip-path="url(#SVGID_12_)" fill="#6DBD4B" width="0.16" height="21.855"/>
				<rect x="277.875" y="165.658" clip-path="url(#SVGID_12_)" fill="#6EBD4C" width="0.156" height="21.855"/>
				<rect x="278.031" y="165.658" clip-path="url(#SVGID_12_)" fill="#6EBC4D" width="0.156" height="21.855"/>
				<rect x="278.187" y="165.658" clip-path="url(#SVGID_12_)" fill="#6FBC4E" width="0.16" height="21.855"/>
				<rect x="278.347" y="165.658" clip-path="url(#SVGID_12_)" fill="#6FBB4F" width="0.156" height="21.855"/>
				<rect x="278.503" y="165.658" clip-path="url(#SVGID_12_)" fill="#70BB50" width="0.16" height="21.855"/>
				<rect x="278.664" y="165.658" clip-path="url(#SVGID_12_)" fill="#71BB51" width="0.156" height="21.855"/>
				<rect x="278.82" y="165.658" clip-path="url(#SVGID_12_)" fill="#71BA52" width="0.156" height="21.855"/>
				<rect x="278.976" y="165.658" clip-path="url(#SVGID_12_)" fill="#72BA53" width="0.16" height="21.855"/>
				<rect x="279.136" y="165.658" clip-path="url(#SVGID_12_)" fill="#72B955" width="0.156" height="21.855"/>
				<rect x="279.292" y="165.658" clip-path="url(#SVGID_12_)" fill="#73B956" width="0.16" height="21.855"/>
				<rect x="279.453" y="165.658" clip-path="url(#SVGID_12_)" fill="#73B857" width="0.156" height="21.855"/>
				<rect x="279.609" y="165.658" clip-path="url(#SVGID_12_)" fill="#74B858" width="0.156" height="21.855"/>
				<rect x="279.765" y="165.658" clip-path="url(#SVGID_12_)" fill="#75B859" width="0.16" height="21.855"/>
				<rect x="279.925" y="165.658" clip-path="url(#SVGID_12_)" fill="#75B75A" width="0.156" height="21.855"/>
				<rect x="280.082" y="165.658" clip-path="url(#SVGID_12_)" fill="#76B75B" width="0.16" height="21.855"/>
				<rect x="280.242" y="165.658" clip-path="url(#SVGID_12_)" fill="#76B65C" width="0.156" height="21.855"/>
				<rect x="280.398" y="165.658" clip-path="url(#SVGID_12_)" fill="#77B65D" width="0.156" height="21.855"/>
				<rect x="280.554" y="165.658" clip-path="url(#SVGID_12_)" fill="#77B55E" width="0.16" height="21.855"/>
				<rect x="280.714" y="165.658" clip-path="url(#SVGID_12_)" fill="#78B55F" width="0.156" height="21.855"/>
				<rect x="280.871" y="165.658" clip-path="url(#SVGID_12_)" fill="#78B460" width="0.16" height="21.855"/>
				<rect x="281.031" y="165.658" clip-path="url(#SVGID_12_)" fill="#79B461" width="0.156" height="21.855"/>
				<rect x="281.187" y="165.658" clip-path="url(#SVGID_12_)" fill="#79B461" width="0.211" height="21.855"/>
				<rect x="281.398" y="165.658" clip-path="url(#SVGID_12_)" fill="#78B361" width="0.207" height="21.855"/>
				<rect x="281.605" y="165.658" clip-path="url(#SVGID_12_)" fill="#78B262" width="0.211" height="21.855"/>
				<rect x="281.816" y="165.658" clip-path="url(#SVGID_12_)" fill="#77B162" width="0.211" height="21.855"/>
				<rect x="282.027" y="165.658" clip-path="url(#SVGID_12_)" fill="#77AF63" width="0.207" height="21.855"/>
				<rect x="282.234" y="165.658" clip-path="url(#SVGID_12_)" fill="#76AE63" width="0.211" height="21.855"/>
				<rect x="282.445" y="165.658" clip-path="url(#SVGID_12_)" fill="#76AD64" width="0.211" height="21.855"/>
				<rect x="282.656" y="165.658" clip-path="url(#SVGID_12_)" fill="#75AC64" width="0.211" height="21.855"/>
				<rect x="282.867" y="165.658" clip-path="url(#SVGID_12_)" fill="#75AC64" width="0.266" height="21.855"/>
				<rect x="283.132" y="165.658" clip-path="url(#SVGID_12_)" fill="#74AB63" width="0.27" height="21.855"/>
				<rect x="283.402" y="165.658" clip-path="url(#SVGID_12_)" fill="#73AA63" width="0.266" height="21.855"/>
				<rect x="283.667" y="165.658" clip-path="url(#SVGID_12_)" fill="#72A962" width="0.27" height="21.855"/>
				<rect x="283.937" y="165.658" clip-path="url(#SVGID_12_)" fill="#71A861" width="0.27" height="21.855"/>
				<rect x="284.207" y="165.658" clip-path="url(#SVGID_12_)" fill="#70A761" width="0.266" height="21.855"/>
				<rect x="284.472" y="165.658" clip-path="url(#SVGID_12_)" fill="#6FA660" width="0.27" height="21.855"/>
				<rect x="284.742" y="165.658" clip-path="url(#SVGID_12_)" fill="#6EA55F" width="0.266" height="21.855"/>
				<rect x="285.007" y="165.658" clip-path="url(#SVGID_12_)" fill="#6CA55F" width="0.27" height="21.855"/>
				<rect x="285.277" y="165.658" clip-path="url(#SVGID_12_)" fill="#6BA45E" width="0.27" height="21.855"/>
				<rect x="285.546" y="165.658" clip-path="url(#SVGID_12_)" fill="#6AA35D" width="0.266" height="21.855"/>
				<rect x="285.812" y="165.658" clip-path="url(#SVGID_12_)" fill="#69A25D" width="0.27" height="21.855"/>
				<rect x="286.082" y="165.658" clip-path="url(#SVGID_12_)" fill="#68A15C" width="0.27" height="21.855"/>
				<rect x="286.351" y="165.658" clip-path="url(#SVGID_12_)" fill="#67A05B" width="0.266" height="21.855"/>
				<rect x="286.617" y="165.658" clip-path="url(#SVGID_12_)" fill="#669F5B" width="0.27" height="21.855"/>
				<rect x="286.886" y="165.658" clip-path="url(#SVGID_12_)" fill="#659E5A" width="0.266" height="21.855"/>
				<rect x="287.152" y="165.658" clip-path="url(#SVGID_12_)" fill="#659E5A" width="0.098" height="21.855"/>
				<rect x="287.25" y="165.658" clip-path="url(#SVGID_12_)" fill="#649D59" width="0.094" height="21.855"/>
				<rect x="287.343" y="165.658" clip-path="url(#SVGID_12_)" fill="#639D58" width="0.098" height="21.855"/>
				<rect x="287.441" y="165.658" clip-path="url(#SVGID_12_)" fill="#629C58" width="0.094" height="21.855"/>
				<rect x="287.535" y="165.658" clip-path="url(#SVGID_12_)" fill="#619B57" width="0.098" height="21.855"/>
				<rect x="287.632" y="165.658" clip-path="url(#SVGID_12_)" fill="#609B56" width="0.094" height="21.855"/>
				<rect x="287.726" y="165.658" clip-path="url(#SVGID_12_)" fill="#5F9A55" width="0.098" height="21.855"/>
				<rect x="287.824" y="165.658" clip-path="url(#SVGID_12_)" fill="#5E9A55" width="0.094" height="21.855"/>
				<rect x="287.917" y="165.658" clip-path="url(#SVGID_12_)" fill="#5D9954" width="0.098" height="21.855"/>
				<rect x="288.015" y="165.658" clip-path="url(#SVGID_12_)" fill="#5C9853" width="0.094" height="21.855"/>
				<rect x="288.109" y="165.658" clip-path="url(#SVGID_12_)" fill="#5B9852" width="0.098" height="21.855"/>
				<rect x="288.207" y="165.658" clip-path="url(#SVGID_12_)" fill="#5A9752" width="0.094" height="21.855"/>
				<rect x="288.3" y="165.658" clip-path="url(#SVGID_12_)" fill="#599651" width="0.098" height="21.855"/>
				<rect x="288.398" y="165.658" clip-path="url(#SVGID_12_)" fill="#589650" width="0.094" height="21.855"/>
				<rect x="288.492" y="165.658" clip-path="url(#SVGID_12_)" fill="#57954F" width="0.094" height="21.855"/>
				<rect x="288.585" y="165.658" clip-path="url(#SVGID_12_)" fill="#56954F" width="0.098" height="21.855"/>
				<rect x="288.683" y="165.658" clip-path="url(#SVGID_12_)" fill="#55944E" width="0.098" height="21.855"/>
				<rect x="288.781" y="165.658" clip-path="url(#SVGID_12_)" fill="#54934D" width="0.094" height="21.855"/>
				<rect x="288.875" y="165.658" clip-path="url(#SVGID_12_)" fill="#53934C" width="0.094" height="21.855"/>
				<rect x="288.968" y="165.658" clip-path="url(#SVGID_12_)" fill="#52924C" width="0.098" height="21.855"/>
				<rect x="289.066" y="165.658" clip-path="url(#SVGID_12_)" fill="#50914B" width="0.094" height="21.855"/>
				<rect x="289.16" y="165.658" clip-path="url(#SVGID_12_)" fill="#4F914A" width="0.098" height="21.855"/>
				<rect x="289.257" y="165.658" clip-path="url(#SVGID_12_)" fill="#4E9049" width="0.094" height="21.855"/>
				<rect x="289.351" y="165.658" clip-path="url(#SVGID_12_)" fill="#4D8F48" width="0.098" height="21.855"/>
				<rect x="289.449" y="165.658" clip-path="url(#SVGID_12_)" fill="#4C8F48" width="0.094" height="21.855"/>
				<rect x="289.542" y="165.658" clip-path="url(#SVGID_12_)" fill="#4B8E47" width="0.098" height="21.855"/>
				<rect x="289.64" y="165.658" clip-path="url(#SVGID_12_)" fill="#4A8E46" width="0.094" height="21.855"/>
				<rect x="289.734" y="165.658" clip-path="url(#SVGID_12_)" fill="#498D45" width="0.098" height="21.855"/>
				<rect x="289.832" y="165.658" clip-path="url(#SVGID_12_)" fill="#488C45" width="0.094" height="21.855"/>
				<rect x="289.925" y="165.658" clip-path="url(#SVGID_12_)" fill="#478C44" width="0.098" height="21.855"/>
				<rect x="290.023" y="165.658" clip-path="url(#SVGID_12_)" fill="#468B43" width="0.094" height="21.855"/>
				<rect x="290.117" y="165.658" clip-path="url(#SVGID_12_)" fill="#458A42" width="0.098" height="21.855"/>
				<rect x="290.214" y="165.658" clip-path="url(#SVGID_12_)" fill="#448A42" width="0.094" height="21.855"/>
				<rect x="290.308" y="165.658" clip-path="url(#SVGID_12_)" fill="#438941" width="0.098" height="21.855"/>
				<rect x="290.406" y="165.658" clip-path="url(#SVGID_12_)" fill="#428940" width="0.094" height="21.855"/>
				<rect x="290.5" y="165.658" clip-path="url(#SVGID_12_)" fill="#41883F" width="0.098" height="21.855"/>
				<rect x="290.597" y="165.658" clip-path="url(#SVGID_12_)" fill="#40873F" width="0.094" height="21.855"/>
				<rect x="290.691" y="165.658" clip-path="url(#SVGID_12_)" fill="#3F873E" width="0.098" height="21.855"/>
				<rect x="290.789" y="165.658" clip-path="url(#SVGID_12_)" fill="#3E863D" width="0.094" height="21.855"/>
				<rect x="290.882" y="165.658" clip-path="url(#SVGID_12_)" fill="#3E863D" width="1.836" height="21.855"/>
			</g>
		</g>
	</g>
</g>
</svg>
