<?xml version="1.0" encoding="utf-8"?>
<!-- Generator: Adobe Illustrator 16.0.0, SVG Export Plug-In . SVG Version: 6.00 Build 0)  -->
<!DOCTYPE svg PUBLIC "-//W3C//DTD SVG 1.1//EN" "http://www.w3.org/Graphics/SVG/1.1/DTD/svg11.dtd">
<svg version="1.1" id="Layer_1" xmlns="http://www.w3.org/2000/svg" xmlns:xlink="http://www.w3.org/1999/xlink" x="0px" y="0px"
	 width="90px" height="89.64px" viewBox="423 574.599 90 89.64" enable-background="new 423 574.599 90 89.64" xml:space="preserve"
	>
<path d="M484.177,627.557c0.466-3.872,0.326-4.439,3.21-3.813l0.731,0.064c2.218,0.101,5.118-0.356,6.821-1.148
	c3.669-1.702,5.844-4.545,2.227-3.798c-8.251,1.702-8.818-1.091-8.818-1.091c8.713-12.927,12.355-29.337,9.212-33.354
	c-8.574-10.956-23.416-5.775-23.665-5.641l-0.079,0.016c-1.631-0.339-3.454-0.541-5.504-0.574c-3.734-0.062-6.567,0.979-8.716,2.608
	c0,0-26.478-10.908-25.246,13.718c0.262,5.239,7.509,39.642,16.153,29.25c3.159-3.799,6.212-7.012,6.212-7.012
	c1.516,1.007,3.331,1.521,5.235,1.336l0.147-0.125c-0.046,0.472-0.026,0.933,0.06,1.479c-2.227,2.489-1.572,2.926-6.025,3.842
	c-4.504,0.929-1.857,2.581-0.131,3.013c2.095,0.524,6.94,1.268,10.215-3.317l-0.13,0.523c0.874,0.699,0.814,5.022,0.938,8.112
	c0.124,3.089,0.331,5.972,0.961,7.673c0.629,1.699,1.373,6.077,7.224,4.823C480.099,643.094,483.837,641.586,484.177,627.557"/>
<path d="M473.304,647.196c-2.589,0-4.273-1.001-5.298-1.968c-1.545-1.457-2.158-3.335-2.523-4.457l-0.158-0.469
	c-0.737-1.99-0.986-4.855-1.134-8.544c-0.022-0.554-0.038-1.125-0.055-1.73c-0.013-0.442-0.028-0.997-0.05-1.579
	c-0.92,0.44-1.904,0.752-2.941,0.93c-1.825,0.313-3.786,0.211-5.831-0.301c-1.443-0.36-2.942-1.107-3.796-2.263
	c-2.49,2.182-4.866,1.885-6.16,1.454c-2.283-0.762-4.326-2.9-6.247-6.541c-1.368-2.592-2.691-5.97-3.934-10.04
	c-2.163-7.087-3.538-14.551-3.66-17.001c-0.384-7.671,1.68-13.157,6.136-16.304c7.03-4.965,17.679-2.046,21.562-0.72
	c2.608-1.572,5.677-2.338,9.145-2.282c1.863,0.03,3.636,0.194,5.283,0.487c1.718-0.54,5.112-1.315,8.998-1.268
	c7.158,0.085,13.091,2.875,17.153,8.068c2.9,3.705,1.467,11.484,0.354,15.793c-1.564,6.059-4.309,12.504-7.678,18.114
	c0.915,0.007,2.24-0.104,4.125-0.492c3.719-0.768,4.805,1.226,5.1,2.118c1.183,3.581-3.956,6.286-5.56,7.03
	c-2.054,0.954-5.402,1.534-8.145,1.408l-0.12-0.008l-0.721-0.063l-0.071,0.601l-0.068,0.588c-0.184,7.11-1.2,11.612-3.29,14.589
	c-2.19,3.118-5.235,3.993-7.917,4.567C474.889,647.111,474.058,647.196,473.304,647.196L473.304,647.196z M467.857,621.318
	c1.671,1.337,1.817,3.852,1.947,8.553c0.017,0.587,0.032,1.143,0.053,1.661c0.063,1.569,0.211,5.247,0.786,6.801
	c0.082,0.22,0.154,0.443,0.231,0.679c0.642,1.966,0.964,2.95,3.738,2.356c2.33-0.499,3.526-0.947,4.464-2.282
	c1.362-1.94,2.125-5.842,2.265-11.6l2.834,0.069l-2.815-0.338l0.083-0.702c0.27-2.316,0.464-3.991,2.013-5.098
	c1.242-0.888,2.658-0.802,3.786-0.599c-1.239-0.935-1.582-2.034-1.673-2.484l-0.236-1.164l0.663-0.985
	c3.826-5.677,6.981-12.654,8.657-19.143c1.722-6.667,1.196-10.208,0.672-10.877c-6.949-8.88-19.003-5.214-20.261-4.797l-0.213,0.115
	l-1.067,0.199l-0.547-0.113c-1.506-0.313-3.179-0.485-4.973-0.515c-2.818-0.047-5.092,0.619-6.956,2.034l-1.293,0.981l-1.501-0.619
	c-3.206-1.311-12.626-3.947-17.597-0.426c-2.759,1.954-4.016,5.783-3.736,11.381c0.092,1.848,1.349,8.844,3.419,15.63
	c2.863,9.377,5.464,12.492,6.55,12.854c0.189,0.064,0.681-0.318,1.17-0.905c3.183-3.828,6.209-7.019,6.337-7.153l1.641-1.727
	l1.984,1.318c0.8,0.531,1.682,0.832,2.588,0.889l4.732-4.036l-0.686,6.997c-0.015,0.157-0.023,0.371,0.039,0.769l0.206,1.326
	l-0.893,0.999l-0.103,0.115l2.6,1.201L467.857,621.318L467.857,621.318z"/>
<path fill="#336791" d="M497.168,618.862c-8.251,1.702-8.818-1.092-8.818-1.092c8.712-12.927,12.354-29.337,9.211-33.354
	c-8.575-10.956-23.417-5.774-23.665-5.64l-0.08,0.014c-1.631-0.338-3.454-0.54-5.505-0.572c-3.733-0.062-6.566,0.979-8.715,2.608
	c0,0-26.478-10.908-25.247,13.719c0.262,5.239,7.509,39.642,16.153,29.25c3.159-3.799,6.212-7.012,6.212-7.012
	c1.516,1.007,3.331,1.521,5.234,1.336l0.148-0.125c-0.046,0.472-0.025,0.933,0.059,1.479c-2.226,2.489-1.573,2.926-6.024,3.842
	c-4.505,0.929-1.858,2.581-0.13,3.013c2.094,0.524,6.94,1.268,10.214-3.317l-0.131,0.523c0.873,0.699,1.486,4.546,1.383,8.033
	s-0.171,5.881,0.516,7.752c0.688,1.869,1.373,6.077,7.225,4.823c4.89-1.048,7.424-3.764,7.776-8.293
	c0.251-3.22,0.816-2.744,0.853-5.623l0.454-1.363c0.523-4.366,0.083-5.774,3.097-5.119l0.731,0.064
	c2.218,0.102,5.119-0.356,6.822-1.148C498.609,620.958,500.784,618.115,497.168,618.862L497.168,618.862z"/>
<path fill="#FFFFFF" d="M473.599,645.448c-4.878,0.001-6.423-3.862-7.056-5.442c-0.925-2.314-1.125-11.299-0.919-18.667
	c0.015-0.522,0.446-0.936,0.972-0.919c0.521,0.015,0.933,0.449,0.919,0.972c-0.238,8.498,0.1,16.199,0.784,17.912
	c1.069,2.672,2.689,5.009,7.274,4.027c4.352-0.934,5.981-2.583,6.706-6.79c0.558-3.229,1.658-12.415,1.794-14.228
	c0.039-0.521,0.491-0.912,1.013-0.872c0.521,0.039,0.912,0.492,0.873,1.013c-0.142,1.887-1.237,11.055-1.816,14.408
	c-0.857,4.97-3.072,7.224-8.174,8.318C475.103,645.365,474.314,645.448,473.599,645.448L473.599,645.448z M447.149,626.581
	c-0.466,0-0.888-0.085-1.254-0.207c-3.168-1.058-6.187-6.218-8.97-15.339c-2.119-6.944-3.462-14.19-3.58-16.545
	c-0.349-6.982,1.45-11.922,5.345-14.683c7.708-5.461,20.673-0.261,21.222-0.037c0.483,0.198,0.715,0.75,0.517,1.233
	c-0.197,0.482-0.75,0.715-1.232,0.517v0c-0.125-0.051-12.559-5.032-19.417-0.168c-3.331,2.362-4.861,6.75-4.546,13.043
	c0.099,1.984,1.354,9.058,3.5,16.088c2.485,8.142,5.314,13.282,7.76,14.096c0.383,0.129,1.552,0.519,3.223-1.49
	c3.143-3.781,6.031-6.8,6.06-6.83c0.361-0.377,0.96-0.389,1.337-0.028c0.376,0.361,0.39,0.96,0.028,1.337
	c-0.028,0.029-2.872,3.002-5.971,6.73C449.703,626.063,448.295,626.581,447.149,626.581L447.149,626.581z M488.291,618.613
	c-0.183,0-0.366-0.052-0.528-0.161c-0.433-0.292-0.548-0.88-0.256-1.313c8.808-13.069,11.898-28.86,9.251-32.243
	c-3.333-4.258-8.039-6.483-13.987-6.61c-4.405-0.096-7.906,1.029-8.478,1.226l-0.144,0.058c-0.575,0.181-1.017-0.134-1.183-0.503
	c-0.197-0.437-0.036-0.952,0.373-1.2l0.255-0.104l-0.013,0.004l0.014-0.004c0.972-0.355,4.525-1.422,8.929-1.372
	c6.583,0.069,12.02,2.608,15.724,7.34c1.752,2.24,1.756,7.399,0.011,14.155c-1.779,6.888-5.127,14.291-9.184,20.311
	C488.893,618.468,488.595,618.613,488.291,618.613L488.291,618.613z M488.74,624.663c-1.504,0-2.852-0.211-3.659-0.694
	c-0.83-0.497-0.988-1.173-1.009-1.531c-0.227-3.977,1.968-4.668,3.087-4.984c-0.156-0.235-0.378-0.513-0.607-0.799
	c-0.652-0.815-1.546-1.932-2.234-3.602c-0.107-0.261-0.445-0.868-0.837-1.57c-2.121-3.803-6.534-11.717-3.699-15.77
	c1.313-1.875,3.924-2.613,7.773-2.201c-1.132-3.45-6.525-14.242-19.319-14.452c-3.849-0.064-7.005,1.119-9.376,3.513
	c-5.31,5.363-5.117,15.065-5.115,15.162c0.014,0.522-0.399,0.957-0.92,0.97c-0.522,0.016-0.957-0.398-0.97-0.92
	c-0.012-0.431-0.21-10.612,5.661-16.542c2.748-2.775,6.365-4.145,10.75-4.074c8.187,0.135,13.455,4.296,16.435,7.764
	c3.246,3.779,4.838,7.947,4.969,9.338c0.098,1.034-0.645,1.242-0.795,1.272l-0.34,0.008c-3.778-0.604-6.202-0.185-7.204,1.247
	c-2.156,3.082,2.019,10.567,3.801,13.765c0.456,0.815,0.784,1.404,0.934,1.769c0.586,1.42,1.35,2.375,1.963,3.141
	c0.539,0.675,1.008,1.259,1.175,1.945c0.077,0.137,1.18,1.766,7.717,0.416c1.639-0.338,2.62-0.049,2.921,0.859
	c0.591,1.787-2.724,3.871-4.559,4.724C493.636,624.18,491.011,624.663,488.74,624.663L488.74,624.663z M485.958,622.281
	c0.207,0.21,1.244,0.57,3.394,0.479c1.91-0.083,3.925-0.498,5.135-1.059c1.546-0.719,2.577-1.521,3.112-2.069l-0.297,0.055
	c-4.18,0.862-7.136,0.748-8.786-0.342c-0.118-0.078-0.224-0.158-0.32-0.238c-0.179,0.071-0.344,0.117-0.462,0.15
	C486.797,619.52,485.829,619.791,485.958,622.281L485.958,622.281z M458.96,627.563c-1.038,0-2.131-0.141-3.247-0.42
	c-1.156-0.29-3.105-1.16-3.075-2.59c0.033-1.604,2.366-2.085,3.245-2.267c3.173-0.653,3.379-0.915,4.371-2.174
	c0.289-0.367,0.649-0.824,1.139-1.372c0.729-0.814,1.524-1.228,2.366-1.228c0.585,0,1.067,0.199,1.384,0.33
	c1.013,0.419,1.857,1.433,2.204,2.646c0.313,1.096,0.164,2.148-0.42,2.967C465.007,626.144,462.253,627.563,458.96,627.563
	L458.96,627.563z M454.68,624.635c0.285,0.22,0.856,0.515,1.491,0.674c0.967,0.241,1.904,0.364,2.789,0.364
	c2.694,0,4.856-1.116,6.428-3.315c0.327-0.459,0.229-1.041,0.142-1.348c-0.184-0.642-0.64-1.225-1.11-1.421
	c-0.255-0.105-0.466-0.187-0.661-0.187c-0.104,0-0.421,0-0.957,0.598c-0.452,0.505-0.776,0.917-1.063,1.281
	c-1.235,1.568-1.8,2.1-5.475,2.856C455.368,624.323,454.908,624.511,454.68,624.635L454.68,624.635z M461.95,620.273
	c-0.459,0-0.861-0.335-0.934-0.802c-0.024-0.157-0.04-0.315-0.047-0.474c-2.409-0.046-4.732-1.079-6.496-2.92
	c-2.23-2.327-3.245-5.551-2.785-8.845c0.5-3.577,0.313-6.734,0.212-8.431c-0.028-0.472-0.048-0.812-0.046-1.048
	c0.001-0.299,0.008-1.092,2.66-2.437c0.943-0.479,2.835-1.313,4.901-1.527c3.424-0.353,5.68,1.171,6.356,4.294
	c1.823,8.431,0.144,12.161-1.082,14.883c-0.229,0.506-0.444,0.986-0.617,1.449l-0.152,0.41c-0.647,1.736-1.207,3.236-1.035,4.357
	c0.079,0.517-0.275,0.998-0.791,1.078L461.95,620.273L461.95,620.273z M453.752,598.015l0.038,0.675
	c0.104,1.762,0.298,5.042-0.228,8.806c-0.38,2.716,0.45,5.369,2.277,7.275c1.443,1.506,3.345,2.338,5.298,2.338h0.041
	c0.219-0.922,0.582-1.895,0.973-2.943l0.151-0.406c0.195-0.524,0.423-1.031,0.665-1.567c1.18-2.622,2.648-5.886,0.957-13.708
	c-0.335-1.549-1.147-2.446-2.483-2.741C458.697,595.136,454.61,597.199,453.752,598.015L453.752,598.015z M459.458,597.614
	c-0.047,0.334,0.613,1.227,1.472,1.346c0.858,0.12,1.594-0.578,1.64-0.912c0.046-0.335-0.613-0.703-1.473-0.823
	C460.239,597.106,459.504,597.279,459.458,597.614z M461.128,599.29l-0.241-0.017c-0.533-0.074-1.073-0.411-1.441-0.9
	c-0.13-0.171-0.342-0.505-0.3-0.802c0.061-0.437,0.592-0.697,1.422-0.697c0.186,0,0.379,0.014,0.574,0.041
	c0.453,0.063,0.875,0.194,1.186,0.368c0.539,0.301,0.579,0.637,0.555,0.812C462.816,598.573,462.05,599.29,461.128,599.29
	L461.128,599.29z M459.772,597.67c0.027,0.206,0.537,0.887,1.202,0.979l0.154,0.011c0.614,0,1.073-0.483,1.126-0.642
	c-0.057-0.107-0.451-0.376-1.2-0.479c-0.166-0.023-0.33-0.035-0.486-0.035C460.088,597.503,459.832,597.611,459.772,597.67
	L459.772,597.67z M485.611,596.932c0.046,0.335-0.612,1.227-1.473,1.346c-0.859,0.119-1.594-0.577-1.642-0.912
	c-0.045-0.334,0.614-0.703,1.474-0.822C484.83,596.424,485.563,596.599,485.611,596.932z M483.94,598.449
	c-0.827,0-1.54-0.644-1.599-1.061c-0.068-0.501,0.757-0.882,1.607-1c0.187-0.027,0.372-0.04,0.551-0.04
	c0.733,0,1.219,0.216,1.268,0.562c0.032,0.225-0.141,0.572-0.438,0.884c-0.195,0.206-0.607,0.563-1.168,0.64L483.94,598.449
	L483.94,598.449z M484.499,596.664c-0.164,0-0.334,0.013-0.507,0.036c-0.855,0.119-1.363,0.462-1.34,0.646
	c0.029,0.202,0.574,0.789,1.288,0.789l0.176-0.012c0.466-0.066,0.816-0.37,0.983-0.545c0.262-0.276,0.366-0.535,0.354-0.624
	C485.438,596.837,485.123,596.664,484.499,596.664L484.499,596.664z M486.85,616.126c-0.182,0-0.363-0.052-0.525-0.16
	c-0.435-0.291-0.551-0.878-0.26-1.312c2.013-3.007,1.645-6.074,1.288-9.039c-0.152-1.264-0.309-2.57-0.268-3.824
	c0.041-1.29,0.204-2.354,0.363-3.384c0.188-1.219,0.365-2.372,0.291-3.739c-0.028-0.521,0.372-0.966,0.894-0.996
	c0.523-0.028,0.967,0.372,0.995,0.894c0.084,1.563-0.117,2.866-0.312,4.128c-0.149,0.974-0.305,1.98-0.343,3.156
	c-0.036,1.11,0.106,2.29,0.257,3.538c0.379,3.154,0.808,6.729-1.595,10.316C487.453,615.978,487.154,616.126,486.85,616.126
	L486.85,616.126z"/>
<path fill="none" stroke="#FFFFFF" stroke-width="3" stroke-linecap="round" stroke-linejoin="round" d="M431.159,584.249"/>
<path d="M423,647.501c0.804-0.134,1.855-0.249,3.195-0.249c1.645,0,2.85,0.383,3.615,1.071c0.708,0.612,1.129,1.55,1.129,2.698
	c0,1.166-0.345,2.085-0.996,2.754c-0.88,0.938-2.314,1.416-3.94,1.416c-0.498,0-0.957-0.02-1.338-0.115v5.166H423V647.501
	L423,647.501z M424.665,653.718c0.364,0.096,0.823,0.134,1.377,0.134c2.008,0,3.233-0.976,3.233-2.755
	c0-1.702-1.205-2.524-3.042-2.524c-0.727,0-1.282,0.057-1.569,0.134V653.718L424.665,653.718z M441.02,655.535
	c0,3.424-2.373,4.916-4.611,4.916c-2.506,0-4.438-1.836-4.438-4.764c0-3.099,2.027-4.916,4.591-4.916
	C439.222,650.771,441.02,652.704,441.02,655.535z M433.675,655.631c0,2.027,1.167,3.558,2.812,3.558
	c1.606,0,2.811-1.512,2.811-3.597c0-1.568-0.784-3.558-2.773-3.558C434.534,652.034,433.675,653.871,433.675,655.631z
	 M442.913,658.519c0.498,0.325,1.377,0.67,2.219,0.67c1.225,0,1.798-0.612,1.798-1.377c0-0.804-0.478-1.244-1.722-1.703
	c-1.664-0.593-2.448-1.511-2.448-2.62c0-1.492,1.205-2.717,3.194-2.717c0.937,0,1.761,0.268,2.277,0.574l-0.421,1.225
	c-0.363-0.23-1.033-0.536-1.894-0.536c-0.995,0-1.549,0.574-1.549,1.263c0,0.765,0.555,1.109,1.76,1.568
	c1.607,0.612,2.43,1.416,2.43,2.793c0,1.626-1.263,2.773-3.462,2.773c-1.014,0-1.951-0.249-2.602-0.631L442.913,658.519
	L442.913,658.519z M452.746,648.322v2.659h2.409v1.281h-2.409v4.993c0,1.147,0.324,1.798,1.262,1.798
	c0.44,0,0.765-0.058,0.976-0.114l0.077,1.262c-0.325,0.134-0.842,0.229-1.491,0.229c-0.784,0-1.417-0.248-1.818-0.707
	c-0.477-0.498-0.65-1.32-0.65-2.411v-5.05h-1.435v-1.281h1.435v-2.219L452.746,648.322z M464.912,650.982
	c-0.039,0.669-0.077,1.415-0.077,2.544v5.375c0,2.123-0.42,3.424-1.32,4.229c-0.899,0.842-2.2,1.109-3.367,1.109
	c-1.109,0-2.333-0.268-3.08-0.766l0.421-1.281c0.612,0.383,1.568,0.727,2.716,0.727c1.721,0,2.984-0.898,2.984-3.232v-1.033h-0.038
	c-0.517,0.861-1.511,1.55-2.946,1.55c-2.296,0-3.941-1.951-3.941-4.516c0-3.137,2.047-4.916,4.17-4.916
	c1.607,0,2.487,0.842,2.889,1.607h0.038l0.077-1.396H464.912L464.912,650.982z M463.171,654.636c0-0.287-0.019-0.536-0.096-0.765
	c-0.306-0.977-1.128-1.779-2.353-1.779c-1.608,0-2.754,1.358-2.754,3.5c0,1.817,0.918,3.329,2.735,3.329
	c1.033,0,1.97-0.65,2.333-1.722c0.096-0.287,0.135-0.612,0.135-0.899L463.171,654.636L463.171,654.636z M467.513,653.871
	c0-1.091-0.02-2.028-0.077-2.889h1.473l0.057,1.816h0.077c0.421-1.243,1.435-2.027,2.563-2.027c0.19,0,0.324,0.02,0.477,0.058v1.588
	c-0.171-0.038-0.344-0.058-0.572-0.058c-1.187,0-2.028,0.899-2.258,2.161c-0.038,0.23-0.076,0.498-0.076,0.785v4.935h-1.664V653.871
	L467.513,653.871z M474.515,655.917c0.038,2.276,1.491,3.214,3.174,3.214c1.206,0,1.933-0.21,2.563-0.479l0.287,1.205
	c-0.593,0.269-1.606,0.574-3.08,0.574c-2.85,0-4.553-1.875-4.553-4.667c0-2.793,1.646-4.993,4.343-4.993
	c3.022,0,3.825,2.658,3.825,4.361c0,0.344-0.038,0.611-0.057,0.784H474.515L474.515,655.917z M479.449,654.712
	c0.019-1.071-0.44-2.735-2.334-2.735c-1.702,0-2.448,1.568-2.583,2.735H479.449z"/>
<path fill="#336791" d="M482.987,658.213c0.746,0.459,1.837,0.842,2.984,0.842c1.702,0,2.697-0.899,2.697-2.2
	c0-1.205-0.688-1.894-2.43-2.563c-2.104-0.746-3.405-1.836-3.405-3.653c0-2.009,1.665-3.5,4.171-3.5c1.319,0,2.275,0.306,2.85,0.631
	l-0.459,1.358c-0.421-0.229-1.281-0.612-2.448-0.612c-1.76,0-2.43,1.052-2.43,1.932c0,1.205,0.784,1.798,2.563,2.487
	c2.181,0.842,3.29,1.894,3.29,3.787c0,1.989-1.473,3.711-4.515,3.711c-1.243,0-2.602-0.363-3.291-0.822L482.987,658.213
	L482.987,658.213z M503.283,662.134c-1.741-0.459-3.443-0.976-4.936-1.492c-0.268-0.095-0.535-0.19-0.784-0.19
	c-3.061-0.115-5.682-2.372-5.682-6.523c0-4.132,2.525-6.79,6.007-6.79c3.5,0,5.777,2.716,5.777,6.522c0,3.31-1.53,5.433-3.673,6.179
	v0.076c1.282,0.325,2.679,0.632,3.769,0.822L503.283,662.134z M501.905,653.736c0-2.582-1.338-5.241-4.074-5.241
	c-2.812,0-4.189,2.602-4.17,5.395c-0.02,2.735,1.492,5.203,4.094,5.203C500.414,659.093,501.905,656.683,501.905,653.736z
	 M505.826,647.348h1.665v11.496H513v1.396h-7.174V647.348z"/>
</svg>
