<svg id="svg" xmlns="http://www.w3.org/2000/svg" viewBox="0 0 90 85.54">
  <defs>
    <style>.cls-1{fill:#012456;}.cls-1,.cls-2{fill-rule:evenodd;}.cls-2{fill:#fbfbfc;}</style>
  </defs>
  <path id="powershell-bg" class="cls-1" d="M37.09,66.57h-31a16.37,16.37,0,0,1-3.5-.26A2.76,2.76,0,0,1,0,63.15a18.06,18.06,0,0,1,.65-4Q4.57,42.29,8.49,25.41c1.46-6.29,2.88-12.6,4.33-18.89a8.7,8.7,0,0,1,2.49-4.78A7.64,7.64,0,0,1,20.65,0c8.27,0,16.54.08,24.81.09Q65.23.12,85,.09a10,10,0,0,1,3.21.4A2.38,2.38,0,0,1,90,2.66a10.6,10.6,0,0,1-.35,3.55q-2.49,11.28-5,22.55c-1.79,8-3.57,16-5.39,24.06-.67,2.92-1.19,5.87-2.11,8.73a8.14,8.14,0,0,1-1.53,2.91,6.38,6.38,0,0,1-4.33,2,29.48,29.48,0,0,1-3.64.18H37.09ZM33.25,5.11A5.45,5.45,0,0,0,29.72,6.6c-2.16,1.84-2.39,3.77-.69,6,1.08,1.42,2.38,2.65,3.57,4,4.34,4.82,8.73,9.59,13,14.5a1.45,1.45,0,0,1,.07,2.19,3.77,3.77,0,0,1-1,.91c-2.48,1.6-4.78,3.45-7.17,5.19Q29.76,45,22.06,50.69A23.64,23.64,0,0,0,18,54a2.92,2.92,0,0,0-.36,3.68c1.39,2.52,3.47,3.11,6,1.68a11.46,11.46,0,0,0,1.18-.78l5.12-3.77Q43.07,45.12,56.3,35.43c2.82-2.08,3-3.88.6-6.45s-4.52-4.89-6.77-7.36C45.71,16.76,41.3,11.87,36.87,7A5.2,5.2,0,0,0,33.25,5.11ZM49.9,59.28h3.24c1.1,0,2.21.05,3.31,0A15.76,15.76,0,0,0,60.14,59a4.07,4.07,0,0,0,2.75-4.62c-.23-1.85-1.49-2.92-3.57-3-5.54-.09-11.08-.12-16.62,0a11.1,11.1,0,0,0-2.82.19c-1.75.5-2.7,2.32-2.43,4.6a3.32,3.32,0,0,0,3.4,3C43.86,59.39,46.88,59.31,49.9,59.28Z" transform="translate(0 0)"/>
  <path class="cls-2" d="M33.25,5.11A5.16,5.16,0,0,1,36.87,7c4.43,4.86,8.84,9.75,13.26,14.61,2.25,2.47,4.52,4.91,6.78,7.36s2.21,4.38-.61,6.45Q43.09,45.12,29.85,54.79l-5.12,3.77a11.46,11.46,0,0,1-1.18.78c-2.49,1.43-4.57.84-6-1.68A2.92,2.92,0,0,1,18,54a23.64,23.64,0,0,1,4.11-3.29q7.7-5.67,15.42-11.3c2.39-1.74,4.69-3.59,7.17-5.19a3.77,3.77,0,0,0,1-.91,1.45,1.45,0,0,0-.07-2.19c-4.25-4.91-8.64-9.68-13-14.5-1.19-1.32-2.5-2.55-3.57-4-1.7-2.26-1.47-4.19.69-6A5.45,5.45,0,0,1,33.25,5.11Z" transform="translate(0 0)"/>
  <path class="cls-2" d="M49.9,59.28c-3,0-6,.11-9-.05a3.32,3.32,0,0,1-3.4-3c-.27-2.28.68-4.1,2.43-4.6a11.1,11.1,0,0,1,2.82-.19c5.54-.1,11.08-.07,16.62,0,2.08,0,3.34,1.11,3.57,3A4.07,4.07,0,0,1,60.14,59a15.76,15.76,0,0,1-3.69.28c-1.1,0-2.21,0-3.31,0Z" transform="translate(0 0)"/>
  <g id="powershell-letters">
    <path d="M2.26,69.94a19.48,19.48,0,0,1,3.82-.32,5.67,5.67,0,0,1,4,1.27,4.64,4.64,0,0,1,1.35,3.44,5.07,5.07,0,0,1-1.18,3.52A5.61,5.61,0,0,1,6,79.52a7,7,0,0,1-1.22-.09v5.85H2.26Zm2.48,7.25A4.56,4.56,0,0,0,6,77.3a2.69,2.69,0,0,0,3-2.86,2.48,2.48,0,0,0-2.79-2.65,6,6,0,0,0-1.44.14Z" transform="translate(0 0)"/>
    <path d="M21.62,79.56c0,4.13-2.56,6-5.09,6-2.8,0-5-2.19-5-5.79s2.14-6,5.13-6S21.62,76.15,21.62,79.56Zm-7.46.12c0,2.17.93,3.8,2.46,3.8S19,81.89,19,79.63c0-1.75-.7-3.76-2.4-3.76S14.16,77.81,14.16,79.68Z" transform="translate(0 0)"/>
    <path d="M24.21,74.05l1,5.1c.23,1.2.45,2.42.63,3.64h.05c.2-1.22.52-2.47.81-3.62L28,74.05h2l1.24,5c.31,1.32.57,2.54.8,3.76h0c.16-1.22.38-2.44.65-3.76l1.1-5h2.46L33.22,85.28H30.9l-1.18-4.56a36.1,36.1,0,0,1-.75-3.6h0a31.43,31.43,0,0,1-.75,3.6l-1.26,4.56H24.57L21.65,74.05Z" transform="translate(0 0)"/>
    <path d="M38.63,80.46a2.82,2.82,0,0,0,3,2.91,6.71,6.71,0,0,0,2.75-.51l.36,2a8.36,8.36,0,0,1-3.45.69c-3.22,0-5.11-2.23-5.11-5.67,0-3.11,1.67-6,4.84-6s4.27,3,4.27,5.46a8,8,0,0,1-.08,1.2Zm4.35-2c0-1-.38-2.75-2-2.75s-2.2,1.59-2.3,2.75Z" transform="translate(0 0)"/>
    <path d="M46.55,77.67c0-1.52,0-2.61-.08-3.62h2.17l.08,2.14h.08a3,3,0,0,1,2.71-2.39,2.17,2.17,0,0,1,.59.07v2.67a2.9,2.9,0,0,0-.73-.09,2.3,2.3,0,0,0-2.24,2.14,5.74,5.74,0,0,0-.08.88v5.81h-2.5Z" transform="translate(0 0)"/>
    <path d="M52.85,82.68a5.13,5.13,0,0,0,2.55.8c1.09,0,1.58-.5,1.58-1.24s-.41-1.15-1.63-1.64c-1.93-.76-2.74-2-2.72-3.28a3.47,3.47,0,0,1,3.74-3.52,5.28,5.28,0,0,1,2.62.66l-.48,2a4,4,0,0,0-2.1-.64c-.89,0-1.38.48-1.38,1.17s.47,1.06,1.73,1.57c1.79.74,2.62,1.78,2.64,3.44,0,2-1.4,3.5-4,3.5a5.76,5.76,0,0,1-3-.78Z" transform="translate(0 0)"/>
    <path d="M60.65,68.9h2.52v6.7h0a3.51,3.51,0,0,1,1.24-1.3,3.12,3.12,0,0,1,1.71-.5c1.68,0,3.45,1.26,3.45,4.86v6.62h-2.5V79c0-1.64-.53-2.87-1.91-2.87a2.09,2.09,0,0,0-1.93,1.6,2.72,2.72,0,0,0-.1.85v6.71H60.65Z" transform="translate(0 0)"/>
    <path d="M73.24,80.46a2.82,2.82,0,0,0,3.05,2.91A6.66,6.66,0,0,0,79,82.86l.37,2a8.37,8.37,0,0,1-3.46.69c-3.21,0-5.1-2.23-5.1-5.67,0-3.11,1.67-6,4.84-6S80,76.8,80,79.26a8,8,0,0,1-.08,1.2Zm4.35-2c0-1-.39-2.75-2-2.75s-2.2,1.59-2.3,2.75Z" transform="translate(0 0)"/>
    <path d="M81.16,68.9h2.52V85.28H81.16Z" transform="translate(0 0)"/>
    <path d="M85,68.9h2.52V85.28H85Z" transform="translate(0 0)"/>
  </g>
</svg>