<?xml version="1.0" encoding="utf-8"?>
<!-- Generator: Adobe Illustrator 16.0.0, SVG Export Plug-In . SVG Version: 6.00 Build 0)  -->
<!DOCTYPE svg PUBLIC "-//W3C//DTD SVG 1.1//EN" "http://www.w3.org/Graphics/SVG/1.1/DTD/svg11.dtd">
<svg version="1.1" id="Layer_1" xmlns="http://www.w3.org/2000/svg" xmlns:xlink="http://www.w3.org/1999/xlink" x="0px" y="0px"
	 width="90px" height="109.778px" viewBox="423 558.465 90 109.778" enable-background="new 423 558.465 90 109.778"
	 xml:space="preserve">
<g>
	<circle fill="#61DAFB" cx="468" cy="598.603" r="8.222"/>
	<path fill="#61DAFB" d="M468,628.838c6.454,6.277,12.819,9.99,17.947,9.99c1.68,0,3.271-0.354,4.597-1.148
		c4.598-2.652,6.277-9.283,4.686-18.743c-0.265-1.68-0.618-3.359-1.061-5.128c1.769-0.53,3.359-1.061,4.951-1.591
		c8.929-3.448,13.88-8.222,13.88-13.438c0-5.304-4.951-10.079-13.88-13.438c-1.592-0.619-3.183-1.149-4.951-1.591
		c0.442-1.768,0.796-3.448,1.061-5.128c1.503-9.636-0.177-16.355-4.773-19.008c-1.326-0.795-2.918-1.149-4.598-1.149
		c-5.039,0-11.493,3.713-17.947,9.99c-6.365-6.277-12.731-9.99-17.858-9.99c-1.68,0-3.271,0.354-4.598,1.149
		c-4.597,2.652-6.277,9.283-4.686,18.743c0.265,1.68,0.619,3.359,1.061,5.128c-1.768,0.53-3.359,1.061-4.951,1.591
		c-8.929,3.448-13.88,8.222-13.88,13.438c0,5.305,4.951,10.079,13.88,13.438c1.592,0.619,3.183,1.149,4.951,1.592
		c-0.442,1.768-0.796,3.447-1.061,5.128c-1.503,9.459,0.177,16.179,4.686,18.742c1.326,0.796,2.917,1.149,4.598,1.149
		C455.181,638.74,461.546,635.027,468,628.838L468,628.838z M463.049,616.903c1.592,0.088,3.271,0.088,4.951,0.088
		s3.359,0,4.951-0.088c-1.592,2.122-3.271,4.066-4.951,5.923C466.32,620.97,464.641,619.025,463.049,616.903z M452.086,607.797
		c0.884,1.503,1.68,2.918,2.652,4.332c-2.741-0.354-5.305-0.795-7.78-1.326c0.796-2.387,1.68-4.862,2.741-7.338
		C450.407,604.88,451.202,606.382,452.086,607.797L452.086,607.797z M446.958,586.491c2.476-0.531,5.04-0.973,7.78-1.326
		c-0.884,1.415-1.768,2.829-2.652,4.332s-1.68,2.917-2.387,4.42C448.55,591.353,447.666,588.877,446.958,586.491z M451.821,598.603
		c1.149-2.387,2.387-4.774,3.801-7.161c1.326-2.299,2.83-4.597,4.332-6.896c2.652-0.177,5.305-0.265,8.045-0.265
		c2.829,0,5.481,0.088,8.045,0.265c1.592,2.299,3.006,4.597,4.332,6.896c1.415,2.387,2.652,4.774,3.802,7.161
		c-1.149,2.387-2.387,4.774-3.802,7.161c-1.326,2.299-2.829,4.597-4.332,6.896c-2.652,0.177-5.305,0.266-8.045,0.266
		c-2.829,0-5.481-0.089-8.045-0.266c-1.591-2.298-3.006-4.597-4.332-6.896C454.208,603.376,452.971,600.99,451.821,598.603
		L451.821,598.603z M486.389,593.829l-2.387-4.42c-0.884-1.503-1.68-2.917-2.652-4.332c2.741,0.354,5.305,0.795,7.78,1.326
		C488.334,588.877,487.45,591.353,486.389,593.829L486.389,593.829z M486.389,603.376c1.062,2.476,1.945,4.951,2.741,7.338
		c-2.476,0.53-5.039,0.972-7.78,1.326c0.884-1.415,1.769-2.83,2.652-4.333C484.798,606.382,485.594,604.88,486.389,603.376
		L486.389,603.376z M488.423,634.055c-0.708,0.441-1.592,0.618-2.564,0.618c-4.332,0-9.725-3.536-15.029-8.841
		c2.563-2.74,5.039-5.835,7.515-9.282c4.155-0.354,8.134-0.973,11.847-1.856c0.442,1.591,0.707,3.183,0.973,4.773
		C492.4,626.981,491.429,632.375,488.423,634.055z M493.02,587.463c9.902,2.829,15.825,7.161,15.825,11.14
		c0,3.448-4.066,6.896-11.228,9.637c-1.415,0.53-3.006,1.061-4.598,1.503c-1.149-3.625-2.563-7.338-4.332-11.14
		C490.456,594.801,491.959,591.088,493.02,587.463L493.02,587.463z M485.947,562.532c0.973,0,1.768,0.177,2.563,0.619
		c2.918,1.68,3.979,6.984,2.74,14.588c-0.265,1.503-0.618,3.094-0.972,4.774c-3.714-0.796-7.691-1.415-11.847-1.856
		c-2.388-3.448-4.951-6.542-7.516-9.283C476.222,566.157,481.615,562.532,485.947,562.532z M472.951,580.302
		c-1.592-0.088-3.271-0.088-4.951-0.088s-3.359,0-4.951,0.088c1.592-2.122,3.271-4.066,4.951-5.923
		C469.68,576.235,471.359,578.269,472.951,580.302L472.951,580.302z M447.578,563.15c0.707-0.442,1.591-0.619,2.564-0.619
		c4.332,0,9.725,3.537,15.029,8.841c-2.564,2.741-5.039,5.835-7.515,9.283c-4.155,0.354-8.134,0.972-11.847,1.856
		c-0.442-1.591-0.708-3.183-0.973-4.774C443.599,570.223,444.572,564.919,447.578,563.15L447.578,563.15z M442.98,609.742
		c-9.902-2.829-15.825-7.161-15.825-11.14c0-3.448,4.067-6.896,11.228-9.637c1.415-0.53,3.006-1.061,4.597-1.503
		c1.149,3.625,2.563,7.338,4.332,11.14C445.544,602.404,444.041,606.206,442.98,609.742z M444.837,619.467
		c0.265-1.503,0.619-3.094,0.973-4.773c3.713,0.795,7.691,1.414,11.847,1.856c2.387,3.447,4.951,6.542,7.515,9.282
		c-5.305,5.217-10.697,8.841-15.029,8.841c-0.973,0-1.769-0.177-2.564-0.618C444.572,632.375,443.599,626.981,444.837,619.467z
		 M441.124,655.892c1.945-2.388,2.033-5.039,0.972-7.691s-3.271-3.891-6.012-3.979c-3.271-0.089-6.631,0-9.902,0h-0.619v22.897
		h2.652v-8.664h4.155c0.531,0,0.973,0.177,1.238,0.619l5.305,8.222c0.088,0.177,0.354,0.442,0.53,0.442h3.448
		c-2.122-3.271-4.155-6.365-6.277-9.548C438.472,657.925,440.063,657.306,441.124,655.892z M428.216,655.715v-8.753h0.973
		c2.034,0,4.155-0.088,6.188,0.089c2.387,0.088,4.067,1.944,4.067,4.332c0,2.387-1.945,4.243-4.332,4.332
		C432.99,655.803,430.868,655.715,428.216,655.715z M462.43,656.864c-1.415-6.188-7.073-7.78-11.405-5.835
		c-3.359,1.503-4.862,4.42-4.951,8.045c-0.088,2.74,0.707,5.216,2.829,7.072c2.387,2.122,5.304,2.388,8.31,1.857
		c1.68-0.354,3.183-1.149,4.333-2.388c-0.442-0.619-0.884-1.237-1.326-1.769c-2.476,2.122-5.216,2.83-8.222,1.415
		c-1.945-0.973-2.917-3.359-3.094-5.128h13.703v-1.149C462.695,658.19,462.607,657.482,462.43,656.864L462.43,656.864z
		 M449.081,658.278c-0.265-2.652,2.387-5.481,5.305-5.481c3.359-0.088,5.481,1.945,5.569,5.481H449.081z M476.222,650.587
		c-1.326-0.266-2.74-0.354-4.066-0.266c-2.122,0.177-3.979,1.149-5.481,2.741c0.442,0.619,0.796,1.237,1.326,1.944
		c0.177-0.177,0.354-0.354,0.53-0.441c1.415-1.326,3.095-2.033,5.128-1.856c1.592,0.088,3.094,0.618,3.536,2.21
		c0.354,1.237,0.266,2.563,0.354,3.89c-0.265,0-0.354-0.088-0.441-0.177c-2.122-1.768-4.509-2.122-7.073-1.503
		c-2.387,0.619-3.89,2.476-4.066,4.862c-0.177,2.741,1.061,4.774,3.447,5.747c1.503,0.619,3.184,0.619,4.774,0.266
		c1.238-0.266,1.769-0.973,3.536-1.945v1.149h2.476c0-3.536,0.089-7.868,0-11.936C480.2,652.709,478.697,651.117,476.222,650.587
		L476.222,650.587z M477.46,661.727c-0.089,0.265,0,0.53,0,0.795c0,1.857-0.442,2.476-2.21,3.184
		c-1.238,0.441-2.564,0.618-3.891,0.177c-1.503-0.442-2.563-1.769-2.563-3.271c-0.089-1.503,0.884-3.006,2.387-3.448
		c2.033-0.707,3.89-0.265,5.569,0.973C477.283,660.577,477.637,661.02,477.46,661.727z M491.251,652.974
		c2.299-0.707,4.421-0.265,6.013,1.68l0.265,0.177c0.619-0.53,1.149-1.061,1.856-1.68c-0.265-0.265-0.354-0.441-0.53-0.707
		c-2.563-2.74-7.604-3.094-10.697-0.884c-4.332,3.183-4.244,9.371-2.122,12.643c2.033,3.094,4.951,4.155,8.399,3.713
		c2.033-0.266,3.713-1.237,5.039-2.918c-0.619-0.53-1.238-1.061-1.856-1.68c-0.177,0.177-0.266,0.266-0.354,0.442
		c-2.388,2.652-6.366,2.387-8.487-0.442c-1.238-1.68-1.503-3.624-1.149-5.569C487.804,655.538,488.953,653.77,491.251,652.974
		L491.251,652.974z M509.641,664.997c-0.177,0.089-0.266,0.177-0.266,0.177c-0.707,0.531-1.414,0.619-2.21,0.354
		c-0.796-0.354-0.884-1.062-0.973-1.769v-10.078c0-0.178,0,0.177,0.089-0.708h3.359v-2.652h-3.536v-4.42h-2.652v4.774h-2.299
		c-0.177,0-0.442,0.177-0.442,0.354c-0.088,0.618,0,1.061,0,1.944h2.829v11.316c0,1.415,0.354,2.652,1.592,3.359
		c1.326,0.796,3.89,0.619,5.039-0.354c0.177-0.088,0.266-0.441,0.266-0.53C510.171,666.235,509.905,665.616,509.641,664.997z"/>
</g>
</svg>
