<?xml version="1.0" encoding="utf-8"?>
<!-- Generator: Adobe Illustrator 16.0.0, SVG Export Plug-In . SVG Version: 6.00 Build 0)  -->
<!DOCTYPE svg PUBLIC "-//W3C//DTD SVG 1.1//EN" "http://www.w3.org/Graphics/SVG/1.1/DTD/svg11.dtd">
<svg version="1.1" id="Layer_1" xmlns="http://www.w3.org/2000/svg" xmlns:xlink="http://www.w3.org/1999/xlink" x="0px" y="0px"
	width="90px" height="37.451px" viewBox="423 592.574 90 37.451" enable-background="new 423 592.574 90 37.451"
	xml:space="preserve">
<g>
	<path fill="#FFFFFF" d="M513,611.925c0-6.401-3.101-11.45-9.023-11.45c-5.952,0-9.551,5.049-9.551,11.399
		c0,7.527,4.248,11.326,10.352,11.326c2.974,0,5.225-0.674,6.924-1.626v-5c-1.699,0.85-3.652,1.377-6.128,1.377
		c-2.422,0-4.575-0.853-4.849-3.802h12.227C512.951,613.824,513,612.523,513,611.925z M500.651,609.549
		c0-2.825,1.724-4.001,3.301-4.001c1.523,0,3.149,1.177,3.149,4.001H500.651z"/>
	<path fill="#FFFFFF" d="M484.777,600.475c-2.451,0-4.028,1.15-4.902,1.948l-0.327-1.548h-5.498v29.15l6.25-1.328l0.024-7.075
		c0.898,0.649,2.227,1.577,4.424,1.577c4.478,0,8.55-3.599,8.55-11.526C493.273,604.425,489.152,600.475,484.777,600.475z
		M483.273,617.701c-1.475,0-2.349-0.527-2.949-1.177l-0.024-9.275c0.649-0.725,1.548-1.226,2.974-1.226
		c2.275,0,3.853,2.549,3.853,5.825C487.126,615.199,485.573,617.701,483.273,617.701z"/>
	<polygon fill="#FFFFFF" points="465.451,599 471.726,597.65 471.726,592.574 465.451,593.9 	"/>
	<rect x="465.451" y="600.899" fill="#FFFFFF" width="6.274" height="21.875"/>
	<path fill="#FFFFFF" d="M458.725,602.75l-0.4-1.851h-5.4v21.875h6.25v-14.827c1.475-1.924,3.975-1.575,4.751-1.299v-5.75
		C463.125,600.599,460.2,600.05,458.725,602.75z"/>
	<path fill="#FFFFFF" d="M446.225,595.475l-6.101,1.299l-0.024,20.024c0,3.701,2.776,6.426,6.475,6.426
		c2.051,0,3.55-0.376,4.375-0.825v-5.073c-0.798,0.322-4.749,1.475-4.749-2.227v-8.875h4.749v-5.325h-4.749L446.225,595.475z"/>
	<path fill="#FFFFFF" d="M429.326,607.25c0-0.977,0.798-1.35,2.124-1.35c1.899,0,4.299,0.574,6.201,1.599v-5.874
		c-2.075-0.825-4.126-1.15-6.201-1.15c-5.076,0-8.45,2.649-8.45,7.075c0,6.899,9.5,5.798,9.5,8.774c0,1.147-0.999,1.523-2.4,1.523
		c-2.075,0-4.724-0.85-6.824-2v5.95c2.324,1.001,4.675,1.426,6.824,1.426c5.2,0,8.774-2.573,8.774-7.051
		C438.85,608.724,429.326,610.05,429.326,607.25z"/>
</g>
</svg>
