<?xml version="1.0" encoding="utf-8"?>
<!-- Generator: Adobe Illustrator 16.0.0, SVG Export Plug-In . SVG Version: 6.00 Build 0)  -->
<!DOCTYPE svg PUBLIC "-//W3C//DTD SVG 1.1//EN" "http://www.w3.org/Graphics/SVG/1.1/DTD/svg11.dtd">
<svg version="1.1" id="logo" xmlns="http://www.w3.org/2000/svg" xmlns:xlink="http://www.w3.org/1999/xlink" x="0px" y="0px"
	 width="90px" height="22.814px" viewBox="422.531 598.008 90 22.814" enable-background="new 422.531 598.008 90 22.814"
	 xml:space="preserve">
<g>
	<polygon fill="#222222" points="464.165,620.107 469.532,620.107 469.532,598.694 464.165,598.694 	"/>
	<path fill="#222222" d="M482.86,615.598c3.411,0,5.917-2.923,5.917-6.203c0-3.281-2.521-6.176-5.917-6.176
		c-3.411,0-5.931,2.895-5.931,6.176C476.93,612.675,479.449,615.598,482.86,615.598 M482.902,598.008
		c6.432,0,11.61,4.935,11.61,11.345c0,6.438-5.221,11.469-11.666,11.469c-6.446,0-11.667-4.963-11.667-11.386
		C471.18,603.026,476.471,598.008,482.902,598.008 M495.13,613.632l4.925-1.159c0.354,2.573,2.245,3.502,4.231,3.502
		c1.973,0,2.694-1.159,2.694-2.062c0-0.728-0.422-1.441-1.864-1.724l-3.007-0.579c-3.592-0.687-6.136-2.923-6.136-6.358
		c0-4.095,3.769-6.978,8.026-6.978c5.483,0,7.741,3.395,8.137,6.237l-4.83,1.347c-0.259-1.751-1.347-3.018-3.333-3.018
		c-1.715,0-2.531,1.131-2.531,1.994c0,0.714,0.341,1.536,1.619,1.778l3.13,0.593c4.095,0.781,6.34,3.26,6.34,6.479
		c0,3.502-3.048,6.87-8.272,6.87C498.79,620.556,495.852,617.713,495.13,613.632"/>
	<polygon fill="#0A99E0" points="428.308,620.107 422.531,620.107 432.083,598.694 437.887,598.694 	"/>
	<polygon fill="#222222" points="455.666,609.158 462.84,598.681 456.275,598.681 452.406,605.023 448.626,598.681 441.972,598.681 
		449.241,609.158 445.196,615.029 437.91,598.694 432.105,598.694 441.685,620.107 447.88,620.107 452.406,613.319 456.878,620.107 
		463.141,620.107 	"/>
</g>
</svg>
