<svg xmlns="http://www.w3.org/2000/svg" x="0px" y="0px" viewBox="0 0 500 500">
<g id="XMLID_1_">
	<polygon points="174.1,212.6 174.1,287.4 250,287.4 432.5,287.4 432.5,250 432.5,212.6 250,212.6"/>
	<rect x="67.5" y="212.6" fill="#D30A1A" width="106.6" height="74.8"/>
	<path fill="#FFFFFF" d="M152.7,280.4c4.1-0.9,7.8-2.8,10.4-5.5c2.1-2.1,3.7-6,3.8-6.4l-10.8-6.2l-1.4,2.1
		c-1.7,2.5-3.7,4.2-7.3,4.8c-5.8,1-10.5-0.9-12.6-5.2c-2.6-5.3-2.7-21.3-0.1-27c1.8-3.9,5-5.7,10.1-5.7c4.7,0,8.1,1.8,9.8,5.1
		l0.9,1.8l1.7-1c2.6-1.6,3.3-2,6.8-4l3.3-1.9l-1-1.9c-1.3-2.6-4.7-6.1-7.4-7.6c-6.8-3.9-19.4-4.2-27-0.7c-2.8,1.3-6.2,4.3-8,7.1
		c-3.2,5-4.8,14.2-4.3,24.9c0.4,10.2,2,16,5.7,20.6c4.2,5.2,10.1,7.4,19.2,7.5C147.5,281,151.1,280.7,152.7,280.4z"/>
	<path fill="#FFFFFF" d="M213.7,280.4c8.8-1.9,13.9-6.9,16.3-16.1c0.7-2.6,1-5.6,1.2-11.2l0.2-7.6H203v10h15.1
		c0.1,2.9-0.6,5.8-1.7,8.5c-2.4,4.8-8.3,6.9-14.5,5c-3.7-1.1-6-4.1-7-9.2c-0.8-4.1-0.4-18.9,0.6-21.5c1.8-4.8,5-6.9,10.7-6.9
		c5.2,0,8.1,2.2,10.3,5.3l0.7,1.1l11.4-6.5l-1.1-2.2c-2.4-4.7-7.6-8.3-13.7-9.6c-3.8-0.8-12.1-0.7-15.9,0.2
		c-8.4,2-13.6,7.7-15.7,17.1c-1.1,5.1-1.1,21.7,0,26.6c2.3,9.6,7.6,15.2,16.4,17.1C202.4,281.2,209.8,281.2,213.7,280.4z"/>
	<path fill="#FFFFFF" d="M74.3,219.4v60.9h12.8v-19.8h6.7c7.3,0,11.6-0.7,14.7-2.3c4.2-2.2,7.1-5.9,8.5-11.2
		c0.8-3.2,1-11.3,0.3-14.5c-1.5-6.8-6.3-11.3-13.2-12.6c-1.4-0.3-8.6-0.5-16.1-0.5H74.3z M87.1,230.8h8.6c3.6,0,5.1,0.4,6.3,1.3
		c2.2,1.6,2.9,3.6,2.9,8c0,4.4-0.7,6.4-2.9,8c-1.1,0.8-3.5,1.3-6.3,1.3h-8.6V230.8z"/>
	<path fill="#FFFFFF" d="M246.7,219.4l-18.4,60.9h12.5l2.6-9.4h20.1l2.7,9.4h13.1l-18.7-60.9H246.7z M253.7,237.4
		L253.7,237.4l6.3,21.6l-13.2,0L253.7,237.4z"/>
	<polygon fill="#FFFFFF" points="293.3,243 305.3,280.3 313.6,280.3 325.5,242.1 325.8,280.3 338.1,280.3 338.1,219.4 
		321.8,219.4 309.9,257.9 298.1,219.4 281.5,219.4 281.8,280.3 292.9,280.3 	"/>
	<polygon fill="#FFFFFF" points="379.6,268.7 354.5,268.7 354.5,255 378.2,255 378.2,243.2 354.5,243.2 354.5,231.3 
		379.6,231.3 379.6,219.4 341.7,219.4 342,280.3 379.6,280.3 	"/>
	<path fill="#FFFFFF" d="M382.8,219.4l0,60.9h12.6l0.3-20.3h7.8l8.6,20.3h13.3l-9.1-21.9c8.8-6.1,9.7-11.8,9.5-22.8
		c-0.5-6.6-3-11.1-7.6-13.6c-4.1-2.2-7.1-2.6-21.8-2.6H382.8z M395.5,230.8h9.8c4.2,0,5.4,0.5,6.9,3.4c1.3,2.6,1.3,9,0,11.2
		c-1.5,2.7-3,3.2-6.9,3.2h-9.8V230.8z"/>
</g>
</svg>
